<svg width="96" height="96" viewBox="0 0 96 96" fill="none" xmlns="http://www.w3.org/2000/svg">
<g clip-path="url(#clip0_2952_112795)">
<path fill-rule="evenodd" clip-rule="evenodd" d="M8 32V48L24 54L66 40L56 30L32 24L8 32Z" fill="#FEFEFE"/>
<path d="M68 41.5843L54.6829 30.5376L30.8569 24L8 31.527" stroke="#070100" stroke-width="4"/>
<path fill-rule="evenodd" clip-rule="evenodd" d="M88 56.8486C88 45.803 79.0456 36.8486 68 36.8486C63.4999 36.8486 59.3473 38.3342 56.0059 40.8436C51.1448 44.4912 48 50.3031 48 56.8486C48 67.8942 56.9544 76.8486 68 76.8486C79.0456 76.8486 88 67.8942 88 56.8486" fill="#FFCC00"/>
<path d="M60 49.8486C60.5768 52.229 61.2005 54.6134 61.8734 56.9998C62.5463 59.3881 63.2919 61.6711 64.1036 63.8486L67.9701 50.5526H68L71.8964 63.8486C72.2574 62.8722 72.565 61.9057 72.973 60.7464C73.3789 59.589 73.7143 58.3858 74.071 57.141C74.4278 55.8961 74.7781 54.6233 75.0985 53.3944C75.4211 52.1495 75.7159 50.9702 76 49.8486" stroke="#070100" stroke-width="4" stroke-linejoin="round"/>
<path d="M56 56.8486H62" stroke="#070100" stroke-width="4"/>
<path d="M80 56.8486H74" stroke="#070100" stroke-width="4"/>
<path d="M88 56.8486C88 45.803 79.0456 36.8486 68 36.8486C63.4999 36.8486 59.3473 38.3342 56.0059 40.8436C51.1448 44.4912 48 50.3031 48 56.8486C48 67.8942 56.9544 76.8486 68 76.8486C75.1855 76.8486 81.4842 73.0616 85.0106 67.3731" stroke="#070100" stroke-width="4"/>
<path fill-rule="evenodd" clip-rule="evenodd" d="M36.3951 40L43.8381 43.1878L50.746 43.9282C53.7346 44.2491 56 46.7371 56 49.7045V50.5087L42.1449 54H24" fill="#FEFEFE"/>
<path d="M32 38L42 44H50C53.6985 44.0395 56 46.5824 56 50L42 54H23.4629L8 48.6096" stroke="#070100" stroke-width="4"/>
</g>
<defs>
<clipPath id="clip0_2952_112795">
<rect width="96" height="96" fill="white"/>
</clipPath>
</defs>
</svg>
