<svg width="96" height="96" viewBox="0 0 96 96" fill="none" xmlns="http://www.w3.org/2000/svg">
<g clip-path="url(#clip0_2952_112212)">
<path fill-rule="evenodd" clip-rule="evenodd" d="M52.3122 29.6608L54.8918 32.2383L32.2388 54.8906L29.6593 52.3131C27.2769 49.9267 23.4086 49.9267 21.0221 52.3131L15.7898 57.5452C13.4034 59.9316 13.4034 63.7978 15.7898 66.1842L29.8178 80.2117C32.2022 82.5961 36.0706 82.5961 38.455 80.2117L43.6893 74.9755C46.0737 72.5912 46.0737 68.725 43.6893 66.3387L41.1097 63.7612L63.7627 41.111L66.3402 43.6884C68.7246 46.0728 72.5929 46.0728 74.9774 43.6884L80.2117 38.4542C82.5961 36.0699 82.5961 32.2017 80.2117 29.8174L66.1837 15.7898C63.7972 13.4034 59.931 13.4034 57.5465 15.7898L52.3122 21.024C49.9278 23.4083 49.9278 27.2765 52.3122 29.6608" fill="#FFCC00"/>
<path d="M74.2379 23.8434L66.1841 15.7898C63.7976 13.4034 59.9313 13.4034 57.5469 15.7898L52.3125 21.024C49.9281 23.4084 49.9281 27.2746 52.3125 29.661L54.8901 32.2384L32.239 54.8888L29.6594 52.3114C27.275 49.927 23.4086 49.927 21.0222 52.3114L15.7898 57.5456C13.4034 59.9299 13.4034 63.7982 15.7898 66.1846L29.8159 80.2102C32.2024 82.5966 36.0707 82.5966 38.4531 80.2102L43.6895 74.976C46.074 72.5916 46.074 68.7254 43.6895 66.339L41.1099 63.7616L63.7631 41.1112L66.3406 43.6886C68.725 46.073 72.5914 46.073 74.9778 43.6886L80.2102 38.4544C82.5966 36.0701 82.5966 32.2018 80.2102 29.8175" stroke="#070100" stroke-width="4"/>
</g>
<defs>
<clipPath id="clip0_2952_112212">
<rect width="96" height="96" fill="white"/>
</clipPath>
</defs>
</svg>
