<svg width="96" height="96" viewBox="0 0 96 96" fill="none" xmlns="http://www.w3.org/2000/svg">
<g clip-path="url(#clip0_2952_113029)">
<path fill-rule="evenodd" clip-rule="evenodd" d="M84 48C84 28.1184 67.881 12 47.9988 12C28.1166 12 12 28.1184 12 48C12 67.8816 28.1166 84 47.9988 84C67.881 84 84 67.8816 84 48" fill="#FFCC00"/>
<path d="M81.179 65.9956C83.9198 60.849 85.4778 54.9756 85.4778 48.7389C85.4778 28.4493 69.0285 12 48.7389 12C28.4493 12 12 28.4493 12 48.7389C12 69.0285 28.4493 85.4778 48.7389 85.4778C56.1323 85.4778 63.0174 83.2927 68.7791 79.5355C69.9381 78.7779 71.052 77.9585 72.1184 77.0798" stroke="#070100" stroke-width="4"/>
<path d="M65 46C65 54.836 57.836 62 49 62C40.164 62 33 54.836 33 46" stroke="#070100" stroke-width="4"/>
<path fill-rule="evenodd" clip-rule="evenodd" d="M45 40C45 42.2084 43.2079 44 41 44C38.7899 44 37 42.2084 37 40C37 37.7894 38.7899 36 41 36C43.2079 36 45 37.7894 45 40" fill="#070100"/>
<path fill-rule="evenodd" clip-rule="evenodd" d="M61 40C61 42.2084 59.2079 44 57 44C54.7899 44 53 42.2084 53 40C53 37.7894 54.7899 36 57 36C59.2079 36 61 37.7894 61 40" fill="#070100"/>
</g>
<defs>
<clipPath id="clip0_2952_113029">
<rect width="96" height="96" fill="white"/>
</clipPath>
</defs>
</svg>
