<svg width="96" height="96" viewBox="0 0 96 96" fill="none" xmlns="http://www.w3.org/2000/svg">
<g clip-path="url(#clip0_2952_112679)">
<path fill-rule="evenodd" clip-rule="evenodd" d="M53.0991 55.6652L65.197 67.3563C67.5906 69.667 71.4048 69.6468 73.7718 67.3098L74.875 66.2222L80.8547 72L86 66.7458L47.3473 29.4001C42.0331 24.2652 34.2195 22.6297 27.271 25.1972L12 30.8395L15.344 39.7752L30.617 34.1308C34.0913 32.847 37.9991 33.6658 40.6552 36.2333L49.4885 44.7666L46.2727 48.7896" fill="#FFCC00"/>
<path d="M53.5026 56.7868L65.6369 69.2205C68.093 71.7372 72.0103 71.7152 74.4434 69.1699L75.5764 67.9853L81.7157 74.2782L87 68.5578L47.3027 27.881C41.8469 22.2906 33.8201 20.5071 26.6837 23.3034L11 29.4487L14.4365 39.1809L30.1202 33.0333C33.6884 31.6374 37.7018 32.5269 40.4297 35.3233L49.5017 44.6172L41.4268 54.6884C39.4263 57.1853 39.4535 60.847 41.4957 63.3086L41.7466 63.6125L53.5047 76L56.1322 74.2782" stroke="#070100" stroke-width="4"/>
<path fill-rule="evenodd" clip-rule="evenodd" d="M14 68C10.6881 68 8 65.2244 8 62C8 58.3757 11.1947 48 14 48C16.8053 48 20 58.3757 20 62C20 65.2244 17.3139 68 14 68Z" fill="#FFCC00"/>
<path fill-rule="evenodd" clip-rule="evenodd" d="M22 61.3333C22 65.2244 18.8662 68 15 68C11.1361 68 8 65.2244 8 61.3333C8 58.3757 11.7272 48 15 48C18.2728 48 22 58.3757 22 61.3333Z" stroke="#070100" stroke-width="4"/>
</g>
<defs>
<clipPath id="clip0_2952_112679">
<rect width="96" height="96" fill="white"/>
</clipPath>
</defs>
</svg>
