<svg width="96" height="96" viewBox="0 0 96 96" fill="none" xmlns="http://www.w3.org/2000/svg">
<g clip-path="url(#clip0_2952_112412)">
<path fill-rule="evenodd" clip-rule="evenodd" d="M81.3079 26C85.0025 26 88 28.9935 88 32.688V39.7322C83.9825 39.7322 80.7267 42.9861 80.7267 47.0011C80.7267 51.0139 83.9825 54.2678 88 54.2678V68H14.6921C10.9975 68 8 65.0065 8 61.3142V54.2678C12.0175 54.2678 15.2733 51.0139 15.2733 47.0011C15.2733 42.9861 12.0175 39.7322 8 39.7322V26H81.3079Z" fill="#FFCC00"/>
<path fill-rule="evenodd" clip-rule="evenodd" d="M46 40.9277H40.9185V58H37.1588V40.9277H32V38H46V40.9277Z" fill="#070100"/>
<path d="M79.2747 26H81.3079C85.0025 26 88 29.136 88 33.0065V40.3861C83.9825 40.3861 80.7267 43.7949 80.7267 48.0012C80.7267 52.2051 83.9825 55.6139 88 55.6139V70H14.6921C10.9975 70 8 66.864 8 62.9958V55.6139C12.0175 55.6139 15.2733 52.2051 15.2733 48.0012C15.2733 43.7949 12.0175 40.3861 8 40.3861V26L68.0897 26V33.5591" stroke="#070100" stroke-width="4"/>
<path d="M68 38V46" stroke="#070100" stroke-width="4"/>
<path d="M68 50V58" stroke="#070100" stroke-width="4"/>
<path d="M68 62V70" stroke="#070100" stroke-width="4"/>
</g>
<defs>
<clipPath id="clip0_2952_112412">
<rect width="96" height="96" fill="white"/>
</clipPath>
</defs>
</svg>
