<svg width="96" height="96" viewBox="0 0 96 96" fill="none" xmlns="http://www.w3.org/2000/svg">
<g clip-path="url(#clip0_2952_112164)">
<path fill-rule="evenodd" clip-rule="evenodd" d="M34 30L80 20.3746V15.9745C80 10.9163 75.3335 7.13462 70.3692 8.17227L34 15.7834V30Z" fill="#FFCC00"/>
<path fill-rule="evenodd" clip-rule="evenodd" d="M34 77.6955C33.9391 79.1433 33.8624 81.2921 33.0422 83.4272C32.0765 85.9386 30.0843 88.4283 25.8854 89.7327C19.5594 90.8557 15.9691 88.2957 14.6065 84.7614C13.1698 81.0268 14.0641 76.015 19.6996 71.9151C24.3958 69.2306 30.3515 69.8259 34 70.9436V77.6955Z" fill="#FFCC00"/>
<path fill-rule="evenodd" clip-rule="evenodd" d="M80 67.6949C79.9392 69.1428 79.8598 71.2916 79.0396 73.4269C78.074 75.9384 76.0845 78.4309 71.8833 79.7326C65.5602 80.8558 61.9675 78.2956 60.6076 74.7611C59.1684 71.0264 60.0653 66.0142 65.6978 61.9142C70.3964 59.2295 76.3491 59.8276 80 60.9426V67.6949Z" fill="#FFCC00"/>
<path d="M80 69.416C79.4494 72.5632 77.4758 76.3579 71.8395 78.0714C65.4825 79.1746 61.8704 76.6564 60.5032 73.1761C59.0562 69.496 60.5883 63.4948 65.6208 60.5262C70.6532 57.5549 76.3294 58.4689 80 59.5695V16.0076C80 10.9284 75.3319 7.13103 70.366 8.17298L33.9843 15.8157V69.2348C30.3164 68.1343 24.4008 67.3535 19.6077 70.1915C14.8147 73.0296 13.0432 79.164 14.4902 82.8414C15.8573 86.3217 19.4694 88.8426 25.8265 87.7367C31.4601 86.0206 33.4364 82.2285 33.9843 79.0787" stroke="#070100" stroke-width="4"/>
<path d="M80 20L44.957 28.2454" stroke="#070100" stroke-width="4"/>
</g>
<defs>
<clipPath id="clip0_2952_112164">
<rect width="96" height="96" fill="white"/>
</clipPath>
</defs>
</svg>
