<svg width="96" height="96" viewBox="0 0 96 96" fill="none" xmlns="http://www.w3.org/2000/svg">
<g clip-path="url(#clip0_2952_112637)">
<path fill-rule="evenodd" clip-rule="evenodd" d="M68 29C68 40.5987 58.597 50 47.0011 50C35.403 50 26 40.5987 26 29C26 17.4013 35.403 8 47.0011 8C58.597 8 68 17.4013 68 29" fill="#FFCC00"/>
<path fill-rule="evenodd" clip-rule="evenodd" d="M42.7471 38.1599H52.252V19.3999H42.7471V38.1599Z" fill="#FEFEFE"/>
<path d="M48 88V52.7212V50.4856C35.849 50.4856 26 40.9739 26 29.2417C26 17.5095 35.849 8 48 8C60.151 8 70 17.5095 70 29.2417C70 36.3144 66.3083 42.4347 60.9153 46.4407C60.3751 46.8432 59.7767 47.2133 59.1692 47.5466" stroke="#070100" stroke-width="4"/>
<path fill-rule="evenodd" clip-rule="evenodd" d="M52.3076 33.0083C52.3076 32.4372 52.1748 31.9375 51.9137 31.5134C51.6505 31.0872 51.3009 30.7365 50.8629 30.4594C50.4248 30.1822 49.9226 29.9744 49.3584 29.8358C48.7943 29.6972 48.2102 29.6279 47.6062 29.6279H44.7456V36.5C45.2899 36.5735 45.7677 36.626 46.177 36.6533C46.5841 36.6806 47.0819 36.6932 47.6637 36.6932C48.3474 36.6932 48.9691 36.6302 49.5332 36.5C50.0974 36.372 50.5863 36.1578 50.9934 35.8618C51.4027 35.5678 51.7235 35.1836 51.958 34.7133C52.1903 34.2408 52.3076 33.6739 52.3076 33.0083V33.0083ZM47.0531 26.6628C47.6372 26.6628 48.1814 26.5935 48.6859 26.455C49.1947 26.3164 49.635 26.1127 50.0155 25.8461C50.396 25.5773 50.6947 25.2603 50.9204 24.8886C51.146 24.5212 51.2567 24.095 51.2567 23.6141C51.2567 23.1165 51.1505 22.6861 50.9359 22.3271C50.7213 21.9659 50.4381 21.672 50.0885 21.4389C49.739 21.208 49.3297 21.0379 48.8629 20.9266C48.3938 20.8153 47.9093 20.7607 47.4027 20.7607C46.7788 20.7607 46.25 20.8027 45.8098 20.8867C45.3739 20.9686 45.0177 21.0484 44.7456 21.1198V26.6628H47.0531ZM52.5708 27.8829C53.1349 28.0299 53.6592 28.2567 54.1482 28.5611C54.6349 28.8656 55.0508 29.2414 55.4026 29.6844C55.7544 30.1254 56.0309 30.6398 56.2345 31.2214C56.438 31.803 56.542 32.4266 56.542 33.0921C56.542 34.0328 56.3562 34.9062 55.9867 35.7104C55.6172 36.5125 55.0464 37.2158 54.2787 37.8163C53.5088 38.4168 52.5398 38.8871 51.3739 39.2294C50.2057 39.5695 48.823 39.7417 47.2278 39.7417C46.8761 39.7417 46.4292 39.7291 45.8849 39.7018C45.3407 39.6724 44.7566 39.6409 44.1327 39.6031C43.5088 39.5674 42.8871 39.517 42.2632 39.4499C41.6415 39.3869 41.0663 39.3071 40.542 39.2147V19.1275C41.0663 18.9238 41.6216 18.739 42.2057 18.5732C42.7898 18.4052 43.3827 18.2582 43.9867 18.1301C44.5907 18 45.1725 17.9034 45.7389 17.8383C46.3031 17.7732 46.8362 17.7417 47.3451 17.7417C48.5508 17.7417 49.6548 17.874 50.6592 18.1427C51.6615 18.4094 52.5177 18.7936 53.2278 19.2933C53.938 19.7909 54.4911 20.3977 54.8916 21.1074C55.292 21.8192 55.4889 22.6171 55.4889 23.5052C55.4889 24.0217 55.4115 24.5109 55.2566 24.9729C55.1017 25.4348 54.8915 25.8547 54.6305 26.2326C54.3672 26.6127 54.0597 26.9402 53.7101 27.2174C53.3606 27.4945 52.98 27.715 52.5708 27.8829V27.8829Z" fill="#070100"/>
<path d="M34 88H62" stroke="#070100" stroke-width="4"/>
</g>
<defs>
<clipPath id="clip0_2952_112637">
<rect width="96" height="96" fill="white"/>
</clipPath>
</defs>
</svg>
