<svg width="96" height="96" viewBox="0 0 96 96" fill="none" xmlns="http://www.w3.org/2000/svg">
<g clip-path="url(#clip0_2952_112151)">
<path fill-rule="evenodd" clip-rule="evenodd" d="M61.2697 73.5467H66.3782V45.815C70.575 41.0127 72.7464 34.5032 71.7674 27.7125C69.98 15.2939 58.2091 5.80523 45.906 8.44294C44.7361 8.69288 31.5528 21.4173 25.3372 27.467C23.5633 29.192 23.5543 32.0194 25.3103 33.7623L28.2878 36.7236C30.0303 38.453 32.332 38.5445 35.0108 36.7236C35.0108 36.7236 40.1463 33.3182 41.9988 32.2158C44.1545 33.8337 46.8177 34.8134 49.7121 34.8825L50.0894 37.4979C37.317 44.5296 30.0685 58.6063 33.2346 73.5467H38.7182V82.3256H36.0325C32.305 82.3256 29.2848 85.3271 29.2848 89.0315V90H70.7008V89.0315C70.7008 85.3271 67.6806 82.3256 63.9553 82.3256H61.2697V73.5467Z" fill="#FFCC00"/>
<path d="M66.3781 60.8811V44.9229C70.575 40.2318 72.7465 33.8781 71.7674 27.2456C69.9799 15.1223 58.2088 5.85545 45.9076 8.43308C44.7355 8.67711 31.5541 21.0968 25.3384 27.0059C23.5644 28.6902 23.5532 31.4509 25.3092 33.1548L28.289 36.044C30.0293 37.7348 32.331 37.8241 35.01 36.044C35.01 36.044 40.1456 32.7212 41.9981 31.6426C44.1539 33.2223 46.8193 34.1788 49.7116 34.2486L50.0889 36.8C37.3162 43.6657 30.0675 57.4123 33.2337 72H44.4772H51.5305H66.3781" stroke="#070100" stroke-width="4"/>
<path fill-rule="evenodd" clip-rule="evenodd" d="M59.8913 80.5371V72H38.1108V80.5371H35.517C31.9169 80.5371 29 83.4559 29 87.0582V88H69V87.0582C69 83.4559 66.0831 80.5371 62.4851 80.5371H59.8913Z" stroke="#070100" stroke-width="4"/>
</g>
<defs>
<clipPath id="clip0_2952_112151">
<rect width="96" height="96" fill="white"/>
</clipPath>
</defs>
</svg>
