<svg width="97" height="96" viewBox="0 0 97 96" fill="none" xmlns="http://www.w3.org/2000/svg">
<g clip-path="url(#clip0_2952_112260)">
<path fill-rule="evenodd" clip-rule="evenodd" d="M37.3445 79.8369H25.8574V7.83691H67.1339C70.8481 7.83691 73.8574 10.7249 73.8574 14.2893V79.8369H68.3264" fill="#FFCC00"/>
<path d="M24.0205 80V8H65.297C69.0089 8 72.0205 10.888 72.0205 14.4523V80" stroke="#070100" stroke-width="4"/>
<path fill-rule="evenodd" clip-rule="evenodd" d="M60.0205 56V26H59.2658C57.4666 26 55.9163 27.3269 55.5634 29.17L52.0936 47.2686C51.802 48.7981 52.3976 50.3661 53.6154 51.2663L54.8352 52.1708" fill="#FEFEFE"/>
<path d="M60.0205 88V26H59.2658C57.4666 26 55.9163 27.3235 55.5634 29.164L52.0936 47.2164C51.802 48.742 52.3976 50.3059 53.6154 51.2039L54.8352 52.1039" stroke="#070100" stroke-width="4" stroke-linecap="square"/>
<path fill-rule="evenodd" clip-rule="evenodd" d="M40.375 53.1841C40.375 53.1841 39.6192 52.2232 38.6166 51.9353C37.6118 51.6454 34.2445 49.9638 34.0431 47.0812C33.8418 44.1985 35.0501 28 35.0501 28H36.5573H39.6366H42.4842H45.5158H46.8108L47.861 44.9647C47.861 44.9647 48.4305 47.2261 47.4171 48.6675C46.4037 50.1088 43.1381 52.656 40.7778 54C40.7778 54 40.6803 53.5175 40.375 53.1841" fill="#FEFEFE"/>
<path d="M35.0828 28L34.0291 44.4074C34.0291 44.4074 33.8496 49.9241 37.4132 51.3894C40.2666 52.5626 40.0543 59.6551 39.9897 63.3548C39.925 67.0545 39.8167 88 39.8167 88" stroke="#070100" stroke-width="4" stroke-linecap="square"/>
<path d="M40.0205 28V44" stroke="#070100" stroke-width="4" stroke-linecap="square"/>
<path d="M45.0024 28L45.865 43.269C45.865 43.269 46.2413 49.183 44.0205 50" stroke="#070100" stroke-width="4" stroke-linecap="square"/>
</g>
<defs>
<clipPath id="clip0_2952_112260">
<rect width="96" height="96" fill="white" transform="translate(0.0205078)"/>
</clipPath>
</defs>
</svg>
