<svg width="96" height="96" viewBox="0 0 96 96" fill="none" xmlns="http://www.w3.org/2000/svg">
<g clip-path="url(#clip0_2952_112111)">
<path fill-rule="evenodd" clip-rule="evenodd" d="M33.1416 65.1822L26.6971 78.0293H29.3265C31.2262 78.0293 33.0405 77.2068 34.3182 75.7645L39.8758 69.4953H55.7782L60.0401 75.2806C61.3133 77.0109 63.3072 78.0293 65.4202 78.0293H67.7061L61.4143 61.9727L63.0445 55.7819L69.5788 57.1182L69.846 56.4086C70.8093 53.8672 69.635 50.8467 67.7712 48.9067L63.9337 45.9461L62.6246 42.0293L57.5723 45.8493L51.3973 54.5377H38.2725C36.7164 54.5377 35.2074 55.0884 34.0038 56.0998L29.3176 60.0281L22.1904 63.2929L33.1416 65.1822Z" fill="#FFCC00"/>
<path d="M33.5077 65.1529L27.16 78H29.7499C31.6211 78 33.4082 77.1775 34.6666 75.7352L40.1407 69.466H55.8042L60.0021 75.2513C61.2562 76.9816 63.2202 78 65.3014 78H67.553L61.3557 61.9434L62.9614 55.7526L69.3976 57.0889L69.6608 56.3793C70.6096 53.838 69.4529 50.8174 67.6171 48.8774L63.8373 45.9168L62.5478 42L57.5714 45.82L51.4891 54.5084H38.5615C37.0288 54.5084 35.5425 55.0591 34.357 56.0705L29.7411 59.9988L22 63.6" stroke="#070100" stroke-width="4"/>
<path d="M48 70V88" stroke="#070100" stroke-width="4"/>
<path d="M82 88H14" stroke="#070100" stroke-width="4"/>
<path fill-rule="evenodd" clip-rule="evenodd" d="M10 22.3893C10 29.9039 15.523 35.9932 22.3337 35.9932C29.1444 35.9932 34.6674 29.9039 34.6674 22.3893C34.6674 29.9039 40.1882 35.9932 47.0011 35.9932C53.8118 35.9932 59.3326 29.9039 59.3326 22.3893C59.3326 29.9039 64.8556 35.9932 71.6663 35.9932C78.477 35.9932 84 29.9039 84 22.3893V21.6878L48.1881 7.99316L10 21.6878V22.3893Z" fill="#FFCC00"/>
<path fill-rule="evenodd" clip-rule="evenodd" d="M36.0087 23.2401C35.7477 31.7374 41.3786 36 48.0055 36C54.6301 36 60 30.2885 60 23.2401C50.1771 10.5945 48.0055 8 48.0055 8C48.0055 8 46.2001 9.71952 36.0087 23.2401" fill="#FEFEFE"/>
<path d="M48 54V36" stroke="#070100" stroke-width="4"/>
<path fill-rule="evenodd" clip-rule="evenodd" d="M10 23.1605C10 30.2529 15.6723 36 22.6671 36C29.6618 36 35.3341 30.2529 35.3341 23.1605C35.3341 30.2529 41.0041 36 48.0012 36C54.9959 36 60.6659 30.2529 60.6659 23.1605C60.6659 30.2529 66.3382 36 73.3329 36C80.3277 36 86 30.2529 86 23.1605V22.4985L47.9368 8L10 22.4985V23.1605Z" stroke="#070100" stroke-width="4"/>
</g>
<defs>
<clipPath id="clip0_2952_112111">
<rect width="96" height="96" fill="white"/>
</clipPath>
</defs>
</svg>
