<svg width="96" height="96" viewBox="0 0 96 96" fill="none" xmlns="http://www.w3.org/2000/svg">
<g clip-path="url(#clip0_2952_112819)">
<path fill-rule="evenodd" clip-rule="evenodd" d="M55.6722 12H36.2871L31 22.6016L43.2243 36H52.9125L65 22.6016L61.5108 15.6098C60.4078 13.3984 58.1475 12 55.6722 12" fill="#FFCC00"/>
<path d="M31.44 35.2749C25.0336 40.2988 20.9296 48.1689 21.0009 57.0037C21.1154 71.3327 32.7101 83.4166 46.914 83.9785C62.3189 84.5882 75 72.1755 75 56.7772C75 45.0309 67.6194 35.0201 57.2775 31.2049L52.8885 36.109H43.2485L31.0879 22.651L36.3496 12H55.6338C58.094 12 60.3446 13.4046 61.4419 15.6258L64.751 22.3243V22.651H40.0108" stroke="#070100" stroke-width="4"/>
</g>
<defs>
<clipPath id="clip0_2952_112819">
<rect width="96" height="96" fill="white"/>
</clipPath>
</defs>
</svg>
