<svg width="96" height="96" viewBox="0 0 96 96" fill="none" xmlns="http://www.w3.org/2000/svg">
<g clip-path="url(#clip0_2952_112809)">
<path fill-rule="evenodd" clip-rule="evenodd" d="M8 32V48L24 54L66 40L56 30L32 24L8 32Z" fill="#FEFEFE"/>
<path d="M68 41.5843L54.6829 30.5376L30.8569 24L8 31.527" stroke="#070100" stroke-width="4"/>
<path fill-rule="evenodd" clip-rule="evenodd" d="M86 42C80.957 39.0124 74.3326 39.0124 70 42V44L68 42C63.6662 39.0124 57.0418 39.0124 52 42C48.9476 46.913 49.3453 52.9104 52 58C57.7384 67.6655 68.9883 71.9961 68 72V72H70V72C69.0125 71.9961 80.2604 67.6655 86 58C88.6534 52.9104 89.0532 46.913 86 42" fill="#FFCC00"/>
<path d="M80.4461 64.1307C82.4389 62.144 84.3509 59.7574 85.8531 56.9501C88.6534 51.7164 89.0532 45.3439 85.0051 41.1465C80.957 36.9512 74.3346 36.9512 70.2865 41.1465L69.0004 42.4821L67.7143 41.1465C63.6662 36.9512 57.0418 36.9512 52.9957 41.1465C48.9476 45.3439 49.3453 51.7164 52.1477 56.9501C57.7384 67.3965 68.9883 71.9958 69.0004 72C69.0004 72 71.1284 71.1312 73.9873 69.2931" stroke="#070100" stroke-width="4"/>
<path fill-rule="evenodd" clip-rule="evenodd" d="M34.3951 38L41.8381 41.1878L48.746 41.9282C51.7346 42.2491 54 44.7371 54 47.7045V48.5087L40.1449 52H22" fill="#FEFEFE"/>
<path d="M32 38L42 44H50C53.6985 44.0395 56 46.5824 56 50L42 54H23.4629L8 48.6096" stroke="#070100" stroke-width="4"/>
</g>
<defs>
<clipPath id="clip0_2952_112809">
<rect width="96" height="96" fill="white"/>
</clipPath>
</defs>
</svg>
