<svg width="96" height="96" viewBox="0 0 96 96" fill="none" xmlns="http://www.w3.org/2000/svg">
<g clip-path="url(#clip0_2952_112172)">
<path fill-rule="evenodd" clip-rule="evenodd" d="M46 24.207V8H52.6019C52.9282 14.0274 61.8295 24.8033 66.3686 30.2727C71.9865 37.028 73.0702 42.44 71.0746 50.1436C69.7892 55.0862 64.2087 59.3654 63.6307 60C63.2894 59.6504 62.0488 58.4076 62.0488 58.4076C62.0488 58.4076 64.6247 53.9726 65.0308 48.4961C65.9651 35.9121 51.6975 27.4734 51.1893 27.2411L46 24.207Z" fill="#FFCC00"/>
<path fill-rule="evenodd" clip-rule="evenodd" d="M46 74.4648C45.9343 76.0569 45.8492 78.4202 44.9445 80.7685C43.8841 83.5323 41.6929 86.2736 37.072 87.7065C30.1165 88.9404 26.1644 86.1244 24.6687 82.2387C23.0855 78.1291 24.0705 72.614 30.2672 68.1064C35.4353 65.1511 41.9847 65.8104 46 67.0393V74.4648Z" fill="#FFCC00"/>
<path d="M46.2332 76.2445C46.0776 81.5114 43.4285 85.8107 37.1697 87.7087C30.1086 88.9328 26.0966 86.1414 24.5782 82.2839C22.9709 78.2066 24.6671 71.5058 30.2617 68.2628C35.8587 65.0197 42.157 65.9848 46.2332 67.204V8H52.7758C53.0993 14.2097 61.9208 25.316 66.4191 30.953C71.9866 37.9154 73.0606 43.4933 71.083 51.433C69.809 56.5271 64.2786 60.9376 63.7058 61.5916C63.3675 61.2313 62.138 59.9503 62.138 59.9503C62.138 59.9503 64.6909 55.3795 65.0933 49.735C65.7278 40.8277 59.2617 33.9369 54.9831 30.4174" stroke="#070100" stroke-width="4"/>
</g>
<defs>
<clipPath id="clip0_2952_112172">
<rect width="96" height="96" fill="white"/>
</clipPath>
</defs>
</svg>
