<svg width="96" height="96" viewBox="0 0 96 96" fill="none" xmlns="http://www.w3.org/2000/svg">
<g clip-path="url(#clip0_2952_112400)">
<path fill-rule="evenodd" clip-rule="evenodd" d="M35.9527 68.5567L55.177 48.8508L73.0991 81.8542L76.9114 77.0966C78.2866 75.378 78.7693 73.0874 78.2089 70.9415L68.0034 35.7006L79.9562 23.4507C82.1555 21.1963 82.7089 17.607 80.9805 14.9543C78.661 11.3964 73.862 11.0512 71.0598 13.9236L58.8881 26.4004L24.2589 16.0091C22.1349 15.4346 19.872 15.9584 18.1977 17.4139L13.8862 21.1552L46.0829 39.5264L26.7149 59.3772L19.4199 57.4003C17.2299 56.8065 14.894 57.3858 13.208 58.9403L12 60.0531L35.3616 84L36.4001 82.7883C37.966 80.9683 38.5406 78.4628 37.9283 76.1191L35.9527 68.5567Z" fill="#FFCC00"/>
<path d="M39.9755 76.3049L37.9527 68.5567L57.1771 48.8508L75.0992 81.8542L78.9092 77.0966C80.2844 75.378 80.7671 73.0874 80.2091 70.9415L70.0035 35.7006L81.9539 23.4507C84.1557 21.1963 84.709 17.607 82.9806 14.9543C80.6588 11.3964 75.8598 11.0512 73.06 13.9236L60.8882 26.4004L26.2589 16.0115C24.1326 15.4346 21.872 15.9608 20.1978 17.4139L15.8862 21.1552L22.1687 24.7421L36.0171 32.6448L48.0806 39.5264L28.715 59.3772L21.6036 57.451C19.2982 56.8258 16.8375 57.4341 15.0644 59.0706L14 60.0531L37.3617 84" stroke="#070100" stroke-width="4"/>
</g>
<defs>
<clipPath id="clip0_2952_112400">
<rect width="96" height="96" fill="white"/>
</clipPath>
</defs>
</svg>
