<svg width="96" height="96" viewBox="0 0 96 96" fill="none" xmlns="http://www.w3.org/2000/svg">
<g clip-path="url(#clip0_2952_112476)">
<path fill-rule="evenodd" clip-rule="evenodd" d="M66 45C66 46.656 64.6583 48 63 48C61.344 48 60 46.656 60 45C60 43.3417 61.344 42 63 42C64.6583 42 66 43.3417 66 45" fill="#070100"/>
<path fill-rule="evenodd" clip-rule="evenodd" d="M56 24.9988C56 16.714 49.2837 10 41.0012 10C32.7163 10 26 16.714 26 24.9988C26 27.0695 26.4188 29.043 27.1776 30.8383C29.4565 36.2219 34.7869 40 41.0012 40C48.7308 40 55.0931 34.1513 55.9121 26.6392C55.9699 26.1001 56 25.5541 56 24.9988" fill="#FFCC00"/>
<path d="M33.4404 11.5723C35.4901 10.5656 37.7927 10 40.2289 10C48.7712 10 55.6982 16.9578 55.6982 25.5406C55.6982 26.0895 55.6695 26.6335 55.6147 27.168C55.6123 27.192 55.6003 27.2591 55.6003 27.2591L66.4286 20.8909V34.3775C71.2629 37.7401 74.8301 42.1573 76.5529 47.1738H84V59.0521H77.0922C76.1974 62.6113 74.3863 65.9164 71.8451 68.8069V84H67.8316C63.8396 84 60.5945 80.9393 60.2056 77.0326C55.3617 79.113 49.7949 80.3018 43.8678 80.3018C35.9625 80.3018 28.7039 78.1807 22.9414 74.6478L18.6202 82.9071H17.7111C12.1562 82.9071 8.42664 77.1788 10.6553 72.0665L13.5449 65.6456C11.2972 62.1248 10.0015 58.1701 10.0015 53.9734C10.0015 44.5229 16.3295 36.2709 25.9527 31.626L25.9742 31.59C25.1892 29.7301 24.7573 27.6857 24.7573 25.5406C24.7573 23.64 25.0532 21.8017 25.7189 20.1335C25.9861 19.4624 26.4013 18.5636 26.4013 18.5636" stroke="#070100" stroke-width="4"/>
<path fill-rule="evenodd" clip-rule="evenodd" d="M55.0727 34.2723C52.1301 33.6239 49.0355 33.2534 45.8221 33.2534C38.6496 33.2534 32.002 34.9872 26.5371 37.9417L33.5932 46.2969L49.7052 43.9409L55.0727 34.2723Z" fill="#FEFEFE"/>
</g>
<defs>
<clipPath id="clip0_2952_112476">
<rect width="96" height="96" fill="white"/>
</clipPath>
</defs>
</svg>
