<svg width="96" height="96" viewBox="0 0 96 96" fill="none" xmlns="http://www.w3.org/2000/svg">
<g clip-path="url(#clip0_2952_112746)">
<path fill-rule="evenodd" clip-rule="evenodd" d="M86 48C86 68.9888 68.9862 86 48 86C27.0112 86 10 68.9888 10 48C10 27.0138 27.0112 10 48 10V42C48 45.3137 50.6863 48 54 48H86Z" fill="#FFCC00"/>
<path fill-rule="evenodd" clip-rule="evenodd" d="M48 10C68.9868 10 86 27.0132 86 48H56C51.5817 48 48 44.4183 48 40V10Z" fill="white"/>
<path d="M61.524 12.4764C76.808 18.2992 87.3652 33.7034 85.8567 51.3477C84.3306 69.1605 70.1554 83.7627 52.3873 85.7539C29.435 88.3234 10 70.4302 10 47.9989C10 27.0108 27.0112 10 48 10V40.4439C48 44.6174 51.3816 47.9989 55.5527 47.9989H75.2819" stroke="#070100" stroke-width="4"/>
</g>
<defs>
<clipPath id="clip0_2952_112746">
<rect width="96" height="96" fill="white"/>
</clipPath>
</defs>
</svg>
