<svg width="96" height="96" viewBox="0 0 96 96" fill="none" xmlns="http://www.w3.org/2000/svg">
<g clip-path="url(#clip0_2952_112015)">
<path fill-rule="evenodd" clip-rule="evenodd" d="M56.2586 41.0138L68 32.9862H53.4851L49 20L44.5149 32.9862H30L41.7437 41.0138L37.2563 54L49 45.9746L60.7437 54L56.2586 41.0138Z" fill="#FFCC00"/>
<path d="M36.2698 55.6706L40.7532 42.3093L29 34.09L29.0138 34.0498H43.5235L47.9931 20.6885H48.0184L52.4765 34.0498H66.9862L67 34.09L55.2491 42.3093L59.7325 55.6706L59.6957 55.6929L48.0069 47.4134H47.9931V90.6885" stroke="#070100" stroke-width="4"/>
<path d="M48 12V6" stroke="#070100" stroke-width="4"/>
<path d="M15.4912 28.1289L21.1979 29.9818" stroke="#070100" stroke-width="4"/>
<path d="M28 66.8541L32.8 62" stroke="#070100" stroke-width="4"/>
<path d="M31.3059 15.6497L28.4614 10.9092L34.4614 20.9092" stroke="#070100" stroke-width="4"/>
<path d="M18.7392 50.1032L14 52L24 48" stroke="#070100" stroke-width="4"/>
<path d="M82.5088 28.1289L76.8021 29.9818" stroke="#070100" stroke-width="4"/>
<path d="M70 66.8541L65.2 62" stroke="#070100" stroke-width="4"/>
<path d="M66.6941 15.6497L69.5386 10.9092L63.5386 20.9092" stroke="#070100" stroke-width="4"/>
<path d="M79.2608 50.1032L84 52L74 48" stroke="#070100" stroke-width="4"/>
</g>
<defs>
<clipPath id="clip0_2952_112015">
<rect width="96" height="96" fill="white"/>
</clipPath>
</defs>
</svg>
