<svg width="96" height="96" viewBox="0 0 96 96" fill="none" xmlns="http://www.w3.org/2000/svg">
<g clip-path="url(#clip0_2952_112825)">
<path fill-rule="evenodd" clip-rule="evenodd" d="M22.732 14L19 21.067L27.6281 30H34.4662L43 21.067L39.2657 14H22.732Z" fill="#FFCC00"/>
<path d="M27.7273 30L19 20.8571L23.3636 14H38.6364L43 20.8571" stroke="#070100" stroke-width="4"/>
<path d="M42.9091 75.8182C39.2372 77.1559 35.7194 78 32 78C18.7462 78 8 67.2556 8 54C8 40.7444 18.7462 30 32 30C45.256 30 56 40.7444 56 54C56 59.2404 54.3231 64.0876 51.6364 67.0909" stroke="#070100" stroke-width="4"/>
<path d="M53.0909 32.1818C56.3146 30.9548 60.0449 30 64 30C77.2543 30 88 40.744 88 54C88 67.2538 77.2543 78 64 78C50.7457 78 40 67.2538 40 54C40 48.6524 41.75 43.7146 44.3636 38.7273" stroke="#070100" stroke-width="4"/>
</g>
<defs>
<clipPath id="clip0_2952_112825">
<rect width="96" height="96" fill="white"/>
</clipPath>
</defs>
</svg>
