<svg width="96" height="96" viewBox="0 0 96 96" fill="none" xmlns="http://www.w3.org/2000/svg">
<g clip-path="url(#clip0_2952_112508)">
<path fill-rule="evenodd" clip-rule="evenodd" d="M80 70V33.6917C80 29.4427 76.8679 26 73.0076 26H8V62.3109C8 66.5573 11.1297 70 14.9924 70H80Z" fill="#FFCC00"/>
<path d="M68.0306 70H14.9922C11.1296 70 8 66.5573 8 62.3109V26H73.0078C76.868 26 80 29.4427 80 33.6917V43.1431" stroke="#070100" stroke-width="3.5"/>
<path fill-rule="evenodd" clip-rule="evenodd" d="M16 42H46V34H16V42Z" fill="#FEFEFE"/>
<mask id="path-4-outside-1_2952_112508" maskUnits="userSpaceOnUse" x="56" y="50.905" width="34" height="27" fill="black">
<rect fill="white" x="56" y="50.905" width="34" height="27"/>
<path fill-rule="evenodd" clip-rule="evenodd" d="M70.054 73.5247L72.9886 63.6837L75.947 73.5283C76.4794 75.3002 79.0952 75.384 79.7525 73.6502C79.7698 73.6045 79.7785 73.5817 79.7871 73.5588C79.7956 73.5361 79.8042 73.5133 79.8212 73.4678C79.9481 73.1288 80.0755 72.7768 80.2208 72.3653C80.2159 72.3792 80.8896 70.4478 81.1085 69.841C81.4615 68.8594 81.7626 67.9013 82.2069 66.3925C82.2589 66.2158 82.3322 65.9657 82.4457 65.5786L82.5153 65.3412C82.6003 65.052 82.6845 64.7634 82.7677 64.476H87V60.6836H83.8244C84.0027 60.0121 84.1811 59.3308 84.3966 58.501C84.4378 58.3424 84.5392 57.9509 84.645 57.5421C84.7657 57.0762 84.8922 56.5878 84.9419 56.3965L81.058 55.4896C81.0079 55.6826 80.8805 56.1741 80.7595 56.6414C80.654 57.0486 80.5533 57.4374 80.5125 57.5946C80.2936 58.4379 80.1135 59.1254 79.9337 59.8021C79.5492 61.24 79.1182 62.7711 78.6621 64.3234L78.5936 64.5568C78.4788 64.9483 78.4057 65.1976 78.3541 65.3729C78.2269 65.8052 78.1123 66.1889 78.0056 66.5383L74.9234 56.2817C74.6786 55.4669 73.8935 54.905 72.9626 54.905C72.0675 54.905 71.2815 55.4688 71.038 56.2853L67.9839 66.5269C67.7389 65.746 67.5011 64.9568 67.2707 64.1592C66.4417 61.2922 65.6672 58.4084 64.9467 55.5083L61.0532 56.3779C61.4108 57.817 61.7815 59.2523 62.1653 60.6836H59V64.476H63.2158C63.2811 64.7046 63.3469 64.9331 63.4129 65.1615C64.2615 68.0989 65.2081 70.9315 66.2491 73.6549C66.9111 75.3865 69.5255 75.297 70.054 73.5247Z"/>
</mask>
<path fill-rule="evenodd" clip-rule="evenodd" d="M70.054 73.5247L72.9886 63.6837L75.947 73.5283C76.4794 75.3002 79.0952 75.384 79.7525 73.6502C79.7698 73.6045 79.7785 73.5817 79.7871 73.5588C79.7956 73.5361 79.8042 73.5133 79.8212 73.4678C79.9481 73.1288 80.0755 72.7768 80.2208 72.3653C80.2159 72.3792 80.8896 70.4478 81.1085 69.841C81.4615 68.8594 81.7626 67.9013 82.2069 66.3925C82.2589 66.2158 82.3322 65.9657 82.4457 65.5786L82.5153 65.3412C82.6003 65.052 82.6845 64.7634 82.7677 64.476H87V60.6836H83.8244C84.0027 60.0121 84.1811 59.3308 84.3966 58.501C84.4378 58.3424 84.5392 57.9509 84.645 57.5421C84.7657 57.0762 84.8922 56.5878 84.9419 56.3965L81.058 55.4896C81.0079 55.6826 80.8805 56.1741 80.7595 56.6414C80.654 57.0486 80.5533 57.4374 80.5125 57.5946C80.2936 58.4379 80.1135 59.1254 79.9337 59.8021C79.5492 61.24 79.1182 62.7711 78.6621 64.3234L78.5936 64.5568C78.4788 64.9483 78.4057 65.1976 78.3541 65.3729C78.2269 65.8052 78.1123 66.1889 78.0056 66.5383L74.9234 56.2817C74.6786 55.4669 73.8935 54.905 72.9626 54.905C72.0675 54.905 71.2815 55.4688 71.038 56.2853L67.9839 66.5269C67.7389 65.746 67.5011 64.9568 67.2707 64.1592C66.4417 61.2922 65.6672 58.4084 64.9467 55.5083L61.0532 56.3779C61.4108 57.817 61.7815 59.2523 62.1653 60.6836H59V64.476H63.2158C63.2811 64.7046 63.3469 64.9331 63.4129 65.1615C64.2615 68.0989 65.2081 70.9315 66.2491 73.6549C66.9111 75.3865 69.5255 75.297 70.054 73.5247Z" fill="#070100"/>
<path d="M72.9886 63.6837L75.8617 62.8203L72.9775 53.2227L70.1137 62.8264L72.9886 63.6837ZM70.054 73.5247L72.9289 74.382L72.9289 74.382L70.054 73.5247ZM75.947 73.5283L73.0739 74.3917L73.0739 74.3917L75.947 73.5283ZM79.7525 73.6502L82.5577 74.7138L82.5585 74.7117L79.7525 73.6502ZM79.7871 73.5588L76.9796 72.5014L76.9795 72.5015L79.7871 73.5588ZM79.8212 73.4678L82.6302 74.5212L82.6309 74.5193L79.8212 73.4678ZM80.2208 72.3653L83.0495 73.3647L77.3922 71.3658L80.2208 72.3653ZM81.1085 69.841L83.9304 70.8594L83.9315 70.8562L81.1085 69.841ZM82.2069 66.3925L85.0847 67.2397L85.0847 67.2397L82.2069 66.3925ZM82.4457 65.5786L79.567 64.7344L79.567 64.7344L82.4457 65.5786ZM82.5153 65.3412L79.637 64.4954L79.6366 64.497L82.5153 65.3412ZM82.7677 64.476V61.476H80.5126L79.8859 63.6421L82.7677 64.476ZM87 64.476V67.476H90V64.476H87ZM87 60.6836H90V57.6836H87V60.6836ZM83.8244 60.6836L80.9249 59.9137L79.9239 63.6836H83.8244V60.6836ZM84.3966 58.501L87.3003 59.2549L87.3003 59.2549L84.3966 58.501ZM84.645 57.5421L87.5492 58.2943L87.5492 58.2943L84.645 57.5421ZM84.9419 56.3965L87.8456 57.1508L88.6187 54.1743L85.624 53.4751L84.9419 56.3965ZM81.058 55.4896L81.7401 52.5682L78.8901 51.9028L78.1543 54.7354L81.058 55.4896ZM80.7595 56.6414L83.6637 57.3937L83.6637 57.3937L80.7595 56.6414ZM80.5125 57.5946L83.4162 58.3485L83.4162 58.3485L80.5125 57.5946ZM79.9337 59.8021L82.8319 60.5769L82.8331 60.5724L79.9337 59.8021ZM78.6621 64.3234L75.7838 63.4776L75.7833 63.4792L78.6621 64.3234ZM78.5936 64.5568L75.7149 63.7126L75.7149 63.7126L78.5936 64.5568ZM78.3541 65.3729L75.4763 64.5256L75.4763 64.5256L78.3541 65.3729ZM78.0056 66.5383L75.1325 67.4017L77.9828 76.8866L80.8748 67.4144L78.0056 66.5383ZM74.9234 56.2817L77.7965 55.4183L77.7965 55.4183L74.9234 56.2817ZM71.038 56.2853L73.9129 57.1426L73.9129 57.1426L71.038 56.2853ZM67.9839 66.5269L65.1216 67.4252L68.0572 76.7793L70.8588 67.3842L67.9839 66.5269ZM67.2707 64.1592L70.1528 63.3265L70.1526 63.3259L67.2707 64.1592ZM64.9467 55.5083L67.8581 54.7849L67.1517 51.9419L64.2927 52.5804L64.9467 55.5083ZM61.0532 56.3779L60.3993 53.45L57.4009 54.1197L58.1417 57.1013L61.0532 56.3779ZM62.1653 60.6836V63.6836H66.0758L65.0629 59.9066L62.1653 60.6836ZM59 60.6836V57.6836H56V60.6836H59ZM59 64.476H56V67.476H59V64.476ZM63.2158 64.476L66.1002 63.6513L65.4783 61.476H63.2158V64.476ZM63.4129 65.1615L66.295 64.3288L66.2948 64.3282L63.4129 65.1615ZM66.2491 73.6549L63.4469 74.7261L63.4469 74.7261L66.2491 73.6549ZM70.1137 62.8264L67.1791 72.6674L72.9289 74.382L75.8635 64.541L70.1137 62.8264ZM78.8201 72.665L75.8617 62.8203L70.1155 64.5471L73.0739 74.3917L78.8201 72.665ZM76.9474 72.5867C77.031 72.366 77.2012 72.1662 77.4083 72.0415C77.5936 71.93 77.7665 71.9012 77.8989 71.9054C78.0312 71.9097 78.2053 71.9496 78.3875 72.0764C78.5911 72.2181 78.7507 72.4343 78.8201 72.665L73.0739 74.3917C73.7761 76.7283 75.8572 77.8431 77.7069 77.9024C79.5558 77.9616 81.6965 76.9851 82.5577 74.7138L76.9474 72.5867ZM76.9795 72.5015C76.9719 72.5218 76.9641 72.5423 76.9466 72.5887L82.5585 74.7117C82.5755 74.6666 82.585 74.6415 82.5946 74.6161L76.9795 72.5015ZM77.0122 72.4144C76.9949 72.4606 76.9873 72.4811 76.9796 72.5014L82.5945 74.6163C82.604 74.5911 82.6134 74.566 82.6302 74.5212L77.0122 72.4144ZM77.3922 71.3659C77.2511 71.7651 77.1303 72.0991 77.0115 72.4164L82.6309 74.5193C82.766 74.1584 82.8998 73.7884 83.0495 73.3647L77.3922 71.3659ZM78.2867 68.8227C78.1714 69.1419 77.9432 69.7909 77.7495 70.3438C77.6515 70.6234 77.5606 70.8834 77.4945 71.0727C77.4615 71.1673 77.4346 71.2443 77.4161 71.2973C77.4068 71.3238 77.3997 71.3444 77.3948 71.3582C77.3924 71.3651 77.3905 71.3705 77.3892 71.3743C77.3886 71.376 77.3879 71.378 77.3873 71.3798C77.3871 71.3803 77.3869 71.381 77.3866 71.3819C77.3864 71.3825 77.3857 71.3844 77.3849 71.3869C77.3843 71.3884 77.3829 71.3926 77.3819 71.3954C77.3796 71.4023 77.3608 71.4595 77.3453 71.5101C79.2679 75.21 83.038 73.3966 83.0446 73.3783C83.0463 73.3736 83.0487 73.3669 83.0495 73.3647L77.3922 71.3658C77.3929 71.3637 77.3953 71.357 77.397 71.3524C77.4036 71.3341 81.1737 69.5207 83.0963 73.2206C83.0808 73.2712 83.062 73.3284 83.0597 73.3353C83.0588 73.338 83.0573 73.3422 83.0568 73.3436C83.056 73.3459 83.0554 73.3477 83.0553 73.348C83.0551 73.3487 83.0549 73.3491 83.0549 73.3492C83.0548 73.3496 83.0549 73.3493 83.0554 73.3477C83.0564 73.3449 83.058 73.3402 83.0603 73.3336C83.065 73.3203 83.072 73.3003 83.0811 73.2741C83.0993 73.2218 83.126 73.1454 83.1588 73.0515C83.2245 72.8635 83.3147 72.6054 83.4119 72.328C83.6085 71.767 83.8266 71.1469 83.9304 70.8594L78.2867 68.8227ZM79.329 65.5452C78.8908 67.0337 78.609 67.9264 78.2855 68.8258L83.9315 70.8562C84.3141 69.7924 84.6345 68.7689 85.0847 67.2397L79.329 65.5452ZM79.567 64.7344C79.4532 65.1223 79.3804 65.3705 79.329 65.5452L85.0847 67.2397C85.1373 67.0611 85.2112 66.809 85.3245 66.4228L79.567 64.7344ZM79.6366 64.497L79.567 64.7344L85.3245 66.4228L85.3941 66.1854L79.6366 64.497ZM79.8859 63.6421C79.8039 63.9255 79.7209 64.2101 79.637 64.4954L85.3936 66.187C85.4798 65.8938 85.5651 65.6013 85.6494 65.3098L79.8859 63.6421ZM82.7677 67.476H87V61.476H82.7677V67.476ZM90 64.476V60.6836H84V64.476H90ZM87 57.6836H83.8244V63.6836H87V57.6836ZM81.4928 57.7472C81.2783 58.5735 81.1014 59.2491 80.9249 59.9137L86.7239 61.4535C86.9041 60.775 87.084 60.0881 87.3003 59.2549L81.4928 57.7472ZM81.7409 56.7899C81.6348 57.1993 81.5337 57.5896 81.4928 57.7472L87.3003 59.2549C87.3418 59.0952 87.4435 58.7025 87.5492 58.2943L81.7409 56.7899ZM82.0383 55.6423C81.9883 55.8349 81.8614 56.3247 81.7409 56.7899L87.5492 58.2943C87.6701 57.8276 87.7962 57.3407 87.8456 57.1508L82.0383 55.6423ZM80.3758 58.4111L84.2598 59.3179L85.624 53.4751L81.7401 52.5682L80.3758 58.4111ZM83.6637 57.3937C83.7849 56.9255 83.9118 56.4355 83.9616 56.2439L78.1543 54.7354C78.1039 54.9296 77.9762 55.4226 77.8553 55.8892L83.6637 57.3937ZM83.4162 58.3485C83.4573 58.1902 83.5584 57.8002 83.6637 57.3937L77.8553 55.8892C77.7497 56.297 77.6493 56.6846 77.6088 56.8407L83.4162 58.3485ZM82.8331 60.5724C83.0148 59.8885 83.1964 59.1953 83.4162 58.3485L77.6088 56.8407C77.3907 57.6805 77.2122 58.3622 77.0343 59.0317L82.8331 60.5724ZM81.5404 65.1692C82.0027 63.5961 82.4404 62.0412 82.8319 60.5769L77.0355 59.0272C76.6581 60.4388 76.2338 61.9461 75.7838 63.4776L81.5404 65.1692ZM81.4724 65.401L81.5409 65.1676L75.7833 63.4792L75.7149 63.7126L81.4724 65.401ZM81.232 66.2202C81.2842 66.0429 81.3579 65.7917 81.4724 65.401L75.7149 63.7126C75.5998 64.105 75.5273 64.3523 75.4763 64.5256L81.232 66.2202ZM80.8748 67.4144C80.9854 67.0524 81.1029 66.6586 81.232 66.2202L75.4763 64.5256C75.3508 64.9518 75.2392 65.3254 75.1364 65.6623L80.8748 67.4144ZM72.0503 57.145L75.1325 67.4017L80.8787 65.6749L77.7965 55.4183L72.0503 57.145ZM72.9626 57.905C72.6944 57.905 72.2215 57.7147 72.0503 57.145L77.7965 55.4183C77.1356 53.2192 75.0925 51.905 72.9626 51.905V57.905ZM73.9129 57.1426C73.7515 57.6839 73.3017 57.905 72.9626 57.905V51.905C70.8334 51.905 68.8115 53.2537 68.1631 55.428L73.9129 57.1426ZM70.8588 67.3842L73.9129 57.1426L68.1631 55.428L65.109 65.6696L70.8588 67.3842ZM64.3885 64.9919C64.6252 65.8111 64.8696 66.6223 65.1216 67.4252L70.8463 65.6286C70.6081 64.8698 70.3769 64.1024 70.1528 63.3265L64.3885 64.9919ZM62.0352 56.2317C62.7648 59.1684 63.5491 62.0888 64.3887 64.9925L70.1526 63.3259C69.3342 60.4957 68.5696 57.6485 67.8581 54.7849L62.0352 56.2317ZM61.7071 59.3057L65.6006 58.4362L64.2927 52.5804L60.3993 53.45L61.7071 59.3057ZM65.0629 59.9066C64.6839 58.4932 64.3179 57.0758 63.9647 55.6545L58.1417 57.1013C58.5038 58.5583 58.8791 60.0115 59.2677 61.4606L65.0629 59.9066ZM62.1653 57.6836H59V63.6836H62.1653V57.6836ZM56 60.6836V64.476H62V60.6836H56ZM59 67.476H63.2158V61.476H59V67.476ZM66.2948 64.3282C66.2296 64.1027 66.1648 63.877 66.1002 63.6513L60.3314 65.3006C60.3975 65.5321 60.4641 65.7635 60.531 65.9948L66.2948 64.3282ZM69.0514 72.5837C68.0415 69.9418 67.1213 67.1889 66.295 64.3288L60.5308 65.9942C61.4017 69.0088 62.3747 71.9212 63.4469 74.7261L69.0514 72.5837ZM67.1791 72.6674C67.248 72.4364 67.4072 72.2198 67.6106 72.0776C67.7926 71.9503 67.9667 71.91 68.099 71.9055C68.2314 71.901 68.4042 71.9294 68.5896 72.0403C68.7967 72.1643 68.9672 72.3635 69.0514 72.5837L63.4469 74.7261C64.3138 76.994 66.4558 77.9652 68.3042 77.902C70.1535 77.8387 72.2318 76.7196 72.9289 74.382L67.1791 72.6674Z" fill="white" mask="url(#path-4-outside-1_2952_112508)"/>
</g>
<defs>
<clipPath id="clip0_2952_112508">
<rect width="96" height="96" fill="white"/>
</clipPath>
</defs>
</svg>
