<svg width="96" height="96" viewBox="0 0 96 96" fill="none" xmlns="http://www.w3.org/2000/svg">
<g clip-path="url(#clip0_2952_112698)">
<path fill-rule="evenodd" clip-rule="evenodd" d="M64 72.4253V19.9335C64 16.6562 61.4386 14 58.2827 14H28V76.0665C28 79.3438 30.5594 82 33.7173 82H64" fill="#FFCC00"/>
<path fill-rule="evenodd" clip-rule="evenodd" d="M74 26C76.209 26 78 28.2388 78 31C78 33.7612 76.209 36 74 36" fill="#FFCC00"/>
<path d="M64 64L71.3755 58.7161C72.3174 57.9003 72.8596 56.7055 72.8596 55.4448V21.992C72.8596 18.6828 75.4845 16 78.7198 16H82" stroke="#070100" stroke-width="4"/>
<path d="M64 72V20C64 16.6562 61.2963 14 58 14H26V76C26 79.3438 28.7016 82 32 82H64" stroke="#070100" stroke-width="4"/>
<path d="M73 25.189C76.3135 25.189 79 27.4277 79 30.189C79 32.9502 76.3135 35.189 73 35.189" stroke="#070100" stroke-width="4"/>
<path d="M14 82H76" stroke="#070100" stroke-width="4"/>
<path fill-rule="evenodd" clip-rule="evenodd" d="M34.1726 40.3369V48.8349C34.1726 49.3109 34.4466 49.5489 34.9966 49.5489H38.6366V50.9209C37.9926 50.9969 37.3406 51.0489 36.6786 51.0829C36.0146 51.1149 35.3886 51.1349 34.8006 51.1449C33.8406 51.1449 33.1486 50.9709 32.7286 50.6209C32.3086 50.2689 32.1006 49.7309 32.1006 49.0029V40.3369H34.1726Z" fill="#070100"/>
<path fill-rule="evenodd" clip-rule="evenodd" d="M34.1726 40.3369V48.8349C34.1726 49.3109 34.4466 49.5489 34.9966 49.5489H38.6366V50.9209C37.9926 50.9969 37.3406 51.0489 36.6786 51.0829C36.0146 51.1149 35.3886 51.1349 34.8006 51.1449C33.8406 51.1449 33.1486 50.9709 32.7286 50.6209C32.3086 50.2689 32.1006 49.7309 32.1006 49.0029V40.3369H34.1726Z" stroke="#070100" stroke-width="0.2"/>
<path fill-rule="evenodd" clip-rule="evenodd" d="M45.5127 43.837C45.5127 43.147 45.3587 42.613 45.0507 42.235C44.7407 41.855 44.2667 41.667 43.6227 41.667C43.4347 41.667 43.2127 41.687 42.9507 41.729C42.6887 41.771 42.4327 41.835 42.1807 41.921V45.825C42.4327 45.909 42.6647 45.967 42.8807 46.001C43.0947 46.033 43.3327 46.049 43.5947 46.049C44.2847 46.049 44.7767 45.847 45.0707 45.441C45.3647 45.035 45.5127 44.501 45.5127 43.837V43.837ZM40.1484 51.1451V40.7871C40.7464 40.5891 41.3504 40.4251 41.9624 40.2951C42.5724 40.1651 43.1364 40.0991 43.6484 40.0991C44.1624 40.0991 44.6544 40.1871 45.1264 40.3591C45.5984 40.5311 46.0104 40.7811 46.3664 41.1071C46.7204 41.4331 47.0024 41.8331 47.2124 42.3051C47.4224 42.7751 47.5284 43.3091 47.5284 43.9071C47.5284 44.4591 47.4364 44.9611 47.2544 45.4211C47.0724 45.8771 46.8124 46.2691 46.4764 46.5951C46.1404 46.9211 45.7344 47.1791 45.2584 47.3651C44.7844 47.5531 44.2504 47.6451 43.6624 47.6451C43.4104 47.6451 43.1644 47.6271 42.9204 47.5891C42.6784 47.5531 42.4324 47.5011 42.1804 47.4351V51.1451H40.1484Z" fill="#070100"/>
<path d="M42.9342 41.6302L42.9501 41.7289L42.9342 41.6302ZM45.1276 42.1717L45.2051 42.1085L45.2051 42.1085L45.1276 42.1717ZM45.1276 42.1717L45.0501 42.2349L45.0501 42.2349L45.1276 42.1717ZM45.1511 45.4995L45.0701 45.4409L45.0701 45.4409L45.1511 45.4995ZM42.8653 46.0998L42.8501 46.1986L42.8505 46.1987L42.8653 46.0998ZM42.8645 46.0997L42.849 46.1985L42.8493 46.1985L42.8645 46.0997ZM42.1485 45.9198L42.1801 45.8249L42.1801 45.8249L42.1485 45.9198ZM42.0801 45.897H41.9801V45.969L42.0485 45.9918L42.0801 45.897ZM42.0801 41.8494L42.0478 41.7547L41.9801 41.7778V41.8494H42.0801ZM42.1478 41.8263L42.1801 41.9209L42.1801 41.9209L42.1478 41.8263ZM42.9659 41.8276L42.9817 41.9264L42.9817 41.9264L42.9659 41.8276ZM42.2801 41.993L42.2492 41.8979L42.1801 41.9203V41.993H42.2801ZM42.2801 45.7523H42.1801V45.8254L42.2497 45.8476L42.2801 45.7523ZM42.8952 45.902L42.8797 46.0008L42.8805 46.001L42.8952 45.902ZM44.9891 45.3822L45.0701 45.4409L45.0701 45.4409L44.9891 45.3822ZM44.9726 42.2981L45.0501 42.2349L45.0501 42.2349L44.9726 42.2981ZM41.9832 40.3928L42.004 40.4906L42.004 40.4906L41.9832 40.3928ZM41.9831 40.3928L42.0039 40.4907L42.0039 40.4906L41.9831 40.3928ZM40.2483 40.8594L40.2173 40.7643L40.1483 40.7869V40.8594H40.2483ZM40.2483 51.045H40.1483V51.145H40.2483V51.045ZM42.0803 51.045V51.145H42.1803V51.045H42.0803ZM42.0803 47.3055L42.1057 47.2087L41.9803 47.1759V47.3055H42.0803ZM42.2057 47.3383L42.231 47.2415L42.231 47.2415L42.2057 47.3383ZM42.9351 47.4901L42.9498 47.3912L42.9498 47.3912L42.9351 47.4901ZM42.9357 47.4902L42.9511 47.3914L42.9505 47.3913L42.9357 47.4902ZM45.2215 47.2721L45.1849 47.179L45.1846 47.1791L45.2215 47.2721ZM45.2219 47.2719L45.1855 47.1787L45.1854 47.1788L45.2219 47.2719ZM46.4067 46.5233L46.4763 46.595L46.4763 46.595L46.4067 46.5233ZM47.1614 45.3841L47.2543 45.4212L47.2544 45.4209L47.1614 45.3841ZM47.121 42.3458L47.0297 42.3866L47.0297 42.3866L47.121 42.3458ZM47.121 42.3457L47.0296 42.3863L47.0297 42.3864L47.121 42.3457ZM46.2987 41.1806L46.3664 41.1071L46.3662 41.1069L46.2987 41.1806ZM45.0921 40.453L45.0579 40.5469L45.0579 40.5469L45.0921 40.453ZM41.9416 40.1972L41.9624 40.295L41.9624 40.295L41.9416 40.1972ZM45.1606 40.2651L45.1263 40.359L45.1263 40.359L45.1606 40.2651ZM46.4339 41.0333L46.5014 40.9595L46.5014 40.9595L46.4339 41.0333ZM46.4341 41.0335L46.5018 40.9599L46.5016 40.9597L46.4341 41.0335ZM47.3037 42.2644L47.3444 42.3557L47.4357 42.3151L47.3951 42.2237L47.3037 42.2644ZM47.2123 42.305L47.1715 42.2137L47.253 42.3964L47.2123 42.305ZM47.3036 42.2642L47.3949 42.2234L47.3541 42.1321L47.2628 42.1729L47.3036 42.2642ZM47.3473 45.4578L47.4403 45.4947L47.4403 45.4946L47.3473 45.4578ZM47.3472 45.4581L47.4401 45.4952L47.4402 45.495L47.3472 45.4581ZM46.546 46.6668L46.4763 46.595L46.4763 46.595L46.546 46.6668ZM45.295 47.4581L45.2586 47.3649L45.2581 47.3651L45.295 47.4581ZM42.2803 47.5636L42.3042 47.4664L42.1803 47.4361V47.5636H42.2803ZM42.2803 51.245V51.345H42.3803V51.245H42.2803ZM40.0483 51.245H39.9483V51.345H40.0483V51.245ZM40.0483 40.7148L40.0169 40.6199L39.9483 40.6426V40.7148H40.0483ZM40.1169 40.6921L40.0855 40.5972L40.0855 40.5972L40.1169 40.6921ZM41.9415 40.1972L41.9623 40.295L41.9623 40.295L41.9415 40.1972ZM42.905 47.6878L42.8061 47.6724L42.7907 47.7714L42.8897 47.7867L42.905 47.6878ZM42.9203 47.589L43.0193 47.6037L42.8215 47.5736L42.9203 47.589ZM42.9056 47.6879L42.8908 47.7868L42.9898 47.8016L43.0045 47.7026L42.9056 47.6879ZM43.6221 41.4669C43.4205 41.4669 43.1875 41.4883 42.9184 41.5314L42.9501 41.7289C43.2121 41.6869 43.4341 41.6669 43.6221 41.6669V41.4669ZM45.2051 42.1085C44.8458 41.6681 44.3057 41.4669 43.6221 41.4669V41.6669C44.2661 41.6669 44.7401 41.8549 45.0501 42.2349L45.2051 42.1085ZM45.2051 42.1086L45.2051 42.1085L45.05 42.2348L45.0501 42.2349L45.2051 42.1086ZM45.7121 43.8369C45.7121 43.1196 45.5522 42.5345 45.2051 42.1086L45.0501 42.2349C45.3581 42.6129 45.5121 43.1469 45.5121 43.8369H45.7121ZM45.2321 45.5582C45.5575 45.1087 45.7121 44.5298 45.7121 43.8369H45.5121C45.5121 44.5009 45.3641 45.0349 45.0701 45.4409L45.2321 45.5582ZM43.5941 46.2489C44.3218 46.2489 44.8873 46.0344 45.2321 45.5582L45.0701 45.4409C44.7761 45.8469 44.2841 46.0489 43.5941 46.0489V46.2489ZM42.8505 46.1987C43.0761 46.2324 43.3242 46.2489 43.5941 46.2489V46.0489C43.3321 46.0489 43.0941 46.0329 42.8801 46.0009L42.8505 46.1987ZM42.8493 46.1985L42.8501 46.1986L42.8805 46.001L42.8797 46.0008L42.8493 46.1985ZM42.1168 46.0146C42.3774 46.1015 42.6203 46.1625 42.849 46.1985L42.8801 46.0009C42.6641 45.9669 42.4321 45.9089 42.1801 45.8249L42.1168 46.0146ZM42.0485 45.9918L42.1168 46.0146L42.1801 45.8249L42.1117 45.8021L42.0485 45.9918ZM41.9801 45.8249V45.897H42.1801V45.8249H41.9801ZM41.9801 41.9209V45.8249H42.1801V41.9209H41.9801ZM41.9801 41.8494V41.9209H42.1801V41.8494H41.9801ZM42.1155 41.7316L42.0478 41.7547L42.1124 41.944L42.1801 41.9209L42.1155 41.7316ZM42.9184 41.5314C42.6451 41.5752 42.3781 41.642 42.1155 41.7316L42.1801 41.9209C42.4321 41.8349 42.6881 41.7709 42.9501 41.7289L42.9184 41.5314ZM42.9817 41.9264C43.2367 41.8855 43.4476 41.8669 43.6221 41.8669V41.6669C43.4341 41.6669 43.2121 41.6869 42.9501 41.7289L42.9817 41.9264ZM42.3109 42.0881C42.5309 42.0168 42.754 41.9629 42.9817 41.9264L42.9501 41.7289C42.712 41.7671 42.4789 41.8234 42.2492 41.8979L42.3109 42.0881ZM42.3801 45.7523V41.993H42.1801V45.7523H42.3801ZM42.9108 45.8033C42.7265 45.7742 42.5274 45.7263 42.3105 45.6571L42.2497 45.8476C42.4748 45.9194 42.6838 45.97 42.8797 46.0008L42.9108 45.8033ZM43.5941 45.8489C43.3401 45.8489 43.1123 45.8334 42.91 45.8031L42.8805 46.001C43.0944 46.0329 43.3322 46.0489 43.5941 46.0489V45.8489ZM44.9081 45.3236C44.6648 45.6595 44.2462 45.8489 43.5941 45.8489V46.0489C44.2841 46.0489 44.7761 45.8469 45.0701 45.4409L44.9081 45.3236ZM45.3121 43.8369C45.3121 44.472 45.1706 44.961 44.9081 45.3236L45.0701 45.4409C45.3641 45.0349 45.5121 44.5009 45.5121 43.8369H45.3121ZM44.8951 42.3613C45.164 42.6913 45.3121 43.1742 45.3121 43.8369H45.5121C45.5121 43.1469 45.3581 42.6129 45.0501 42.2349L44.8951 42.3613ZM43.6221 41.8669C44.2264 41.8669 44.6343 42.0417 44.8951 42.3613L45.0501 42.2349C44.7401 41.8549 44.2661 41.6669 43.6221 41.6669V41.8669ZM42.004 40.4906C42.6033 40.3629 43.1531 40.299 43.6483 40.299V40.099C43.1363 40.099 42.5723 40.165 41.9623 40.295L42.004 40.4906ZM42.0039 40.4906L42.004 40.4906L41.9624 40.295L41.9623 40.295L42.0039 40.4906ZM40.2794 40.9545C40.8482 40.7688 41.4224 40.6142 42.0039 40.4907L41.9623 40.295C41.3739 40.42 40.7928 40.5765 40.2173 40.7643L40.2794 40.9545ZM40.3483 51.045V40.8594H40.1483V51.045H40.3483ZM42.0803 50.945H40.2483V51.145H42.0803V50.945ZM41.9803 47.435V51.045H42.1803V47.435H41.9803ZM41.9803 47.3055V47.435H42.1803V47.3055H41.9803ZM42.231 47.2415L42.1057 47.2087L42.055 47.4022L42.1803 47.435L42.231 47.2415ZM42.9498 47.3912C42.716 47.3564 42.4771 47.306 42.231 47.2415L42.1803 47.435C42.4323 47.501 42.6783 47.553 42.9203 47.589L42.9498 47.3912ZM42.9505 47.3913L42.9498 47.3912L42.9203 47.589L42.921 47.5891L42.9505 47.3913ZM43.6623 47.445C43.42 47.445 43.1843 47.4277 42.9511 47.3914L42.9203 47.589C43.1643 47.627 43.4103 47.645 43.6623 47.645V47.445ZM45.1846 47.1791C44.7379 47.3563 44.2296 47.445 43.6623 47.445V47.645C44.2503 47.645 44.7843 47.553 45.2583 47.365L45.1846 47.1791ZM45.1854 47.1788L45.1849 47.179L45.2581 47.3651L45.2585 47.3649L45.1854 47.1788ZM46.3371 46.4515C46.0215 46.7576 45.6386 47.0017 45.1855 47.1787L45.2583 47.365C45.7343 47.179 46.1403 46.921 46.4763 46.595L46.3371 46.4515ZM47.0685 45.347C46.8965 45.778 46.6519 46.146 46.3371 46.4515L46.4763 46.595C46.8123 46.2691 47.0723 45.8771 47.2543 45.4212L47.0685 45.347ZM47.3283 43.907C47.3283 44.4362 47.2403 44.9129 47.0684 45.3473L47.2544 45.4209C47.4364 44.9609 47.5283 44.459 47.5283 43.907H47.3283ZM47.0297 42.3866C47.2267 42.8273 47.3283 43.3329 47.3283 43.907H47.5283C47.5283 43.309 47.4223 42.775 47.2123 42.305L47.0297 42.3866ZM47.0297 42.3864L47.0297 42.3866L47.2124 42.3051L47.2123 42.3049L47.0297 42.3864ZM46.2309 41.2542C46.5633 41.5603 46.8298 41.9373 47.0296 42.3863L47.2123 42.305C47.0024 41.833 46.7204 41.4331 46.3664 41.1071L46.2309 41.2542ZM45.0579 40.5469C45.5057 40.7101 45.8949 40.9465 46.2311 41.2544L46.3662 41.1069C46.0102 40.7809 45.5983 40.531 45.1263 40.359L45.0579 40.5469ZM43.6483 40.299C44.139 40.299 44.6078 40.3829 45.0579 40.5469L45.1263 40.359C44.6543 40.187 44.1623 40.099 43.6483 40.099V40.299ZM43.6483 39.899C43.1196 39.899 42.5414 39.9671 41.9207 40.0994L41.9624 40.295C42.5724 40.165 43.1364 40.099 43.6483 40.099V39.899ZM45.1948 40.1711C44.7009 39.9911 44.1857 39.899 43.6483 39.899V40.099C44.1623 40.099 44.6543 40.187 45.1263 40.359L45.1948 40.1711ZM46.5014 40.9595C46.1257 40.6155 45.6909 40.3519 45.1948 40.1711L45.1263 40.359C45.5983 40.531 46.0103 40.781 46.3663 41.107L46.5014 40.9595ZM46.5016 40.9597L46.5014 40.9595L46.3663 41.107L46.3665 41.1072L46.5016 40.9597ZM47.3951 42.2237C47.1749 41.7288 46.8775 41.3058 46.5018 40.9599L46.3663 41.107C46.7203 41.433 47.0023 41.833 47.2123 42.305L47.3951 42.2237ZM47.253 42.3964L47.3444 42.3557L47.2631 42.173L47.1717 42.2137L47.253 42.3964ZM47.2628 42.1729L47.1715 42.2137L47.2531 42.3963L47.3444 42.3555L47.2628 42.1729ZM47.7283 43.907C47.7283 43.2852 47.618 42.7227 47.3949 42.2234L47.2123 42.305C47.4223 42.775 47.5283 43.309 47.5283 43.907H47.7283ZM47.4403 45.4946C47.6324 45.009 47.7283 44.4818 47.7283 43.907H47.5283C47.5283 44.459 47.4363 44.961 47.2543 45.421L47.4403 45.4946ZM47.4402 45.495L47.4403 45.4947L47.2544 45.4209L47.2543 45.4212L47.4402 45.495ZM46.6156 46.7386C46.9727 46.3921 47.2481 45.9761 47.4401 45.4952L47.2543 45.421C47.0723 45.877 46.8123 46.269 46.4763 46.595L46.6156 46.7386ZM45.3314 47.5512C45.8302 47.3562 46.2592 47.0844 46.6156 46.7386L46.4763 46.595C46.1404 46.921 45.7345 47.1789 45.2586 47.3649L45.3314 47.5512ZM43.6623 47.845C44.271 47.845 44.8306 47.7498 45.3318 47.551L45.2581 47.3651C44.7842 47.5531 44.2502 47.645 43.6623 47.645V47.845ZM42.89 47.7867C43.1447 47.8263 43.4008 47.845 43.6623 47.845V47.645C43.4105 47.645 43.1646 47.627 42.9207 47.5891L42.89 47.7867ZM42.2565 47.6607C42.4706 47.7132 42.6817 47.7557 42.8906 47.7868L42.9201 47.589C42.7179 47.5589 42.513 47.5177 42.3042 47.4664L42.2565 47.6607ZM42.3803 51.145V47.5636H42.1803V51.145H42.3803ZM42.3803 51.245V51.145H42.1803V51.245H42.3803ZM42.1803 51.345H42.2803V51.145H42.1803V51.345ZM40.1483 51.345H42.1803V51.145H40.1483V51.345ZM40.0483 51.345H40.1483V51.145H40.0483V51.345ZM39.9483 51.145V51.245H40.1483V51.145H39.9483ZM39.9483 40.787V51.145H40.1483V40.787H39.9483ZM39.9483 40.7148V40.787H40.1483V40.7148H39.9483ZM40.0855 40.5972L40.0169 40.6199L40.0798 40.8097L40.1483 40.787L40.0855 40.5972ZM41.9207 40.0994C41.3014 40.231 40.6903 40.3969 40.0855 40.5972L40.1483 40.787C40.7463 40.589 41.3503 40.425 41.9623 40.295L41.9207 40.0994ZM41.9623 40.295L41.9624 40.295L41.9208 40.0994L41.9207 40.0994L41.9623 40.295ZM42.8897 47.7867L42.8901 47.7867L42.9206 47.5891L42.9202 47.589L42.8897 47.7867ZM42.8215 47.5736L42.8061 47.6724L43.0038 47.7032L43.0191 47.6044L42.8215 47.5736ZM43.0045 47.7026L43.0193 47.6037L42.8214 47.5743L42.8067 47.6732L43.0045 47.7026ZM42.8905 47.7868L42.8908 47.7868L42.9204 47.589L42.9201 47.589L42.8905 47.7868Z" fill="#070100"/>
<path fill-rule="evenodd" clip-rule="evenodd" d="M53.7856 41.6396C53.2716 41.6396 52.8276 41.7516 52.4556 41.9756C52.0816 42.1996 51.7716 42.4936 51.5236 42.8576C51.2776 43.2216 51.0936 43.6396 50.9796 44.1096C50.8616 44.5816 50.8036 45.0636 50.8036 45.5596C50.8036 46.2216 50.8696 46.8176 50.9996 47.3456C51.1296 47.8716 51.3296 48.3216 51.6016 48.6956C51.8716 49.0676 52.2136 49.3536 52.6236 49.5496C53.0336 49.7456 53.5196 49.8436 54.0776 49.8436C54.2756 49.8436 54.4876 49.8296 54.7176 49.8016C54.9456 49.7736 55.2036 49.7216 55.4936 49.6476V45.7416H57.4816V50.5716C57.2296 50.6916 56.9596 50.8056 56.6696 50.9076C56.3796 51.0096 56.0836 51.0976 55.7796 51.1656C55.4776 51.2356 55.1756 51.2896 54.8776 51.3276C54.5776 51.3636 54.2996 51.3836 54.0376 51.3836C53.1316 51.3836 52.3456 51.2316 51.6776 50.9296C51.0096 50.6256 50.4556 50.2116 50.0116 49.6896C49.5696 49.1676 49.2416 48.5476 49.0256 47.8336C48.8116 47.1196 48.7036 46.3516 48.7036 45.5316C48.7036 44.7856 48.8176 44.0816 49.0476 43.4236C49.2756 42.7656 49.6036 42.1896 50.0336 41.6956C50.4636 41.1996 50.9916 40.8116 51.6156 40.5256C52.2416 40.2416 52.9456 40.0996 53.7296 40.0996C53.9996 40.0996 54.2796 40.1156 54.5696 40.1476C54.8576 40.1816 55.1436 40.2256 55.4236 40.2816C55.7036 40.3376 55.9676 40.3976 56.2156 40.4636C56.4616 40.5276 56.6836 40.5896 56.8796 40.6456L56.6416 42.0316C56.1836 41.9296 55.7296 41.8376 55.2756 41.7576C54.8256 41.6796 54.3276 41.6396 53.7856 41.6396" fill="#070100"/>
<path fill-rule="evenodd" clip-rule="evenodd" d="M53.7856 41.6396C53.2716 41.6396 52.8276 41.7516 52.4556 41.9756C52.0816 42.1996 51.7716 42.4936 51.5236 42.8576C51.2776 43.2216 51.0936 43.6396 50.9796 44.1096C50.8616 44.5816 50.8036 45.0636 50.8036 45.5596C50.8036 46.2216 50.8696 46.8176 50.9996 47.3456C51.1296 47.8716 51.3296 48.3216 51.6016 48.6956C51.8716 49.0676 52.2136 49.3536 52.6236 49.5496C53.0336 49.7456 53.5196 49.8436 54.0776 49.8436C54.2756 49.8436 54.4876 49.8296 54.7176 49.8016C54.9456 49.7736 55.2036 49.7216 55.4936 49.6476V45.7416H57.4816V50.5716C57.2296 50.6916 56.9596 50.8056 56.6696 50.9076C56.3796 51.0096 56.0836 51.0976 55.7796 51.1656C55.4776 51.2356 55.1756 51.2896 54.8776 51.3276C54.5776 51.3636 54.2996 51.3836 54.0376 51.3836C53.1316 51.3836 52.3456 51.2316 51.6776 50.9296C51.0096 50.6256 50.4556 50.2116 50.0116 49.6896C49.5696 49.1676 49.2416 48.5476 49.0256 47.8336C48.8116 47.1196 48.7036 46.3516 48.7036 45.5316C48.7036 44.7856 48.8176 44.0816 49.0476 43.4236C49.2756 42.7656 49.6036 42.1896 50.0336 41.6956C50.4636 41.1996 50.9916 40.8116 51.6156 40.5256C52.2416 40.2416 52.9456 40.0996 53.7296 40.0996C53.9996 40.0996 54.2796 40.1156 54.5696 40.1476C54.8576 40.1816 55.1436 40.2256 55.4236 40.2816C55.7036 40.3376 55.9676 40.3976 56.2156 40.4636C56.4616 40.5276 56.6836 40.5896 56.8796 40.6456L56.6416 42.0316C56.1836 41.9296 55.7296 41.8376 55.2756 41.7576C54.8256 41.6796 54.3276 41.6396 53.7856 41.6396Z" stroke="#070100" stroke-width="0.2"/>
</g>
<defs>
<clipPath id="clip0_2952_112698">
<rect width="96" height="96" fill="white"/>
</clipPath>
</defs>
</svg>
