<svg width="96" height="96" viewBox="0 0 96 96" fill="none" xmlns="http://www.w3.org/2000/svg">
<g clip-path="url(#clip0_2952_112725)">
<path fill-rule="evenodd" clip-rule="evenodd" d="M83.2835 48.0012C86.1277 46.0349 88 42.7099 88 38.9376C88 32.9 83.2025 28 77.2806 28C71.3611 28 66.5612 32.9 66.5612 38.9376C66.5612 38.957 66.566 38.9741 66.566 38.9911H29.434C29.434 38.9741 29.4388 38.957 29.4388 38.9376C29.4388 32.9 24.6389 28 18.7194 28C12.7975 28 8 32.9 8 38.9376C8 42.7099 9.86994 46.0349 12.7141 48.0012C9.86994 49.9676 8 53.2901 8 57.0624C8 63.1024 12.7975 68 18.7194 68C24.6389 68 29.4388 63.1024 29.4388 57.0624H66.5612C66.5612 63.1024 71.3611 68 77.2806 68C83.2025 68 88 63.1024 88 57.0624C88 53.2901 86.1277 49.9676 83.2835 48.0012" fill="#FFCC00"/>
<path d="M88 57.0624C88 53.2901 86.1277 49.9676 83.2836 48.0012C86.1277 46.0349 88 42.7099 88 38.9376C88 32.9 83.2002 28 77.2809 28C71.3616 28 66.5619 32.9 66.5619 38.9376C66.5619 38.957 66.5666 38.9741 66.5666 38.9911H29.4334C29.4334 38.9741 29.4381 38.957 29.4381 38.9376C29.4381 32.9 24.6384 28 18.7191 28C12.7998 28 8 32.9 8 38.9376C8 42.7099 9.86988 46.0349 12.7164 48.0012C9.86988 49.9676 8 53.2901 8 57.0624C8 63.1024 12.7998 68 18.7191 68C24.6384 68 29.4381 63.1024 29.4381 57.0624H66.5619C66.5619 63.1024 71.3616 68 77.2809 68C80.5229 68 83.4337 66.5295 85.3988 64.2034" stroke="#070100" stroke-width="4"/>
</g>
<defs>
<clipPath id="clip0_2952_112725">
<rect width="96" height="96" fill="white"/>
</clipPath>
</defs>
</svg>
