<svg width="96" height="96" viewBox="0 0 96 96" fill="none" xmlns="http://www.w3.org/2000/svg">
<g clip-path="url(#clip0_2952_112135)">
<path fill-rule="evenodd" clip-rule="evenodd" d="M67.8681 61.5962C67.8681 60.2114 66.7443 59.0898 65.3594 59.0898C63.9745 59.0898 62.853 60.2114 62.853 61.5962C62.853 62.9811 63.9745 64.1049 65.3594 64.1049C66.7443 64.1049 67.8681 62.9811 67.8681 61.5962" fill="#FEFEFE"/>
<path fill-rule="evenodd" clip-rule="evenodd" d="M81.2616 61.5962C81.2616 60.2114 80.1401 59.0898 78.7552 59.0898C77.3704 59.0898 76.2466 60.2114 76.2466 61.5962C76.2466 62.9811 77.3704 64.1049 78.7552 64.1049C80.1401 64.1049 81.2616 62.9811 81.2616 61.5962" fill="#FEFEFE"/>
<path fill-rule="evenodd" clip-rule="evenodd" d="M72.0572 57.4076C73.442 57.4076 74.5635 56.2838 74.5635 54.9012C74.5635 53.5164 73.442 52.3926 72.0572 52.3926C70.6723 52.3926 69.5508 53.5164 69.5508 54.9012C69.5508 56.2838 70.6723 57.4076 72.0572 57.4076" fill="#FEFEFE"/>
<path fill-rule="evenodd" clip-rule="evenodd" d="M72.0572 70.8021C73.442 70.8021 74.5635 69.6784 74.5635 68.2958C74.5635 66.9086 73.442 65.7871 72.0572 65.7871C70.6723 65.7871 69.5508 66.9086 69.5508 68.2958C69.5508 69.6784 70.6723 70.8021 72.0572 70.8021" fill="#FEFEFE"/>
<path fill-rule="evenodd" clip-rule="evenodd" d="M68.9158 42H27.0842C16.5447 42 8 50.9547 8 62C8 73.0453 16.5447 82 27.0842 82C35.5789 82 42.7705 76.1799 45.2439 68.1393H50.7561C53.2295 76.1799 60.4211 82 68.9158 82C79.4553 82 88 73.0453 88 62C88 50.9547 79.4553 42 68.9158 42" fill="#FFCC00"/>
<path fill-rule="evenodd" clip-rule="evenodd" d="M66 62.0014C66 60.3445 64.6582 59 63.0014 59C61.3418 59 60 60.3445 60 62.0014C60 63.6582 61.3418 65 63.0014 65C64.6582 65 66 63.6582 66 62.0014" fill="#FEFEFE"/>
<path fill-rule="evenodd" clip-rule="evenodd" d="M80 62.0014C80 60.3445 78.6555 59 77.0014 59C75.3418 59 74 60.3445 74 62.0014C74 63.6582 75.3418 65 77.0014 65C78.6555 65 80 63.6582 80 62.0014" fill="#FEFEFE"/>
<path fill-rule="evenodd" clip-rule="evenodd" d="M69.9986 58C71.6555 58 73 56.6555 73 54.9986C73 53.3418 71.6555 52 69.9986 52C68.3418 52 67 53.3418 67 54.9986C67 56.6555 68.3418 58 69.9986 58" fill="#FEFEFE"/>
<path fill-rule="evenodd" clip-rule="evenodd" d="M69.9986 72C71.6555 72 73 70.6582 73 69.0014C73 67.3445 71.6555 66 69.9986 66C68.3418 66 67 67.3445 67 69.0014C67 70.6582 68.3418 72 69.9986 72" fill="#FEFEFE"/>
<path d="M28 52V72" stroke="#070100" stroke-width="4"/>
<path d="M38 62H18" stroke="#070100" stroke-width="4"/>
<path d="M48 12V42.1101V42.3608H68.9158C79.4553 42.3608 88 51.2348 88 62.1804C88 73.1283 79.4553 82 68.9158 82C60.419 82 53.2295 76.2324 50.7561 68.2643H45.2439C42.7705 76.2324 35.5789 82 27.0842 82C16.5447 82 8 73.1283 8 62.1804C8 51.2348 16.5447 42.3608 27.0842 42.3608H36.8993" stroke="#070100" stroke-width="4"/>
</g>
<defs>
<clipPath id="clip0_2952_112135">
<rect width="96" height="96" fill="white"/>
</clipPath>
</defs>
</svg>
