<svg width="96" height="96" viewBox="0 0 96 96" fill="none" xmlns="http://www.w3.org/2000/svg">
<g clip-path="url(#clip0_2952_112320)">
<path fill-rule="evenodd" clip-rule="evenodd" d="M48 78C48 78 58.8168 72.9779 71.5507 72.9779C80.2733 72.9779 84 74.0733 84 74.0733V28.9686C84 25.463 81.385 22.5376 77.9712 22.2576C76.1461 22.1098 73.9206 22 71.3121 22C54.5737 22 48 27.0198 48 27.0198V78Z" fill="#FFCC00"/>
<path d="M58.2566 74.6266C62.0709 73.7171 66.6707 72.9802 71.5485 72.9802C80.2733 72.9802 84 74.0733 84 74.0733V28.9686C84 25.463 81.3828 22.5398 77.9712 22.2576C76.1461 22.1098 73.9184 22 71.3121 22C54.5715 22 48 27.0221 48 27.0221V78C48 78 37.1832 72.9802 24.4515 72.9802C22.3398 72.9802 20.5213 73.0429 18.9764 73.1414C15.1862 73.3789 12 70.3101 12 66.4259V23.0954C12 23.0954 16.4357 22 24.6857 22C41.4285 22 48 27.0221 48 27.0221" stroke="#070100" stroke-width="4"/>
<path d="M20 35.164C21.5617 35.066 23.3841 35 25.4502 35C32.9686 35 38.3701 35.964 42 36.998" stroke="#070100" stroke-width="4"/>
<path d="M76 35.164C74.4383 35.066 72.6159 35 70.5498 35C63.0314 35 57.6299 35.964 54 36.998" stroke="#070100" stroke-width="4"/>
<path d="M20 43.162C21.5617 43.064 23.3841 43 25.4502 43C32.9686 43 38.3701 43.964 42 44.996" stroke="#070100" stroke-width="4"/>
<path d="M76 43.162C74.4383 43.064 72.6159 43 70.5498 43C63.0314 43 57.6299 43.964 54 44.996" stroke="#070100" stroke-width="4"/>
<path d="M20 51.162C21.5617 51.066 23.3841 51 25.4502 51C32.9686 51 38.3701 51.964 42 52.998" stroke="#070100" stroke-width="4"/>
<path d="M76 51.162C74.4383 51.066 72.6159 51 70.5498 51C63.0314 51 57.6299 51.964 54 52.998" stroke="#070100" stroke-width="4"/>
<path d="M20 60.164C21.5617 60.066 23.3841 60 25.4502 60C32.9686 60 38.3701 60.966 42 61.998" stroke="#070100" stroke-width="4"/>
<path d="M76 60.164C74.4383 60.066 72.6159 60 70.5498 60C63.0314 60 57.6299 60.966 54 61.998" stroke="#070100" stroke-width="4"/>
</g>
<defs>
<clipPath id="clip0_2952_112320">
<rect width="96" height="96" fill="white"/>
</clipPath>
</defs>
</svg>
