<svg width="96" height="96" viewBox="0 0 96 96" fill="none" xmlns="http://www.w3.org/2000/svg">
<g clip-path="url(#clip0_2952_112042)">
<path fill-rule="evenodd" clip-rule="evenodd" d="M34.5971 66H16.8002L14.5191 71.923C12.6668 76.734 16.0001 82 20.8947 82H77.1053C81.9999 82 85.3332 76.734 83.4809 71.923L81.1998 66H61.9815" fill="#FFCC00"/>
<path fill-rule="evenodd" clip-rule="evenodd" d="M14 14V22.8112C14 28.9903 18.9256 34 25.0011 34C31.0677 34 35.9844 29.004 36 22.8362V14H14Z" fill="#FFCC00"/>
<path fill-rule="evenodd" clip-rule="evenodd" d="M75.291 14H60V22.3306C60 28.1743 64.1995 33.3934 69.9194 33.9475C76.4788 34.5835 82 29.353 82 22.8121V20.8225C82 17.0547 78.9949 14 75.291 14" fill="#FFCC00"/>
<path d="M82.0991 22.4474V20.9637C82.0991 17.1591 79.0029 14.0747 75.1866 14.0747H14.0991V22.4864C14.0991 28.387 18.426 33.6569 24.3195 34.2164C31.0778 34.8585 36.7643 29.5772 36.7643 22.9703C36.7643 29.2102 41.8411 34.2692 48.098 34.2692C54.3572 34.2692 59.4317 29.2102 59.4317 22.9703C59.4317 29.2102 64.5062 34.2692 70.7654 34.2692C73.8939 34.2692 76.4932 33.173 78.5451 31.1297L80.0991 32.0747V66.0747" stroke="#070100" stroke-width="4"/>
<path d="M33.5971 66H15.8002L13.5191 71.923C11.6668 76.734 15.0001 82 19.8947 82H76.1053C80.9999 82 84.3332 76.734 82.4809 71.923L80.1998 66H60.9815" stroke="#070100" stroke-width="4"/>
<path d="M16 66V42" stroke="#070100" stroke-width="4"/>
<path fill-rule="evenodd" clip-rule="evenodd" d="M47 67.4632C46.9719 68.1146 46.9391 69.082 46.5693 70.0422C46.1338 71.1724 45.2395 72.2931 43.348 72.8797C40.5037 73.385 38.886 72.2332 38.2727 70.6432C37.6265 68.9622 38.0292 66.7066 40.5645 64.8627C42.6785 63.6535 45.3566 63.9217 47 64.4245V67.4632Z" fill="#FEFEFE"/>
<path d="M46.3579 69.2977C46.3013 71.4047 45.31 73.1237 42.9664 73.8833C40.325 74.3735 38.8228 73.2561 38.2532 71.7136C37.6532 70.0829 38.0271 67.8946 40.3815 66.1059C42.3447 64.9328 44.8317 65.1929 46.3579 65.6808V42H48.8058C48.9275 44.4833 52.2276 48.9249 53.9125 51.1805C55.9952 53.9658 56.3974 56.1982 55.656 59.3738C55.1821 61.4088 53.1103 63.1742 52.8951 63.4367" stroke="#070100" stroke-width="4"/>
</g>
<defs>
<clipPath id="clip0_2952_112042">
<rect width="96" height="96" fill="white"/>
</clipPath>
</defs>
</svg>
