<svg width="96" height="96" viewBox="0 0 96 96" fill="none" xmlns="http://www.w3.org/2000/svg">
<g clip-path="url(#clip0_2952_112978)">
<path fill-rule="evenodd" clip-rule="evenodd" d="M70.2076 83.7498L60.9147 87.1316L53 65.3849L62.2898 62L70.2076 83.7498Z" fill="#FFCC00"/>
<path fill-rule="evenodd" clip-rule="evenodd" d="M55.2062 54.5475C67.659 50.0143 74.0791 36.2443 69.546 23.7942C65.016 11.3411 51.2463 4.92084 38.7935 9.45405C26.3437 13.9842 19.9206 27.7542 24.4537 40.2074C28.9868 52.6574 42.7533 59.0776 55.2062 54.5475" fill="#FFCC00"/>
<path fill-rule="evenodd" clip-rule="evenodd" d="M63.9104 25.8463C60.5096 16.5043 50.1847 11.6922 40.846 15.0896C31.5074 18.4904 26.6918 28.8152 30.0892 38.1537C33.49 47.4957 43.8149 52.3078 53.1536 48.9104C62.4957 45.5096 67.3078 35.1848 63.9104 25.8463" fill="#FEFEFE"/>
<path fill-rule="evenodd" clip-rule="evenodd" d="M53 65.4991L61.2792 88L71 84.5009L62.7176 62L53 65.4991Z" stroke="#070100" stroke-width="4"/>
<path d="M58.0066 64L55.1829 55.8928C42.7411 60.5571 28.9802 53.9512 24.4531 41.1381C19.9229 28.3249 26.3389 14.16 38.7807 9.49573C51.2256 4.83147 64.9865 11.4405 69.5136 24.2505C71.4985 29.8552 71.4675 35.7533 69.5879 40.9372C68.7426 43.2646 67.471 46.1446 64.457 49.6026" stroke="#070100" stroke-width="4"/>
<path fill-rule="evenodd" clip-rule="evenodd" d="M50.8531 20.248L50.1994 36.1107H45.9116L45.2549 20.248H50.8531ZM45 41.4096C45 40.5434 45.2969 39.8606 45.8936 39.3583C46.4843 38.8561 47.1919 38.605 48.0195 38.605C48.8411 38.605 49.5427 38.8561 50.1274 39.3583C50.7091 39.8606 51 40.5434 51 41.4096C51 42.2786 50.7091 42.9671 50.1274 43.4806C49.5427 43.9941 48.8411 44.2481 48.0195 44.2481C47.1919 44.2481 46.4843 43.9941 45.8936 43.4806C45.2969 42.9671 45 42.2786 45 41.4096V41.4096Z" fill="#070100"/>
</g>
<defs>
<clipPath id="clip0_2952_112978">
<rect width="96" height="96" fill="white"/>
</clipPath>
</defs>
</svg>
