<svg width="96" height="96" viewBox="0 0 96 96" fill="none" xmlns="http://www.w3.org/2000/svg">
<g clip-path="url(#clip0_2952_113016)">
<path d="M66 20V40" stroke="#070100" stroke-width="4"/>
<path d="M50 26L84 60" stroke="#070100" stroke-width="4"/>
<path d="M68 42H90" stroke="#070100" stroke-width="4"/>
<path d="M68 40.0002L83.5563 24.4438" stroke="#070100" stroke-width="4"/>
<path fill-rule="evenodd" clip-rule="evenodd" d="M82 44C82 35.1629 74.8371 28 66 28C57.1651 28 50 35.1629 50 44C50 52.8349 57.1651 60 66 60C74.8371 60 82 52.8349 82 44" fill="#FFCC00"/>
<path d="M77.539 54C80.2937 51.2434 82 47.4363 82 43.2303C82 34.8183 75.1811 28 66.7684 28C62.5621 28 58.7547 29.704 56 32.4607" stroke="#070100" stroke-width="4" stroke-linecap="square"/>
<path fill-rule="evenodd" clip-rule="evenodd" d="M62.0976 74C67.5673 74 72 69.3104 72 63.5238C72 57.7393 67.5673 53.0498 62.0976 53.0498C61.2476 53.0498 60.4359 53.1981 59.6475 53.4117C58.8825 43.6638 51.1752 36 41.7659 36C33.9502 36 27.3224 41.2898 24.8511 48.6614C23.4677 48.0949 21.9696 47.7734 20.395 47.7734C13.5504 47.7734 8 53.6433 8 60.8867C8 68.1279 13.5504 74 20.395 74H62.0976Z" fill="#FEFEFE"/>
<path fill-rule="evenodd" clip-rule="evenodd" d="M62.0976 74C67.5673 74 72 69.3104 72 63.5238C72 57.7393 67.5673 53.0498 62.0976 53.0498C61.2476 53.0498 60.4359 53.1981 59.6475 53.4117C58.8825 43.6638 51.1752 36 41.7659 36C33.9502 36 27.3224 41.2898 24.8511 48.6614C23.4677 48.0949 21.9696 47.7734 20.395 47.7734C13.5504 47.7734 8 53.6433 8 60.8867C8 68.1279 13.5504 74 20.395 74H62.0976Z" stroke="#070100" stroke-width="4"/>
<path d="M42 36C32.0585 36 24 44.0575 24 54" stroke="#070100" stroke-width="4" stroke-linejoin="bevel"/>
<path d="M62 53C58.7269 53 55.8216 54.5714 54 57" stroke="#070100" stroke-width="4" stroke-linejoin="bevel"/>
</g>
<defs>
<clipPath id="clip0_2952_113016">
<rect width="96" height="96" fill="white"/>
</clipPath>
</defs>
</svg>
