<svg width="96" height="96" viewBox="0 0 96 96" fill="none" xmlns="http://www.w3.org/2000/svg">
<g clip-path="url(#clip0_2952_112179)">
<path d="M34 51L41.4682 57.8318C42.5918 58.6331 43.6401 59.7205 43.6691 60.8625V76.8903L48.6731 85L53.6772 76.8903V60.8646C53.7061 59.7205 54.5256 58.6331 55.6492 57.8318L62 51.0425" stroke="#070100" stroke-width="4"/>
<path fill-rule="evenodd" clip-rule="evenodd" d="M72 32C72 18.745 61.255 8 48 8C34.745 8 24 18.745 24 32C24 45.255 34.745 56 48 56C61.255 56 72 45.255 72 32" fill="#FFCC00"/>
<path d="M57.8896 26.1381C58.8048 27.0529 60.2881 27.0529 61.2033 26.1381C62.1184 25.2234 62.1184 23.739 61.2033 22.8242" stroke="#070100" stroke-width="4"/>
<path d="M48.5469 35.4799C49.4633 36.3947 50.946 36.3947 51.8608 35.4799C52.7756 34.5652 52.7756 33.0808 51.8608 32.166" stroke="#070100" stroke-width="4"/>
<path d="M39.2065 44.8198C40.1213 45.7346 41.6057 45.7346 42.5205 44.8198C43.4352 43.905 43.4352 42.4206 42.5205 41.5059" stroke="#070100" stroke-width="4"/>
<path d="M51.1094 46.0966C52.0241 47.0127 53.5085 47.0127 54.4233 46.0966C55.3381 45.1821 55.3381 43.6982 54.4233 42.7837" stroke="#070100" stroke-width="4"/>
<path d="M60.4424 36.7641C61.3572 37.6789 62.8415 37.6789 63.7563 36.7641C64.6711 35.8493 64.6711 34.365 63.7563 33.4502" stroke="#070100" stroke-width="4"/>
<path d="M71.9137 34.0473C71.9712 33.3737 72 32.6904 72 32C72 18.745 61.255 8 48 8C34.745 8 24 18.745 24 32C24 45.255 34.745 56 48 56C56.024 56 63.1298 52.0611 67.4858 46.0126" stroke="#070100" stroke-width="4"/>
</g>
<defs>
<clipPath id="clip0_2952_112179">
<rect width="96" height="96" fill="white"/>
</clipPath>
</defs>
</svg>
