<svg width="96" height="96" viewBox="0 0 96 96" fill="none" xmlns="http://www.w3.org/2000/svg">
<g clip-path="url(#clip0_2952_112718)">
<path fill-rule="evenodd" clip-rule="evenodd" d="M74.7605 37.2614V56.1964V88H70.7081C66.4138 88 62.9294 84.486 62.9294 80.1494V64.9365H27.6859L16.7693 88H15.6613C10.1418 88 6.43589 82.2804 8.65182 77.1777L19.757 51.5796V39.3333H56.0779L65.8458 19.1566L68.2222 12L72.7508 18.5808L83.2371 25.2386C88.8864 28.8143 88.6368 33.9144 86.9252 38.3564L85.8503 41.1738" fill="#FFCC00"/>
<path d="M74.7017 37.2614V56.1964V88H70.5216C66.2955 88 62.8694 84.5425 62.8694 80.2753V64.9365H27.622L16.7041 88H15.7871C10.1779 88 6.41038 82.1879 8.66222 77.0004L19.6922 51.5796V39.3333H56.0171L65.7861 19.1566L68.1627 12L72.6919 18.5808L83.1792 25.2386C89.0432 28.1717 88.5796 33.9144 86.8678 38.3564L85.7928 41.1738" stroke="#070100" stroke-width="4"/>
<path d="M56 40L24 6" stroke="#070100" stroke-width="4"/>
<path d="M74.8792 50.2807L55.7314 39.4473" stroke="#070100" stroke-width="4"/>
</g>
<defs>
<clipPath id="clip0_2952_112718">
<rect width="96" height="96" fill="white"/>
</clipPath>
</defs>
</svg>
