<svg width="96" height="96" viewBox="0 0 96 96" fill="none" xmlns="http://www.w3.org/2000/svg">
<g clip-path="url(#clip0_2952_112190)">
<path d="M42.6622 72.0412C44.3503 71.9958 46.0709 71.9754 47.8163 71.9754C69.809 71.9754 87.6351 75.5619 87.6351 79.9865C87.6351 84.4135 69.809 88 47.8163 88C25.8261 88 8 84.4135 8 79.9865C8 76.9747 16.256 74.3535 28.4617 72.9839" stroke="#070100" stroke-width="4"/>
<path fill-rule="evenodd" clip-rule="evenodd" d="M36 42V10L68 26L36 42Z" fill="#FFCC00"/>
<path d="M36 79V11L68 26.4303L36 41.8605" stroke="#070100" stroke-width="4"/>
<path fill-rule="evenodd" clip-rule="evenodd" d="M41 79.4C41 80.172 38.7635 80.8 36 80.8C33.2396 80.8 31 80.172 31 79.4C31 78.628 33.2396 78 36 78C38.7635 78 41 78.628 41 79.4Z" stroke="#070100" stroke-width="4"/>
<path fill-rule="evenodd" clip-rule="evenodd" d="M76 69C76 62.9258 71.0761 58 64.9988 58C58.9239 58 54 62.9258 54 69C54 75.0742 58.9239 80 64.9988 80C71.0761 80 76 75.0742 76 69" fill="#FFCC00"/>
<path fill-rule="evenodd" clip-rule="evenodd" d="M76 69C76 62.9258 71.0761 58 64.9988 58C58.9239 58 54 62.9258 54 69C54 75.0742 58.9239 80 64.9988 80C71.0761 80 76 75.0742 76 69Z" stroke="#070100" stroke-width="4"/>
</g>
<defs>
<clipPath id="clip0_2952_112190">
<rect width="96" height="96" fill="white"/>
</clipPath>
</defs>
</svg>
