<svg width="96" height="96" viewBox="0 0 96 96" fill="none" xmlns="http://www.w3.org/2000/svg">
<g clip-path="url(#clip0_2952_113038)">
<path d="M48 88V50" stroke="#070100" stroke-width="4"/>
<path fill-rule="evenodd" clip-rule="evenodd" d="M67.8833 32C73.3722 26.5112 73.3722 17.6094 67.8833 12.1183C62.3943 6.62722 53.4898 6.62722 48.0009 12.1183C42.5096 6.62722 33.6075 6.62722 28.1185 12.1183C22.6272 17.6094 22.6272 26.5112 28.1185 32C22.6272 37.4911 22.6272 46.3929 28.1185 51.8817C33.6075 57.3728 42.5096 57.3728 48.0009 51.8817C53.4898 57.3728 62.3943 57.3728 67.8833 51.8817C73.3722 46.3929 73.3722 37.4911 67.8833 32" fill="#FFCC00"/>
<path fill-rule="evenodd" clip-rule="evenodd" d="M54 32.999L48.999 28L44 32.999L48.999 38L54 32.999Z" fill="#FEFEFE"/>
<path fill-rule="evenodd" clip-rule="evenodd" d="M54 32.999L48.999 28L44 32.999L48.999 38L54 32.999Z" stroke="#070100" stroke-width="4"/>
<path d="M47.7539 51.626L48 51.8817C53.4888 57.3728 62.3929 57.3728 67.8817 51.8817C73.3728 46.3929 73.3728 37.4911 67.8817 32C73.3728 26.5089 73.3728 17.6094 67.8817 12.1183C62.3929 6.62722 53.4888 6.62722 48 12.1183C42.5112 6.62722 33.6071 6.62722 28.1183 12.1183C22.6272 17.6094 22.6272 26.5089 28.1183 32C22.6272 37.4911 22.6272 46.3929 28.1183 51.8817C31.0351 54.7985 34.4854 55.6837 36.5332 55.9237" stroke="#070100" stroke-width="4"/>
<path fill-rule="evenodd" clip-rule="evenodd" d="M26 88V84C26 78.7713 34.305 75.6749 39.2 80L48 88H26Z" stroke="#070100" stroke-width="4"/>
<path fill-rule="evenodd" clip-rule="evenodd" d="M70 88V84C70 78.7713 61.695 75.6749 56.8 80L48 88H70Z" stroke="#070100" stroke-width="4"/>
</g>
<defs>
<clipPath id="clip0_2952_113038">
<rect width="96" height="96" fill="white"/>
</clipPath>
</defs>
</svg>
