<svg width="96" height="96" viewBox="0 0 96 96" fill="none" xmlns="http://www.w3.org/2000/svg">
<g clip-path="url(#clip0_2952_112928)">
<path fill-rule="evenodd" clip-rule="evenodd" d="M48 20.736L29.9969 8L12 20.736V88L29.9969 75.264L48 88L66 75.264L84 88V34.9938V20.736L66 8L48 20.736Z" fill="#FFCC00"/>
<path d="M84 34.9958V88L66 75.2645L48 88L30 75.2645L12 88V20.7385L30 8L48 20.7385L66 8L84 20.7385" stroke="#070100" stroke-width="4" stroke-linejoin="round"/>
<path d="M30 76V8" stroke="#070100" stroke-width="4"/>
<path d="M66 76V8" stroke="#070100" stroke-width="4"/>
<path d="M45.4209 61.0156V42.1574H48.8417V61.0156H45.4209ZM45.4209 38.7365V35.3157H48.8417V38.7365H45.4209Z" fill="#070100"/>
</g>
<defs>
<clipPath id="clip0_2952_112928">
<rect width="96" height="96" fill="white"/>
</clipPath>
</defs>
</svg>
