<svg width="96" height="96" viewBox="0 0 96 96" fill="none" xmlns="http://www.w3.org/2000/svg">
<g clip-path="url(#clip0_2952_112462)">
<path d="M34 46C34 49.3138 46.0884 52 61.0013 52C75.9116 52 88 49.3138 88 46" stroke="#070100" stroke-width="4"/>
<path d="M34 32C34 35.3138 46.0884 38 61.0013 38C75.9116 38 88 35.3138 88 32" stroke="#070100" stroke-width="4"/>
<path d="M34 18C34 21.3138 46.0884 24 61.0013 24C75.9116 24 88 21.3138 88 18" stroke="#070100" stroke-width="4"/>
<path fill-rule="evenodd" clip-rule="evenodd" d="M34 60.9109C34 64.8262 46.0884 68 61.0013 68C75.9116 68 88 64.8262 88 60.9109V19.0891C88 15.1738 75.9116 12 61.0013 12C46.0884 12 34 15.1738 34 19.0891V60.9109Z" stroke="#070100" stroke-width="4"/>
<path fill-rule="evenodd" clip-rule="evenodd" d="M60 60C60 45.6412 48.3594 34 33.9988 34C28.1488 34 22.7509 35.932 18.4079 39.1906C12.0886 43.9365 8 51.4914 8 60C8 74.3588 19.6406 86 33.9988 86C48.3594 86 60 74.3588 60 60" fill="#FFCC00"/>
<path d="M20.2256 37.9453C19.603 38.3356 18.9953 38.7531 18.4074 39.1928C12.0908 43.9361 8 51.4906 8 60.0012C8 74.3594 19.6401 86 34 86C48.3574 86 60 74.3594 60 60.0012C60 45.6406 48.3574 34 34 34" stroke="#070100" stroke-width="4" stroke-linecap="square"/>
<path d="M24 52C24.721 55.0605 25.5007 58.1261 26.3418 61.1943C27.1829 64.2651 28.1148 67.2003 29.1295 70L33.9626 52.9051H34L38.8705 70C39.3218 68.7446 39.7063 67.502 40.2163 66.0114C40.7236 64.5233 41.1429 62.9764 41.5888 61.3759C42.0347 59.7753 42.4726 58.1389 42.8732 56.5588C43.2764 54.9582 43.6449 53.442 44 52" stroke="#070100" stroke-width="4" stroke-linejoin="round"/>
<path d="M20 59H26" stroke="#070100" stroke-width="4"/>
<path d="M48 59H42" stroke="#070100" stroke-width="4"/>
</g>
<defs>
<clipPath id="clip0_2952_112462">
<rect width="96" height="96" fill="white"/>
</clipPath>
</defs>
</svg>
