<svg width="96" height="96" viewBox="0 0 96 96" fill="none" xmlns="http://www.w3.org/2000/svg">
<g clip-path="url(#clip0_2952_112951)">
<path fill-rule="evenodd" clip-rule="evenodd" d="M69.2076 81.7498L59.9147 85.1316L52 63.3849L61.2898 60L69.2076 81.7498Z" fill="#FFCC00"/>
<path fill-rule="evenodd" clip-rule="evenodd" d="M54.2062 55.5475C66.659 51.0143 73.0791 37.2443 68.546 24.7942C64.016 12.3411 50.2463 5.92084 37.7935 10.454C25.3437 14.9842 18.9206 28.7542 23.4537 41.2074C27.9868 53.6574 41.7533 60.0776 54.2062 55.5475" fill="#FFCC00"/>
<path fill-rule="evenodd" clip-rule="evenodd" d="M62.9104 26.8463C59.5096 17.5043 49.1847 12.6922 39.846 16.0896C30.5074 19.4904 25.6918 29.8152 29.0892 39.1537C32.49 48.4957 42.8149 53.3078 52.1536 49.9104C61.4957 46.5096 66.3078 36.1848 62.9104 26.8463" fill="#FEFEFE"/>
<path d="M36 30.9041L43.4318 38L56 26" stroke="#070100" stroke-width="4"/>
<path fill-rule="evenodd" clip-rule="evenodd" d="M52 64.4991L60.2792 87L70 83.5009L61.7176 61L52 64.4991Z" stroke="#070100" stroke-width="4"/>
<path d="M57.0066 64L54.1829 55.8928C41.7411 60.5571 27.9802 53.9512 23.4531 41.1381C18.9229 28.3249 25.3389 14.16 37.7807 9.49573C50.2256 4.83147 63.9865 11.4405 68.5136 24.2505C70.4985 29.8552 70.4675 35.7533 68.5879 40.9372C67.7426 43.2646 66.471 46.1446 63.457 49.6026" stroke="#070100" stroke-width="4"/>
</g>
<defs>
<clipPath id="clip0_2952_112951">
<rect width="96" height="96" fill="white"/>
</clipPath>
</defs>
</svg>
