<svg width="96" height="96" viewBox="0 0 96 96" fill="none" xmlns="http://www.w3.org/2000/svg">
<g clip-path="url(#clip0_2952_112054)">
<path fill-rule="evenodd" clip-rule="evenodd" d="M65.6849 78H20.9985C17.1344 78 14 74.8174 14 70.8937V44H58.6863C62.5505 44 65.6849 47.1804 65.6849 51.1063V53.4286L82 45.3402V76.6598L65.6849 68.5714V78Z" fill="#FFCC00"/>
<path d="M82.0747 76.2086V70.0326V53.7725V44.889L65.7596 52.9774V50.315C65.7596 46.5783 62.7738 43.5488 59.0938 43.5488H14.0747V70.7826C14.0747 74.5193 17.0582 77.5488 20.7405 77.5488H65.7596V68.1203L72.1858 71.3074" stroke="#070100" stroke-width="4"/>
<path fill-rule="evenodd" clip-rule="evenodd" d="M62 31C62 24.3728 56.6272 19 50 19C43.3728 19 38 24.3728 38 31C38 37.6272 43.3728 43 50 43C56.6272 43 62 37.6272 62 31Z" stroke="#070100" stroke-width="4"/>
<path fill-rule="evenodd" clip-rule="evenodd" d="M54.2596 31.5483C54.1056 33.7501 52.1942 35.4136 49.989 35.2594C47.7864 35.1054 46.1251 33.1921 46.2791 30.9903C46.433 28.7885 48.3445 27.1249 50.547 27.2789C52.7523 27.4331 54.4136 29.3465 54.2596 31.5483" fill="#070100"/>
<path fill-rule="evenodd" clip-rule="evenodd" d="M38 31C38 24.3728 32.6272 19 26 19C19.3728 19 14 24.3728 14 31C14 37.6272 19.3728 43 26 43C32.6272 43 38 37.6272 38 31Z" stroke="#070100" stroke-width="4"/>
<path fill-rule="evenodd" clip-rule="evenodd" d="M30.2596 31.5483C30.1056 33.7501 28.1942 35.4136 25.989 35.2594C23.7864 35.1054 22.1251 33.1921 22.2791 30.9903C22.433 28.7885 24.3445 27.1249 26.547 27.2789C28.7523 27.4331 30.4136 29.3465 30.2596 31.5483" fill="#070100"/>
</g>
<defs>
<clipPath id="clip0_2952_112054">
<rect width="96" height="96" fill="white"/>
</clipPath>
</defs>
</svg>
