<svg width="96" height="96" viewBox="0 0 96 96" fill="none" xmlns="http://www.w3.org/2000/svg">
<g clip-path="url(#clip0_2952_112405)">
<path fill-rule="evenodd" clip-rule="evenodd" d="M27.2246 65.6463L50.0504 54.959L65.2825 47.8289L79.474 41.1843C80.7798 40.5713 85 38.5846 85 38.5846C85 38.5846 83.7567 35.9111 82.9924 34.2667C81.3569 30.743 78.0012 28.6713 74.6744 30.2285L60.2222 36.9961L33.2876 17.1204C31.6164 15.9526 29.484 15.6797 27.5744 16.3866L22.6657 18.2077L27.0263 23.2639L36.6433 34.4099L45.0147 44.1151L22.0195 54.8807L16.2796 50.8738C14.5549 49.6724 12.3423 49.4218 10.3949 50.2116L9 50.7753L17.9285 70L27.2246 65.6463Z" fill="#FFCC00"/>
<path d="M6 80H90" stroke="#070100" stroke-width="4"/>
<path d="M17.9285 70L27.2246 65.6463L50.0504 54.959L65.2825 47.8289L75.6125 43.0009C76.9183 42.3879 85 38.5846 85 38.5846C85 38.5846 83.7567 35.9111 82.9924 34.2667C81.3569 30.7453 78.0012 28.6713 74.6744 30.2285L60.22 36.9961L33.2876 17.1204C31.6164 15.9526 29.484 15.6797 27.5744 16.3866L22.6657 18.2077L27.0263 23.2639L36.641 34.4099L45.0147 44.1151L22.0195 54.8829L16.489 51.0214C14.6329 49.7261 12.2532 49.4576 10.1609 50.3055L9 50.7753L13.189 59.7937" stroke="#070100" stroke-width="4"/>
</g>
<defs>
<clipPath id="clip0_2952_112405">
<rect width="96" height="96" fill="white"/>
</clipPath>
</defs>
</svg>
