<svg width="96" height="96" viewBox="0 0 96 96" fill="none" xmlns="http://www.w3.org/2000/svg">
<g clip-path="url(#clip0_2952_112157)">
<path fill-rule="evenodd" clip-rule="evenodd" d="M25.9679 88H23.1977C22.081 88 21.168 87.0416 21.168 85.8668L21.1752 84.0456C13.8998 84.0456 8.0024 77.8548 8 70.2176V70.2176V70.2151V70.2126C8 66.1273 9.69183 62.4571 12.3757 59.924C12.4237 59.8787 12.4716 59.8334 12.5195 59.7907L12.5243 59.7831C14.8368 57.665 17.8634 56.3846 21.1752 56.3846L21.168 54.1357C21.168 52.9609 22.081 52 23.1977 52H25.9679C27.0846 52 28 52.9609 28 54.1357V85.8668C28 87.0416 27.0846 88 25.9679 88" fill="#FFCC00"/>
<path fill-rule="evenodd" clip-rule="evenodd" d="M70.0324 52H72.8024C73.9195 52 74.8348 52.9584 74.8348 54.1337L74.8252 55.9546C82.0997 55.9546 87.9976 62.1438 88 69.7831V69.7856V69.7856V69.7881C88 73.8739 86.3087 77.546 83.6252 80.0782C83.5772 80.1236 83.5291 80.1665 83.4811 80.2119L83.4763 80.2169C81.1628 82.3354 78.1357 83.6192 74.8252 83.6192L74.8348 85.8689C74.8348 87.0416 73.9195 88 72.8024 88H70.0324C68.9153 88 68 87.0416 68 85.8689V54.1337C68 52.9584 68.9153 52 70.0324 52" fill="#FFCC00"/>
<path d="M88 69.0005C88 61.3611 82.0997 55.1694 74.8252 55.1694L74.8348 53.346C74.8348 52.1732 73.9195 51.2148 72.8024 51.2148H70.0324C68.9153 51.2148 68 52.1732 68 53.346V85.0812C68 86.2565 68.9153 87.2148 70.0324 87.2148H72.8024C73.9195 87.2148 74.8348 86.2565 74.8348 85.0812L74.8252 82.834C74.8252 82.834 79.976 83.1467 84.3964 78.4885" stroke="#070100" stroke-width="4"/>
<path d="M88 70.2257V51.7117C88 28.1215 70.0919 9 48.0012 9C25.9081 9 8 28.1215 8 51.7117V70.2257V68.4492C8 76.4161 14.0498 82.8759 21.5111 82.8759L21.5012 84.7749C21.5012 85.9979 22.4373 87 23.5852 87H26.4229C27.5683 87 28.5068 85.9979 28.5068 84.7749V53.6791C28.5068 52.4561 27.5683 51.454 26.4229 51.454H23.5852C22.4373 51.454 21.5012 52.4561 21.5012 53.6791L21.5111 56.0252C21.5111 56.0252 18.3014 55.9358 16.087 57.2325" stroke="#070100" stroke-width="4"/>
</g>
<defs>
<clipPath id="clip0_2952_112157">
<rect width="96" height="96" fill="white"/>
</clipPath>
</defs>
</svg>
