<svg width="96" height="96" viewBox="0 0 96 96" fill="none" xmlns="http://www.w3.org/2000/svg">
<g clip-path="url(#clip0_2952_112240)">
<path fill-rule="evenodd" clip-rule="evenodd" d="M25.4692 52L25.6055 54.3356L27.2985 76.3054C27.5476 79.5241 30.0833 82 33.1289 82H41.1427V52H25.4692Z" fill="#FFCC00"/>
<path fill-rule="evenodd" clip-rule="evenodd" d="M54.8574 52V82H68.6911L70.511 58.6953C70.7942 55.0887 68.0182 52 64.495 52H54.8574Z" fill="#FFCC00"/>
<path d="M54.5036 52.8271V82.8271" stroke="#070100" stroke-width="4"/>
<path d="M42.2248 52.8271V82.8271" stroke="#070100" stroke-width="4"/>
<path d="M78.7911 49.2781C79.1477 48.5082 79.347 47.6497 79.347 46.7449V46.7744V45.878C79.347 42.6678 76.8402 40.0692 73.6935 39.892C71.1531 28.5107 61.0628 20 48.9776 20C36.8923 20 26.802 28.5107 24.2616 39.892C21.1149 40.0692 18.6123 42.6678 18.6123 45.878V46.7744C18.6123 50.1006 21.2912 52.7941 24.5993 52.7941H65.2814C68.9588 52.7941 71.8538 55.9474 71.5643 59.6322L69.6532 84H34.1127C30.8297 84 28.0963 81.4689 27.8299 78.1786L26.6405 63.549" stroke="#070100" stroke-width="4"/>
<path fill-rule="evenodd" clip-rule="evenodd" d="M54.8574 19C54.8574 15.1343 51.7887 12 47.9991 12C44.2117 12 41.1431 15.1343 41.1431 19C41.1431 22.8657 44.2117 26 47.9991 26C51.7887 26 54.8574 22.8657 54.8574 19" fill="#FFCC00"/>
<path fill-rule="evenodd" clip-rule="evenodd" d="M55.663 18.8474C55.663 14.9817 52.5944 11.8474 48.8048 11.8474C45.0174 11.8474 41.9487 14.9817 41.9487 18.8474C41.9487 22.7131 45.0174 25.8474 48.8048 25.8474C52.5944 25.8474 55.663 22.7131 55.663 18.8474Z" stroke="#070100" stroke-width="4"/>
</g>
<defs>
<clipPath id="clip0_2952_112240">
<rect width="94.0408" height="96" fill="white" transform="translate(0.979492)"/>
</clipPath>
</defs>
</svg>
