<svg width="96" height="96" viewBox="0 0 96 96" fill="none" xmlns="http://www.w3.org/2000/svg">
<g clip-path="url(#clip0_2952_112730)">
<path fill-rule="evenodd" clip-rule="evenodd" d="M78.4007 53.2828V66.2409V88H75.4626C72.3484 88 69.8238 85.5953 69.8238 82.629V72.2178H44.2717L36.3553 88H35.5529C31.5531 88 28.867 84.0877 30.4718 80.5947L38.5227 63.0812V54.6996H64.8553L71.9375 40.8934L73.6621 36L76.9427 40.5019L84.5484 45.055C88.6436 47.5064 88.4601 50.9923 87.2222 54.0332L86.4394 55.9602" fill="#FFCC00"/>
<path d="M78.6908 53.2828V66.2409V88H75.7663C72.8087 88 70.4087 85.6349 70.4087 82.7152V72.2178H45.7348L38.0905 88H37.4503C33.5219 88 30.8879 84.0224 32.4636 80.4736L40.1835 63.0812V54.6996H65.6109L72.4497 40.8934L74.1151 36L77.2829 40.5019L84.6272 45.055C88.7304 47.066 88.4044 50.9923 87.2091 54.0332L86.4532 55.9602" stroke="#070100" stroke-width="4"/>
<path d="M79.0225 61.133L66.8369 54.2402" stroke="#070100" stroke-width="4"/>
<path fill-rule="evenodd" clip-rule="evenodd" d="M48 33.0974H32.4074V48H29.4575C25.6133 48 22.4943 44.7955 22.4943 40.8405V33.0974H14.961C11.1167 33.0974 8 29.8905 8 25.9379V22.905H22.4943V8H25.7361C29.4205 8 32.4074 11.0711 32.4074 14.864V22.905H41.0367C44.881 22.905 48 26.1095 48 30.0644V33.0974Z" stroke="#070100" stroke-width="4"/>
</g>
<defs>
<clipPath id="clip0_2952_112730">
<rect width="96" height="96" fill="white"/>
</clipPath>
</defs>
</svg>
