<svg width="96" height="96" viewBox="0 0 96 96" fill="none" xmlns="http://www.w3.org/2000/svg">
<g clip-path="url(#clip0_2952_112078)">
<path fill-rule="evenodd" clip-rule="evenodd" d="M56 40H65.4382C69.4598 40 72.5344 43.5504 71.9221 47.4886L66.2517 84H56V40Z" fill="#FFCC00"/>
<path fill-rule="evenodd" clip-rule="evenodd" d="M42 40H26L31.5975 78.4913C32.0584 81.6605 34.639 84 37.6703 84H42V40Z" fill="#FFCC00"/>
<path d="M56 40V84" stroke="#070100" stroke-width="4"/>
<path d="M42 40V84" stroke="#070100" stroke-width="4"/>
<path d="M73.393 33.724C73.7838 32.8761 74 31.9357 74 30.9458C74 27.5048 71.369 24.7008 67.987 24.3006C67.5394 21.0124 64.7119 18.4666 61.2534 18.4666C60.2076 18.4666 59.2273 18.7162 58.3408 19.1316C57.1006 15.0192 53.2797 12 48.7034 12C40.5943 12 38.8083 20.5777 38.7057 20.9414C38.4262 20.7412 36.531 19.1574 33.6926 19.1057C30.8673 19.0519 28.8652 20.7219 28.0508 22.2433C27.0421 24.1284 27.125 27.2595 27.125 27.2595C25.7801 27.0766 23.4351 26.5623 21.2168 27.9567C19.5662 28.9961 18.3369 30.6897 18.0684 32.6006C17.4832 36.7431 20.7321 40.2874 24.8216 40.2874H26.5224H64.9499C68.9629 40.2874 72.0328 43.8145 71.4236 47.7267L65.7599 84H37.2646C34.0311 84 31.2822 81.6759 30.7909 78.5254L26.422 50.5372" stroke="#070100" stroke-width="4"/>
</g>
<defs>
<clipPath id="clip0_2952_112078">
<rect width="96" height="96" fill="white"/>
</clipPath>
</defs>
</svg>
