<svg width="96" height="96" viewBox="0 0 96 96" fill="none" xmlns="http://www.w3.org/2000/svg">
<g clip-path="url(#clip0_2952_112540)">
<path fill-rule="evenodd" clip-rule="evenodd" d="M78 88H25.4397C21.3299 88 18 84.6015 18 80.4071V20H70.5603C74.6676 20 78 23.401 78 27.5929V88" fill="#FFCC00"/>
<path d="M77.8621 74.8387V44.129V26.5806C77.8991 23.401 74.5724 20 71.4483 20H18V26.5806V37.5484V81.4194C18 84.599 21.3243 88 24.4138 88H80" stroke="#070100" stroke-width="4"/>
<path d="M39 45C39.721 48.0605 40.5007 51.1261 41.3418 54.1943C42.1829 57.2651 43.1148 60.2003 44.1295 63L48.9626 45.9051H49L53.8705 63C54.3218 61.7446 54.7063 60.502 55.2163 59.0114C55.7236 57.5233 56.1429 55.9764 56.5888 54.3759C57.0347 52.7753 57.4726 51.1389 57.8732 49.5588C58.2764 47.9582 58.6449 46.442 59 45" stroke="#070100" stroke-width="4" stroke-linejoin="round"/>
<path d="M35 52H41" stroke="#070100" stroke-width="4"/>
<path d="M63 52H57" stroke="#070100" stroke-width="4"/>
<path d="M62 28V14.6667C62 11.3177 60.6493 8 55.9343 8H36V28" stroke="#070100" stroke-width="4"/>
</g>
<defs>
<clipPath id="clip0_2952_112540">
<rect width="96" height="96" fill="white"/>
</clipPath>
</defs>
</svg>
