<svg width="96" height="96" viewBox="0 0 96 96" fill="none" xmlns="http://www.w3.org/2000/svg">
<g clip-path="url(#clip0_2952_112962)">
<path fill-rule="evenodd" clip-rule="evenodd" d="M16 6V12.4107V23.0794V86L76 6H16Z" fill="#FFCC00"/>
<path d="M16 88V25.0794V14.4107V8H76" stroke="#070100" stroke-width="4"/>
<path fill-rule="evenodd" clip-rule="evenodd" d="M78.4594 78.2762L70.6507 81.1179L64 62.8443L71.8062 60L78.4594 78.2762Z" fill="#FFCC00"/>
<path fill-rule="evenodd" clip-rule="evenodd" d="M64.8375 54.7896C75.217 51.0119 80.5643 39.5369 76.7894 29.1619C73.012 18.7842 61.5403 13.434 51.1607 17.2117C40.7863 20.9868 35.4339 32.4618 39.2113 42.8395C42.9888 53.2145 54.4605 58.5647 64.8375 54.7896" fill="#FFCC00"/>
<path fill-rule="evenodd" clip-rule="evenodd" d="M71.1515 31.2138C68.5092 23.9478 60.4763 20.205 53.2132 22.8474C45.9501 25.4925 42.2048 33.5229 44.8471 40.7862C47.4921 48.0522 55.5223 51.795 62.7881 49.1526C70.0512 46.5075 73.7965 38.4771 71.1515 31.2138" fill="#FEFEFE"/>
<path fill-rule="evenodd" clip-rule="evenodd" d="M64 64.6916L70.4393 82L78 79.3084L71.5581 62L64 64.6916Z" stroke="#070100" stroke-width="4"/>
<path d="M67.869 64L64.8189 55.4711C54.4508 59.3151 42.9835 53.8709 39.2109 43.3109C35.4358 32.7509 40.7824 21.0768 51.1505 17.2327C61.5237 13.3886 72.9885 18.8355 76.7636 29.3929C78.4151 34.0121 78.3893 38.873 76.823 43.1453C76.1185 45.0634 74.7402 47.3883 72.1645 50.2929" stroke="#070100" stroke-width="4"/>
<path d="M24.4844 30.5498H38.4844" stroke="#070100" stroke-width="4"/>
<path d="M24.4844 41.9512H38.4844" stroke="#070100" stroke-width="4"/>
<path fill-rule="evenodd" clip-rule="evenodd" d="M59.9021 26L59.4663 37.897H56.6077L56.1699 26H59.9021ZM56 41.871C56 41.2214 56.1979 40.7093 56.5957 40.3326C56.9895 39.9559 57.4613 39.7676 58.013 39.7676C58.5607 39.7676 59.0285 39.9559 59.4183 40.3326C59.8061 40.7093 60 41.2214 60 41.871C60 42.5228 59.8061 43.0392 59.4183 43.4243C59.0285 43.8094 58.5607 43.9999 58.013 43.9999C57.4613 43.9999 56.9895 43.8094 56.5957 43.4243C56.1979 43.0392 56 42.5228 56 41.871V41.871Z" fill="#070100"/>
</g>
<defs>
<clipPath id="clip0_2952_112962">
<rect width="96" height="96" fill="white"/>
</clipPath>
</defs>
</svg>
