<svg width="96" height="96" viewBox="0 0 96 96" fill="none" xmlns="http://www.w3.org/2000/svg">
<g clip-path="url(#clip0_2952_112529)">
<path fill-rule="evenodd" clip-rule="evenodd" d="M46.8391 74.1467L88 32.6466L67.5188 11.9988C64.8777 9.33372 60.5925 9.33372 57.9514 11.9988L21.5743 48.6736L20 76L46.8391 74.1467Z" fill="#FFCC00"/>
<path fill-rule="evenodd" clip-rule="evenodd" d="M39.4077 64.6486C42.1415 61.9148 42.1415 57.4831 39.4077 54.7493C36.6739 52.0155 32.2422 52.0155 29.5084 54.7493C26.7746 57.4831 26.7746 61.9148 29.5084 64.6486C32.2422 67.3824 36.6739 67.3824 39.4077 64.6486" fill="#FEFEFE"/>
<path fill-rule="evenodd" clip-rule="evenodd" d="M39.9496 63.9496C42.6835 61.2158 42.6835 56.7842 39.9496 54.0504C37.2158 51.3165 32.7842 51.3165 30.0504 54.0504C27.3165 56.7842 27.3165 61.2158 30.0504 63.9496C32.7842 66.6835 37.2158 66.6835 39.9496 63.9496Z" stroke="#070100" stroke-width="3.5"/>
<path d="M42.9771 37.4059C45.536 39.0241 48.137 40.6066 50.7841 42.1513C53.4292 43.6961 56.0406 45.0918 58.6143 46.3364L50.1061 31.5144L50.1291 31.4893L64.9771 39.9728C64.4187 38.8226 63.8225 37.7228 63.1381 36.3733C62.4517 35.0237 61.6708 33.6951 60.8688 32.312C60.0711 30.9289 59.2398 29.5247 58.4211 28.1857C57.594 26.8298 56.8005 25.5558 56.049 24.3364" stroke="#070100" stroke-width="3.5" stroke-linejoin="round"/>
<path d="M48.6464 41.9553L44.4038 46.198" stroke="#070100" stroke-width="3.5"/>
<path d="M64.8418 25.7598L60.5991 30.0024" stroke="#070100" stroke-width="3.5"/>
<path d="M79.4503 24.3647L67.0492 11.9988C64.3787 9.33372 60.0436 9.33372 57.3732 11.9988L20.5918 48.6713L19 76L46.1397 74.1467L87 32.0941" stroke="#070100" stroke-width="3.5"/>
<path d="M33.086 60.9653L8.29297 86.7095" stroke="#070100" stroke-width="3.5"/>
</g>
<defs>
<clipPath id="clip0_2952_112529">
<rect width="96" height="96" fill="white"/>
</clipPath>
</defs>
</svg>
