<svg width="96" height="96" viewBox="0 0 96 96" fill="none" xmlns="http://www.w3.org/2000/svg">
<g clip-path="url(#clip0_2952_112374)">
<path fill-rule="evenodd" clip-rule="evenodd" d="M87.8636 52.2464L86.8962 46.0179C86.3811 42.7015 83.6351 40.2653 80.4136 40.2653H79.2376L75.3031 30.2509C74.2898 27.6799 71.8898 26 69.2251 26H38.5077C36.1536 26 33.981 27.3126 32.8112 29.4403L26.7124 40.5217L13.495 43.1014C10.3883 43.7077 8.13637 46.5351 8.13637 49.8298V52.2464H7V62H89L87.8636 52.2464Z" fill="#FFCC00"/>
<path d="M87.0299 52.2464L86.0709 46.0179C85.5604 42.7015 82.8384 40.2653 79.6451 40.2653H78.4794L74.5793 30.2509C73.5748 27.6799 71.1958 26 68.5544 26H38.1057C35.7722 26 33.6185 27.3126 32.459 29.4403L26.4135 40.5217L13.3118 43.1014C10.2322 43.7077 8 46.5351 8 49.8298V52.2464V62H90" stroke="#070100" stroke-width="4"/>
<path fill-rule="evenodd" clip-rule="evenodd" d="M38.556 33.4153L35 42H51V32H40.4917C39.6662 32 38.9145 32.5504 38.556 33.4153" fill="#FEFEFE"/>
<path fill-rule="evenodd" clip-rule="evenodd" d="M55 32V42H71L68.2605 33.644C67.9368 32.6576 67.0922 32 66.1447 32H55Z" fill="#FEFEFE"/>
<path fill-rule="evenodd" clip-rule="evenodd" d="M63 62C63 57.5808 66.5808 54 71 54C75.4192 54 79 57.5808 79 62C79 66.4192 75.4192 70 71 70C66.5808 70 63 66.4192 63 62" fill="#FEFEFE"/>
<path fill-rule="evenodd" clip-rule="evenodd" d="M17.0059 62C17.0059 57.5808 20.5888 54 25.0059 54C29.425 54 33.0059 57.5808 33.0059 62C33.0059 66.4192 29.425 70 25.0059 70C20.5888 70 17.0059 66.4192 17.0059 62" fill="#FEFEFE"/>
<path fill-rule="evenodd" clip-rule="evenodd" d="M63 62C63 57.5808 66.5808 54 71 54C75.4192 54 79 57.5808 79 62C79 66.4192 75.4192 70 71 70C66.5808 70 63 66.4192 63 62Z" stroke="#070100" stroke-width="4"/>
<path fill-rule="evenodd" clip-rule="evenodd" d="M17.0059 62C17.0059 57.5808 20.5888 54 25.0059 54C29.425 54 33.0059 57.5808 33.0059 62C33.0059 66.4192 29.425 70 25.0059 70C20.5888 70 17.0059 66.4192 17.0059 62Z" stroke="#070100" stroke-width="4"/>
</g>
<defs>
<clipPath id="clip0_2952_112374">
<rect width="96" height="96" fill="white"/>
</clipPath>
</defs>
</svg>
