<svg width="96" height="96" viewBox="0 0 96 96" fill="none" xmlns="http://www.w3.org/2000/svg">
<g clip-path="url(#clip0_2952_112086)">
<path d="M48 14V74" stroke="#070100" stroke-width="4"/>
<path d="M22 60L76 30" stroke="#070100" stroke-width="4"/>
<path d="M76 60L22 30" stroke="#070100" stroke-width="4"/>
<path d="M37.7676 76C25.1557 71.9806 16 59.9412 16 45.7144C16 27.1014 31.6706 12.2368 50.2516 14.1693C64.2226 15.6229 75.7244 26.8958 77.6866 41.1202C79.8796 56.9967 70.315 71.095 56.7734 75.8131" stroke="#070100" stroke-width="3.5"/>
<path fill-rule="evenodd" clip-rule="evenodd" d="M82.1132 33.5711C84.8451 30.8372 84.8451 26.4066 82.1132 23.6702C79.3765 20.9387 74.9453 20.9387 72.211 23.6702C69.4792 26.4066 69.4792 30.8372 72.211 33.5711C74.9453 36.3051 79.3765 36.3051 82.1132 33.5711" fill="#FFCC00"/>
<path fill-rule="evenodd" clip-rule="evenodd" d="M81.9511 33.948C84.683 31.2144 84.683 26.7844 81.9511 24.0483C79.2144 21.3172 74.7832 21.3172 72.0489 24.0483C69.317 26.7844 69.317 31.2144 72.0489 33.948C74.7832 36.684 79.2144 36.684 81.9511 33.948Z" stroke="#070100" stroke-width="4"/>
<path fill-rule="evenodd" clip-rule="evenodd" d="M74.8933 67.4053C78.7582 67.4053 81.8921 64.2695 81.8921 60.4053C81.8921 56.5411 78.7582 53.4053 74.8933 53.4053C71.0284 53.4053 67.8921 56.5411 67.8921 60.4053C67.8921 64.2695 71.0284 67.4053 74.8933 67.4053" fill="#FFCC00"/>
<path fill-rule="evenodd" clip-rule="evenodd" d="M75 68C78.8642 68 82 64.8661 82 61.0012C82 57.1364 78.8642 54 75 54C71.1358 54 68 57.1364 68 61.0012C68 64.8661 71.1358 68 75 68Z" stroke="#070100" stroke-width="4"/>
<path fill-rule="evenodd" clip-rule="evenodd" d="M21.0012 53.6802C17.1364 53.6802 14 56.8141 14 60.6789C14 64.5463 17.1364 67.6802 21.0012 67.6802C24.8661 67.6802 28 64.5463 28 60.6789C28 56.8141 24.8661 53.6802 21.0012 53.6802" fill="#FFCC00"/>
<path fill-rule="evenodd" clip-rule="evenodd" d="M21 54C17.1344 54 14 57.1364 14 60.9988C14 64.8661 17.1344 68 21 68C24.868 68 28 64.8661 28 60.9988C28 57.1364 24.868 54 21 54Z" stroke="#070100" stroke-width="4"/>
<path fill-rule="evenodd" clip-rule="evenodd" d="M25.0848 23.6736C22.3533 20.9376 17.9203 20.9376 15.1839 23.6736C12.4524 26.4072 12.4524 30.8372 15.1839 33.5733C17.9203 36.3044 22.3533 36.3044 25.0848 33.5733C27.8187 30.8372 27.8187 26.4072 25.0848 23.6736" fill="#FFCC00"/>
<path fill-rule="evenodd" clip-rule="evenodd" d="M25.9479 24.0483C23.2167 21.3172 18.784 21.3172 16.0503 24.0483C13.3166 26.7819 13.3166 31.2144 16.0503 33.948C18.784 36.684 23.2167 36.684 25.9479 33.948C28.684 31.2144 28.684 26.7819 25.9479 24.0483Z" stroke="#070100" stroke-width="4"/>
<path fill-rule="evenodd" clip-rule="evenodd" d="M55 14.4456C55 10.5782 51.8642 7.44434 48 7.44434C44.1358 7.44434 41 10.5782 41 14.4456C41 18.3105 44.1358 21.4443 48 21.4443C51.8642 21.4443 55 18.3105 55 14.4456" fill="#FFCC00"/>
<path fill-rule="evenodd" clip-rule="evenodd" d="M55 15.0012C55 11.1339 51.8642 8 48 8C44.1358 8 41 11.1339 41 15.0012C41 18.8661 44.1358 22 48 22C51.8642 22 55 18.8661 55 15.0012Z" stroke="#070100" stroke-width="4"/>
<path fill-rule="evenodd" clip-rule="evenodd" d="M47.8919 88.8649H60.452L63.7838 79.5325L47.8919 48L32 79.5325L35.3318 88.8649H47.8919Z" fill="#FFCC00"/>
<path d="M33.3408 88H62.6592L64 80.8228L48 48L32 80.8228" stroke="#070100" stroke-width="4"/>
</g>
<defs>
<clipPath id="clip0_2952_112086">
<rect width="96" height="96" fill="white"/>
</clipPath>
</defs>
</svg>
