<svg width="96" height="96" viewBox="0 0 96 96" fill="none" xmlns="http://www.w3.org/2000/svg">
<g clip-path="url(#clip0_2952_113003)">
<path fill-rule="evenodd" clip-rule="evenodd" d="M70 48C70 35.85 60.15 26 48 26C35.85 26 26 35.85 26 48C26 60.15 35.85 70 48 70C60.15 70 70 60.15 70 48" fill="#FFCC00"/>
<path d="M24.2942 72.9355L17.2222 80.0057" stroke="#070100" stroke-width="4"/>
<path d="M80.4593 16.7695L73.3882 23.8406" stroke="#070100" stroke-width="4"/>
<path d="M16.7168 48.6406H6.7168" stroke="#070100" stroke-width="4"/>
<path d="M91.1758 48.6406H81.1758" stroke="#070100" stroke-width="4"/>
<path d="M80.4592 80.512L73.3872 73.4419" stroke="#070100" stroke-width="4"/>
<path d="M48.5879 80.5117V90.5117" stroke="#070100" stroke-width="4"/>
<path d="M24.2942 24.3469L17.2231 17.2759" stroke="#070100" stroke-width="4"/>
<path d="M48.5879 6.05371V16.0537" stroke="#070100" stroke-width="4"/>
<path d="M70 48C70 35.85 60.15 26 48 26C35.85 26 26 35.85 26 48C26 60.15 35.85 70 48 70C54.7099 70 60.7182 66.9958 64.7526 62.2599" stroke="#070100" stroke-width="4"/>
</g>
<defs>
<clipPath id="clip0_2952_113003">
<rect width="96" height="96" fill="white"/>
</clipPath>
</defs>
</svg>
