<svg width="97" height="96" viewBox="0 0 97 96" fill="none" xmlns="http://www.w3.org/2000/svg">
<g clip-path="url(#clip0_2952_112271)">
<path fill-rule="evenodd" clip-rule="evenodd" d="M68.0205 48.0022V8.0022H66.8884C64.1897 8.0022 61.8642 9.77138 61.3349 12.2289L56.1302 36.3603C55.6927 38.3997 56.5861 40.4903 58.4128 41.6906L60.2426 42.8966" fill="#FFCC00"/>
<path d="M67.1621 88V8H66.03C63.3313 8 61.0058 9.70774 60.4765 12.0826L55.2718 35.3759C54.8343 37.3445 55.7277 39.3625 57.5544 40.5211L59.3842 41.6825" stroke="#070100" stroke-width="4" stroke-linecap="square"/>
<path fill-rule="evenodd" clip-rule="evenodd" d="M36.1906 40.8703C36.1906 40.8703 35.2189 39.5398 33.9298 39.1412C32.6379 38.7398 28.3085 36.4115 28.0496 32.4201C27.7907 28.4287 29.3443 6 29.3443 6H31.282H35.2412H38.9023H42.8002H44.4651L45.8155 29.4896C45.8155 29.4896 46.5477 32.6208 45.2447 34.6165C43.9417 36.6122 39.7432 40.1391 36.7084 42C36.7084 42 36.5831 41.3319 36.1906 40.8703" fill="#FFCC00"/>
<path d="M29.4369 8L28.032 29.8765C28.032 29.8765 27.7926 37.2321 32.5441 39.1858C36.3486 40.7502 36.0656 50.2068 35.9794 55.1397C35.8932 60.0726 35.7488 88 35.7488 88" stroke="#070100" stroke-width="4" stroke-linecap="square"/>
<path d="M37.0205 8V28" stroke="#070100" stroke-width="4" stroke-linecap="square"/>
<path d="M43.9842 8L45.7095 28.8214C45.7095 28.8214 46.462 36.8859 42.0205 38" stroke="#070100" stroke-width="4" stroke-linecap="square"/>
</g>
<defs>
<clipPath id="clip0_2952_112271">
<rect width="96" height="96" fill="white" transform="translate(0.0205078)"/>
</clipPath>
</defs>
</svg>
