<svg width="96" height="96" viewBox="0 0 96 96" fill="none" xmlns="http://www.w3.org/2000/svg">
<g clip-path="url(#clip0_2952_112753)">
<path fill-rule="evenodd" clip-rule="evenodd" d="M82 70.5317C82 64.2578 77.6732 58.6531 71.7811 58.0565C65.0213 57.3722 59.3349 62.992 59.3349 70.0154C59.3349 63.3805 54.2609 58.0014 48 58.0014C41.7414 58.0014 36.6675 63.3805 36.6675 70.0154C36.6675 62.992 30.9811 57.3747 24.2213 58.0565C18.3268 58.6506 14 64.2553 14 70.5292V80.4703C14 84.6287 17.1777 88 21.1026 88H82V70.5317Z" fill="#FFCC00"/>
<path d="M14 72V44H74.8974C78.8199 44 82 47.5395 82 51.9053V53.9026" stroke="#070100" stroke-width="4"/>
<path fill-rule="evenodd" clip-rule="evenodd" d="M52 23.9209C52 23.1253 51.5977 21.7451 51.0223 20.1736C49.5687 16.1956 47.0011 11 47.0011 11C47.0011 11 42 21.1165 42 23.9209C42 26.7253 44.241 29 47.0011 29C49.5059 29 52 26.7956 52 23.9209" fill="#FFCC00"/>
<path d="M52 24.4422C52 23.6145 51.5977 22.1786 51.0223 20.5438C49.5687 16.4052 47.0011 11 47.0011 11C47.0011 11 42 21.5247 42 24.4422C42 27.3598 44.241 29.7263 47.0011 29.7263V45" stroke="#070100" stroke-width="4"/>
<path d="M14 80.4699C14 80.8961 14.0331 81.3147 14.0993 81.7233C14.662 85.2878 17.5844 88 21.1026 88H82V70.5309V70.0145C82 63.3793 76.926 58 70.6675 58C64.4089 58 59.3349 63.3793 59.3349 70.0145C59.3349 63.3793 54.2609 58 48 58C41.7414 58 36.6675 63.3793 36.6675 70.0145C36.6675 63.3793 31.5935 58 25.3325 58C19.074 58 14 63.3793 14 70.0145" stroke="#070100" stroke-width="4"/>
</g>
<defs>
<clipPath id="clip0_2952_112753">
<rect width="96" height="96" fill="white"/>
</clipPath>
</defs>
</svg>
