<svg width="96" height="96" viewBox="0 0 96 96" fill="none" xmlns="http://www.w3.org/2000/svg">
<path fill-rule="evenodd" clip-rule="evenodd" d="M27.9997 11C27.9997 9.34315 26.6566 8 24.9997 8C23.3429 8 21.9997 9.34315 21.9997 11V27C21.9997 28.6569 23.3429 30 24.9997 30H40.9997C42.6566 30 43.9997 28.6569 43.9997 27C43.9997 25.3431 42.6566 24 40.9997 24H32.0052C35.0346 21.8018 38.5115 20.1099 42.3492 19.0816C59.1488 14.5802 76.4167 24.5498 80.9181 41.3494C85.4196 58.149 75.4499 75.417 58.6503 79.9184C41.8507 84.4198 24.5828 74.4502 20.0813 57.6506C18.6741 52.3985 18.6809 47.1094 19.8645 42.178C20.2513 40.5669 19.2587 38.9474 17.6476 38.5607C16.0365 38.174 14.417 39.1665 14.0303 40.7776C12.619 46.657 12.6133 52.9617 14.2858 59.2035C19.6449 79.2039 40.2028 91.073 60.2032 85.714C80.2037 80.3549 92.0728 59.7969 86.7137 39.7965C81.3546 19.7961 60.7967 7.92696 40.7962 13.2861C36.0313 14.5628 31.7232 16.705 27.9997 19.4993V11Z" fill="#222222"/>
</svg>
