<svg width="96" height="96" viewBox="0 0 96 96" fill="none" xmlns="http://www.w3.org/2000/svg">
<path fill-rule="evenodd" clip-rule="evenodd" d="M30.5001 8C25.5296 8 21.5001 12.0294 21.5001 17V79C21.5001 83.9706 25.5296 88 30.5001 88H48.0001H65.5001C70.4707 88 74.5001 83.9706 74.5001 79V17C74.5001 12.0294 70.4707 8 65.5001 8H30.5001ZM27.5001 17C27.5001 15.3431 28.8433 14 30.5001 14H65.5001C67.157 14 68.5001 15.3431 68.5001 17V79C68.5001 80.6569 67.157 82 65.5001 82H48.0001H30.5001C28.8433 82 27.5001 80.6569 27.5001 79V17ZM45.0001 70C43.3433 70 42.0001 71.3431 42.0001 73C42.0001 74.6569 43.3433 76 45.0001 76H51.0001C52.657 76 54.0001 74.6569 54.0001 73C54.0001 71.3431 52.657 70 51.0001 70H45.0001ZM79.5251 24.3876C80.9679 23.573 82.7979 24.0822 83.6125 25.525L87.6125 32.6094C88.1464 33.5549 88.1276 34.7152 87.5634 35.643L84.5018 40.6781L87.5771 45.8377C88.1161 46.7419 88.1416 47.8625 87.6445 48.7904L84.4243 54.8008L87.6117 60.4393C88.1293 61.355 88.1296 62.4748 87.6125 63.3906L83.6125 70.475C82.7979 71.9178 80.9679 72.427 79.5251 71.6124C78.0824 70.7977 77.5732 68.9678 78.3878 67.525L81.5545 61.9165L78.3885 56.3159C77.8826 55.4209 77.8702 54.3291 78.3557 53.4228L81.5545 47.4523L78.4232 42.1987C77.8543 41.2442 77.8595 40.0534 78.4368 39.104L81.5232 34.0282L78.3878 28.475C77.5732 27.0322 78.0824 25.2023 79.5251 24.3876ZM12.3878 25.525C13.2024 24.0822 15.0324 23.573 16.4751 24.3876C17.9179 25.2023 18.4271 27.0322 17.6125 28.475L14.477 34.0282L17.5634 39.104C18.1407 40.0534 18.146 41.2442 17.5771 42.1987L14.4457 47.4523L17.6445 53.4228C18.1301 54.3291 18.1177 55.4209 17.6117 56.3159L14.4458 61.9165L17.6125 67.525C18.4271 68.9678 17.9179 70.7977 16.4751 71.6124C15.0324 72.427 13.2024 71.9178 12.3878 70.475L8.38777 63.3906C7.87064 62.4748 7.87093 61.355 8.38851 60.4393L11.5759 54.8008L8.35574 48.7904C7.8586 47.8625 7.88418 46.7419 8.42315 45.8377L11.4984 40.6781L8.4368 35.643C7.87263 34.7152 7.85388 33.5549 8.38777 32.6094L12.3878 25.525Z" fill="#222222"/>
</svg>
