<svg width="96" height="96" viewBox="0 0 96 96" fill="none" xmlns="http://www.w3.org/2000/svg">
<path fill-rule="evenodd" clip-rule="evenodd" d="M23.4311 89.2528C21.8641 89.7909 20.1575 88.9568 19.6194 87.3897C19.0814 85.8227 19.9155 84.1161 21.4826 83.5781L32.2854 79.8687C31.1186 79.3533 29.9692 78.7711 28.8442 78.1215C11.9007 68.3392 6.10491 46.7091 15.8872 29.7656C20.8742 21.1279 28.9511 15.3825 37.9055 13.1244C39.5121 12.7193 41.1429 13.6932 41.548 15.2998C41.9531 16.9064 40.9792 18.5372 39.3726 18.9423C31.9272 20.8198 25.227 25.5886 21.0834 32.7656C12.9579 46.8394 17.7704 64.7999 31.8442 72.9254C33.4721 73.8653 35.1597 74.6349 36.8746 75.2369L32.1411 61.6024C31.5977 60.0372 32.426 58.3278 33.9912 57.7844C35.5564 57.241 37.2658 58.0694 37.8092 59.6346L44.478 78.8432C44.7395 79.5965 44.6904 80.423 44.3414 81.14C43.9925 81.857 43.3724 82.4055 42.6182 82.6645L23.4311 89.2528ZM64.3523 34.1138C64.8626 35.6901 63.9985 37.3816 62.4222 37.892C60.8459 38.4023 59.1543 37.5382 58.644 35.9619L52.3912 16.6491C51.8809 15.0728 52.745 13.3813 54.3213 12.8709L73.6341 6.61814C75.2103 6.10779 76.9019 6.97192 77.4123 8.54821C77.9226 10.1245 77.0585 11.8161 75.4822 12.3264L63.7906 16.1117C70.153 19.0769 75.704 23.9605 79.4818 30.5039C89.2642 47.4474 83.4684 69.0775 66.5249 78.8598C62.9633 80.9161 59.1564 82.2981 55.3313 83.0185C53.703 83.3251 52.1345 82.2537 51.8279 80.6255C51.5213 78.9973 52.5926 77.4287 54.2209 77.1221C57.3896 76.5254 60.5566 75.3775 63.5249 73.6637C77.5987 65.5382 82.4112 47.5776 74.2857 33.5039C70.9246 27.6823 65.8814 23.4452 60.1228 21.0504L64.3523 34.1138Z" fill="#222222"/>
</svg>
