<svg width="96" height="96" viewBox="0 0 96 96" fill="none" xmlns="http://www.w3.org/2000/svg">
<path fill-rule="evenodd" clip-rule="evenodd" d="M16.8711 7.73047C11.9005 7.73047 7.87109 11.7599 7.87109 16.7305V50.7305C7.87109 52.3873 9.21424 53.7305 10.8711 53.7305C12.5279 53.7305 13.8711 52.3873 13.8711 50.7305V16.7305C13.8711 15.0736 15.2142 13.7305 16.8711 13.7305H50.8711C52.5279 13.7305 53.8711 12.3873 53.8711 10.7305C53.8711 9.07361 52.5279 7.73047 50.8711 7.73047H16.8711ZM32.0398 21.582C26.3862 21.582 21.8828 26.1686 21.8828 31.739V77.4251C21.8828 83.0787 26.4694 87.582 32.0398 87.582H77.7259C83.3795 87.582 87.8828 82.9955 87.8828 77.4251V31.739C87.8828 26.0854 83.2963 21.582 77.7259 21.582H32.0398ZM27.8828 31.739C27.8828 29.4529 29.7292 27.582 32.0398 27.582H77.7259C80.012 27.582 81.8828 29.4284 81.8828 31.739V77.4251C81.8828 79.7112 80.0364 81.582 77.7259 81.582H32.0398C29.7537 81.582 27.8828 79.7356 27.8828 77.4251V31.739Z" fill="#222222"/>
</svg>
