<svg width="96" height="96" viewBox="0 0 96 96" fill="none" xmlns="http://www.w3.org/2000/svg">
<path fill-rule="evenodd" clip-rule="evenodd" d="M71.5852 74.6267C71.0211 75.1879 70.2573 75.502 69.4616 75.5C68.666 75.498 67.9037 75.18 67.3425 74.6159L56.0159 63.2313C54.8473 62.0568 54.8521 60.1573 56.0267 58.9887C57.2012 57.8201 59.1007 57.825 60.2693 58.9995L66.5273 65.2896V39.7695C66.5273 38.1127 67.8705 36.7695 69.5273 36.7695C71.1842 36.7695 72.5273 38.1127 72.5273 39.7695V65.2255L78.7958 58.9887C79.9704 57.8201 81.8699 57.8249 83.0385 58.9995C84.207 60.174 84.2022 62.0735 83.0277 63.2421L71.5852 74.6267Z" fill="#222222"/>
<path fill-rule="evenodd" clip-rule="evenodd" d="M12.0879 23.5C12.0879 21.8431 13.431 20.5 15.0879 20.5H63.0879C64.7447 20.5 66.0879 21.8431 66.0879 23.5C66.0879 25.1569 64.7447 26.5 63.0879 26.5H15.0879C13.431 26.5 12.0879 25.1569 12.0879 23.5ZM12.0879 43.9023C12.0879 42.2455 13.431 40.9023 15.0879 40.9023H49.0879C50.7447 40.9023 52.0879 42.2455 52.0879 43.9023C52.0879 45.5592 50.7447 46.9023 49.0879 46.9023H15.0879C13.431 46.9023 12.0879 45.5592 12.0879 43.9023ZM15.0879 60.5C13.431 60.5 12.0879 61.8431 12.0879 63.5C12.0879 65.1569 13.431 66.5 15.0879 66.5H39.0879C40.7447 66.5 42.0879 65.1569 42.0879 63.5C42.0879 61.8431 40.7447 60.5 39.0879 60.5H15.0879Z" fill="#222222"/>
</svg>
