<svg width="96" height="96" viewBox="0 0 96 96" fill="none" xmlns="http://www.w3.org/2000/svg">
<path fill-rule="evenodd" clip-rule="evenodd" d="M71.5852 37.6428C71.0211 37.0817 70.2573 36.7675 69.4616 36.7695C68.666 36.7716 67.9037 37.0896 67.3425 37.6536L56.0159 49.0382C54.8473 50.2128 54.8521 52.1123 56.0267 53.2808C57.2012 54.4494 59.1007 54.4446 60.2693 53.27L66.5273 46.98V72.5C66.5273 74.1569 67.8705 75.5 69.5273 75.5C71.1842 75.5 72.5273 74.1569 72.5273 72.5V47.0441L78.7958 53.2808C79.9704 54.4494 81.8699 54.4446 83.0385 53.27C84.207 52.0955 84.2022 50.196 83.0277 49.0274L71.5852 37.6428Z" fill="#222222"/>
<path fill-rule="evenodd" clip-rule="evenodd" d="M12.0879 23.5C12.0879 21.8431 13.431 20.5 15.0879 20.5H63.0879C64.7447 20.5 66.0879 21.8431 66.0879 23.5C66.0879 25.1569 64.7447 26.5 63.0879 26.5H15.0879C13.431 26.5 12.0879 25.1569 12.0879 23.5ZM12.0879 43.9023C12.0879 42.2455 13.431 40.9023 15.0879 40.9023H49.0879C50.7447 40.9023 52.0879 42.2455 52.0879 43.9023C52.0879 45.5592 50.7447 46.9023 49.0879 46.9023H15.0879C13.431 46.9023 12.0879 45.5592 12.0879 43.9023ZM15.0879 60.5C13.431 60.5 12.0879 61.8431 12.0879 63.5C12.0879 65.1569 13.431 66.5 15.0879 66.5H39.0879C40.7447 66.5 42.0879 65.1569 42.0879 63.5C42.0879 61.8431 40.7447 60.5 39.0879 60.5H15.0879Z" fill="#222222"/>
</svg>
