<svg width="96" height="96" viewBox="0 0 96 96" fill="none" xmlns="http://www.w3.org/2000/svg">
<path fill-rule="evenodd" clip-rule="evenodd" d="M60.6769 38.2367C57.7512 34.4435 53.1609 32 48 32C39.1634 32 32 39.1634 32 48C32 53.1609 34.4435 57.7512 38.2367 60.6769L42.5366 56.377C39.805 54.5919 38 51.5067 38 48C38 42.4772 42.4772 38 48 38C51.5067 38 54.5919 39.805 56.377 42.5366L60.6769 38.2367ZM49.5125 57.8864C53.8244 57.2322 57.2322 53.8244 57.8864 49.5125L63.4759 43.923C63.8179 45.2246 64 46.591 64 48C64 56.8366 56.8366 64 48 64C46.591 64 45.2246 63.8179 43.923 63.4759L49.5125 57.8864Z" fill="#222222"/>
<path fill-rule="evenodd" clip-rule="evenodd" d="M69.808 29.1056C69.6897 29.0191 69.5709 28.933 69.4516 28.8471C63.5275 24.5849 56.1477 21 48 21C39.8524 21 32.4726 24.5849 26.5485 28.8471C20.6006 33.1263 15.8619 38.2729 12.9323 41.8299C12.8422 41.9392 12.7506 42.0494 12.658 42.1608L12.6577 42.1612C11.3779 43.7014 9.91895 45.4571 9.91895 48C9.91895 50.5429 11.3779 52.2986 12.6577 53.8388C12.7504 53.9503 12.8421 54.0607 12.9323 54.1701C15.8619 57.727 20.6006 62.8737 26.5485 67.1529C27.5494 67.873 28.5918 68.5737 29.6725 69.2412L34.049 64.8646C32.6781 64.0802 31.3436 63.2113 30.0526 62.2824C24.6802 58.4172 20.3143 53.6952 17.5636 50.3556C16.7322 49.3462 16.3229 48.8369 16.0776 48.4258C15.9179 48.1581 15.9184 48.0821 15.9189 48.0115L15.9189 48L15.9189 47.9885C15.9184 47.9179 15.9179 47.8419 16.0776 47.5742C16.3229 47.1631 16.7322 46.6538 17.5636 45.6444C20.3143 42.3048 24.6802 37.5828 30.0526 33.7176C35.4487 29.8353 41.6048 27 48 27C54.2225 27 60.2186 29.6842 65.5084 33.4052L69.808 29.1056ZM39.8539 67.545C42.4959 68.4663 45.2255 69 48 69C54.3953 69 60.5514 66.1647 65.9475 62.2824C71.3199 58.4172 75.6858 53.6952 78.4365 50.3556C79.2679 49.3462 79.6772 48.8369 79.9225 48.4258C80.0822 48.1581 80.0817 48.0821 80.0812 48.0115L80.0811 48L80.0812 47.9885C80.0817 47.9179 80.0822 47.8419 79.9225 47.5742C79.6772 47.1631 79.2679 46.6538 78.4365 45.6444C76.4634 43.2488 73.6592 40.142 70.2486 37.1503L74.4995 32.8995C78.1001 36.0938 81.0242 39.3486 83.0678 41.8299C83.158 41.9393 83.2497 42.0497 83.3424 42.1612C84.6222 43.7014 86.0811 45.4571 86.0811 48C86.0811 50.5429 84.6222 52.2986 83.3424 53.8388C83.303 53.8861 83.2638 53.9333 83.2249 53.9803C83.1721 54.0439 83.1197 54.1072 83.0678 54.1701C80.1382 57.7271 75.3995 62.8737 69.4516 67.1529C63.5275 71.4151 56.1477 75 48 75C43.4656 75 39.169 73.8896 35.2288 72.1701L39.8539 67.545Z" fill="#222222"/>
<path d="M85 10.5791L11 84.5791" stroke="#222222" stroke-width="6" stroke-linecap="round"/>
</svg>
