<svg width="96" height="96" viewBox="0 0 96 96" fill="none" xmlns="http://www.w3.org/2000/svg">
<path fill-rule="evenodd" clip-rule="evenodd" d="M34.8368 64.5768C29.3604 60.5377 25.8105 54.0401 25.8105 46.707C25.8105 45.0502 24.4674 43.707 22.8105 43.707C21.1537 43.707 19.8105 45.0502 19.8105 46.707C19.8105 55.6953 24.0105 63.6968 30.5562 68.8574L34.8368 64.5768ZM35.7793 72.1196C39.4755 73.8991 43.6204 74.896 47.9995 74.896C63.5757 74.896 76.1885 62.2832 76.1885 46.707C76.1885 45.0502 74.8453 43.707 73.1885 43.707C71.5316 43.707 70.1885 45.0502 70.1885 46.707C70.1885 58.9695 60.2619 68.896 47.9995 68.896C45.312 68.896 42.7366 68.4192 40.3534 67.5455L35.7793 72.1196Z" fill="#222222"/>
<path d="M48 72.1426V84.7194" stroke="#222222" stroke-width="6" stroke-miterlimit="10" stroke-linecap="round"/>
<path d="M33.5859 84.7549H62.3784" stroke="#222222" stroke-width="6" stroke-miterlimit="10" stroke-linecap="round"/>
<path d="M85 11.0791L11 85.0791" stroke="#222222" stroke-width="6" stroke-linecap="round"/>
<path fill-rule="evenodd" clip-rule="evenodd" d="M48.3789 7.70703C38.9901 7.70703 31.3789 15.3182 31.3789 24.707V46.707C31.3789 52.5069 34.2834 57.6285 38.7172 60.6964L43.0701 56.3435C39.677 54.4702 37.3789 50.857 37.3789 46.707V24.707C37.3789 18.6319 42.3038 13.707 48.3789 13.707C54.454 13.707 59.3789 18.6319 59.3789 24.707V40.0347L65.3789 34.0347V24.707C65.3789 15.3182 57.7677 7.70703 48.3789 7.70703ZM65.3789 42.52L59.1988 48.7001C58.3794 53.1774 54.8493 56.7075 50.372 57.5269L44.6109 63.288C45.8229 63.5622 47.084 63.707 48.3789 63.707C57.7677 63.707 65.3789 56.0959 65.3789 46.707V42.52Z" fill="#222222"/>
</svg>
