<svg width="96" height="96" viewBox="0 0 96 96" fill="none" xmlns="http://www.w3.org/2000/svg">
<path fill-rule="evenodd" clip-rule="evenodd" d="M39.0662 19.4429C39.0383 19.4216 39.01 19.4007 38.9812 19.3802C37.119 18.0545 35.7161 16.1366 35.0446 13.9033H60.9596C60.3423 15.9566 59.1066 17.743 57.4638 19.0484C56.3774 19.4995 55.6134 20.5707 55.6134 21.8203V42.5307C55.6134 43.8325 56.4426 44.9406 57.6017 45.3558C57.6337 45.3714 57.6661 45.3865 57.699 45.401C61.9927 47.3075 65.324 50.9929 66.757 55.513C66.9017 55.9692 66.8107 56.3517 66.4698 56.7266C66.0803 57.1551 65.3766 57.5138 64.5263 57.5138H31.4747C30.6245 57.5138 29.9207 57.1551 29.5312 56.7267C29.1904 56.3517 29.0994 55.9693 29.244 55.5131C30.7147 50.874 34.1847 47.1147 38.6416 45.2548C40.0403 44.6712 40.7639 43.1514 40.3888 41.7262V21.9306C40.3888 20.895 39.8642 19.9821 39.0662 19.4429ZM34.3888 23.4017C30.8549 20.3978 28.6056 15.9133 28.6056 10.9033C28.6056 9.24647 29.9487 7.90332 31.6056 7.90332H64.3985C66.0553 7.90332 67.3985 9.24647 67.3985 10.9033C67.3985 15.9137 65.1481 20.3999 61.6134 23.4033V40.6404C66.7448 43.3857 70.6881 48.0589 72.4765 53.6997C73.3333 56.4022 72.5359 58.9735 70.9096 60.7625C69.332 62.498 66.9898 63.5138 64.5263 63.5138H51.0001L51.0001 84.9125C51.0001 86.5694 49.657 87.9125 48.0001 87.9125C46.3433 87.9125 45.0001 86.5694 45.0001 84.9125L45.0001 63.5138H31.4747C29.0113 63.5138 26.6691 62.4981 25.0915 60.7626C23.4651 58.9736 22.6678 56.4024 23.5246 53.6998C25.3129 48.059 29.2564 43.3852 34.3888 40.6398V23.4017Z" fill="#222222"/>
</svg>
