<svg width="96" height="96" viewBox="0 0 96 96" fill="none" xmlns="http://www.w3.org/2000/svg">
<path fill-rule="evenodd" clip-rule="evenodd" d="M38.9812 19.3802C39.01 19.4007 39.0383 19.4216 39.0662 19.4429C39.8642 19.9821 40.3888 20.895 40.3888 21.9306V41.7262C40.7639 43.1514 40.0403 44.6712 38.6416 45.2548C34.1847 47.1147 30.7147 50.874 29.244 55.5131C29.0994 55.9693 29.1904 56.3517 29.5312 56.7267C29.9207 57.1551 30.6245 57.5138 31.4747 57.5138H41.8999L35.8999 63.5138H31.4747C29.0113 63.5138 26.6691 62.4981 25.0915 60.7626C23.4651 58.9736 22.6678 56.4024 23.5246 53.6998C25.3129 48.059 29.2564 43.3852 34.3888 40.6398V23.4017C30.8549 20.3978 28.6056 15.9133 28.6056 10.9033C28.6056 9.24647 29.9487 7.90332 31.6056 7.90332H64.3985C66.0553 7.90332 67.3985 9.24647 67.3985 10.9033C67.3985 15.9137 65.1481 20.3999 61.6134 23.4033V37.8002L55.8107 43.6029C55.6832 43.2699 55.6134 42.9085 55.6134 42.5307V21.8203C55.6134 20.5707 56.3774 19.4995 57.4638 19.0484C59.1066 17.743 60.3423 15.9566 60.9596 13.9033H35.0446C35.7161 16.1366 37.119 18.0545 38.9812 19.3802ZM50.3851 57.5138H64.5263C65.3766 57.5138 66.0803 57.1551 66.4698 56.7266C66.8107 56.3517 66.9017 55.9692 66.757 55.513C65.6841 52.1287 63.5471 49.2124 60.7387 47.1602L65.0186 42.8803C68.4776 45.6333 71.108 49.3832 72.4765 53.6997C73.3333 56.4022 72.5359 58.9735 70.9096 60.7625C69.332 62.498 66.9898 63.5138 64.5263 63.5138H50.34L50.34 84.9125C50.34 86.5694 48.9968 87.9125 47.34 87.9125C45.6831 87.9125 44.34 86.5694 44.34 84.9125L44.34 63.5589L50.3851 57.5138Z" fill="#222222"/>
<path d="M85 11.0791L11 85.0791" stroke="#222222" stroke-width="6" stroke-linecap="round"/>
</svg>
