<svg width="96" height="96" viewBox="0 0 96 96" fill="none" xmlns="http://www.w3.org/2000/svg">
<path fill-rule="evenodd" clip-rule="evenodd" d="M8.00012 27C8.00012 22.0294 12.0296 18 17.0001 18H79.0001C83.9707 18 88.0001 22.0294 88.0001 27V69C88.0001 73.9706 83.9707 78 79.0001 78H17.0001C12.0296 78 8.00012 73.9706 8.00012 69V27ZM17.0001 24C15.3433 24 14.0001 25.3431 14.0001 27V37H82.0001V27C82.0001 25.3431 80.657 24 79.0001 24H17.0001ZM82.0001 43H14.0001V69C14.0001 70.6569 15.3433 72 17.0001 72H79.0001C80.657 72 82.0001 70.6569 82.0001 69V43ZM21.0001 61C21.0001 59.3431 22.3433 58 24.0001 58H38.0001C39.657 58 41.0001 59.3431 41.0001 61C41.0001 62.6569 39.657 64 38.0001 64H24.0001C22.3433 64 21.0001 62.6569 21.0001 61Z" fill="#222222"/>
</svg>
