<svg width="96" height="96" viewBox="0 0 96 96" fill="none" xmlns="http://www.w3.org/2000/svg">
<path fill-rule="evenodd" clip-rule="evenodd" d="M8.50024 27C8.50024 22.0294 12.5297 18 17.5002 18H79.5002C84.4708 18 88.5002 22.0294 88.5002 27V44.5C88.5002 46.1569 87.1571 47.5 85.5002 47.5C83.8434 47.5 82.5002 46.1569 82.5002 44.5V43H14.5002V69C14.5002 70.6569 15.8434 72 17.5002 72L30.5002 72L41.0002 72C42.6571 72 44.0002 73.3432 44.0002 75C44.0002 76.6569 42.6571 78 41.0002 78L30.5002 78L17.5002 78C12.5297 78 8.50024 73.9706 8.50024 69V27ZM14.5002 37H82.5002V27C82.5002 25.3431 81.1571 24 79.5002 24H17.5002C15.8434 24 14.5002 25.3431 14.5002 27V37ZM21.5002 61C21.5002 59.3431 22.8434 58 24.5002 58H39.5002C41.1571 58 42.5002 59.3431 42.5002 61C42.5002 62.6569 41.1571 64 39.5002 64H24.5002C22.8434 64 21.5002 62.6569 21.5002 61Z" fill="#222222"/>
<path fill-rule="evenodd" clip-rule="evenodd" d="M77.4116 59.505C79.2496 58.5998 81.5334 58.9135 83.0606 60.441C84.5889 61.9696 84.9008 64.254 83.9965 66.0911L77.4116 59.505ZM72.9575 63.5362L58.6074 77.6407L59.1208 83.6811L63.5026 83.8449L66.4494 83.9551L67.9107 82.5489L79.9387 70.5186L72.9575 63.5362ZM67.4988 89.9991L67.6109 87.0009L67.4988 89.9991C68.3126 90.0295 69.1038 89.7277 69.6907 89.1629L72.0912 86.8529L72.11 86.8346L72.1325 86.8124L87.3029 71.6391C91.566 67.3752 91.566 60.4619 87.3029 56.198C83.066 51.9603 76.2059 51.9304 71.9322 56.1309L53.3965 74.3494C52.7593 74.9757 52.4344 75.8533 52.5101 76.7435L53.3678 86.8343C53.4962 88.3444 54.7304 89.5217 56.2447 89.5783L63.2785 89.8413L66.2679 89.953L67.1691 89.9867L67.4137 89.9959L67.4772 89.9983L67.4934 89.9989L67.4975 89.999L67.4985 89.9991L67.4988 89.9991Z" fill="#222222"/>
</svg>
