<svg width="96" height="96" viewBox="0 0 96 96" fill="none" xmlns="http://www.w3.org/2000/svg">
<g clip-path="url(#clip0_2952_121098)">
<path fill-rule="evenodd" clip-rule="evenodd" d="M60.6055 18.1685C63.3447 17.7508 64.8762 18.1762 65.6981 18.678C66.468 19.148 67.0076 19.9233 67.2673 21.1495C67.6105 22.7704 69.2028 23.8061 70.8237 23.4629C72.4446 23.1196 73.4804 21.5273 73.1371 19.9064C72.6144 17.4385 71.2991 15.0677 68.8246 13.5569C66.4023 12.078 63.3001 11.688 59.6995 12.2373L59.6973 12.2376C54.5696 13.0237 46.2137 14.0939 38.2305 15.1005C37.0068 15.2548 35.7913 15.4076 34.5977 15.5577L34.5973 15.5578C28.0466 16.3816 22.1569 17.1223 19.1955 17.5603C15.1996 18.1513 12.296 19.6808 10.4189 21.9316C8.55962 24.1609 8 26.7475 8 28.9134V40.1402V74.9995C8 79.9701 12.0294 83.9995 17 83.9995H75C79.9706 83.9995 84 79.9701 84 74.9995V65.9995H84.2C86.2987 65.9995 88 64.2982 88 62.1995V48.7995C88 46.7008 86.2987 44.9995 84.2 44.9995H84V36.6542C84 31.6836 79.9706 27.6542 75 27.6542H24.8316C23.1747 27.6542 21.8316 28.9973 21.8316 30.6542C21.8316 32.3111 23.1747 33.6542 24.8316 33.6542H75C76.6569 33.6542 78 34.9973 78 36.6542V44.9995H69C64.0294 44.9995 60 49.029 60 53.9995V56.9995C60 61.9701 64.0294 65.9995 69 65.9995H78V74.9995C78 76.6564 76.6569 77.9995 75 77.9995H17C15.3431 77.9995 14 76.6564 14 74.9995V40.1402V28.9134C14 27.7424 14.2984 26.6478 15.0267 25.7745C15.7372 24.9226 17.1507 23.928 20.0733 23.4957C22.9635 23.0683 28.7666 22.3384 35.3284 21.5131L35.3286 21.5131L35.3347 21.5123C36.5294 21.3621 37.7492 21.2087 38.9811 21.0533C46.9386 20.05 55.3817 18.9693 60.6055 18.1685ZM66 53.9995C66 52.3427 67.3431 50.9995 69 50.9995H82V59.9995H69C67.3431 59.9995 66 58.6564 66 56.9995V53.9995Z" fill="#222222"/>
</g>
<defs>
<clipPath id="clip0_2952_121098">
<rect width="96" height="96" fill="white"/>
</clipPath>
</defs>
</svg>
