<svg width="96" height="96" viewBox="0 0 96 96" fill="none" xmlns="http://www.w3.org/2000/svg">
<path fill-rule="evenodd" clip-rule="evenodd" d="M25 8C20.0294 8 16 12.0294 16 17V79C16 83.9706 20.0294 88 25 88H42.7872C44.4441 88 45.7872 86.6569 45.7872 85C45.7872 83.3431 44.4441 82 42.7872 82H25C23.3431 82 22 80.6569 22 79V17C22 15.3431 23.3431 14 25 14H65C66.6569 14 68 15.3431 68 17V38C68 39.6569 69.3431 41 71 41C72.6569 41 74 39.6569 74 38V17C74 12.0294 69.9706 8 65 8H25ZM42 70C40.3431 70 39 71.3431 39 73C39 74.6569 40.3431 76 42 76H48C49.6569 76 51 74.6569 51 73C51 71.3431 49.6569 70 48 70H42Z" fill="#222222"/>
<path fill-rule="evenodd" clip-rule="evenodd" d="M34.096 23.6356C35.6928 23.1935 37.3456 24.1296 37.7877 25.7264L39.793 32.9692L42.1657 25.6873C42.5684 24.4514 43.7213 23.6155 45.0211 23.6168C46.321 23.6181 47.4721 24.4564 47.8724 25.6931L50.2158 32.9341L52.2113 25.7264C52.6534 24.1296 54.3062 23.1935 55.903 23.6356C57.4998 24.0777 58.4358 25.7305 57.9938 27.3273L57.5305 29.0005H58.4735C60.1304 29.0005 61.4735 30.3436 61.4735 32.0005C61.4735 33.6573 60.1304 35.0005 58.4735 35.0005H55.8694L53.3308 44.1696C52.9774 45.4463 51.8283 46.34 50.5039 46.3684C49.1795 46.3968 47.9932 45.5532 47.5853 44.2928L45.0084 36.3299L42.4118 44.2985C42.0017 45.557 40.8153 46.3981 39.4921 46.3683C38.1688 46.3386 37.0213 45.4452 36.6682 44.1696L34.1296 35.0005H31.5273C29.8705 35.0005 28.5273 33.6573 28.5273 32.0005C28.5273 30.3436 29.8705 29.0005 31.5273 29.0005H32.4685L32.0052 27.3273C31.5632 25.7305 32.4992 24.0777 34.096 23.6356Z" fill="#222222"/>
<path fill-rule="evenodd" clip-rule="evenodd" d="M47 68C47 56.4009 56.4009 47 68 47C79.5974 47 89 56.4007 89 68C89 79.5993 79.5974 89 68 89C56.4009 89 47 79.5991 47 68ZM68 53C59.7146 53 53 59.7146 53 68C53 76.2854 59.7146 83 68 83C76.284 83 83 76.2852 83 68C83 59.7148 76.284 53 68 53ZM59 68C59 66.3431 60.3431 65 62 65H65V62C65 60.3431 66.3431 59 68 59C69.6569 59 71 60.3431 71 62V65H74C75.6569 65 77 66.3431 77 68C77 69.6569 75.6569 71 74 71H71V74C71 75.6569 69.6569 77 68 77C66.3431 77 65 75.6569 65 74V71H62C60.3431 71 59 69.6569 59 68Z" fill="#222222"/>
</svg>
