<svg width="96" height="96" viewBox="0 0 96 96" fill="none" xmlns="http://www.w3.org/2000/svg">
<path fill-rule="evenodd" clip-rule="evenodd" d="M34.096 23.6356C35.6928 23.1935 37.3456 24.1296 37.7877 25.7264L39.793 32.9692L42.1657 25.6874C42.5684 24.4514 43.7213 23.6155 45.0211 23.6168C46.321 23.6181 47.4721 24.4564 47.8724 25.6931L50.2158 32.9341L52.2113 25.7264C52.6534 24.1296 54.3062 23.1935 55.903 23.6356C57.4998 24.0777 58.4358 25.7305 57.9938 27.3273L57.5305 29.0005H58.4735C60.1304 29.0005 61.4735 30.3436 61.4735 32.0005C61.4735 33.6573 60.1304 35.0005 58.4735 35.0005H55.8694L53.3308 44.1696C52.9774 45.4463 51.8283 46.34 50.5039 46.3684C49.1795 46.3968 47.9932 45.5532 47.5853 44.2928L45.0084 36.33L42.4118 44.2986C42.0017 45.557 40.8153 46.3981 39.4921 46.3684C38.1688 46.3386 37.0213 45.4452 36.6682 44.1696L34.1296 35.0005H31.5273C29.8705 35.0005 28.5273 33.6573 28.5273 32.0005C28.5273 30.3436 29.8705 29.0005 31.5273 29.0005H32.4685L32.0052 27.3273C31.5632 25.7305 32.4992 24.0777 34.096 23.6356Z" fill="#222222"/>
<path fill-rule="evenodd" clip-rule="evenodd" d="M25 8C20.0294 8 16 12.0294 16 17V79C16 83.9706 20.0294 88 25 88H42.7872C44.4441 88 45.7872 86.6569 45.7872 85C45.7872 83.3431 44.4441 82 42.7872 82H25C23.3431 82 22 80.6569 22 79V17C22 15.3431 23.3431 14 25 14H65C66.6569 14 68 15.3431 68 17V38C68 39.6569 69.3431 41 71 41C72.6569 41 74 39.6569 74 38V17C74 12.0294 69.9706 8 65 8H25ZM42 70C40.3431 70 39 71.3431 39 73C39 74.6569 40.3431 76 42 76H48C49.6569 76 51 74.6569 51 73C51 71.3431 49.6569 70 48 70H42Z" fill="#222222"/>
<path d="M85.5 85.2656L77.5 77.2656" stroke="#222222" stroke-width="6" stroke-linecap="round"/>
<path d="M55.8924 55.6579C53.08 58.4717 51.5 62.2872 51.5 66.2656C51.5 70.2439 53.08 74.0595 55.8924 76.8734C58.7062 79.6858 62.5218 81.2656 66.5002 81.2656C70.4785 81.2656 74.2938 79.6858 77.1076 76.8734C79.92 74.0595 81.5 70.2439 81.5 66.2656C81.5 62.2872 79.92 58.4717 77.1076 55.6579C74.2938 52.8455 70.4785 51.2656 66.5002 51.2656C62.5218 51.2656 58.7062 52.8455 55.8924 55.6579V55.6579Z" stroke="#222222" stroke-width="6"/>
</svg>
