<svg width="96" height="96" viewBox="0 0 96 96" fill="none" xmlns="http://www.w3.org/2000/svg">
<g filter="url(#filter0_d_2952_121102)">
<path fill-rule="evenodd" clip-rule="evenodd" d="M43.1273 24.5101L48.0437 31.5383L52.9602 24.5101C55.9232 20.2744 61.082 18 65.9672 18C74.3515 18 81.8398 24.6636 81.9987 34.8303C81.9524 36.1556 81.8728 37.5985 81.793 38.1819L81.7864 38.2299L81.7807 38.278C81.0039 44.735 77.2228 51.5561 71.1275 58.4898C65.0885 65.3596 57.2233 71.8368 49.1835 77.596L49.1814 77.5975C48.776 77.8882 48.3757 78 48 78C47.6523 78 47.213 77.879 46.8226 77.6004C38.8061 71.8425 30.9487 65.3534 24.9067 58.4751C18.8359 51.5641 15.048 44.7689 14.2288 38.3528C14.1523 37.4888 14.0442 35.9596 14.0021 34.8469C14.2379 24.6564 21.7475 18 30.1202 18C35.0055 18 40.1642 20.2744 43.1273 24.5101ZM87.7377 38.9945C87.8689 38.0351 87.9563 36.2035 88 34.8952C87.8689 21.4634 77.7705 12 65.9672 12C61.262 12 56.2642 13.5493 52.2497 16.664C50.6694 17.89 49.2415 19.3587 48.0437 21.0709C46.846 19.3587 45.418 17.89 43.8378 16.664C39.8232 13.5493 34.8254 12 30.1202 12C18.3169 12 8.21858 21.4634 8 34.8952C8.04372 36.2035 8.17486 38.0351 8.2623 38.9945C10.2732 55.3047 26.929 70.699 43.3224 82.4736C44.7213 83.4767 46.3825 84 48 84C49.6612 84 51.2787 83.4767 52.6776 82.4736C69.1148 70.699 85.7705 55.3483 87.7377 38.9945ZM44.3245 38.162C43.7036 37.3611 42.7204 36.9277 41.7104 37.0099C40.7003 37.092 39.8 37.6785 39.3167 38.5692L35.517 45.5714H28C26.3431 45.5714 25 46.9146 25 48.5714C25 50.2283 26.3431 51.5714 28 51.5714H37.3023C38.4025 51.5714 39.4144 50.9692 39.9391 50.0023L42.3983 45.4704L48.8848 53.838C49.4163 54.5236 50.2185 54.9456 51.0846 54.9951C51.9507 55.0446 52.7958 54.7168 53.4019 54.0962L60.8913 46.4286H68C69.6569 46.4286 71 45.0854 71 43.4286C71 41.7717 69.6569 40.4286 68 40.4286H59.6279C58.82 40.4286 58.0463 40.7544 57.4818 41.3324L51.5165 47.4397L44.3245 38.162Z" fill="#222222"/>
</g>
<defs>
<filter id="filter0_d_2952_121102" x="6.01905" y="10.019" width="83.9619" height="75.9619" filterUnits="userSpaceOnUse" color-interpolation-filters="sRGB">
<feFlood flood-opacity="0" result="BackgroundImageFix"/>
<feColorMatrix in="SourceAlpha" type="matrix" values="0 0 0 0 0 0 0 0 0 0 0 0 0 0 0 0 0 0 127 0" result="hardAlpha"/>
<feOffset/>
<feGaussianBlur stdDeviation="0.990476"/>
<feComposite in2="hardAlpha" operator="out"/>
<feColorMatrix type="matrix" values="0 0 0 0 0 0 0 0 0 0 0 0 0 0 0 0 0 0 0.1 0"/>
<feBlend mode="normal" in2="BackgroundImageFix" result="effect1_dropShadow_2952_121102"/>
<feBlend mode="normal" in="SourceGraphic" in2="effect1_dropShadow_2952_121102" result="shape"/>
</filter>
</defs>
</svg>
