<svg width="96" height="96" viewBox="0 0 96 96" fill="none" xmlns="http://www.w3.org/2000/svg">
<path fill-rule="evenodd" clip-rule="evenodd" d="M47.4 8C37.7902 8 30 15.7902 30 25.4V30.6C30 34.9568 31.6013 38.9396 34.2474 41.992L23.318 48.4363C16.3045 52.5717 12 60.1068 12 68.2487V78C12 82.9706 16.0294 87 21 87H75C79.9706 87 84 82.9706 84 78V68.1574C84 60.0721 79.7546 52.5806 72.8184 48.4261L61.8626 41.8639C64.443 38.8286 66 34.8961 66 30.6V25.4C66 15.7902 58.2098 8 48.6 8H47.4ZM56.9098 45.8913C54.4405 47.236 51.6095 48 48.6 48H47.4C44.4662 48 41.702 47.2739 39.2772 45.9916L26.3655 53.6048C21.1816 56.6613 18 62.2308 18 68.2487V78C18 79.6569 19.3431 81 21 81H75C76.6569 81 78 79.6569 78 78V68.1574C78 62.1813 74.8621 56.6441 69.7353 53.5734L56.9098 45.8913ZM36 25.4C36 19.104 41.104 14 47.4 14H48.6C54.896 14 60 19.104 60 25.4V30.6C60 36.896 54.896 42 48.6 42H47.4C41.104 42 36 36.896 36 30.6V25.4Z" fill="#222222"/>
</svg>
