<svg width="96" height="96" viewBox="0 0 96 96" fill="none" xmlns="http://www.w3.org/2000/svg">
<path fill-rule="evenodd" clip-rule="evenodd" d="M10 30C11.6569 30 13 28.6569 13 27V15C13 14.4477 13.4477 14 14 14H82C82.5523 14 83 14.4477 83 15V27C83 28.6569 84.3431 30 86 30C87.6569 30 89 28.6569 89 27V15C89 11.134 85.866 8 82 8H14C10.134 8 7 11.134 7 15V27C7 28.6569 8.34315 30 10 30ZM21.8787 54.1213C23.0503 55.2929 24.9497 55.2929 26.1213 54.1213L45 35.2426V86C45 87.6569 46.3431 89 48 89C49.6569 89 51 87.6569 51 86V35.2426L69.8787 54.1213C71.0502 55.2929 72.9498 55.2929 74.1213 54.1213C75.2929 52.9497 75.2929 51.0503 74.1213 49.8787L50.1213 25.8787C48.9497 24.7071 47.0503 24.7071 45.8787 25.8787L21.8787 49.8787C20.7071 51.0503 20.7071 52.9497 21.8787 54.1213Z" fill="#222222"/>
</svg>
