<svg width="96" height="96" viewBox="0 0 96 96" fill="none" xmlns="http://www.w3.org/2000/svg">
<path fill-rule="evenodd" clip-rule="evenodd" d="M24.5 14C22.8431 14 21.5 15.3431 21.5 17V75C21.5 76.6569 22.8431 78 24.5 78H44.5C46.1569 78 47.5 79.3431 47.5 81C47.5 82.6569 46.1569 84 44.5 84H24.5C19.5294 84 15.5 79.9706 15.5 75V17C15.5 12.0294 19.5294 8 24.5 8H70.5C75.4706 8 79.5 12.0294 79.5 17V40.6364C79.5 42.2932 78.1569 43.6364 76.5 43.6364C74.8431 43.6364 73.5 42.2932 73.5 40.6364V17C73.5 15.3431 72.1569 14 70.5 14H24.5ZM29.5 27C29.5 25.3431 30.8431 24 32.5 24H62.5C64.1569 24 65.5 25.3431 65.5 27C65.5 28.6569 64.1569 30 62.5 30H32.5C30.8431 30 29.5 28.6569 29.5 27ZM32.5 36C30.8431 36 29.5 37.3431 29.5 39C29.5 40.6569 30.8431 42 32.5 42H52.5C54.1569 42 55.5 40.6569 55.5 39C55.5 37.3431 54.1569 36 52.5 36H32.5Z" fill="#222222"/>
<path d="M85 85.2656L77 77.2656" stroke="#222222" stroke-width="6" stroke-linecap="round"/>
<path d="M55.3924 55.6579C52.58 58.4717 51 62.2872 51 66.2656C51 70.2439 52.58 74.0595 55.3924 76.8734C58.2062 79.6858 62.0218 81.2656 66.0002 81.2656C69.9785 81.2656 73.7938 79.6858 76.6076 76.8734C79.42 74.0595 81 70.2439 81 66.2656C81 62.2872 79.42 58.4717 76.6076 55.6579C73.7938 52.8455 69.9785 51.2656 66.0002 51.2656C62.0218 51.2656 58.2062 52.8455 55.3924 55.6579Z" stroke="#222222" stroke-width="6"/>
</svg>
