<svg width="96" height="96" viewBox="0 0 96 96" fill="none" xmlns="http://www.w3.org/2000/svg">
<path d="M43.7571 29.6159L57.1922 16.1809C63.4405 9.93251 73.5712 9.93251 79.8196 16.1809V16.1809C86.068 22.4293 86.068 32.5599 79.8196 38.8083L66.3845 52.2433M29.615 43.7581L16.18 57.1931C9.93157 63.4415 9.93157 73.5721 16.18 79.8205V79.8205C22.4283 86.0689 32.559 86.0689 38.8074 79.8205L52.2424 66.3855" stroke="#222222" stroke-width="6" stroke-linecap="round" stroke-linejoin="round"/>
<path d="M72.3906 71.9385L78.4829 78.0307" stroke="#222222" stroke-width="6" stroke-linecap="round"/>
<path d="M77 59.0005H85" stroke="#222222" stroke-width="6" stroke-linecap="round"/>
<path d="M59 85.0005V76.0005" stroke="#222222" stroke-width="6" stroke-linecap="round"/>
<path d="M24.2227 23.7695L18.1304 17.6773" stroke="#222222" stroke-width="6" stroke-linecap="round"/>
<path d="M37 20.0005V11.0005" stroke="#222222" stroke-width="6" stroke-linecap="round"/>
<path d="M11 37.0005H20" stroke="#222222" stroke-width="6" stroke-linecap="round"/>
</svg>
