<svg width="96" height="96" viewBox="0 0 96 96" fill="none" xmlns="http://www.w3.org/2000/svg">
<path fill-rule="evenodd" clip-rule="evenodd" d="M34 11C21.2975 11 11 21.2974 11 34V50.2628C11 62.9654 21.2975 73.2629 34 73.2629H45.0234L45.0947 82.3783C45.0934 83.1505 45.3425 83.8803 45.7718 84.476C46.2075 85.0806 46.8015 85.5127 47.4467 85.7576C48.0904 86.0018 48.7851 86.0609 49.4515 85.9376C50.1114 85.8155 50.7526 85.5122 51.2803 85.0275L64.2385 73.2323C75.8067 72.6258 85 63.0537 85 51.3344V34C85 21.2975 74.7025 11 62 11H34ZM17 34C17 24.6112 24.6112 17 34 17H62C71.3888 17 79 24.6112 79 34V51.3344C79 60.1314 71.8686 67.2629 63.0715 67.2629H63.0441C62.2971 67.2629 61.577 67.5415 61.0246 68.0443L51.0537 77.1203L50.9999 70.2394C50.987 68.5917 49.6477 67.2629 48 67.2629H34C24.6112 67.2629 17 59.6517 17 50.2628V34ZM90 34C88.3431 34 87 35.3431 87 37V49C87 50.6569 88.3431 52 90 52C91.6569 52 93 50.6569 93 49V37C93 35.3431 91.6569 34 90 34ZM3 37C3 35.3431 4.34315 34 6 34C7.65685 34 9 35.3431 9 37V49C9 50.6569 7.65685 52 6 52C4.34315 52 3 50.6569 3 49V37ZM42.0001 36C42.0001 38.2091 40.2092 40 38.0001 40C35.7909 40 34.0001 38.2091 34.0001 36C34.0001 33.7908 35.7909 32 38.0001 32C40.2092 32 42.0001 33.7908 42.0001 36ZM37.9206 47.6953C36.6478 46.6346 34.7561 46.8066 33.6954 48.0794C32.6347 49.3523 32.8067 51.244 34.0795 52.3047C42.1434 59.0246 53.8567 59.0246 61.9206 52.3047C63.1935 51.244 63.3654 49.3523 62.3047 48.0794C61.244 46.8066 59.3524 46.6346 58.0795 47.6953C52.2407 52.561 43.7595 52.561 37.9206 47.6953ZM59.0001 40C61.2092 40 63.0001 38.2091 63.0001 36C63.0001 33.7908 61.2092 32 59.0001 32C56.791 32 55.0001 33.7908 55.0001 36C55.0001 38.2091 56.791 40 59.0001 40Z" fill="#222222"/>
</svg>
