<svg width="96" height="96" viewBox="0 0 96 96" fill="none" xmlns="http://www.w3.org/2000/svg">
<path d="M39.6626 71.8974H34.1165C23.3211 71.8974 14.5697 63.146 14.5697 52.3506V31.5468C14.5697 20.7514 23.3211 12 34.1165 12H61.8836C72.679 12 81.4304 20.7514 81.4304 31.5468V54.795" stroke="#222222" stroke-width="6" stroke-linecap="round"/>
<rect x="44.6077" y="79.8193" width="19.4228" height="11.7397" rx="5.86985" transform="rotate(-34.684 44.6077 79.8193)" stroke="#222222" stroke-width="6"/>
<path d="M58.3682 84.6258C65.0043 80.0922 76.6052 72.5951 79.4898 64.2047C81.843 57.3601 81.418 48.1611 81.418 48.1611" stroke="#222222" stroke-width="6"/>
<path d="M3.04395 38.4447C3.04395 34.1265 6.5445 30.626 10.8627 30.626H14.5697V53.6211H10.8627C6.5445 53.6211 3.04395 50.1206 3.04395 45.8024V38.4447Z" stroke="#222222" stroke-width="6" stroke-linecap="round"/>
<path d="M92.9561 38.4447C92.9561 34.1265 89.4555 30.626 85.1373 30.626H81.4303V53.6211H85.1373C89.4555 53.6211 92.9561 50.1206 92.9561 45.8024V38.4447Z" stroke="#222222" stroke-width="6" stroke-linecap="round"/>
<path d="M35.6934 48.3477V48.3477C42.5372 54.0509 52.4784 54.0509 59.3222 48.3477V48.3477" stroke="#222222" stroke-width="6" stroke-linecap="round"/>
<path d="M37.6624 38.5023C39.8373 38.5023 41.6005 36.7391 41.6005 34.5641C41.6005 32.3891 39.8373 30.626 37.6624 30.626C35.4874 30.626 33.7242 32.3891 33.7242 34.5641C33.7242 36.7391 35.4874 38.5023 37.6624 38.5023Z" fill="#222222"/>
<path d="M58.3377 38.5023C60.5127 38.5023 62.2758 36.7391 62.2758 34.5641C62.2758 32.3891 60.5127 30.626 58.3377 30.626C56.1627 30.626 54.3995 32.3891 54.3995 34.5641C54.3995 36.7391 56.1627 38.5023 58.3377 38.5023Z" fill="#222222"/>
</svg>
