<svg width="96" height="96" viewBox="0 0 96 96" fill="none" xmlns="http://www.w3.org/2000/svg">
<path fill-rule="evenodd" clip-rule="evenodd" d="M16 20C16 18.3431 17.3431 17 19 17H77C78.6569 17 80 18.3431 80 20V62.2671C80 63.9239 78.6569 65.2671 77 65.2671H41.2899C40.5292 65.2671 39.7969 65.5561 39.2412 66.0756L29.5996 75.0888V68.2671C29.5996 66.6102 28.2565 65.2671 26.5996 65.2671H19C17.3431 65.2671 16 63.924 16 62.2671V20ZM19 11C14.0294 11 10 15.0294 10 20V62.2671C10 67.2377 14.0294 71.2671 19 71.2671H23.5996V81.0785C23.5996 84.0527 27.1488 85.5933 29.3215 83.5622L42.4738 71.2671H77C81.9706 71.2671 86 67.2377 86 62.2671V20C86 15.0294 81.9706 11 77 11H19ZM64.5 45C66.425 45 68 43.425 68 41.5C68 39.575 66.425 38 64.5 38C62.575 38 61 39.575 61 41.5C61 43.425 62.575 45 64.5 45ZM52 41.5C52 43.425 50.425 45 48.5 45C46.575 45 45 43.425 45 41.5C45 39.575 46.575 38 48.5 38C50.425 38 52 39.575 52 41.5ZM32.5 45C34.425 45 36 43.425 36 41.5C36 39.575 34.425 38 32.5 38C30.575 38 29 39.575 29 41.5C29 43.425 30.575 45 32.5 45Z" fill="#222222"/>
</svg>
