<svg width="96" height="96" viewBox="0 0 96 96" fill="none" xmlns="http://www.w3.org/2000/svg">
<path d="M47.9459 66.9157L43.8412 71.3458C36.1408 66.6041 29.6681 60.0738 24.9595 52.2962L30.0493 47.8105C30.9227 47.0385 31.5312 46.0058 31.787 44.8612C32.0427 43.7166 31.9326 42.5193 31.4723 41.4422L28.3527 34.3539C27.9295 33.3582 27.2271 32.51 26.3321 31.9144C25.437 31.3189 24.3889 31.0022 23.3177 31.0036H15.1083C14.563 30.9801 14.0187 31.0714 13.5102 31.2718C13.0017 31.4722 12.5399 31.7773 12.154 32.1678C11.7681 32.5582 11.4665 33.0256 11.2685 33.5401C11.0704 34.0546 10.9803 34.6052 11.0036 35.1569C11.0036 62.1256 32.7585 84.9964 58.8917 84.9964C59.437 85.0199 59.9809 84.9285 60.4894 84.7281C60.998 84.5277 61.4598 84.2226 61.8457 83.8322C62.2315 83.4417 62.5331 82.9744 62.7312 82.4599C62.9293 81.9454 63.0197 81.3948 62.9964 80.8431V72.8688C62.9966 71.7453 62.6589 70.6483 62.0284 69.7235C61.3979 68.7987 60.5043 68.0899 59.4663 67.691L53.9933 65.5313C52.9652 65.1161 51.8369 65.0262 50.7572 65.2733C49.6775 65.5205 48.6973 66.0932 47.9459 66.9157Z" stroke="#222222" stroke-width="6" stroke-linecap="round"/>
<path fill-rule="evenodd" clip-rule="evenodd" d="M31.7358 19.8636C36.9397 16.1726 43.3098 14 50.2015 14C67.7828 14 82.0002 28.1501 82.0002 45.5621C82.0002 52.9551 79.443 59.7489 75.1532 65.1299C74.1203 66.4254 74.3333 68.313 75.6289 69.3458C76.9244 70.3786 78.8119 70.1656 79.8448 68.8701C84.9487 62.4678 88.0002 54.3659 88.0002 45.5621C88.0002 24.7979 71.0578 8 50.2015 8C42.0286 8 34.4519 10.5811 28.2646 14.9697C26.9132 15.9282 26.5947 17.8008 27.5533 19.1523C28.5118 20.5037 30.3844 20.8222 31.7358 19.8636ZM38.0002 41.5C38.0002 43.432 39.5668 45 41.5002 45C43.4322 45 45.0002 43.432 45.0002 41.5C45.0002 39.5666 43.4322 38 41.5002 38C39.5668 38 38.0002 39.5666 38.0002 41.5ZM52.0002 41.5C52.0002 43.432 53.5668 45 55.5002 45C57.4322 45 59.0002 43.432 59.0002 41.5C59.0002 39.5666 57.4322 38 55.5002 38C53.5668 38 52.0002 39.5666 52.0002 41.5ZM69.5002 45C67.5668 45 66.0002 43.432 66.0002 41.5C66.0002 39.5666 67.5668 38 69.5002 38C71.4322 38 73.0002 39.5666 73.0002 41.5C73.0002 43.432 71.4322 45 69.5002 45Z" fill="#222222"/>
</svg>
