<svg width="96" height="96" viewBox="0 0 96 96" fill="none" xmlns="http://www.w3.org/2000/svg">
<path fill-rule="evenodd" clip-rule="evenodd" d="M25 14.0234C23.3431 14.0234 22 15.3666 22 17.0234V78.1936L29.0872 74.6896C29.9275 74.2742 30.9136 74.2753 31.7528 74.6928L39.473 78.5327L42.5916 76.8746C44.0545 76.0967 45.871 76.6521 46.6489 78.115C47.4267 79.578 46.8713 81.3945 45.4084 82.1723L40.9272 84.5549C40.072 85.0096 39.05 85.0235 38.1828 84.5922L30.4128 80.7275L20.3296 85.7127C19.3997 86.1725 18.2983 86.1192 17.4171 85.5718C16.5359 85.0245 16 84.0608 16 83.0234V17.0234C16 12.0529 20.0294 8.02344 25 8.02344H71C75.9706 8.02344 80 12.0529 80 17.0234V42.0234C80 43.6803 78.6569 45.0234 77 45.0234C75.3431 45.0234 74 43.6803 74 42.0234V17.0234C74 15.3666 72.6569 14.0234 71 14.0234H25ZM30 27.0234C30 25.3666 31.3431 24.0234 33 24.0234H63C64.6569 24.0234 66 25.3666 66 27.0234C66 28.6803 64.6569 30.0234 63 30.0234H33C31.3431 30.0234 30 28.6803 30 27.0234ZM33 36.0234C31.3431 36.0234 30 37.3666 30 39.0234C30 40.6803 31.3431 42.0234 33 42.0234H53C54.6569 42.0234 56 40.6803 56 39.0234C56 37.3666 54.6569 36.0234 53 36.0234H33Z" fill="#222222"/>
<path fill-rule="evenodd" clip-rule="evenodd" d="M68 47.0234C56.4009 47.0234 47 56.4243 47 68.0234C47 79.6226 56.4009 89.0234 68 89.0234C79.5974 89.0234 89 79.6227 89 68.0234C89 56.4242 79.5974 47.0234 68 47.0234ZM53 68.0234C53 59.738 59.7146 53.0234 68 53.0234C76.284 53.0234 83 59.7382 83 68.0234C83 76.3087 76.284 83.0234 68 83.0234C59.7146 83.0234 53 76.3088 53 68.0234ZM62.0802 62.3075C61.6848 61.1586 60.4329 60.5478 59.284 60.9432C58.1351 61.3386 57.5243 62.5905 57.9198 63.7394L58.637 65.8234H58.2617C57.0467 65.8234 56.0617 66.8084 56.0617 68.0234C56.0617 69.2385 57.0467 70.2234 58.2617 70.2234H60.1514L62.0499 75.7395C62.3578 76.634 63.203 77.2316 64.149 77.2235C65.0949 77.2154 65.9298 76.6035 66.2223 75.7039L68.0252 70.1597L69.8144 75.6997C70.1057 76.6018 70.9421 77.2158 71.89 77.2235C72.8379 77.2312 73.6842 76.6308 73.9901 75.7336L75.8802 70.1911C76.0029 70.2124 76.129 70.2234 76.2578 70.2234H78.2578C79.4728 70.2234 80.4578 69.2385 80.4578 68.0234C80.4578 66.8084 79.4728 65.8234 78.2578 65.8234H77.3696L78.0823 63.7335C78.4744 62.5835 77.8601 61.3333 76.7101 60.9412C75.5601 60.549 74.3099 61.1634 73.9177 62.3134L71.9646 68.0408L70.1259 62.3473C69.8328 61.4397 68.9883 60.8244 68.0345 60.8234C67.0808 60.8225 66.2351 61.4361 65.9402 62.3431L64.071 68.0914L62.0802 62.3075Z" fill="#222222"/>
</svg>
