<svg width="96" height="96" viewBox="0 0 96 96" fill="none" xmlns="http://www.w3.org/2000/svg">
<path fill-rule="evenodd" clip-rule="evenodd" d="M75 18L21 18.0002C19.3431 18.0002 18 19.3434 18 21.0002V64.1927C18 65.8496 19.3431 67.1927 21 67.1927H34.6091C36.266 67.1927 37.6091 68.5359 37.6091 70.1927V77.0047L47.0529 68.0193C47.6106 67.4886 48.351 67.1927 49.1208 67.1927L75 67.1925C76.6569 67.1925 78 65.8493 78 64.1925V21C78 19.3431 76.6568 18 75 18ZM21 12.0002L75 12C79.9705 12 84 16.0294 84 21V64.1925C84 69.163 79.9706 73.1924 75.0001 73.1925L50.32 73.1927L36.677 86.1734C35.8078 87.0004 34.5294 87.23 33.4267 86.7571C32.324 86.2842 31.6091 85.1998 31.6091 84V73.1927H21C16.0294 73.1927 12 69.1633 12 64.1927V21.0002C12 16.0297 16.0294 12.0002 21 12.0002ZM48 51C49.6545 51 51 52.3438 51 53.9992C51 55.6547 49.6545 57 48 57C46.3395 57 45 55.6562 45 53.9992C45 52.3438 46.3395 51 48 51ZM45 35.996C45 35.3848 45.8049 34 48.0006 34C50.1946 34 51 35.3844 51 35.996C51 36.3069 50.8756 36.6785 50.5064 37.0541L48.6219 38.6692C48.5844 38.699 48.5404 38.7347 48.4906 38.7765C48.3758 38.8729 48.2293 39.0022 48.062 39.1644C47.7295 39.4868 47.3025 39.9508 46.8778 40.5557C46.0267 41.7681 45.1448 43.6105 45.1448 46C45.1448 47.6568 46.4879 49 48.1448 49C49.8016 49 51.1448 47.6568 51.1448 46C51.1448 45.1452 51.4512 44.4837 51.7886 44.0032C51.9581 43.7617 52.1253 43.582 52.2384 43.4723C52.2898 43.4225 52.3272 43.3898 52.3446 43.3751L52.3938 43.3386L52.4739 43.27L54.4891 41.5429L54.5545 41.4868L54.6166 41.427C56.0313 40.0662 57 38.1724 57 35.996C57 31.0898 52.434 28 48.0006 28C43.5665 28 39 31.0895 39 35.996C39 37.6529 40.3431 38.996 42 38.996C43.6569 38.996 45 37.6529 45 35.996Z" fill="#222222"/>
</svg>
