<svg width="96" height="96" viewBox="0 0 96 96" fill="none" xmlns="http://www.w3.org/2000/svg">
<path fill-rule="evenodd" clip-rule="evenodd" d="M19 56V35.1964C23.4107 23.4062 34.8366 15 48.2421 15C61.1818 15 72.2776 22.8317 77 33.9815V56C77 57.6569 78.3431 59 80 59H81.99C88.0706 59 93 54.0706 93 47.99V41.01C93 34.9294 88.0706 30 81.99 30H81.7816C75.7835 17.5747 63.0176 9 48.2421 9C33.4674 9 20.7015 17.5737 14.7028 30H14.01C7.92937 30 3 34.9294 3 41.01V47.99C3 53.8898 7.64058 58.7058 13.4708 58.987C13.5056 59.1836 13.5607 59.3796 13.6371 59.5724C18.9665 73.0138 31.9758 82.6011 47.28 82.9879C48.7805 85.3968 51.453 87 54.5 87C59.1944 87 63 83.1944 63 78.5C63 73.8056 59.1944 70 54.5 70C50.3416 70 46.8807 72.9861 46.1445 76.931C33.8636 76.1204 23.5299 68.2446 19.2147 57.3609C19.1304 57.1483 19.0244 56.9506 18.9004 56.7694C18.9654 56.5238 19 56.266 19 56ZM55 33C53.3432 33 52 34.3431 52 36C52 37.6569 53.3432 39 55 39H55.7247L48.127 46.483L43.0383 42.3752C41.7865 41.3647 39.9604 41.5215 38.8992 42.7306L30.7453 52.0211C29.6524 53.2663 29.7759 55.1618 31.0211 56.2547C32.2664 57.3477 34.1619 57.2242 35.2548 55.9789L41.5097 48.8522L46.4408 52.8328C47.6274 53.7907 49.3438 53.706 50.4303 52.6359L60 43.2107V44C60 45.6569 61.3432 47 63 47C64.6569 47 66 45.6569 66 44V36C66 34.3431 64.6569 33 63 33H55ZM83 52.8981V36.1019C85.2828 36.5692 87 38.5891 87 41.01V47.99C87 50.4109 85.2828 52.4308 83 52.8981ZM13 52.8981V36.1019C10.7172 36.5692 9 38.5891 9 41.01V47.99C9 50.4109 10.7172 52.4308 13 52.8981ZM52 78.5C52 77.1193 53.1193 76 54.5 76C55.8807 76 57 77.1193 57 78.5C57 79.8807 55.8807 81 54.5 81C53.1193 81 52 79.8807 52 78.5Z" fill="#222222"/>
</svg>
