<svg width="96" height="96" viewBox="0 0 96 96" fill="none" xmlns="http://www.w3.org/2000/svg">
<path fill-rule="evenodd" clip-rule="evenodd" d="M8.00043 17.0234C8.00043 12.0529 12.0299 8.02344 17.0004 8.02344H79.0004C83.971 8.02344 88.0004 12.0529 88.0004 17.0234V64.0234C88.0004 68.994 83.971 73.0234 79.0004 73.0234H51.0004V82.0234H74.0004C75.6573 82.0234 77.0004 83.3666 77.0004 85.0234C77.0004 86.6803 75.6573 88.0234 74.0004 88.0234H22.0004C20.3436 88.0234 19.0004 86.6803 19.0004 85.0234C19.0004 83.3666 20.3436 82.0234 22.0004 82.0234H45.0004V73.0234H17.0004C12.0299 73.0234 8.00043 68.994 8.00043 64.0234V17.0234ZM17.0004 14.0234C15.3436 14.0234 14.0004 15.3666 14.0004 17.0234V64.0234C14.0004 65.6803 15.3436 67.0234 17.0004 67.0234H79.0004C80.6573 67.0234 82.0004 65.6803 82.0004 64.0234V17.0234C82.0004 15.3666 80.6573 14.0234 79.0004 14.0234H17.0004ZM38.8919 31.2229C38.4498 29.6261 36.7969 28.6901 35.2001 29.1322C33.6034 29.5744 32.6674 31.2272 33.1095 32.824L33.8569 35.5234H32.0007C30.3438 35.5234 29.0007 36.8666 29.0007 38.5234C29.0007 40.1803 30.3438 41.5234 32.0007 41.5234H35.5183L38.6473 52.824C39.0005 54.0996 40.1479 54.993 41.4712 55.0227C42.7944 55.0524 43.9808 54.2114 44.3909 52.953L48.0117 41.8424L51.6059 52.9472C52.0138 54.2076 53.2001 55.0512 54.5245 55.0228C55.8488 54.9943 56.9978 54.1007 57.3513 52.824L60.4804 41.5234H64.0007C65.6576 41.5234 67.0007 40.1803 67.0007 38.5234C67.0007 36.8666 65.6576 35.5234 64.0007 35.5234H62.1417L62.8892 32.824C63.3313 31.2272 62.3953 29.5744 60.7985 29.1322C59.2017 28.6901 57.5489 29.6261 57.1067 31.2229L54.2363 41.5896L50.8756 31.2064C50.4754 29.9698 49.3243 29.1316 48.0244 29.1303C46.7246 29.1289 45.5718 29.9649 45.1691 31.2007L41.7721 41.6246L38.8919 31.2229Z" fill="#222222"/>
</svg>
