<svg width="96" height="96" viewBox="0 0 96 96" fill="none" xmlns="http://www.w3.org/2000/svg">
<g clip-path="url(#clip0_2952_121100)">
<path fill-rule="evenodd" clip-rule="evenodd" d="M41.9032 21.5382L39.1826 13.5H56.8705L54.2469 21.5727C54.1725 21.8016 54.1271 22.0329 54.1087 22.2627C52.1439 21.7702 50.1035 21.5 48.003 21.5C45.9566 21.5 43.9675 21.7562 42.0496 22.2245C42.0283 21.9956 41.9801 21.7655 41.9032 21.5382ZM36.5838 24.1927C36.4332 23.9719 36.3098 23.7273 36.2199 23.4618L33.0523 14.103C31.9551 10.8612 34.3659 7.5 37.7884 7.5H58.247C61.644 7.5 64.0522 10.8148 63.0022 14.0454L59.9531 23.4273C59.855 23.7292 59.7135 24.005 59.5378 24.2499C63.8595 26.3433 67.6643 29.4473 70.7416 32.9058C76.2978 39.1503 80 47.1304 80 53.7V80.5C80 84.366 76.866 87.5 73 87.5H23C19.134 87.5 16 84.366 16 80.5V53.7C16 47.1304 19.7022 39.1503 25.2593 32.9057C28.3652 29.4155 32.2121 26.2865 36.5838 24.1927ZM22 53.7C22 49.0696 24.7978 42.4497 29.7415 36.8943C34.6454 31.3837 41.1439 27.5 48.003 27.5C54.8588 27.5 61.3557 31.3833 66.2591 36.8942C71.2022 42.4497 74 49.0696 74 53.7V80.5C74 81.0523 73.5523 81.5 73 81.5H23C22.4477 81.5 22 81.0523 22 80.5V53.7Z" fill="#222222"/>
<path fill-rule="evenodd" clip-rule="evenodd" d="M37.0921 45.188C38.6889 44.7459 40.3418 45.6819 40.7839 47.2787L42.7896 54.5225L45.163 47.2397C45.5658 46.0038 46.7186 45.1679 48.0184 45.1692C49.3182 45.1705 50.4694 46.0087 50.8696 47.2454L53.2136 54.4875L55.2097 47.2787C55.6518 45.6819 57.3047 44.7459 58.9014 45.188C60.4982 45.6302 61.4342 47.283 60.9921 48.8798L60.5288 50.553H61.4719C63.1288 50.553 64.4719 51.8961 64.4719 53.553C64.4719 55.2098 63.1288 56.553 61.4719 56.553H58.8675L56.3287 65.7219C55.9752 66.9986 54.8262 67.8923 53.5018 67.9207C52.1774 67.9491 50.9911 67.1055 50.5832 65.8452L48.0056 57.8813L45.4085 65.8509C44.9984 67.1093 43.812 67.9503 42.4887 67.9206C41.1655 67.8909 40.0181 66.9975 39.6649 65.7219L37.1261 56.553H34.5254C32.8685 56.553 31.5254 55.2098 31.5254 53.553C31.5254 51.8961 32.8685 50.553 34.5254 50.553H35.4647L35.0015 48.8798C34.5593 47.283 35.4953 45.6302 37.0921 45.188Z" fill="#222222"/>
</g>
<defs>
<clipPath id="clip0_2952_121100">
<rect width="96" height="96" fill="white"/>
</clipPath>
</defs>
</svg>
