<svg width="96" height="96" viewBox="0 0 96 96" fill="none" xmlns="http://www.w3.org/2000/svg">
<g clip-path="url(#clip0_2952_121101)">
<path fill-rule="evenodd" clip-rule="evenodd" d="M40.9032 22.0382L38.1826 14H55.8705L53.2469 22.0727C53.2009 22.2142 53.166 22.3566 53.1417 22.499C51.4777 22.1735 49.7658 22 48.0151 22C45.6152 22 43.2893 22.3346 41.0618 22.9415C41.0559 22.6416 41.0045 22.3375 40.9032 22.0382ZM35.7842 24.9541C35.541 24.6708 35.347 24.3371 35.2199 23.9618L32.0523 14.603C30.9551 11.3612 33.3659 8 36.7884 8H57.247C60.644 8 63.0522 11.3148 62.0022 14.5454L58.9531 23.9273C58.9165 24.0398 58.8739 24.1488 58.8257 24.2538C67.629 27.9986 74.5172 35.8827 77.7979 43.8588C78.4281 45.3911 77.6969 47.1442 76.1646 47.7745C74.6323 48.4047 72.8792 47.6735 72.2489 46.1412C68.3338 36.6226 58.6993 28 48.0151 28C41.1102 28 34.6061 31.6647 29.7362 36.9975C24.8352 42.3644 22 48.9741 22 54.1984V81C22 81.5523 22.4477 82 23 82H39.5C41.1569 82 42.5 83.3431 42.5 85C42.5 86.6569 41.1569 88 39.5 88H23C19.134 88 16 84.866 16 81V54.1984C16 47.0902 19.6901 39.1008 25.3056 32.9515C28.2275 29.7519 31.7804 26.9313 35.7842 24.9541Z" fill="#222222"/>
<path fill-rule="evenodd" clip-rule="evenodd" d="M57.856 37.1245C59.4439 37.5972 60.348 39.2678 59.8753 40.8558L59.5347 41.9998H60C61.6569 41.9998 63 43.343 63 44.9998C63 46.6567 61.6569 47.9998 60 47.9998H57.7486L55.7076 54.8558C55.3359 56.1043 54.201 56.9703 52.8986 56.9991C51.5963 57.0279 50.4242 56.2129 49.9976 54.9821L47.9981 49.2118L45.977 54.9903C45.5471 56.2192 44.3738 57.0306 43.0723 56.9989C41.7708 56.9673 40.6382 56.0998 40.2686 54.8515L38.2399 47.9998H36C34.3431 47.9998 33 46.6567 33 44.9998C33 43.343 34.3431 41.9998 36 41.9998H36.4634L36.1234 40.8515C35.6531 39.2628 36.5596 37.5936 38.1483 37.1233C39.737 36.6529 41.4062 37.5594 41.8766 39.1481L43.3826 44.2345L45.1795 39.097C45.601 37.8919 46.739 37.0856 48.0156 37.0875C49.2923 37.0893 50.4279 37.8989 50.8459 39.1052L52.6158 44.2126L54.1247 39.1438C54.5974 37.5559 56.268 36.6518 57.856 37.1245Z" fill="#222222"/>
<path d="M76 69L69 80" stroke="#222222" stroke-width="6" stroke-linecap="round"/>
<path d="M63 85H53.1561C52.3464 85 51.6536 84.4187 51.5129 83.6213L50.4413 77.5465C50.1485 75.8866 50.0863 74.1943 50.2564 72.5174L50.299 72.0972C51.1482 63.7251 57.7467 57.0928 66.1144 56.201V56.201C67.3679 56.0674 68.6321 56.0674 69.8856 56.201V56.201C78.2533 57.0928 84.8518 63.7251 85.701 72.0972L85.7436 72.5174C85.9137 74.1943 85.8515 75.8866 85.5587 77.5465L84.4871 83.6213C84.3464 84.4187 83.6536 85 82.8439 85H73.5" stroke="#222222" stroke-width="6" stroke-linecap="round"/>
<path d="M73 85C73 82.2386 70.7614 80 68 80C65.2386 80 63 82.2386 63 85" stroke="#222222" stroke-width="6" stroke-linecap="round" stroke-linejoin="round"/>
</g>
<defs>
<clipPath id="clip0_2952_121101">
<rect width="96" height="96" fill="white"/>
</clipPath>
</defs>
</svg>
