<svg width="96" height="96" viewBox="0 0 96 96" fill="none" xmlns="http://www.w3.org/2000/svg">
<g clip-path="url(#clip0_2952_121020)">
<path fill-rule="evenodd" clip-rule="evenodd" d="M35 27.4571C35 19.9447 40.8994 14 48 14C55.1006 14 61 19.9447 61 27.4571V32H35V27.4571ZM29 32V27.4571C29 16.7915 37.4275 8 48 8C58.5725 8 67 16.7915 67 27.4571V32H75C79.9706 32 84 36.0294 84 41V79C84 83.9706 79.9706 88 75 88H21C16.0294 88 12 83.9706 12 79V41C12 36.0294 16.0294 32 21 32H29ZM21 38C19.3431 38 18 39.3431 18 41V79C18 80.6569 19.3431 82 21 82H75C76.6569 82 78 80.6569 78 79V41C78 39.3431 76.6569 38 75 38H21ZM48 52C49.6569 52 51 53.3431 51 55V65C51 66.6569 49.6569 68 48 68C46.3431 68 45 66.6569 45 65V55C45 53.3431 46.3431 52 48 52Z" fill="#222222"/>
</g>
<defs>
<clipPath id="clip0_2952_121020">
<rect width="96" height="96" fill="white"/>
</clipPath>
</defs>
</svg>
