<svg width="96" height="96" viewBox="0 0 96 96" fill="none" xmlns="http://www.w3.org/2000/svg">
<path fill-rule="evenodd" clip-rule="evenodd" d="M67 46C55.4009 46 46 55.4009 46 67C46 78.5991 55.4009 88 67 88C78.5974 88 88 78.5993 88 67C88 55.4007 78.5974 46 67 46ZM52 67C52 58.7146 58.7146 52 67 52C75.284 52 82 58.7148 82 67C82 75.2852 75.284 82 67 82C58.7146 82 52 75.2854 52 67ZM76.2875 63.9409C77.3595 62.6776 77.2043 60.7844 75.9409 59.7125C74.6776 58.6405 72.7844 58.7957 71.7125 60.0591L64.5599 68.4889L62.1932 65.953C61.0627 64.7418 59.1643 64.6763 57.953 65.8068C56.7418 66.9373 56.6763 68.8357 57.8068 70.047L62.4735 75.047C63.0577 75.6729 63.8816 76.0194 64.7376 75.9992C65.5936 75.9789 66.4002 75.5938 66.9542 74.9409L76.2875 63.9409Z" fill="#222222"/>
<path fill-rule="evenodd" clip-rule="evenodd" d="M30 26.0857C30 19.4871 35.5193 14 42.5 14C49.4807 14 55 19.4871 55 26.0857V30H30V26.0857ZM24 30V26.0857C24 16.0212 32.3599 8 42.5 8C52.6401 8 61 16.0212 61 26.0857V30H68C72.9706 30 77 34.0294 77 39V39.336C77 40.9929 75.6569 42.336 74 42.336C72.3431 42.336 71 40.9929 71 39.336V39C71 37.3431 69.6569 36 68 36H17C15.3431 36 14 37.3431 14 39V75C14 76.6569 15.3431 78 17 78H42.2455C43.9023 78 45.2455 79.3431 45.2455 81C45.2455 82.6569 43.9023 84 42.2455 84H17C12.0294 84 8 79.9706 8 75V39C8 34.0294 12.0294 30 17 30H24Z" fill="#222222"/>
</svg>
