<svg width="96" height="96" viewBox="0 0 96 96" fill="none" xmlns="http://www.w3.org/2000/svg">
<path d="M55.0508 63.5668L50.1568 68.8173C40.9756 63.1974 33.2581 55.4579 27.644 46.2399L33.7126 40.9236C34.754 40.0086 35.4795 38.7846 35.7844 37.4281C36.0894 36.0715 35.9581 34.6525 35.4093 33.3759L31.6897 24.975C31.1852 23.7949 30.3477 22.7896 29.2805 22.0838C28.2134 21.3779 26.9637 21.0026 25.6865 21.0043H15.8983C15.2482 20.9764 14.5993 21.0846 13.993 21.3222C13.3866 21.5597 12.836 21.9212 12.3759 22.384C11.9158 22.8468 11.5563 23.4007 11.3201 24.0105C11.084 24.6203 10.9766 25.2728 11.0043 25.9267C11.0043 57.8896 36.9428 84.9957 68.1017 84.9957C68.7518 85.0236 69.4003 84.9153 70.0067 84.6778C70.613 84.4402 71.1636 84.0787 71.6237 83.6159C72.0838 83.1531 72.4434 82.5993 72.6795 81.9895C72.9157 81.3797 73.0234 80.7272 72.9957 80.0733V70.6222C72.9959 69.2907 72.5933 67.9905 71.8415 66.8945C71.0898 65.7984 70.0244 64.9583 68.7867 64.4856L62.2613 61.926C61.0354 61.4339 59.6901 61.3273 58.4028 61.6202C57.1154 61.9132 55.9467 62.5919 55.0508 63.5668Z" stroke="#222222" stroke-width="6" stroke-linecap="round"/>
<path fill-rule="evenodd" clip-rule="evenodd" d="M52 17C52 15.3431 53.3431 14 55 14H79C80.6569 14 82 15.3431 82 17V32.9316C82 34.5884 80.6569 35.9316 79 35.9316H65.5491C64.788 35.9316 64.0553 36.2209 63.4995 36.7409L60.9941 39.0849V38.9316C60.9941 37.2747 59.6509 35.9316 57.9941 35.9316H55C53.3431 35.9316 52 34.5884 52 32.9316V17ZM46 32.9316C46 37.9002 50.0262 41.9284 54.9941 41.9316V45.078C54.9941 48.0528 58.5446 49.5932 60.717 47.5608L66.7337 41.9316H79C83.9706 41.9316 88 37.9022 88 32.9316V17C88 12.0294 83.9706 8 79 8H55C50.0294 8 46 12.0294 46 17V32.9316ZM75.9524 23.2778C77.2104 22.1995 77.356 20.3056 76.2778 19.0476C75.1995 17.7896 73.3056 17.644 72.0476 18.7222L64.5839 25.1197L61.8535 22.9744C60.5506 21.9507 58.6647 22.1771 57.641 23.4799C56.6174 24.7827 56.8437 26.6686 58.1465 27.6923L62.8132 31.359C63.9387 32.2433 65.5322 32.2093 66.619 31.2778L75.9524 23.2778Z" fill="#222222"/>
</svg>
