<svg width="96" height="96" viewBox="0 0 96 96" fill="none" xmlns="http://www.w3.org/2000/svg">
<g clip-path="url(#clip0_2952_121023)">
<path d="M35 21.4214C40.0756 16.9787 46.5352 14.7002 53.1146 15.0317C61.0177 15.0317 68.597 18.354 74.1853 24.2675C79.7736 30.1811 82.9131 38.2017 82.9131 46.5648C83.3453 53.9627 82.1893 61.3681 79.5317 68.2258" stroke="#222222" stroke-width="6" stroke-linecap="round"/>
<path d="M28.0005 29.9062C24.4338 35.4757 23.0563 42.2801 24.1567 48.8935C26.7505 65.7783 13 69.2933 13 69.2933" stroke="#222222" stroke-width="6" stroke-linecap="round"/>
<path d="M34 71.4244C34 71.4244 42.2992 65.454 40.0139 49.2156C38.1195 36.0937 45.6671 28.8438 53.5754 28.8438C62.9571 28.8438 69.0011 36.2904 69.0011 46.5583" stroke="#222222" stroke-width="6" stroke-linecap="round"/>
<path d="M67.9982 59.7188C68.0818 67.4478 65.6094 74.9695 61 81.0091" stroke="#222222" stroke-width="6" stroke-linecap="round"/>
<path d="M53.948 43.75C53.948 43.75 58.0689 60.3091 50 73.5564" stroke="#222222" stroke-width="6" stroke-linecap="round"/>
</g>
<defs>
<clipPath id="clip0_2952_121023">
<rect width="96" height="96" fill="white"/>
</clipPath>
</defs>
</svg>
