<svg width="96" height="96" viewBox="0 0 96 96" fill="none" xmlns="http://www.w3.org/2000/svg">
<path fill-rule="evenodd" clip-rule="evenodd" d="M28 14C26.3431 14 25 15.3431 25 17V79C25 80.6568 26.3431 82 28 82H48H68C69.6568 82 71 80.6568 71 79V17C71 15.3431 69.6568 14 68 14H28ZM19 17C19 12.0294 23.0294 8 28 8H68C72.9706 8 77 12.0294 77 17V79C77 83.9706 72.9706 88 68 88H48H28C23.0294 88 19 83.9706 19 79V17ZM42 73C42 71.3431 43.3431 70 45 70H51C52.6569 70 54 71.3431 54 73C54 74.6569 52.6569 76 51 76H45C43.3431 76 42 74.6569 42 73ZM54 33C54 35.4566 52.5246 37.5678 50.4113 38.496L51.7241 49.6546C51.8709 50.9031 50.8955 52 49.6385 52H46.3615C45.1045 52 44.129 50.9031 44.2759 49.6546L45.5888 38.4956C43.4763 37.5672 42 35.4563 42 33C42 29.6856 44.688 27 48 27C51.3144 27 54 29.6856 54 33Z" fill="#222222"/>
</svg>
