<svg width="96" height="96" viewBox="0 0 96 96" fill="none" xmlns="http://www.w3.org/2000/svg">
<path fill-rule="evenodd" clip-rule="evenodd" d="M23 8C18.0294 8 14 12.0294 14 17V79C14 83.9706 18.0294 88 23 88H43H63C67.9706 88 72 83.9706 72 79V17C72 12.0294 67.9706 8 63 8H23ZM20 17C20 15.3431 21.3431 14 23 14H63C64.6568 14 66 15.3431 66 17V79C66 80.6568 64.6568 82 63 82H43H23C21.3431 82 20 80.6568 20 79V17ZM40 70C38.3431 70 37 71.3431 37 73C37 74.6569 38.3431 76 40 76H46C47.6569 76 49 74.6569 49 73C49 71.3431 47.6569 70 46 70H40ZM33.2577 31.5625C34.3623 31.5625 35.2577 32.4579 35.2577 33.5625V35.7436L37.1901 35.038C38.2277 34.6592 39.3759 35.1932 39.7548 36.2307C40.1336 37.2683 39.5996 38.4165 38.5621 38.7954L36.7062 39.4731L38.0085 41.0304C38.7171 41.8778 38.6046 43.1391 37.7572 43.8477C36.9099 44.5562 35.6486 44.4438 34.94 43.5964L33.2643 41.5925L31.5893 43.5969C30.8809 44.4445 29.6197 44.5574 28.7721 43.8491C27.9245 43.1407 27.8116 41.8795 28.52 41.0319L29.8198 39.4765L27.9546 38.7954C26.917 38.4165 26.383 37.2683 26.7619 36.2307C27.1407 35.1932 28.289 34.6592 29.3265 35.038L31.2577 35.7432V33.5625C31.2577 32.4579 32.1532 31.5625 33.2577 31.5625ZM54.7187 33.5625C54.7187 32.4579 53.8232 31.5625 52.7187 31.5625C51.6141 31.5625 50.7187 32.4579 50.7187 33.5625V35.7432L48.7875 35.038C47.7499 34.6592 46.6017 35.1932 46.2228 36.2307C45.8439 37.2683 46.3779 38.4165 47.4155 38.7954L49.2808 39.4765L47.9809 41.0319C47.2726 41.8795 47.3855 43.1407 48.233 43.8491C49.0806 44.5574 50.3419 44.4445 51.0502 43.5969L52.7252 41.5925L54.4009 43.5964C55.1095 44.4438 56.3708 44.5562 57.2182 43.8477C58.0655 43.1391 58.178 41.8778 57.4694 41.0304L56.1671 39.4731L58.023 38.7954C59.0606 38.4165 59.5946 37.2683 59.2157 36.2307C58.8369 35.1932 57.6886 34.6592 56.6511 35.038L54.7187 35.7436V33.5625Z" fill="#222222"/>
</svg>
