<svg width="96" height="96" viewBox="0 0 96 96" fill="none" xmlns="http://www.w3.org/2000/svg">
<rect x="11" y="51" width="74" height="34" rx="6" stroke="#222222" stroke-width="6"/>
<path d="M53.0065 41.5H46.8312L46.8701 36.9196H53.0065C54.539 36.9196 55.8312 36.5738 56.8831 35.8822C57.9351 35.1775 58.7273 34.1532 59.2597 32.8091C59.8052 31.465 60.0779 29.8403 60.0779 27.9351V26.5453C60.0779 25.0838 59.9221 23.7984 59.6104 22.6892C59.3117 21.58 58.8636 20.647 58.2662 19.8901C57.6688 19.1332 56.9351 18.5656 56.0649 18.1872C55.1948 17.7957 54.1948 17.5999 53.0649 17.5999H46.7143V13H53.0649C54.961 13 56.6948 13.3262 58.2662 13.9787C59.8507 14.6181 61.2208 15.5381 62.3766 16.7387C63.5325 17.9392 64.4221 19.3747 65.0455 21.045C65.6818 22.7023 66 24.5488 66 26.5845V27.9351C66 29.9578 65.6818 31.8043 65.0455 33.4746C64.4221 35.1449 63.5325 36.5804 62.3766 37.7809C61.2338 38.9684 59.8636 39.8884 58.2662 40.5409C56.6818 41.1803 54.9286 41.5 53.0065 41.5ZM50.1429 13V41.5H46.2987C45.1941 41.5 44.2987 40.6046 44.2987 39.5V15C44.2987 13.8954 45.1941 13 46.2987 13H50.1429Z" fill="#222222"/>
<path d="M35.9123 13C37.5208 13 38.8247 14.3039 38.8247 15.9123V38.5877C38.8247 40.1961 37.5208 41.5 35.9123 41.5V41.5C34.3039 41.5 33 40.1961 33 38.5877V15.9123C33 14.3039 34.3039 13 35.9123 13V13Z" fill="#222222"/>
<path d="M68.0002 73V65" stroke="#222222" stroke-width="4" stroke-linecap="round"/>
<path d="M64.5359 66.9999L71.4641 70.9999" stroke="#222222" stroke-width="4" stroke-linecap="round"/>
<path d="M64.5359 70.9999L71.4641 66.9999" stroke="#222222" stroke-width="4" stroke-linecap="round"/>
<path d="M48.0002 73V65" stroke="#222222" stroke-width="4" stroke-linecap="round"/>
<path d="M44.5359 66.9999L51.4641 70.9999" stroke="#222222" stroke-width="4" stroke-linecap="round"/>
<path d="M44.5359 70.9999L51.4641 66.9999" stroke="#222222" stroke-width="4" stroke-linecap="round"/>
<path d="M28.0002 73V65" stroke="#222222" stroke-width="4" stroke-linecap="round"/>
<path d="M24.5359 66.9999L31.4641 70.9999" stroke="#222222" stroke-width="4" stroke-linecap="round"/>
<path d="M24.5359 70.9999L31.4641 66.9999" stroke="#222222" stroke-width="4" stroke-linecap="round"/>
</svg>
