<svg width="96" height="96" viewBox="0 0 96 96" fill="none" xmlns="http://www.w3.org/2000/svg">
<path fill-rule="evenodd" clip-rule="evenodd" d="M8.00098 27C8.00098 22.0294 12.0304 18 17.001 18H79.001C83.9715 18 88.001 22.0294 88.001 27V44.5C88.001 46.1569 86.6578 47.5 85.001 47.5C83.3441 47.5 82.001 46.1569 82.001 44.5V43H14.001L14.001 69C14.001 70.6569 15.3441 72 17.001 72H30.001L40.501 72C42.1578 72 43.501 73.3432 43.501 75C43.501 76.6569 42.1578 78 40.501 78L30.001 78H17.001C12.0304 78 8.00098 73.9706 8.00098 69V27ZM14.001 37H82.001V27C82.001 25.3431 80.6578 24 79.001 24H17.001C15.3441 24 14.001 25.3431 14.001 27L14.001 37ZM21.001 61C21.001 59.3431 22.3441 58 24.001 58H39.001C40.6578 58 42.001 59.3431 42.001 61C42.001 62.6569 40.6578 64 39.001 64H24.001C22.3441 64 21.001 62.6569 21.001 61Z" fill="#222222"/>
<g clip-path="url(#clip0_2952_121027)">
<rect x="54" y="64" width="32" height="22" rx="2.90909" stroke="#222222" stroke-width="6"/>
<path d="M70 74V76" stroke="#222222" stroke-width="5" stroke-linecap="round"/>
<path d="M62 64V60.2286C62 55.6841 65.5817 52 70 52C74.4183 52 78 55.6841 78 60.2286V64" stroke="#222222" stroke-width="6"/>
</g>
<defs>
<clipPath id="clip0_2952_121027">
<rect width="48" height="48" fill="white" transform="translate(44 44)"/>
</clipPath>
</defs>
</svg>
