<svg width="96" height="96" viewBox="0 0 96 96" fill="none" xmlns="http://www.w3.org/2000/svg">
<path fill-rule="evenodd" clip-rule="evenodd" d="M17 25C15.3431 25 14 26.3431 14 28V68C14 69.6569 15.3431 71 17 71H79C80.6569 71 82 69.6569 82 68V28C82 26.3431 80.6569 25 79 25H17ZM8 28C8 23.0294 12.0294 19 17 19H79C83.9706 19 88 23.0294 88 28V68C88 72.9706 83.9706 77 79 77H17C12.0294 77 8 72.9706 8 68V28ZM28.5337 42.6562C29.6383 42.6562 30.5337 43.5517 30.5337 44.6562V46.8374L32.4661 46.1318C33.5037 45.7529 34.6519 46.2869 35.0308 47.3245C35.4097 48.362 34.8757 49.5103 33.8381 49.8891L31.9882 50.5646L33.2923 52.1242C34.0009 52.9715 33.8884 54.2328 33.0411 54.9414C32.1937 55.65 30.9324 55.5375 30.2238 54.6902L28.5442 52.6816L26.8653 54.6907C26.157 55.5382 24.8957 55.6511 24.0481 54.9428C23.2005 54.2345 23.0877 52.9732 23.796 52.1256L25.0958 50.5702L23.2306 49.8891C22.193 49.5103 21.659 48.362 22.0379 47.3245C22.4167 46.2869 23.565 45.7529 24.6025 46.1318L26.5337 46.8369V44.6562C26.5337 43.5517 27.4292 42.6562 28.5337 42.6562ZM67.5337 42.6562C68.6383 42.6562 69.5337 43.5517 69.5337 44.6562V46.8374L71.4661 46.1318C72.5037 45.7529 73.6519 46.2869 74.0308 47.3245C74.4097 48.362 73.8757 49.5103 72.8381 49.8891L70.9882 50.5646L72.2923 52.1242C73.0009 52.9715 72.8884 54.2328 72.0411 54.9414C71.1937 55.65 69.9324 55.5375 69.2238 54.6902L67.5442 52.6816L65.8653 54.6907C65.157 55.5382 63.8957 55.6511 63.0481 54.9428C62.2005 54.2345 62.0877 52.9732 62.796 52.1256L64.0958 50.5702L62.2306 49.8891C61.193 49.5103 60.659 48.362 61.0379 47.3245C61.4167 46.2869 62.565 45.7529 63.6025 46.1318L65.5337 46.8369V44.6562C65.5337 43.5517 66.4292 42.6562 67.5337 42.6562ZM49.9947 44.6562C49.9947 43.5517 49.0993 42.6562 47.9947 42.6562C46.8901 42.6562 45.9947 43.5517 45.9947 44.6562V46.8369L44.0635 46.1318C43.0259 45.7529 41.8777 46.2869 41.4988 47.3245C41.12 48.362 41.6539 49.5103 42.6915 49.8891L44.5568 50.5702L43.2569 52.1256C42.5486 52.9732 42.6615 54.2345 43.509 54.9428C44.3566 55.6511 45.6179 55.5382 46.3262 54.6907L48.0013 52.6863L49.677 54.6902C50.3855 55.5375 51.6469 55.65 52.4942 54.9414C53.3415 54.2328 53.454 52.9715 52.7455 52.1242L51.4431 50.5668L53.299 49.8891C54.3366 49.5103 54.8706 48.362 54.4917 47.3245C54.1129 46.2869 52.9646 45.7529 51.9271 46.1318L49.9947 46.8374V44.6562ZM61 30C59.3431 30 58 31.3431 58 33C58 34.6569 59.3431 36 61 36H75C76.6569 36 78 34.6569 78 33C78 31.3431 76.6569 30 75 30H61Z" fill="#222222"/>
</svg>
