<svg width="96" height="96" viewBox="0 0 96 96" fill="none" xmlns="http://www.w3.org/2000/svg">
<path fill-rule="evenodd" clip-rule="evenodd" d="M17.0001 8C12.0296 8 8.00012 12.0294 8.00012 17V64C8.00012 68.9706 12.0296 73 17.0001 73H45.0001V82H22.0001C20.3433 82 19.0001 83.3431 19.0001 85C19.0001 86.6569 20.3433 88 22.0001 88H74.0001C75.657 88 77.0001 86.6569 77.0001 85C77.0001 83.3431 75.657 82 74.0001 82H51.0001V73H79.0001C83.9707 73 88.0001 68.9706 88.0001 64V17C88.0001 12.0294 83.9707 8 79.0001 8H17.0001ZM14.0001 17C14.0001 15.3431 15.3433 14 17.0001 14H79.0001C80.657 14 82.0001 15.3431 82.0001 17V64C82.0001 65.6569 80.657 67 79.0001 67H17.0001C15.3433 67 14.0001 65.6569 14.0001 64V17ZM68.1558 34.6875C69.2603 34.6875 70.1558 35.5829 70.1558 36.6875V37.4946L70.6688 37.3067C71.7059 36.9266 72.8547 37.4592 73.2348 38.4964C73.6149 39.5335 73.0822 40.6824 72.0451 41.0624L71.7134 41.1839L71.8228 41.3088C72.5506 42.1396 72.4671 43.4032 71.6363 44.131C70.8054 44.8589 69.5418 44.7754 68.814 43.9445L68.1541 43.1912L67.4945 43.9444C66.7669 44.7754 65.5033 44.8592 64.6723 44.1316C63.8413 43.4039 63.7575 42.1404 64.4851 41.3094L64.5953 41.1835L64.2649 41.0624C63.2278 40.6824 62.6951 39.5335 63.0752 38.4964C63.4552 37.4592 64.6041 36.9266 65.6412 37.3067L66.1558 37.4952V36.6875C66.1558 35.5829 67.0512 34.6875 68.1558 34.6875ZM29.8511 36.6875C29.8511 35.5829 28.9556 34.6875 27.8511 34.6875C26.7465 34.6875 25.8511 35.5829 25.8511 36.6875V37.4952L25.3365 37.3067C24.2994 36.9266 23.1506 37.4592 22.7705 38.4964C22.3904 39.5335 22.9231 40.6824 23.9602 41.0624L24.2966 41.1857L24.1882 41.3094C23.4606 42.1404 23.5444 43.4039 24.3754 44.1316C25.2064 44.8592 26.47 44.7754 27.1977 43.9444L27.8533 43.1956L28.5093 43.9445C29.2371 44.7754 30.5007 44.8589 31.3316 44.131C32.1624 43.4032 32.2459 42.1396 31.5181 41.3088L31.4087 41.1839L31.7404 41.0624C32.7775 40.6824 33.3102 39.5335 32.9301 38.4964C32.55 37.4592 31.4012 36.9266 30.3641 37.3067L29.8511 37.4946V36.6875ZM41.2808 34.6875C42.3853 34.6875 43.2808 35.5829 43.2808 36.6875V37.4946L43.7938 37.3067C44.8309 36.9266 45.9797 37.4592 46.3598 38.4964C46.7399 39.5335 46.2072 40.6824 45.1701 41.0624L44.8384 41.1839L44.9478 41.3088C45.6756 42.1396 45.5921 43.4032 44.7613 44.131C43.9304 44.8589 42.6668 44.7754 41.939 43.9445L41.2791 43.1912L40.6195 43.9444C39.8919 44.7754 38.6283 44.8592 37.7973 44.1316C36.9663 43.4039 36.8825 42.1404 37.6101 41.3094L37.7203 41.1835L37.3899 41.0624C36.3528 40.6824 35.8201 39.5335 36.2002 38.4964C36.5802 37.4592 37.7291 36.9266 38.7662 37.3067L39.2808 37.4952V36.6875C39.2808 35.5829 40.1762 34.6875 41.2808 34.6875ZM56.7183 36.6875C56.7183 35.5829 55.8228 34.6875 54.7183 34.6875C53.6137 34.6875 52.7183 35.5829 52.7183 36.6875V37.4952L52.2037 37.3067C51.1666 36.9266 50.0177 37.4592 49.6377 38.4964C49.2576 39.5335 49.7903 40.6824 50.8274 41.0624L51.1578 41.1835L51.0476 41.3094C50.32 42.1404 50.4038 43.4039 51.2348 44.1316C52.0658 44.8592 53.3294 44.7754 54.057 43.9444L54.7166 43.1912L55.3765 43.9445C56.1043 44.7754 57.3679 44.8589 58.1988 44.131C59.0296 43.4032 59.1131 42.1396 58.3853 41.3088L58.2759 41.1839L58.6076 41.0624C59.6447 40.6824 60.1774 39.5335 59.7973 38.4964C59.4172 37.4592 58.2684 36.9266 57.2313 37.3067L56.7183 37.4946V36.6875Z" fill="#222222"/>
</svg>
