<svg width="96" height="96" viewBox="0 0 96 96" fill="none" xmlns="http://www.w3.org/2000/svg">
<path fill-rule="evenodd" clip-rule="evenodd" d="M25.0002 8C20.0297 8 16.0002 12.0294 16.0002 17V79C16.0002 83.9706 20.0297 88 25.0002 88H71.0002C75.9708 88 80.0002 83.9706 80.0002 79V29.8275C80.0002 27.4031 79.0221 25.0812 77.2874 23.3876L64.1483 10.5601C62.4671 8.91881 60.2107 8 57.8612 8H25.0002ZM22.0002 17C22.0002 15.3431 23.3434 14 25.0002 14H57.8612C57.9077 14 57.954 14.0011 58.0002 14.0032V22C58.0002 26.9706 62.0297 31 67.0002 31H74.0002V79C74.0002 80.6569 72.6571 82 71.0002 82H25.0002C23.3434 82 22.0002 80.6569 22.0002 79V17ZM70.35 25L64.0002 18.8008V22C64.0002 23.6569 65.3434 25 67.0002 25H70.35Z" fill="#222222"/>
<path d="M42.2268 51.0312V67.0034L48.0048 63.1514L53.7827 67.0034V51.0312" stroke="#222222" stroke-width="6" stroke-linejoin="round"/>
<path fill-rule="evenodd" clip-rule="evenodd" d="M59.5583 41.5564C59.5583 47.9376 54.3853 53.1128 48.002 53.1128C41.6186 53.1128 36.4456 47.9376 36.4456 41.5564C36.4456 35.1731 41.6186 30 48.002 30C54.3853 30 59.5583 35.1731 59.5583 41.5564Z" stroke="#222222" stroke-width="6" stroke-linejoin="round"/>
</svg>
