<svg width="96" height="96" viewBox="0 0 96 96" fill="none" xmlns="http://www.w3.org/2000/svg">
<path fill-rule="evenodd" clip-rule="evenodd" d="M12 21C12 16.0294 16.0294 12 21 12H36C40.9706 12 45 16.0294 45 21V36C45 40.9706 40.9706 45 36 45H21C16.0294 45 12 40.9706 12 36V21ZM21 18C19.3431 18 18 19.3431 18 21V36C18 37.6569 19.3431 39 21 39H36C37.6569 39 39 37.6569 39 36V21C39 19.3431 37.6569 18 36 18H21ZM12 60C12 55.0294 16.0294 51 21 51H36C40.9706 51 45 55.0294 45 60V75C45 79.9706 40.9706 84 36 84H21C16.0294 84 12 79.9706 12 75V60ZM21 57C19.3431 57 18 58.3431 18 60V75C18 76.6569 19.3431 78 21 78H36C37.6569 78 39 76.6569 39 75V60C39 58.3431 37.6569 57 36 57H21ZM59 55C56.7909 55 55 56.7909 55 59V69C55 71.2091 56.7909 73 59 73H69C71.2091 73 73 71.2091 73 69V59C73 56.7909 71.2091 55 69 55H59ZM51 21C51 16.0294 55.0294 12 60 12H75C79.9706 12 84 16.0294 84 21V36C84 40.9706 79.9706 45 75 45H60C55.0294 45 51 40.9706 51 36V21ZM60 18C58.3431 18 57 19.3431 57 21V36C57 37.6569 58.3431 39 60 39H75C76.6569 39 78 37.6569 78 36V21C78 19.3431 76.6569 18 75 18H60ZM84 58C84 56.3431 82.6569 55 81 55C79.3431 55 78 56.3431 78 58V75C78 76.6569 76.6569 78 75 78H58C56.3431 78 55 79.3431 55 81C55 82.6569 56.3431 84 58 84H75C79.9706 84 84 79.9706 84 75V58Z" fill="#222222"/>
</svg>
