<svg width="96" height="96" viewBox="0 0 96 96" fill="none" xmlns="http://www.w3.org/2000/svg">
<path fill-rule="evenodd" clip-rule="evenodd" d="M28 8C29.6569 8 31 9.34315 31 11V16H65V11C65 9.34315 66.3431 8 68 8C69.6569 8 71 9.34315 71 11V16H79C83.9706 16 88 20.0294 88 25V37V75C88 79.9706 83.9706 84 79 84H17C12.0294 84 8 79.9706 8 75V37V25C8 20.0294 12.0294 16 17 16H25V11C25 9.34315 26.3431 8 28 8ZM82 25V34H14V25C14 23.3431 15.3431 22 17 22H25V27C25 28.6569 26.3431 30 28 30C29.6569 30 31 28.6569 31 27V22H65V27C65 28.6569 66.3431 30 68 30C69.6569 30 71 28.6569 71 27V22H79C80.6569 22 82 23.3431 82 25ZM82 40H14V75C14 76.6569 15.3431 78 17 78H79C80.6569 78 82 76.6569 82 75V40ZM50.655 46.6292C50.1406 45.6279 49.1089 44.9988 47.9831 45C46.8574 45.0013 45.8271 45.6326 45.3149 46.6351L42.3221 52.4931L35.5804 53.4455C34.437 53.607 33.4878 54.4105 33.1396 55.5115C32.7914 56.6125 33.1061 57.8157 33.9488 58.6052L38.7714 63.1239L37.6554 69.4813C37.4587 70.6014 37.9124 71.7364 38.8269 72.4124C39.7414 73.0884 40.9595 73.1892 41.9727 72.6728L48.0208 69.5896L54.0931 72.6523C55.1088 73.1646 56.3269 73.0583 57.2385 72.3778C58.1502 71.6974 58.5985 70.5598 58.3963 69.4403L57.2484 63.0866L62.0562 58.561C62.8975 57.7692 63.2093 56.5646 62.8578 55.464C62.5064 54.3634 61.5542 53.5625 60.4097 53.4047L53.6572 52.4737L50.655 46.6292ZM46.9563 56.6105L47.9937 54.5798L49.0332 56.6033C49.4801 57.4733 50.323 58.0708 51.292 58.2044L53.376 58.4917L51.9505 59.8335C51.2112 60.5294 50.874 61.5521 51.0546 62.5513L51.422 64.5851L49.3646 63.5474C48.5108 63.1168 47.5029 63.1189 46.651 63.5532L44.6046 64.5964L44.9616 62.5629C45.1367 61.5657 44.7969 60.5474 44.058 59.855L42.6227 58.5102L44.7044 58.2162C45.6717 58.0795 46.5118 57.4805 46.9563 56.6105Z" fill="#222222"/>
</svg>
