<svg width="96" height="96" viewBox="0 0 96 96" fill="none" xmlns="http://www.w3.org/2000/svg">
<path fill-rule="evenodd" clip-rule="evenodd" d="M17 16C12.0294 16 8 20.0294 8 25V40C8 41.6569 9.34315 43 11 43C12.6569 43 14 41.6569 14 40V25C14 23.3431 15.3431 22 17 22H79C80.6569 22 82 23.3431 82 25V71C82 72.6569 80.6569 74 79 74H17C15.3431 74 14 72.6569 14 71V56C14 54.3431 12.6569 53 11 53C9.34315 53 8 54.3431 8 56V71C8 75.9706 12.0294 80 17 80H79C83.9706 80 88 75.9706 88 71V25C88 20.0294 83.9706 16 79 16H17ZM38 48C38 45.4102 38.8722 43.7676 40.0258 42.7412C41.2312 41.6685 43.0519 41 45.3501 41C46.3968 41 47.3835 41.2068 48.2741 41.5753C49.8051 42.2087 51.5597 41.4811 52.1931 39.9501C52.8265 38.4191 52.0989 36.6645 50.5679 36.031C48.9595 35.3656 47.194 35 45.3501 35C41.9321 35 38.5778 35.9981 36.0372 38.2588C33.4447 40.5657 32 43.9231 32 48C32 52.0769 33.4447 55.4343 36.0372 57.7412C38.5778 60.0019 41.9321 61 45.3501 61C47.4843 61 49.5121 60.5103 51.3128 59.634C52.8026 58.9089 53.4225 57.1135 52.6975 55.6237C51.9725 54.1339 50.177 53.5139 48.6872 54.2389C47.6918 54.7234 46.5604 55 45.3501 55C43.0519 55 41.2312 54.3315 40.0258 53.2588C38.8722 52.2324 38 50.5898 38 48Z" fill="#222222"/>
<path d="M11 56C15.4183 56 19 52.4183 19 48C19 43.5817 15.4183 40 11 40" stroke="#222222" stroke-width="6" stroke-linecap="round" stroke-linejoin="round"/>
<path fill-rule="evenodd" clip-rule="evenodd" d="M70 21C70 19.3431 68.6569 18 67 18C65.3431 18 64 19.3431 64 21V27C64 28.6569 65.3431 30 67 30C68.6569 30 70 28.6569 70 27V21ZM70 37C70 35.3431 68.6569 34 67 34C65.3431 34 64 35.3431 64 37V43C64 44.6569 65.3431 46 67 46C68.6569 46 70 44.6569 70 43V37ZM67 50C68.6569 50 70 51.3431 70 53V59C70 60.6569 68.6569 62 67 62C65.3431 62 64 60.6569 64 59V53C64 51.3431 65.3431 50 67 50ZM70 69C70 67.3431 68.6569 66 67 66C65.3431 66 64 67.3431 64 69V75C64 76.6569 65.3431 78 67 78C68.6569 78 70 76.6569 70 75V69Z" fill="#222222"/>
</svg>
