<svg width="96" height="96" viewBox="0 0 96 96" fill="none" xmlns="http://www.w3.org/2000/svg">
<path fill-rule="evenodd" clip-rule="evenodd" d="M38.1213 8.87868C36.9497 7.70711 35.0503 7.70711 33.8787 8.87868C32.7071 10.0503 32.7071 11.9497 33.8787 13.1213L40.7574 20H14C10.6863 20 8 22.6863 8 26V38C8 40.6193 9.67845 42.8467 12.0185 43.6651C12.0063 43.775 12 43.8868 12 44V75C12 79.9706 16.0294 84 21 84H45H51H75C79.9706 84 84 79.9706 84 75V44C84 43.8868 83.9937 43.775 83.9815 43.6651C86.3215 42.8467 88 40.6193 88 38V26C88 22.6863 85.3137 20 82 20H55.2426L62.1213 13.1213C63.2929 11.9497 63.2929 10.0503 62.1213 8.87868C60.9497 7.70711 59.0503 7.70711 57.8787 8.87868L48 18.7574L38.1213 8.87868ZM51 78H75C76.6569 78 78 76.6569 78 75V44H51L51 78ZM51 38H82V26H51V38ZM45 26V38H14L14 26H45ZM45 44L45 78H21C19.3431 78 18 76.6569 18 75V44H45Z" fill="#222222"/>
</svg>
