<svg width="96" height="96" viewBox="0 0 96 96" fill="none" xmlns="http://www.w3.org/2000/svg">
<path d="M80.3446 38.8515C78.4867 42.2369 76.1218 45.1148 73.6571 47.5105C69.6459 51.4954 62.548 55.4972 59.5005 57C59.4855 56.9949 45.5711 51.4487 38.6564 38.8515C35.1903 32.5404 34.6983 24.8559 39.7052 19.7943C44.7096 14.7352 52.9029 14.7352 57.9098 19.7943L59.5005 21.4049L61.0912 19.7943C66.0981 14.7352 74.2889 14.7352 79.2957 19.7943C84.3026 24.8559 83.8082 32.5404 80.3446 38.8515Z" stroke="#222222" stroke-width="6"/>
<path d="M11 56C11 53.7909 12.7909 52 15 52H20C22.2091 52 24 53.7909 24 56V77C24 79.2091 22.2091 81 20 81H15C12.7909 81 11 79.2091 11 77V56Z" stroke="#222222" stroke-width="6"/>
<path d="M25 53.7344C25.7833 54.1102 32.7075 50.5057 37.4396 48L53.1797 54.124C54.6858 54.71 55.8611 55.9242 56.3978 57.4485L56.5026 57.7461C57.361 60.1844 56.2903 62.8824 53.9935 64.0685V64.0685C52.8339 64.6673 51.491 64.8063 50.2333 64.4578L37.4396 60.9118" stroke="#222222" stroke-width="6" stroke-linecap="round" stroke-linejoin="round"/>
<path d="M25 79H57.5284C59.8108 79 61.9968 78.0796 63.5918 76.447L81.724 57.8876C83.811 55.7515 84.9029 52.8358 84.7325 49.8543L84.7011 49.3057C84.5951 47.4503 83.0595 46 81.2011 46V46C79.5498 46 77.942 46.53 76.6145 47.512L55 63.5" stroke="#222222" stroke-width="6" stroke-linecap="round" stroke-linejoin="round"/>
</svg>
