<svg width="96" height="96" viewBox="0 0 96 96" fill="none" xmlns="http://www.w3.org/2000/svg">
<path fill-rule="evenodd" clip-rule="evenodd" d="M37.9994 15C29.5645 15 22.7267 21.8378 22.7267 30.2727V33.6724C22.7267 37.2966 23.989 40.6259 26.098 43.2447L19.2787 47.284C12.2875 51.425 8.00012 58.9475 8.00012 67.073V72.0111C8.00012 76.9816 12.0296 81.0111 17.0001 81.0111H59.0001C59.1511 81.0111 59.3013 81.0074 59.4504 81H79.0001C83.9707 81 88.0001 76.9706 88.0001 72V66.7069C88.0001 61.5663 85.3128 56.7996 80.9144 54.1387L78.095 52.4332C76.6774 51.5755 74.833 52.0295 73.9754 53.4472C73.1177 54.8648 73.5717 56.7092 74.9893 57.5668L77.8087 59.2724C80.4105 60.8464 82.0001 63.666 82.0001 66.7069V72C82.0001 73.6569 80.657 75 79.0001 75H67.4919C67.8211 74.0648 68.0001 73.0588 68.0001 72.0111V66.9816C68.0001 58.9128 63.7719 51.4341 56.8581 47.2741L49.9854 43.1387C52.0435 40.5364 53.2721 37.2479 53.2721 33.6724V30.2727C53.2721 21.8378 46.4343 15 37.9994 15ZM59.2597 75C60.795 74.8684 62.0001 73.5805 62.0001 72.0111V66.9816C62.0001 61.0177 58.8749 55.4899 53.7647 52.4152L45.0965 47.1995C42.9761 48.3143 40.5614 48.9452 37.9994 48.9452C35.5 48.9452 33.1407 48.3447 31.0581 47.2803L22.3364 52.4463C17.1691 55.5071 14.0001 61.0672 14.0001 67.073V72.0111C14.0001 73.6679 15.3433 75.0111 17.0001 75.0111H41.7406C41.8261 75.0037 41.9127 75 42.0001 75H59.2597ZM28.7267 30.2727C28.7267 25.1515 32.8782 21 37.9994 21C43.1206 21 47.2721 25.1515 47.2721 30.2727V33.6724C47.2721 38.7936 43.1206 42.9452 37.9994 42.9452C32.8782 42.9452 28.7267 38.7936 28.7267 33.6724V30.2727ZM56.0001 35C56.0001 28.9249 60.925 24 67.0001 24C73.0753 24 78.0001 28.9249 78.0001 35V37C78.0001 43.0751 73.0753 48 67.0001 48C60.925 48 56.0001 43.0751 56.0001 37V35ZM67.0001 30C64.2387 30 62.0001 32.2386 62.0001 35V37C62.0001 39.7614 64.2387 42 67.0001 42C69.7615 42 72.0001 39.7614 72.0001 37V35C72.0001 32.2386 69.7615 30 67.0001 30Z" fill="#222222"/>
</svg>
