<svg width="96" height="96" viewBox="0 0 96 96" fill="none" xmlns="http://www.w3.org/2000/svg">
<path d="M19 72.3377V79.0234C19 82.3371 21.6863 85.0234 25 85.0234H71C74.3137 85.0234 77 82.3371 77 79.0234V17.0234C77 13.7097 74.3137 11.0234 71 11.0234H65.1364H25C21.6863 11.0234 19 13.7097 19 17.0234V53.8377" stroke="#222222" stroke-width="6" stroke-linecap="round" stroke-linejoin="round"/>
<path fill-rule="evenodd" clip-rule="evenodd" d="M11.627 59.0234C13.3141 53.8009 18.2159 50.0234 24 50.0234C29.7841 50.0234 34.6859 53.8009 36.373 59.0234H39.627C41.3141 53.8009 46.2159 50.0234 52 50.0234C57.7841 50.0234 62.6859 53.8009 64.373 59.0234H65C66.6569 59.0234 68 60.3666 68 62.0234C68 63.6803 66.6569 65.0234 65 65.0234H64.8471C63.8851 71.2536 58.4996 76.0234 52 76.0234C45.5004 76.0234 40.1149 71.2536 39.1529 65.0234H36.8471C35.8851 71.2536 30.4996 76.0234 24 76.0234C17.5004 76.0234 12.1149 71.2536 11.1529 65.0234H11C9.34315 65.0234 8 63.6803 8 62.0234C8 60.3666 9.34315 59.0234 11 59.0234H11.627ZM24 56.0234C20.134 56.0234 17 59.1574 17 63.0234C17 66.8894 20.134 70.0234 24 70.0234C27.866 70.0234 31 66.8894 31 63.0234C31 59.1574 27.866 56.0234 24 56.0234ZM52 56.0234C48.134 56.0234 45 59.1574 45 63.0234C45 66.8894 48.134 70.0234 52 70.0234C55.866 70.0234 59 66.8894 59 63.0234C59 59.1574 55.866 56.0234 52 56.0234Z" fill="#222222"/>
<path fill-rule="evenodd" clip-rule="evenodd" d="M37.096 21.6593C38.6928 21.2172 40.3456 22.1533 40.7877 23.7501L42.793 30.9929L45.1657 23.7111C45.5684 22.4752 46.7213 21.6392 48.0211 21.6405C49.321 21.6418 50.4721 22.4801 50.8724 23.7168L53.2158 30.9578L55.2113 23.7501C55.6534 22.1533 57.3062 21.2172 58.903 21.6593C60.4998 22.1014 61.4358 23.7542 60.9938 25.351L60.5306 27.0241H61.4735C63.1304 27.0241 64.4735 28.3672 64.4735 30.0241C64.4735 31.6809 63.1304 33.0241 61.4735 33.0241H58.8694L56.3308 42.1933C55.9774 43.47 54.8283 44.3637 53.5039 44.3921C52.1795 44.4205 50.9932 43.5769 50.5853 42.3165L48.0084 34.3537L45.4118 42.3223C45.0017 43.5808 43.8153 44.4218 42.4921 44.3921C41.1688 44.3623 40.0213 43.4689 39.6682 42.1933L37.1296 33.0242H34.5273C32.8705 33.0242 31.5273 31.681 31.5273 30.0242C31.5273 28.3673 32.8705 27.0242 34.5273 27.0242H35.4685L35.0052 25.351C34.5632 23.7542 35.4992 22.1014 37.096 21.6593Z" fill="#222222"/>
</svg>
