<svg width="96" height="96" viewBox="0 0 96 96" fill="none" xmlns="http://www.w3.org/2000/svg">
<path d="M50.8372 19.8545H38.5039C30.6623 19.9678 25.3295 23.0139 19.6998 28.4485C14.333 33.6292 11 40.8692 11 48.8807C11 56.2496 13.2361 62.2722 17.8646 67.3337L15.3201 76.7001L25.9957 83L32.3372 76.7001C36.3524 78.0071 40.4361 77.846 44.5517 77.8789C48.5165 77.9107 52.5109 78.1751 56.5005 77.3936L61.9596 82.8169L72.6892 76.7188L71.004 70.5156C75.8246 66.7052 78.4199 63.1087 79.9936 57.0087L85 55.3549V42.3471L79.9936 40.6932C77.9905 32.9287 72.4983 27.537 67.0952 24.0937L69.9024 13.7109C63.8938 12.1153 56.482 12.8111 52.8243 19.9214C52.1677 19.877 51.5052 19.8545 50.8372 19.8545Z" stroke="#222222" stroke-width="6" stroke-linejoin="round"/>
<path fill-rule="evenodd" clip-rule="evenodd" d="M63 40.0008C63 41.6575 64.344 43 66.0008 43C67.6575 43 69 41.6575 69 40.0008C69 38.344 67.6575 37 66.0008 37C64.344 37 63 38.344 63 40.0008" fill="#222222"/>
<path d="M40 29H48" stroke="#222222" stroke-width="6" stroke-linecap="round"/>
</svg>
