<svg width="96" height="96" viewBox="0 0 96 96" fill="none" xmlns="http://www.w3.org/2000/svg">
<path fill-rule="evenodd" clip-rule="evenodd" d="M38.7053 23.0896C41.6826 16.6096 45.1884 14 48.0001 14C50.8118 14 54.3177 16.6096 57.2949 23.0896C59.8604 28.6733 61.6114 36.3389 61.943 45H34.0573C34.3889 36.3389 36.1399 28.6733 38.7053 23.0896ZM28.0533 45C28.3867 35.6209 30.2734 27.0701 33.2533 20.5845C33.934 19.1029 34.6983 17.6782 35.5439 16.3541C23.8151 20.9744 15.2736 31.9268 14.1307 45H28.0533ZM14.1307 51H28.0533C28.3867 60.3791 30.2734 68.9299 33.2533 75.4155C33.934 76.8971 34.6983 78.3218 35.5439 79.6459C23.8151 75.0256 15.2736 64.0732 14.1307 51ZM8.00012 48C8.00012 25.9086 25.9087 8 48.0001 8C70.0915 8 88.0001 25.9086 88.0001 48C88.0001 70.0914 70.0915 88 48.0001 88C25.9087 88 8.00012 70.0914 8.00012 48ZM81.8696 45C80.7267 31.9268 72.1852 20.9744 60.4563 16.3541C61.3019 17.6782 62.0662 19.1029 62.747 20.5845C65.7268 27.0701 67.6135 35.6209 67.947 45H81.8696ZM67.947 51H81.8696C80.7267 64.0732 72.1852 75.0256 60.4563 79.6459C61.3019 78.3218 62.0662 76.8971 62.747 75.4155C65.7268 68.9299 67.6135 60.3791 67.947 51ZM61.943 51C61.6114 59.6611 59.8604 67.3267 57.2949 72.9104C54.3177 79.3904 50.8118 82 48.0001 82C45.1884 82 41.6826 79.3904 38.7053 72.9104C36.1399 67.3267 34.3889 59.6611 34.0573 51H61.943Z" fill="#222222"/>
</svg>
