<svg width="96" height="96" viewBox="0 0 96 96" fill="none" xmlns="http://www.w3.org/2000/svg">
<path fill-rule="evenodd" clip-rule="evenodd" d="M56.4575 19.8963L54.093 13.457H41.8706L39.5061 19.8963L38.815 21.7881L37.0325 22.7704L30.3393 26.4811L28.666 27.427L26.7744 27.0996L19.6083 25.8627L13.7881 35.6126L18.2624 40.6694L19.5719 42.1974V44.271V51.6926V53.7663L18.226 55.3306L13.8608 60.3147L19.6447 70.101L26.8108 68.9004L28.7024 68.573L30.2665 69.5189L36.9598 73.2297L38.7422 74.2119L39.4334 76.1037L41.7978 82.5066H54.0203L56.3847 76.1037L57.0759 74.2119L58.8583 73.2297L65.5516 69.5189L67.2249 68.6094L69.1165 68.9368L76.2826 70.1373L82.0664 60.3511L77.7013 55.367L76.3553 53.8026V51.729V44.3074V42.2337L77.7013 40.6694L82.1756 35.6126L76.3553 25.8627L69.1892 27.0996L67.2976 27.427L65.6243 26.4811L58.9311 22.7704L57.1486 21.7881L56.4575 19.8963ZM40.9612 8H55.0388C56.7485 8 58.3127 9.05503 58.8947 10.6194L61.6229 18.0773L68.3162 21.7881L76.3553 20.4056C76.5736 20.3693 76.8282 20.3329 77.0465 20.3329C78.4652 20.3329 79.8475 21.0969 80.575 22.3338L87.4501 33.8299C88.3232 35.2851 88.1413 37.1405 87.0136 38.4502L81.8118 44.3438V51.7654L86.9045 57.5498C88.0321 58.8595 88.214 60.7149 87.341 62.1701L80.5386 73.7026C79.8111 74.9395 78.4652 75.7035 77.0101 75.7035C76.7919 75.7035 76.5372 75.6671 76.319 75.6307L68.2798 74.2847L61.5866 77.9955L58.8947 85.3443C58.3127 86.945 56.7485 88 55.0388 88H40.9248C39.1787 88 37.6509 86.945 37.0689 85.3443L34.4134 77.9227L27.7202 74.2119L19.681 75.558C19.6486 75.5626 19.6169 75.5672 19.5856 75.5718C19.3709 75.603 19.1804 75.6307 18.9899 75.6307C17.5712 75.6307 16.1889 74.8668 15.4614 73.6298L8.659 62.0973C7.78597 60.6057 7.96785 58.7503 9.09552 57.477L14.1882 51.6926V44.271L8.98639 38.3774C7.85872 37.1041 7.67684 35.2487 8.54987 33.7572L15.425 22.2974C16.1525 21.0241 17.5348 20.2965 18.9535 20.2965C19.1718 20.2965 19.4264 20.2965 19.6447 20.3329L27.7202 21.7153L34.3771 18.0045L37.0689 10.6194C37.6509 9.05503 39.2151 8 40.9612 8ZM57.375 48C57.375 42.825 53.175 38.625 48 38.625C42.825 38.625 38.625 42.825 38.625 48C38.625 53.175 42.825 57.375 48 57.375C53.175 57.375 57.375 53.175 57.375 48ZM33 48C33 39.7125 39.7125 33 48 33C56.2875 33 63 39.7125 63 48C63 56.2875 56.2875 63 48 63C39.7125 63 33 56.2875 33 48Z" fill="#222222"/>
</svg>
