<svg width="96" height="96" viewBox="0 0 96 96" fill="none" xmlns="http://www.w3.org/2000/svg">
<circle cx="47.752" cy="72" r="4" fill="#222222"/>
<path d="M85 11L11 85" stroke="#222222" stroke-width="6" stroke-linecap="round"/>
<path fill-rule="evenodd" clip-rule="evenodd" d="M72.2204 27.1141C51.985 17.0926 26.6006 20.3014 9.66258 36.7405C8.47363 37.8945 8.44523 39.7938 9.59916 40.9827C10.7531 42.1717 12.6524 42.2001 13.8413 41.0461C28.3995 26.9168 50.0143 23.7765 67.7092 31.6253L72.2204 27.1141ZM60.5693 38.7652C59.3243 38.3172 58.0598 37.937 56.7819 37.6243C44.6535 34.6569 31.2379 37.767 21.7077 47.0164C20.5188 48.1704 20.4904 50.0696 21.6443 51.2586C22.7983 52.4476 24.6975 52.4759 25.8865 51.322C33.8518 43.5913 45.1183 40.9476 55.356 43.4524C55.4963 43.4867 55.6364 43.522 55.7762 43.5583L60.5693 38.7652ZM61.948 45.8718L66.3795 41.4403C66.5741 41.5512 66.7679 41.6639 66.9608 41.7786C69.3957 43.2257 71.6948 44.972 73.8013 47.0164C74.9902 48.1704 75.0186 50.0696 73.8647 51.2586C72.7108 52.4476 70.8115 52.4759 69.6225 51.322C67.8574 49.6089 65.933 48.1474 63.8954 46.9364C63.2571 46.5571 62.6075 46.2022 61.948 45.8718ZM46.3038 53.0307C41.7084 53.3555 37.2064 55.226 33.6864 58.6423C32.4975 59.7962 32.4691 61.6955 33.623 62.8844C34.1541 63.4317 34.8431 63.733 35.5481 63.7864L46.3038 53.0307ZM48.8025 59.0173L53.8987 53.9211C56.7946 54.8327 59.5189 56.4065 61.8226 58.6423C63.0115 59.7962 63.0399 61.6955 61.886 62.8844C60.7321 64.0734 58.8328 64.1018 57.6438 62.9478C55.184 60.5605 52.0273 59.2503 48.8025 59.0173ZM73.2763 34.5435L77.6276 30.1922C80.5272 32.0726 83.2808 34.2554 85.8413 36.7405C87.0303 37.8945 87.0587 39.7938 85.9047 40.9827C84.7508 42.1717 82.8515 42.2001 81.6626 41.0461C79.0702 38.5301 76.2541 36.3626 73.2763 34.5435Z" fill="#222222"/>
</svg>
