<svg width="96" height="96" viewBox="0 0 96 96" fill="none" xmlns="http://www.w3.org/2000/svg">
<path fill-rule="evenodd" clip-rule="evenodd" d="M15 17C15 12.0294 19.0294 8 24 8H72C76.9706 8 81 12.0294 81 17V47.7093C81.6539 48.5514 82.1224 49.5521 82.3384 50.6561L87.5451 77.2721C88.6325 82.8307 84.3765 88 78.7125 88H17.464C11.7139 88 7.43848 82.6814 8.67439 77.0656L15.0711 48H15V17ZM75 17V45H21V17C21 15.3431 22.3431 14 24 14H72C73.6568 14 75 15.3431 75 17ZM20.5544 51L14.5342 78.3552C14.1222 80.2271 15.5473 82 17.464 82H78.7125C80.6005 82 82.0192 80.2769 81.6567 78.424L76.45 51.808C76.3582 51.3386 75.9469 51 75.4686 51H20.5544ZM30 23C28.3431 23 27 24.3431 27 26C27 27.6569 28.3431 29 30 29H44C45.6568 29 47 27.6569 47 26C47 24.3431 45.6568 23 44 23H30Z" fill="#222222"/>
</svg>
