<svg width="96" height="96" viewBox="0 0 96 96" fill="none" xmlns="http://www.w3.org/2000/svg">
<path fill-rule="evenodd" clip-rule="evenodd" d="M15 17C15 12.0294 19.0294 8 24 8H72C76.9705 8 81 12.0294 81 17V38.2683C81 39.9251 79.6568 41.2683 78 41.2683C76.3431 41.2683 75 39.9251 75 38.2683V17C75 15.3431 73.6568 14 72 14H24C22.3431 14 21 15.3431 21 17V45H43C44.6568 45 46 46.3431 46 48C46 49.6569 44.6568 51 43 51H20.4332L14.5065 78.365C14.1017 80.2343 15.5259 82 17.4386 82H42.5548C44.2116 82 45.5548 83.3431 45.5548 85C45.5548 86.6569 44.2116 88 42.5548 88H17.4386C11.7007 88 7.42795 82.7028 8.64249 77.095L15 47.7407V17ZM30 23C28.3431 23 27 24.3431 27 26C27 27.6569 28.3431 29 30 29H44C45.6568 29 47 27.6569 47 26C47 24.3431 45.6568 23 44 23H30Z" fill="#222222"/>
<path fill-rule="evenodd" clip-rule="evenodd" d="M47.0005 68C47.0005 56.4009 56.4014 47 68.0005 47C79.5979 47 89.0005 56.4007 89.0005 68C89.0005 79.5993 79.5979 89 68.0005 89C56.4014 89 47.0005 79.5991 47.0005 68ZM68.0005 53C59.7151 53 53.0005 59.7146 53.0005 68C53.0005 76.2854 59.7151 83 68.0005 83C76.2845 83 83.0005 76.2852 83.0005 68C83.0005 59.7148 76.2845 53 68.0005 53ZM59.0005 68C59.0005 66.3431 60.3436 65 62.0005 65H65.0005V62C65.0005 60.3431 66.3436 59 68.0005 59C69.6573 59 71.0005 60.3431 71.0005 62V65H74.0005C75.6573 65 77.0005 66.3431 77.0005 68C77.0005 69.6569 75.6573 71 74.0005 71H71.0005V74C71.0005 75.6569 69.6573 77 68.0005 77C66.3436 77 65.0005 75.6569 65.0005 74V71H62.0005C60.3436 71 59.0005 69.6569 59.0005 68Z" fill="#222222"/>
</svg>
