<svg width="96" height="96" viewBox="0 0 96 96" fill="none" xmlns="http://www.w3.org/2000/svg">
<path fill-rule="evenodd" clip-rule="evenodd" d="M14.4995 17C14.4995 12.0294 18.5289 8 23.4995 8H71.4995C76.4701 8 80.4995 12.0294 80.4995 17V36.2683C80.4995 37.9251 79.1563 39.2683 77.4995 39.2683C75.8426 39.2683 74.4995 37.9251 74.4995 36.2683V17C74.4995 15.3431 73.1563 14 71.4995 14H23.4995C21.8426 14 20.4995 15.3431 20.4995 17V45H37.4995C39.1564 45 40.4995 46.3431 40.4995 48C40.4995 49.6569 39.1564 51 37.4995 51H19.9327L14.006 78.365C13.6012 80.2343 15.0254 82 16.9381 82H37.0543C38.7112 82 40.0543 83.3431 40.0543 85C40.0543 86.6569 38.7112 88 37.0543 88H16.9381C11.2002 88 6.92746 82.7028 8.142 77.095L14.4995 47.7407V17ZM29.4995 23C27.8427 23 26.4995 24.3431 26.4995 26C26.4995 27.6569 27.8427 29 29.4995 29H43.4995C45.1564 29 46.4995 27.6569 46.4995 26C46.4995 24.3431 45.1564 23 43.4995 23H29.4995Z" fill="#222222"/>
<path fill-rule="evenodd" clip-rule="evenodd" d="M63.6426 53.2696L64.017 50H68.9832L69.3561 53.2685L69.5621 55.0731L71.2565 55.7271C72.3988 56.168 73.4564 56.7621 74.4061 57.4832L75.7897 58.5337L77.3895 57.8566L80.6577 56.4734L83.0486 60.464L80.3212 62.3925L78.8123 63.4594L79.0865 65.287C79.1781 65.8981 79.2307 66.458 79.2307 66.9992C79.2307 67.5422 79.1781 68.1022 79.0865 68.713L78.8123 70.5406L80.3212 71.6075L83.0486 73.536L80.6577 77.5266L77.3895 76.1434L75.7897 75.4663L74.4061 76.5168C73.4564 77.2379 72.3988 77.832 71.2565 78.2729L69.5621 78.9269L69.3561 80.7315L68.9832 84H64.017L63.6426 80.7304L63.4361 78.9266L61.7424 78.2729C60.6001 77.832 59.5425 77.2379 58.5928 76.5168L57.2092 75.4663L55.6094 76.1434L52.3412 77.5266L49.9503 73.536L52.6777 71.6075L54.1825 70.5434L53.9135 68.7201C53.8218 68.0985 53.7682 67.5387 53.7682 66.9992C53.7682 66.4614 53.8218 65.9017 53.9135 65.2799L54.1825 63.4566L52.6777 62.3925L49.9503 60.464L52.3412 56.4734L55.6094 57.8566L57.2092 58.5337L58.5928 57.4832C59.5425 56.7621 60.6001 56.168 61.7424 55.7271L63.4361 55.0734L63.6426 53.2696ZM62.9143 44C60.5784 44 58.4673 45.7101 58.1875 48.1686L58.1873 48.1702L57.8763 50.8864C57.3837 51.1348 56.904 51.4038 56.4382 51.6922L53.7184 50.541L53.7171 50.5405C51.5636 49.6303 48.991 50.3947 47.7491 52.4638L47.7478 52.4659L44.163 58.4492L44.1624 58.4501L44.1618 58.4512C42.8857 60.5796 43.5162 63.2606 45.483 64.6536L45.4849 64.655L47.786 66.2821C47.7746 66.5169 47.7682 66.756 47.7682 66.9992C47.7682 67.243 47.7746 67.4827 47.786 67.7179L45.4849 69.345L45.483 69.3464C43.5162 70.7394 42.8857 73.4204 44.1618 75.5488L44.1624 75.5499L44.163 75.5508L47.7475 81.5336L47.7478 81.5341C48.9918 83.6107 51.5675 84.368 53.7171 83.4595L53.7184 83.459L56.4382 82.3078C56.904 82.5962 57.3837 82.8652 57.8763 83.1136L58.1873 85.8298L58.1875 85.8317L58.1877 85.8328C58.4681 88.2905 60.5789 90 62.9143 90H70.0846C72.4223 90 74.5293 88.2889 74.8126 85.8358L74.8131 85.8316L75.1233 83.1132C75.6157 82.8649 76.0951 82.5961 76.5607 82.3078L79.2805 83.459L79.2818 83.4595C81.4276 84.3665 84.0089 83.6143 85.2529 81.5311L85.254 81.5292L88.8359 75.5508L88.8369 75.5491L88.8371 75.5488C90.1132 73.4204 89.4827 70.7394 87.5159 69.3464L87.514 69.345L85.2131 67.7181C85.2245 67.4825 85.2307 67.2428 85.2307 66.9992C85.2307 66.7562 85.2245 66.517 85.2132 66.2819L87.514 64.655L87.5159 64.6536C89.4827 63.2606 90.1132 60.5796 88.8371 58.4512L88.8364 58.45L88.8359 58.4492L85.2525 52.4682L85.2516 52.4668L85.2511 52.4659C84.0088 50.3909 81.4313 49.632 79.2818 50.5405L79.2805 50.541L76.5607 51.6922C76.0951 51.4039 75.6157 51.1351 75.1233 50.8868L74.8131 48.1684L74.8126 48.1642C74.5293 45.7111 72.4223 44 70.0846 44H62.9143ZM66.4994 71C68.7088 71 70.4994 69.2094 70.4994 67C70.4994 64.792 68.7088 63 66.4994 63C64.2901 63 62.4994 64.792 62.4994 67C62.4994 69.2094 64.2901 71 66.4994 71Z" fill="#222222"/>
</svg>
