<svg width="96" height="96" viewBox="0 0 96 96" fill="none" xmlns="http://www.w3.org/2000/svg">
<path fill-rule="evenodd" clip-rule="evenodd" d="M14.5 17C14.5 12.0294 18.5294 8 23.5 8H71.5C76.4706 8 80.5 12.0294 80.5 17V41.5C80.5 43.1569 79.1568 44.5 77.5 44.5C75.8431 44.5 74.5 43.1569 74.5 41.5V17C74.5 15.3431 73.1568 14 71.5 14H23.5C21.8431 14 20.5 15.3431 20.5 17V45H44.5C46.1568 45 47.5 46.3431 47.5 48C47.5 49.6569 46.1568 51 44.5 51H20.0544L14.0342 78.3552C13.6222 80.2271 15.0473 82 16.964 82H44.5C46.1568 82 47.5 83.3431 47.5 85C47.5 86.6569 46.1568 88 44.5 88H16.964C11.2139 88 6.93848 82.6814 8.17439 77.0656L14.5711 48H14.5V17ZM29.5 23C27.8431 23 26.5 24.3431 26.5 26C26.5 27.6569 27.8431 29 29.5 29H43.5C45.1568 29 46.5 27.6569 46.5 26C46.5 24.3431 45.1568 23 43.5 23H29.5Z" fill="#222222"/>
<path d="M85 85.2656L77 77.2656" stroke="#222222" stroke-width="6" stroke-linecap="round"/>
<path d="M55.3924 55.6579C52.58 58.4717 51 62.2872 51 66.2656C51 70.2439 52.58 74.0595 55.3924 76.8734C58.2062 79.6858 62.0218 81.2656 66.0002 81.2656C69.9785 81.2656 73.7938 79.6858 76.6076 76.8734C79.42 74.0595 81 70.2439 81 66.2656C81 62.2872 79.42 58.4717 76.6076 55.6579C73.7938 52.8455 69.9785 51.2656 66.0002 51.2656C62.0218 51.2656 58.2062 52.8455 55.3924 55.6579Z" stroke="#222222" stroke-width="6"/>
</svg>
