<svg width="96" height="96" viewBox="0 0 96 96" fill="none" xmlns="http://www.w3.org/2000/svg">
<path fill-rule="evenodd" clip-rule="evenodd" d="M49.8299 8.66829C48.7279 7.77615 47.1517 7.77736 46.0511 8.67118L9.10891 38.6712C7.82274 39.7157 7.6268 41.605 8.67128 42.8912C9.71575 44.1774 11.6051 44.3733 12.8913 43.3288L15.0001 41.6163V79C15.0001 83.9706 19.0295 88 24.0001 88H72.0001C76.9707 88 81.0001 83.9706 81.0001 79V41.6216L83.1125 43.3317C84.4002 44.3742 86.2893 44.1754 87.3318 42.8876C88.3743 41.5999 88.1755 39.7108 86.8877 38.6683L49.8299 8.66829ZM75.0087 36.7713L47.9452 14.8622L20.99 36.752C20.9967 36.8338 21.0001 36.9165 21.0001 37V79C21.0001 80.6569 22.3432 82 24.0001 82H72.0001C73.6569 82 75.0001 80.6569 75.0001 79V37C75.0001 36.9231 75.003 36.8468 75.0087 36.7713Z" fill="#222222"/>
<path fill-rule="evenodd" clip-rule="evenodd" d="M35.1994 42.1095C36.7962 41.6674 38.4491 42.6034 38.8912 44.2002L41.7714 54.6019L45.1684 44.178C45.5711 42.9422 46.7239 42.1063 48.0237 42.1076C49.3236 42.1089 50.4747 42.9471 50.875 44.1838L54.2356 54.5669L57.106 44.2002C57.5482 42.6034 59.201 41.6674 60.7978 42.1095C62.3946 42.5517 63.3306 44.2045 62.8885 45.8013L62.141 48.5007H64C65.6569 48.5007 67 49.8439 67 51.5007C67 53.1576 65.6569 54.5007 64 54.5007H60.4797L57.3506 65.8013C56.9971 67.078 55.8482 67.9717 54.5238 68.0001C53.1994 68.0285 52.0131 67.1849 51.6052 65.9246L48.011 54.8197L44.3902 65.9303C43.9801 67.1887 42.7937 68.0297 41.4705 68C40.1472 67.9703 38.9998 67.0769 38.6466 65.8013L35.5176 54.5007H32C30.3431 54.5007 29 53.1576 29 51.5007C29 49.8439 30.3431 48.5007 32 48.5007H33.8562L33.1088 45.8013C32.6667 44.2045 33.6027 42.5517 35.1994 42.1095Z" fill="#222222"/>
</svg>
