<svg width="96" height="96" viewBox="0 0 96 96" fill="none" xmlns="http://www.w3.org/2000/svg">
<path fill-rule="evenodd" clip-rule="evenodd" d="M63.0002 18.4156V67.512L80.6319 74.4978C81.2883 74.7578 82.0002 74.2741 82.0002 73.5681V29.3406C82.0002 27.2901 80.7483 25.4474 78.842 24.6921L63.0002 18.4156ZM57.0002 67.7097V18.8897L38.5002 28.2905L38.5002 77.1105L57.0002 67.7097ZM17.624 15.9868L35.0531 23.0332C35.199 23.0114 35.3483 23.0001 35.5002 23.0001C35.5534 23.0001 35.6063 23.0015 35.6587 23.0042L55.4246 12.9601C58.2368 11.5311 61.527 11.3781 64.4596 12.54L81.0521 19.114C85.246 20.7756 88.0002 24.8295 88.0002 29.3406V73.5681C88.0002 78.5105 83.0168 81.8964 78.4218 80.0759L60.1531 72.8378L40.1058 83.0249C37.2698 84.466 33.9489 84.6088 30.9996 83.4164L14.8773 76.8983C10.7209 75.218 8.00024 71.1834 8.00024 66.7002V22.4765C8.00024 17.5132 13.0225 14.1264 17.624 15.9868ZM32.5002 77.5513L32.5002 28.4729L15.3751 21.5494C14.7177 21.2836 14.0002 21.7674 14.0002 22.4765V66.7002C14.0002 68.738 15.2369 70.5719 17.1262 71.3357L32.5002 77.5513Z" fill="#222222"/>
</svg>
