<svg width="96" height="96" viewBox="0 0 96 96" fill="none" xmlns="http://www.w3.org/2000/svg">
<path fill-rule="evenodd" clip-rule="evenodd" d="M49.8296 8.66829C48.7276 7.77615 47.1515 7.77736 46.0508 8.67118L9.10866 38.6712C7.82249 39.7157 7.62656 41.605 8.67103 42.8912C9.71551 44.1774 11.6049 44.3733 12.891 43.3288L14.9999 41.6163V77C14.9999 83.0751 19.9247 88 25.9999 88H48.9999C50.6567 88 51.9999 86.6569 51.9999 85C51.9999 83.3431 50.6567 82 48.9999 82H25.9999C23.2384 82 20.9999 79.7614 20.9999 77V37C20.9999 36.9165 20.9964 36.8338 20.9898 36.752L47.945 14.8622L75.0084 36.7713C75.0027 36.8468 74.9999 36.9231 74.9999 37V42C74.9999 43.6569 76.343 45 77.9999 45C79.6567 45 80.9999 43.6569 80.9999 42V41.6216L83.1122 43.3317C84.4 44.3742 86.2891 44.1754 87.3316 42.8876C88.3741 41.5999 88.1752 39.7108 86.8875 38.6683L49.8296 8.66829Z" fill="#222222"/>
<path d="M84.9998 85L76.9998 77" stroke="#222222" stroke-width="6" stroke-linecap="round"/>
<path d="M55.3921 55.3923C52.5797 58.2061 50.9998 62.0216 50.9998 66C50.9998 69.9783 52.5797 73.7939 55.3921 76.6077C58.2059 79.4201 62.0216 81 65.9999 81C69.9782 81 73.7936 79.4201 76.6074 76.6077C79.4198 73.7939 80.9998 69.9783 80.9998 66C80.9998 62.0216 79.4198 58.2061 76.6074 55.3923C73.7936 52.5799 69.9782 51 65.9999 51C62.0216 51 58.2059 52.5799 55.3921 55.3923V55.3923Z" stroke="#222222" stroke-width="6"/>
</svg>
