<svg width="96" height="96" viewBox="0 0 96 96" fill="none" xmlns="http://www.w3.org/2000/svg">
<g clip-path="url(#clip0_2952_120960)">
<path fill-rule="evenodd" clip-rule="evenodd" d="M37.0252 23.6584C37.5333 22.642 38.5721 22 39.7084 22H56.292C57.4284 22 58.4671 22.642 58.9753 23.6584L62.317 30.3416L63.1461 32H65.0002H79.0002C80.6571 32 82.0002 33.3431 82.0002 35V75C82.0002 76.6569 80.6571 78 79.0002 78H17.0002C15.3434 78 14.0002 76.6569 14.0002 75V35C14.0002 33.3431 15.3434 32 17.0002 32H31.0002H32.8543L33.6835 30.3416L37.0252 23.6584ZM39.7084 16C36.2995 16 33.1831 17.926 31.6586 20.9751L29.1461 26H17.0002C12.0297 26 8.00024 30.0294 8.00024 35V75C8.00024 79.9706 12.0297 84 17.0002 84H79.0002C83.9708 84 88.0002 79.9706 88.0002 75V35C88.0002 30.0294 83.9708 26 79.0002 26H66.8543L64.3419 20.9751C62.8174 17.926 59.701 16 56.292 16H39.7084ZM38.0002 54C38.0002 48.4771 42.4774 44 48.0002 44C53.5231 44 58.0002 48.4771 58.0002 54C58.0002 59.5228 53.5231 64 48.0002 64C42.4774 64 38.0002 59.5228 38.0002 54ZM48.0002 38C39.1637 38 32.0002 45.1634 32.0002 54C32.0002 62.8366 39.1637 70 48.0002 70C56.8368 70 64.0002 62.8366 64.0002 54C64.0002 45.1634 56.8368 38 48.0002 38Z" fill="#222222"/>
</g>
<defs>
<clipPath id="clip0_2952_120960">
<rect width="96" height="96" fill="white"/>
</clipPath>
</defs>
</svg>
