<svg width="96" height="96" viewBox="0 0 96 96" fill="none" xmlns="http://www.w3.org/2000/svg">
<path fill-rule="evenodd" clip-rule="evenodd" d="M14 41C14 26.0883 26.0883 14 41 14C55.9117 14 68 26.0883 68 41C68 55.9117 55.9117 68 41 68C26.0883 68 14 55.9117 14 41ZM41 8C22.7746 8 8 22.7746 8 41C8 59.2254 22.7746 74 41 74C49.0325 74 56.3947 71.1301 62.1172 66.3598L82.8787 87.1213C84.0503 88.2929 85.9497 88.2929 87.1213 87.1213C88.2929 85.9497 88.2929 84.0503 87.1213 82.8787L66.3598 62.1172C71.1301 56.3947 74 49.0325 74 41C74 22.7746 59.2254 8 41 8ZM41 24C42.6569 24 44 25.3431 44 27V38.5H55C56.6569 38.5 58 39.8431 58 41.5C58 43.1569 56.6569 44.5 55 44.5H44V55C44 56.6569 42.6569 58 41 58C39.3431 58 38 56.6569 38 55V44.5H27C25.3431 44.5 24 43.1569 24 41.5C24 39.8431 25.3431 38.5 27 38.5H38V27C38 25.3431 39.3431 24 41 24Z" fill="#222222"/>
</svg>
