<svg width="96" height="96" viewBox="0 0 96 96" fill="none" xmlns="http://www.w3.org/2000/svg">
<path fill-rule="evenodd" clip-rule="evenodd" d="M41 14C26.0883 14 14 26.0883 14 41C14 55.9117 26.0883 68 41 68C55.9117 68 68 55.9117 68 41C68 26.0883 55.9117 14 41 14ZM8 41C8 22.7746 22.7746 8 41 8C59.2254 8 74 22.7746 74 41C74 49.0325 71.1301 56.3947 66.3598 62.1172L87.1213 82.8787C88.2929 84.0503 88.2929 85.9497 87.1213 87.1213C85.9497 88.2929 84.0503 88.2929 82.8787 87.1213L62.1172 66.3598C56.3947 71.1301 49.0325 74 41 74C22.7746 74 8 59.2254 8 41ZM55 38.5C56.6569 38.5 58 39.8431 58 41.5C58 43.1569 56.6569 44.5 55 44.5H27C25.3431 44.5 24 43.1569 24 41.5C24 39.8431 25.3431 38.5 27 38.5H55Z" fill="#222222"/>
</svg>
