<svg width="96" height="96" viewBox="0 0 96 96" fill="none" xmlns="http://www.w3.org/2000/svg">
<path fill-rule="evenodd" clip-rule="evenodd" d="M60.9998 12C59.343 12 57.9998 13.3431 57.9998 15C57.9998 16.6569 59.343 18 60.9998 18L73.7572 18L53.1298 38.6274C51.9582 39.799 51.9582 41.6985 53.1298 42.8701C54.3013 44.0416 56.2008 44.0416 57.3724 42.8701L77.9996 22.2428V34.9998C77.9996 36.6567 79.3428 37.9998 80.9996 37.9998C82.6565 37.9998 83.9996 36.6567 83.9996 34.9998V15.8C83.9996 13.7013 82.2983 12 80.1996 12L60.9998 12ZM37.9998 81C37.9998 82.6569 36.6567 84 34.9998 84H15.8C13.7013 84 12 82.2987 12 80.2L12 61.0002C12 59.3433 13.3431 58.0002 15 58.0002C16.6569 58.0002 18 59.3433 18 61.0002L18 73.7572L38.6272 53.1299C39.7988 51.9584 41.6983 51.9584 42.8699 53.1299C44.0415 54.3015 44.0415 56.201 42.8699 57.3726L22.2425 78H34.9998C36.6567 78 37.9998 79.3431 37.9998 81Z" fill="#222222"/>
</svg>
