<svg width="96" height="96" viewBox="0 0 96 96" fill="none" xmlns="http://www.w3.org/2000/svg">
<path fill-rule="evenodd" clip-rule="evenodd" d="M58.0001 33.7574V21C58.0001 19.3432 56.6569 18 55.0001 18C53.3432 18 52.0001 19.3432 52.0001 21V39.4C52.0001 41.9405 54.0595 44 56.6001 44H75.0001C76.6569 44 78.0001 42.6569 78.0001 41C78.0001 39.3432 76.6569 38 75.0001 38L62.2427 38L83.1216 17.1211C84.2932 15.9495 84.2932 14.05 83.1216 12.8784C81.9501 11.7069 80.0506 11.7069 78.879 12.8784L58.0001 33.7574ZM18.0001 55C18.0001 53.3432 19.3432 52 21.0001 52L39.4001 52C41.9406 52 44.0001 54.0595 44.0001 56.6V75C44.0001 76.6569 42.6569 78 41.0001 78C39.3432 78 38.0001 76.6569 38.0001 75V62.2427L17.1217 83.121C15.9501 84.2926 14.0506 84.2926 12.879 83.121C11.7075 81.9494 11.7075 80.0499 12.879 78.8784L33.7574 58L21.0001 58C19.3432 58 18.0001 56.6569 18.0001 55Z" fill="#222222"/>
</svg>
