<svg width="96" height="96" viewBox="0 0 96 96" fill="none" xmlns="http://www.w3.org/2000/svg">
<path fill-rule="evenodd" clip-rule="evenodd" d="M37.5474 11.2195C32.6855 10.1861 27.9063 13.2897 26.8729 18.1516L25.2046 26.0002H21.0001C16.0296 26.0002 12.0001 30.0297 12.0001 35.0002V75.0002C12.0001 79.9708 16.0296 84.0002 21.0001 84.0002H75.0001C79.9707 84.0002 84.0001 79.9708 84.0001 75.0002V35.0002C84.0001 30.0297 79.9707 26.0002 75.0001 26.0002H72.06C72.1275 21.7893 69.2263 17.9531 64.9353 17.041L37.5474 11.2195ZM66.0571 26.0002C66.1255 24.546 65.1329 23.217 63.6878 22.9099L36.3 17.0884C34.6793 16.7439 33.0863 17.7785 32.7418 19.3991L31.3387 26.0002H66.0571ZM21.0001 32.0002C19.3433 32.0002 18.0001 33.3434 18.0001 35.0002V75.0002C18.0001 76.6571 19.3433 78.0002 21.0001 78.0002H75.0001C76.657 78.0002 78.0001 76.6571 78.0001 75.0002V35.0002C78.0001 33.3434 76.657 32.0002 75.0001 32.0002H21.0001ZM48.0001 58.0002C43.3933 58.0002 39.0001 53.5921 39.0001 47.286V41.0002C39.0001 39.3434 37.657 38.0002 36.0001 38.0002C34.3433 38.0002 33.0001 39.3434 33.0001 41.0002V47.286C33.0001 56.1282 39.3521 64.0002 48.0001 64.0002C56.6482 64.0002 63.0001 56.1282 63.0001 47.286V41.0002C63.0001 39.3434 61.657 38.0002 60.0001 38.0002C58.3433 38.0002 57.0001 39.3434 57.0001 41.0002V47.286C57.0001 53.5921 52.6069 58.0002 48.0001 58.0002Z" fill="#222222"/>
</svg>
