<svg width="96" height="96" viewBox="0 0 96 96" fill="none" xmlns="http://www.w3.org/2000/svg">
<path fill-rule="evenodd" clip-rule="evenodd" d="M40 8C36.134 8 33 11.134 33 15V22H25C20.0294 22 16 26.0294 16 31V71C16 75.6496 19.5258 79.4756 24.0496 79.9504C24.5244 84.4742 28.3504 88 33 88C37.6326 88 41.4476 84.5 41.9451 80H54.0549C54.5524 84.5 58.3674 88 63 88C67.6496 88 71.4756 84.4742 71.9504 79.9504C76.4742 79.4756 80 75.6496 80 71V31C80 26.0294 75.9706 22 71 22H63V15C63 11.134 59.866 8 56 8H40ZM57 22V15C57 14.4477 56.5523 14 56 14H40C39.4477 14 39 14.4477 39 15V22H57ZM63 82C61.6938 82 60.5825 81.1652 60.1707 80H65.8293C65.4175 81.1652 64.3062 82 63 82ZM33 82C31.6938 82 30.5825 81.1652 30.1707 80H35.8293C35.4175 81.1652 34.3062 82 33 82ZM25 28C23.3431 28 22 29.3431 22 31V71C22 72.6569 23.3431 74 25 74H71C72.6569 74 74 72.6569 74 71V31C74 29.3431 72.6569 28 71 28H25Z" fill="#222222"/>
<path d="M36 39V63" stroke="#222222" stroke-width="6" stroke-linecap="round"/>
<path d="M48 39V63" stroke="#222222" stroke-width="6" stroke-linecap="round"/>
<path d="M60 39V63" stroke="#222222" stroke-width="6" stroke-linecap="round"/>
</svg>
