<svg width="96" height="96" viewBox="0 0 96 96" fill="none" xmlns="http://www.w3.org/2000/svg">
<path fill-rule="evenodd" clip-rule="evenodd" d="M20.3632 15.5133C20.3632 12.0956 23.1338 9.32495 26.5515 9.32495H39.3048C42.7225 9.32495 45.4932 12.0956 45.4932 15.5133V20.4841H51.2609C55.559 20.4841 59.0434 23.9685 59.0434 28.2666V37.6794C59.0434 39.3363 57.7002 40.6794 56.0434 40.6794C54.3865 40.6794 53.0434 39.3363 53.0434 37.6794V28.2666C53.0434 27.2822 52.2453 26.4841 51.2609 26.4841H14.595C13.6106 26.4841 12.8125 27.2822 12.8125 28.2666V65.0627C12.8125 66.0472 13.6106 66.8452 14.595 66.8452H31.9648C33.6216 66.8452 34.9648 68.1884 34.9648 69.8452C34.9648 71.5021 33.6216 72.8452 31.9648 72.8452H28.3284V73.8926C28.3284 78.1907 24.8441 81.6751 20.5459 81.6751C16.2477 81.6751 12.7634 78.1907 12.7634 73.8926V72.6285C9.34905 71.8048 6.8125 68.73 6.8125 65.0627V28.2666C6.8125 23.9685 10.2968 20.4841 14.595 20.4841H20.3632V15.5133ZM39.4932 15.5133V20.4841H26.3632V15.5133C26.3632 15.4093 26.4475 15.325 26.5515 15.325H39.3048C39.4088 15.325 39.4932 15.4093 39.4932 15.5133ZM22.3284 72.8452H18.7634V73.8926C18.7634 74.877 19.5615 75.6751 20.5459 75.6751C21.5303 75.6751 22.3284 74.877 22.3284 73.8926V72.8452ZM24.9277 35.9001C24.9277 34.2432 23.5846 32.9001 21.9277 32.9001C20.2709 32.9001 18.9277 34.2432 18.9277 35.9001V57.4501C18.9277 59.1069 20.2709 60.4501 21.9277 60.4501C23.5846 60.4501 24.9277 59.1069 24.9277 57.4501V35.9001ZM32.9277 32.9001C34.5846 32.9001 35.9277 34.2432 35.9277 35.9001V57.4501C35.9277 59.1069 34.5846 60.4501 32.9277 60.4501C31.2709 60.4501 29.9277 59.1069 29.9277 57.4501V35.9001C29.9277 34.2432 31.2709 32.9001 32.9277 32.9001ZM46.9277 35.9001C46.9277 34.2432 45.5846 32.9001 43.9277 32.9001C42.2709 32.9001 40.9277 34.2432 40.9277 35.9001V37.7838C40.9277 39.4407 42.2709 40.7838 43.9277 40.7838C45.5846 40.7838 46.9277 39.4407 46.9277 37.7838V35.9001Z" fill="#222222"/>
<path fill-rule="evenodd" clip-rule="evenodd" d="M46.1057 43.7739C42.2296 43.7739 39.0874 46.9161 39.0874 50.7922V79.7573C39.0874 83.6334 42.2296 86.7756 46.1057 86.7756H82.2701C86.1462 86.7756 89.2883 83.6334 89.2883 79.7573V50.7922C89.2883 46.9161 86.1462 43.7739 82.2701 43.7739H46.1057ZM45.0874 50.7922C45.0874 50.2298 45.5433 49.7739 46.1057 49.7739H82.2701C82.8324 49.7739 83.2883 50.2298 83.2883 50.7922V79.7573C83.2883 80.3197 82.8324 80.7756 82.2701 80.7756H46.1057C45.5433 80.7756 45.0874 80.3197 45.0874 79.7573V50.7922ZM59.1513 59.8174C59.1513 63.3356 61.6748 65.6771 64.1879 65.6771C66.7009 65.6771 69.2244 63.3356 69.2244 59.8174V55.7567C69.2244 54.0998 70.5676 52.7567 72.2244 52.7567C73.8813 52.7567 75.2244 54.0998 75.2244 55.7567V59.8174C75.2244 66.0854 70.5518 71.6771 64.1879 71.6771C57.824 71.6771 53.1513 66.0854 53.1513 59.8174V55.7567C53.1513 54.0998 54.4945 52.7567 56.1513 52.7567C57.8082 52.7567 59.1513 54.0998 59.1513 55.7567V59.8174Z" fill="#222222"/>
</svg>
