<svg width="96" height="96" viewBox="0 0 96 96" fill="none" xmlns="http://www.w3.org/2000/svg">
<mask id="path-1-inside-1_2952_120979" fill="white">
<path fill-rule="evenodd" clip-rule="evenodd" d="M77.617 25.9993C77.617 21.7867 74.2128 18.3826 70 18.3826C65.7872 18.3826 62.383 21.7867 62.383 25.9993C62.383 30.2118 65.7872 33.6159 70 33.6159C74.2128 33.6159 77.617 30.2118 77.617 25.9993ZM56 25.9993C56 18.255 62.2553 12 70 12C77.7447 12 84 18.255 84 25.9993C84 33.7435 77.7447 39.9985 70 39.9985C65.2829 39.9985 61.1183 37.6781 58.5831 34.114L35.8448 45.9043C35.947 46.5882 36 47.2884 36 48.0012C36 48.7133 35.9471 49.4128 35.8451 50.0959L58.5828 61.8858C61.1179 58.321 65.2827 56 70 56C77.7447 56 84 62.2559 84 70.0012C84 77.7466 77.7447 84.0025 70 84.0025C62.2553 84.0025 56 77.7466 56 70.0012C56 69.1217 56.0807 68.2613 56.235 67.4271L33.681 55.7324C31.177 59.5138 26.8848 62.0025 22 62.0025C14.2553 62.0025 8 55.7466 8 48.0012C8 40.2559 14.2553 34 22 34C26.884 34 31.1756 36.4879 33.6798 40.2682L56.235 28.5729C56.0807 27.7389 56 26.8787 56 25.9993ZM70 62.3835C74.2128 62.3835 77.617 65.7881 77.617 70.0012C77.617 74.2144 74.2128 77.6189 70 77.6189C65.7872 77.6189 62.383 74.2144 62.383 70.0012C62.383 65.7881 65.7872 62.3835 70 62.3835ZM29.617 48.0012C29.617 43.7881 26.2128 40.3835 22 40.3835C17.7872 40.3835 14.383 43.7881 14.383 48.0012C14.383 52.2144 17.7872 55.6189 22 55.6189C26.2128 55.6189 29.617 52.2144 29.617 48.0012Z"/>
</mask>
<path fill-rule="evenodd" clip-rule="evenodd" d="M77.617 25.9993C77.617 21.7867 74.2128 18.3826 70 18.3826C65.7872 18.3826 62.383 21.7867 62.383 25.9993C62.383 30.2118 65.7872 33.6159 70 33.6159C74.2128 33.6159 77.617 30.2118 77.617 25.9993ZM56 25.9993C56 18.255 62.2553 12 70 12C77.7447 12 84 18.255 84 25.9993C84 33.7435 77.7447 39.9985 70 39.9985C65.2829 39.9985 61.1183 37.6781 58.5831 34.114L35.8448 45.9043C35.947 46.5882 36 47.2884 36 48.0012C36 48.7133 35.9471 49.4128 35.8451 50.0959L58.5828 61.8858C61.1179 58.321 65.2827 56 70 56C77.7447 56 84 62.2559 84 70.0012C84 77.7466 77.7447 84.0025 70 84.0025C62.2553 84.0025 56 77.7466 56 70.0012C56 69.1217 56.0807 68.2613 56.235 67.4271L33.681 55.7324C31.177 59.5138 26.8848 62.0025 22 62.0025C14.2553 62.0025 8 55.7466 8 48.0012C8 40.2559 14.2553 34 22 34C26.884 34 31.1756 36.4879 33.6798 40.2682L56.235 28.5729C56.0807 27.7389 56 26.8787 56 25.9993ZM70 62.3835C74.2128 62.3835 77.617 65.7881 77.617 70.0012C77.617 74.2144 74.2128 77.6189 70 77.6189C65.7872 77.6189 62.383 74.2144 62.383 70.0012C62.383 65.7881 65.7872 62.3835 70 62.3835ZM29.617 48.0012C29.617 43.7881 26.2128 40.3835 22 40.3835C17.7872 40.3835 14.383 43.7881 14.383 48.0012C14.383 52.2144 17.7872 55.6189 22 55.6189C26.2128 55.6189 29.617 52.2144 29.617 48.0012Z" fill="#222222"/>
<path d="M58.5831 34.114L63.4723 30.6362L60.4501 26.3873L55.8212 28.7875L58.5831 34.114ZM35.8448 45.9043L33.0829 40.5777L29.2767 42.5513L29.9107 46.7915L35.8448 45.9043ZM35.8451 50.0959L29.9109 49.2097L29.2777 53.4492L33.0832 55.4225L35.8451 50.0959ZM58.5828 61.8858L55.8209 67.2123L60.4502 69.6128L63.4724 65.3631L58.5828 61.8858ZM56.235 67.4271L62.1349 68.5188L62.9438 64.1471L58.9969 62.1006L56.235 67.4271ZM33.681 55.7324L36.4429 50.4059L31.6556 47.9236L28.6783 52.4198L33.681 55.7324ZM33.6798 40.2682L28.6776 43.5816L31.6551 48.0766L36.4417 45.5947L33.6798 40.2682ZM56.235 28.5729L58.9969 33.8994L62.9439 31.8529L62.1348 27.4811L56.235 28.5729ZM70 24.3826C70.8994 24.3826 71.617 25.1007 71.617 25.9993H83.617C83.617 18.4727 77.5262 12.3826 70 12.3826V24.3826ZM68.383 25.9993C68.383 25.1007 69.1006 24.3826 70 24.3826V12.3826C62.4738 12.3826 56.383 18.4727 56.383 25.9993H68.383ZM70 27.6159C69.1006 27.6159 68.383 26.8978 68.383 25.9993H56.383C56.383 33.5258 62.4738 39.6159 70 39.6159V27.6159ZM71.617 25.9993C71.617 26.8978 70.8994 27.6159 70 27.6159V39.6159C77.5262 39.6159 83.617 33.5258 83.617 25.9993H71.617ZM70 6C58.9419 6 50 14.941 50 25.9993H62C62 21.569 65.5687 18 70 18V6ZM90 25.9993C90 14.941 81.0581 6 70 6V18C74.4313 18 78 21.569 78 25.9993H90ZM70 45.9985C81.0581 45.9985 90 37.0575 90 25.9993H78C78 30.4295 74.4313 33.9985 70 33.9985V45.9985ZM53.6939 37.5918C57.3103 42.6759 63.2657 45.9985 70 45.9985V33.9985C67.3 33.9985 64.9263 32.6802 63.4723 30.6362L53.6939 37.5918ZM38.6067 51.2308L61.345 39.4405L55.8212 28.7875L33.0829 40.5777L38.6067 51.2308ZM42 48.0012C42 46.9907 41.9249 45.9939 41.7788 45.017L29.9107 46.7915C29.9692 47.1824 30 47.5861 30 48.0012H42ZM41.7793 50.9822C41.925 50.0064 42 49.0107 42 48.0012H30C30 48.4159 29.9692 48.8191 29.9109 49.2097L41.7793 50.9822ZM61.3447 56.5593L38.607 44.7694L33.0832 55.4225L55.8209 67.2123L61.3447 56.5593ZM70 50C63.2651 50 57.3094 53.3235 53.6931 58.4085L63.4724 65.3631C64.9265 63.3184 67.3003 62 70 62V50ZM90 70.0012C90 58.9427 81.0589 50 70 50V62C74.4305 62 78 65.5691 78 70.0012H90ZM70 90.0025C81.0589 90.0025 90 81.0598 90 70.0012H78C78 74.4334 74.4305 78.0025 70 78.0025V90.0025ZM50 70.0012C50 81.0598 58.9411 90.0025 70 90.0025V78.0025C65.5695 78.0025 62 74.4334 62 70.0012H50ZM50.3352 66.3354C50.1145 67.5283 50 68.754 50 70.0012H62C62 69.4893 62.0469 68.9943 62.1349 68.5188L50.3352 66.3354ZM30.9191 61.0589L53.4731 72.7536L58.9969 62.1006L36.4429 50.4059L30.9191 61.0589ZM22 68.0025C28.9751 68.0025 35.1119 64.4389 38.6836 59.045L28.6783 52.4198C27.2421 54.5887 24.7944 56.0025 22 56.0025V68.0025ZM2 48.0012C2 59.0598 10.9411 68.0025 22 68.0025V56.0025C17.5695 56.0025 14 52.4334 14 48.0012H2ZM22 28C10.9411 28 2 36.9427 2 48.0012H14C14 43.5691 17.5695 40 22 40V28ZM38.6819 36.9548C35.11 31.5624 28.9739 28 22 28V40C24.794 40 27.2413 41.4133 28.6776 43.5816L38.6819 36.9548ZM53.4731 23.2464L30.9179 34.9417L36.4417 45.5947L58.9969 33.8994L53.4731 23.2464ZM50 25.9993C50 27.2463 50.1145 28.472 50.3352 29.6647L62.1348 27.4811C62.0469 27.0058 62 26.511 62 25.9993H50ZM83.617 70.0012C83.617 62.4749 77.527 56.3835 70 56.3835V68.3835C70.8986 68.3835 71.617 69.1013 71.617 70.0012H83.617ZM70 83.6189C77.527 83.6189 83.617 77.5276 83.617 70.0012H71.617C71.617 70.9012 70.8986 71.6189 70 71.6189V83.6189ZM56.383 70.0012C56.383 77.5276 62.473 83.6189 70 83.6189V71.6189C69.1014 71.6189 68.383 70.9012 68.383 70.0012H56.383ZM70 56.3835C62.473 56.3835 56.383 62.4749 56.383 70.0012H68.383C68.383 69.1013 69.1014 68.3835 70 68.3835V56.3835ZM22 46.3835C22.8986 46.3835 23.617 47.1013 23.617 48.0012H35.617C35.617 40.4749 29.527 34.3835 22 34.3835V46.3835ZM20.383 48.0012C20.383 47.1013 21.1014 46.3835 22 46.3835V34.3835C14.473 34.3835 8.38298 40.4749 8.38298 48.0012H20.383ZM22 49.6189C21.1014 49.6189 20.383 48.9012 20.383 48.0012H8.38298C8.38298 55.5276 14.473 61.6189 22 61.6189V49.6189ZM23.617 48.0012C23.617 48.9012 22.8986 49.6189 22 49.6189V61.6189C29.527 61.6189 35.617 55.5276 35.617 48.0012H23.617Z" fill="#222222" mask="url(#path-1-inside-1_2952_120979)"/>
</svg>
