<svg width="96" height="96" viewBox="0 0 96 96" fill="none" xmlns="http://www.w3.org/2000/svg">
<path d="M45.5855 22.7905L48.0437 26.3046L50.5019 22.7905C54.1037 17.6417 60.2459 15 65.9672 15C76.0599 15 84.8532 23.0617 84.9994 34.8612C84.9543 36.1847 84.8704 37.8197 84.7654 38.5882L84.7621 38.6122L84.7592 38.6363C83.879 45.9532 79.6606 53.3268 73.3807 60.4705C67.1289 67.5823 59.0597 74.2115 50.9306 80.0348L50.9295 80.0356C50.0274 80.6824 49.0184 81 48 81C47.0168 81 45.9657 80.6774 45.0705 80.0356C36.9646 74.2133 28.9056 67.5731 22.6528 60.455C16.384 53.3186 12.1578 45.9582 11.2456 38.6743C11.1635 37.7612 11.0439 36.08 11.0009 34.8702C11.2292 23.0581 20.0333 15 30.1202 15C35.8415 15 41.9837 17.6417 45.5855 22.7905Z" stroke="#222222" stroke-width="6"/>
</svg>
