<svg width="96" height="96" viewBox="0 0 96 96" fill="none" xmlns="http://www.w3.org/2000/svg">
<path d="M29 85H17C13.6863 85 11 82.3137 11 79V49C11 45.6863 13.6863 43 17 43H29V85Z" stroke="#222222" stroke-width="6" stroke-linecap="round" stroke-linejoin="round"/>
<path d="M30 43L36.4736 32.756C37.9062 30.489 38.6667 27.8623 38.6667 25.1806V19.6667C38.6667 14.8802 42.5469 11 47.3333 11V11C52.1198 11 56 14.8802 56 19.6667L56 41.6409" stroke="#222222" stroke-width="6" stroke-linecap="round" stroke-linejoin="round"/>
<path d="M49.7274 42H74.1816C80.3657 42 85.0673 47.5566 84.0437 53.6553L81.0235 71.6485C79.73 79.3552 73.0587 85 65.2442 85H39.5488H34.3669H29" stroke="#222222" stroke-width="6" stroke-linecap="round" stroke-linejoin="round"/>
</svg>
