<svg width="96" height="96" viewBox="0 0 96 96" fill="none" xmlns="http://www.w3.org/2000/svg">
<path d="M67 11H79C82.3137 11 85 13.6863 85 17V47C85 50.3137 82.3137 53 79 53H67V11Z" stroke="#222222" stroke-width="6" stroke-linecap="round" stroke-linejoin="round"/>
<path d="M66 53L59.5264 63.244C58.0938 65.511 57.3333 68.1377 57.3333 70.8194V76.3333C57.3333 81.1198 53.4531 85 48.6667 85V85C43.8802 85 40 81.1198 40 76.3333L40 54.3591" stroke="#222222" stroke-width="6" stroke-linecap="round" stroke-linejoin="round"/>
<path d="M46.2726 54H21.8184C15.6343 54 10.9327 48.4434 11.9563 42.3447L14.9765 24.3515C16.27 16.6448 22.9413 11 30.7558 11H56.4512H61.6331H67" stroke="#222222" stroke-width="6" stroke-linecap="round" stroke-linejoin="round"/>
</svg>
