<svg width="96" height="96" viewBox="0 0 96 96" fill="none" xmlns="http://www.w3.org/2000/svg">
<path d="M45.2234 12.3229C46.5222 10.3007 49.4778 10.3007 50.7766 12.3229L60.9418 28.149C61.3886 28.8447 62.0804 29.3473 62.8802 29.5574L81.073 34.3345C83.3975 34.9448 84.3108 37.7557 82.789 39.6159L70.8787 54.174C70.3551 54.814 70.0908 55.6273 70.1382 56.4528L71.2168 75.2314C71.3546 77.6307 68.9635 79.368 66.7242 78.4954L49.198 71.6668C48.4276 71.3666 47.5724 71.3666 46.802 71.6668L29.2758 78.4955C27.0365 79.368 24.6454 77.6307 24.7832 75.2314L25.8618 56.4528C25.9092 55.6273 25.6449 54.814 25.1213 54.174L13.211 39.6158C11.6892 37.7557 12.6025 34.9448 14.927 34.3345L33.1198 29.5574C33.9196 29.3473 34.6114 28.8447 35.0582 28.149L45.2234 12.3229Z" stroke="#26282C" stroke-width="6" stroke-linejoin="round"/>
</svg>
