<svg width="96" height="96" viewBox="0 0 96 96" fill="none" xmlns="http://www.w3.org/2000/svg">
<rect width="96" height="96" rx="48" fill="#EEEEEE"/>
<path fill-rule="evenodd" clip-rule="evenodd" d="M48.0024 26.3203C34.1535 26.3203 22.9336 35.1943 22.9336 46.1414C22.9336 53.2671 27.6902 59.5109 34.8289 63.0049C34.6639 63.6272 34.412 64.5702 34.1363 65.6025L34.1346 65.6088L34.1344 65.6096L34.1341 65.6106L34.1341 65.6109L34.1339 65.6113C33.5423 67.8264 32.8418 70.4491 32.6533 71.197C32.3143 72.5608 33.1547 72.5427 33.7041 72.1751C34.1353 71.888 40.5753 67.5107 43.3537 65.6209C44.8945 65.8492 46.45 65.9638 48.0076 65.9638C61.8539 65.9638 73.0765 57.0871 73.0765 46.1414C73.0765 35.1956 61.85 26.3203 48.0076 26.3203H48.0024ZM37.9113 40.3047H30.579C30.2483 40.3047 29.9311 40.4361 29.6973 40.6699C29.4634 40.9038 29.332 41.2209 29.332 41.5516C29.332 41.8823 29.4634 42.1995 29.6973 42.4333C29.9311 42.6672 30.2483 42.7986 30.579 42.7986H32.9625V51.5817C32.9632 51.904 33.0914 52.213 33.3192 52.441C33.5471 52.6691 33.8559 52.7977 34.1782 52.7987H34.4458C34.7677 52.7967 35.0758 52.6677 35.3032 52.4398C35.5306 52.212 35.6589 51.9036 35.6603 51.5817V42.7986H37.9113C38.242 42.7986 38.5592 42.6672 38.793 42.4333C39.0269 42.1995 39.1582 41.8823 39.1582 41.5516C39.1582 41.2209 39.0269 40.9038 38.793 40.6699C38.5592 40.4361 38.242 40.3047 37.9113 40.3047ZM52.1203 50.4534H55.5299C55.8235 50.4633 56.1018 50.587 56.3059 50.7982C56.5101 51.0094 56.6242 51.2916 56.6242 51.5854C56.6242 51.8791 56.5101 52.1614 56.3059 52.3726C56.1018 52.5838 55.8235 52.7074 55.5299 52.7174H50.5461C50.3974 52.7174 50.2502 52.6881 50.1128 52.6311C49.9755 52.5742 49.8507 52.4907 49.7456 52.3855C49.6405 52.2804 49.5572 52.1555 49.5005 52.0181C49.4437 51.8807 49.4145 51.7334 49.4147 51.5847C49.415 51.5124 49.422 51.4402 49.4355 51.3691C49.4226 51.2975 49.4156 51.225 49.4147 51.1522V41.4833C49.4091 41.3021 49.4399 41.1216 49.5054 40.9526C49.5709 40.7836 49.6696 40.6294 49.7958 40.4992C49.9219 40.3691 50.073 40.2656 50.2399 40.195C50.4068 40.1243 50.5863 40.0879 50.7675 40.0879C50.9488 40.0879 51.1282 40.1243 51.2951 40.195C51.4621 40.2656 51.6131 40.3691 51.7393 40.4992C51.8654 40.6294 51.9642 40.7836 52.0296 40.9526C52.0951 41.1216 52.1259 41.3021 52.1203 41.4833V50.4534ZM66.4304 50.8651L62.6311 45.8748L66.0628 42.4405C66.1737 42.3297 66.2616 42.198 66.3216 42.0532C66.3817 41.9083 66.4125 41.7531 66.4125 41.5963C66.4125 41.4395 66.3817 41.2842 66.3216 41.1393C66.2616 40.9945 66.1737 40.8629 66.0628 40.752C65.952 40.6411 65.8203 40.5532 65.6755 40.4932C65.5306 40.4332 65.3753 40.4023 65.2185 40.4023C65.0617 40.4023 64.9065 40.4332 64.7616 40.4932C64.6167 40.5532 64.4851 40.6411 64.3742 40.752L60.1242 45.002V41.4833C60.1299 41.3021 60.099 41.1216 60.0336 40.9526C59.9681 40.7836 59.8694 40.6294 59.7432 40.4992C59.617 40.3691 59.466 40.2656 59.299 40.195C59.1321 40.1243 58.9527 40.0879 58.7714 40.0879C58.5902 40.0879 58.4107 40.1243 58.2438 40.195C58.0769 40.2656 57.9259 40.3691 57.7997 40.4992C57.6735 40.6294 57.5748 40.7836 57.5093 40.9526C57.4438 41.1216 57.413 41.3021 57.4186 41.4833V51.4496C57.4295 51.8012 57.5768 52.1347 57.8293 52.3795C58.0818 52.6243 58.4197 52.7612 58.7714 52.7612C59.1231 52.7612 59.461 52.6243 59.7135 52.3795C59.966 52.1347 60.1133 51.8012 60.1242 51.4496V48.3739L60.8971 47.6023L64.4898 52.3186C64.6858 52.5662 64.9707 52.7274 65.2839 52.7679C65.597 52.8084 65.9136 52.7249 66.1661 52.5353C66.4185 52.3457 66.5869 52.065 66.6354 51.7529C66.6838 51.4409 66.6084 51.1223 66.4252 50.8651H66.4304ZM44.7515 41.179L48.4053 51.1805L48.404 51.1857C48.4602 51.3366 48.4858 51.4972 48.4793 51.6581C48.4727 51.819 48.4342 51.977 48.3659 52.1228C48.2976 52.2686 48.2009 52.3994 48.0815 52.5074C47.9621 52.6155 47.8224 52.6987 47.6705 52.7521C47.5186 52.8055 47.3575 52.8281 47.1968 52.8186C47.036 52.8091 46.8788 52.7676 46.7342 52.6967C46.5897 52.6257 46.4607 52.5266 46.3549 52.4052C46.2491 52.2838 46.1685 52.1426 46.1179 51.9897L45.497 50.2089H40.4963L39.8741 51.9845C39.8235 52.1374 39.7429 52.2786 39.6371 52.4C39.5313 52.5214 39.4023 52.6205 39.2578 52.6915C39.1132 52.7624 38.956 52.8039 38.7952 52.8134C38.6345 52.8229 38.4734 52.8003 38.3215 52.7469C38.1696 52.6935 38.0299 52.6103 37.9105 52.5022C37.7911 52.3942 37.6944 52.2634 37.6261 52.1176C37.5578 51.9718 37.5193 51.8138 37.5127 51.6529C37.5062 51.492 37.5318 51.3314 37.588 51.1805L41.1808 41.5388C41.2016 41.4804 41.2262 41.4271 41.2509 41.3739C41.3977 40.6608 42.1355 40.1152 43.0278 40.1152C43.8305 40.1152 44.5047 40.5595 44.7398 41.1686L44.7515 41.179ZM42.9707 43.1494L41.2899 47.945L44.7034 47.9398L43.0239 43.1494H42.9707Z" fill="#222222"/>
</svg>
