<svg width="96" height="96" viewBox="0 0 96 96" fill="none" xmlns="http://www.w3.org/2000/svg">
<rect width="96" height="96" rx="48" fill="#EEEEEE"/>
<path fill-rule="evenodd" clip-rule="evenodd" d="M48.0033 66.7252C60.8242 66.7252 71.2176 57.1285 71.2176 45.2903C71.2176 33.4522 60.8242 23.8555 48.0033 23.8555C35.1825 23.8555 24.7891 33.4522 24.7891 45.2903C24.7891 52.0448 28.1726 58.0696 33.4601 61.9985L33.5996 72.2537C33.6048 72.6296 34.031 72.8439 34.3357 72.6238L43.152 66.2564C44.7166 66.5636 46.3395 66.7252 48.0033 66.7252ZM35.4693 34.6914V39.5665H32.6836V44.5189H35.4693V50.7095C35.4693 53.8667 38.3324 55.5846 40.3443 55.5846H45.3741V50.6321H40.9634V44.5189H45.3741V39.5665H40.9634V34.6914H35.4693ZM46.9922 39.5684H52.5636L55.5041 48.8542H56.0458L58.9089 39.5684H64.4029L59.2958 55.5865H52.1767L46.9922 39.5684Z" fill="#222222"/>
</svg>
