<svg width="96" height="96" viewBox="0 0 96 96" fill="none" xmlns="http://www.w3.org/2000/svg">
<rect width="96" height="96" rx="48" fill="#EEEEEE"/>
<path fill-rule="evenodd" clip-rule="evenodd" d="M69.5639 33.6839C70.3164 34.4329 70.8586 35.3667 71.136 36.3916C72.1213 40.1541 72.1412 48.009 72.1412 48.009C72.1412 48.009 72.1412 55.8639 71.136 59.6265C70.8561 60.6484 70.3129 61.5789 69.5605 62.325C68.8082 63.0711 67.8732 63.6065 66.8489 63.8778C63.0864 64.8869 47.9884 64.8869 47.9884 64.8869C47.9884 64.8869 32.8944 64.8869 29.1318 63.8937C28.109 63.6187 27.1764 63.0798 26.4275 62.3308C25.6785 61.5819 25.1396 60.6493 24.8646 59.6265C23.8555 55.8639 23.8555 48.009 23.8555 48.009C23.8555 48.009 23.8555 40.1541 24.8646 36.3916C25.1396 35.3687 25.6785 34.4361 26.4275 33.6872C27.1764 32.9383 28.109 32.3994 29.1318 32.1244C32.8904 31.1152 47.9884 31.1152 47.9884 31.1152C47.9884 31.1152 63.0824 31.1152 66.8489 32.1244C67.8751 32.3971 68.8114 32.9349 69.5639 33.6839ZM55.7073 48.0106L43.1641 55.2496V40.7715L55.7073 48.0106Z" fill="#222222"/>
</svg>
