<svg width="96" height="96" viewBox="0 0 96 96" fill="none" xmlns="http://www.w3.org/2000/svg">
<rect width="96" height="96" rx="48" fill="#EEEEEE"/>
<g clip-path="url(#clip0_2952_120996)">
<path d="M54.1674 62.1822L49.0712 61.8632V61.7285L48.0107 61.8134L46.9317 61.7451V61.8798L41.8281 62.1822L46.6956 70.113C46.7341 70.178 46.7779 70.2396 46.8265 70.2975C46.9442 70.5032 47.114 70.6744 47.3188 70.7937C47.5236 70.9131 47.7562 70.9764 47.9933 70.9773C48.2303 70.9783 48.4634 70.9168 48.6692 70.7991C48.8749 70.6813 49.046 70.5115 49.1653 70.3067C49.2184 70.2478 49.2642 70.1828 49.3018 70.113L54.1674 62.1822Z" fill="#222222"/>
<path fill-rule="evenodd" clip-rule="evenodd" d="M72.4786 58.6349C72.8755 57.6715 73.0786 56.6394 73.0765 55.5974L73.0802 36.7443C73.0823 35.7023 72.8792 34.6701 72.4823 33.7067C72.0854 32.7433 71.5025 31.8676 70.767 31.1295C70.0315 30.3915 69.1577 29.8056 68.1957 29.4053C67.2336 29.0051 66.2021 28.7983 65.1601 28.7969H30.8536C29.8116 28.7983 28.7801 29.0051 27.8181 29.4053C26.856 29.8056 25.9823 30.3915 25.2468 31.1295C24.5113 31.8676 23.9284 32.7433 23.5315 33.7067C23.1346 34.6701 22.9314 35.7023 22.9336 36.7443V55.5974C22.9314 56.639 23.1345 57.6709 23.5311 58.6341C23.9278 59.5972 24.5104 60.4728 25.2455 61.2108C25.9806 61.9488 26.8539 62.5348 27.8155 62.9353C28.7772 63.3357 29.8083 63.5429 30.8499 63.5448H65.1565C66.1984 63.5433 67.2299 63.3366 68.192 62.9363C69.154 62.5361 70.0278 61.9502 70.7633 61.2121C71.4988 60.4741 72.0817 59.5983 72.4786 58.6349ZM39.375 38.666V41.617C39.375 41.617 40.7768 41.5543 40.7768 44.1641V51.7352H43.7279V43.4706C43.7279 43.4706 43.8607 38.666 39.375 38.666ZM34.0676 42.6104C33.0798 42.6828 32.1521 43.1122 31.4577 43.8185V38.9512H28.3867V51.7419H31.4891V50.7441C31.4891 50.7441 32.2268 52.0665 34.0713 52.0665C34.0713 52.0665 38.3965 51.906 38.3965 47.2933L38.3957 47.2823C38.3813 47.0329 38.1244 42.6104 34.0676 42.6104ZM33.3907 49.3608C33.0003 49.3608 32.6188 49.245 32.2942 49.0282C31.9697 48.8114 31.7167 48.5031 31.5674 48.1425C31.418 47.7819 31.3789 47.3851 31.455 47.0023C31.5312 46.6195 31.7192 46.2679 31.9952 45.9919C32.2712 45.7159 32.6228 45.5279 33.0057 45.4518C33.3885 45.3756 33.7853 45.4147 34.1459 45.5641C34.5065 45.7134 34.8148 45.9664 35.0316 46.2909C35.2485 46.6154 35.3642 46.997 35.3642 47.3873C35.3637 47.9106 35.1557 48.4122 34.7856 48.7822C34.4156 49.1522 33.9139 49.3603 33.3907 49.3608ZM45.8951 47.3887C45.8951 42.6523 50.9673 42.6523 50.9673 42.6523C56.3328 42.6523 56.1649 47.3887 56.1575 47.3887C56.1575 52.0623 50.9673 52.0623 50.9673 52.0623C45.7328 52.0623 45.8951 47.3887 45.8951 47.3887ZM49.8703 49.0305C50.1951 49.2471 50.5769 49.3625 50.9673 49.3622H50.9765C51.498 49.3592 51.9971 49.15 52.3649 48.7802C52.7326 48.4105 52.939 47.9102 52.939 47.3887C52.939 46.9983 52.8232 46.6167 52.6063 46.2921C52.3893 45.9675 52.081 45.7146 51.7203 45.5653C51.3595 45.4159 50.9626 45.377 50.5797 45.4533C50.1969 45.5296 49.8452 45.7177 49.5693 45.9939C49.2934 46.2701 49.1055 46.6219 49.0296 47.0048C48.9536 47.3877 48.993 47.7846 49.1427 48.1452C49.2923 48.5058 49.5455 48.8138 49.8703 49.0305ZM64.6311 42.9612V43.8188C64.3119 43.4476 63.9154 43.1507 63.4693 42.949C63.0232 42.7473 62.5384 42.6457 62.0489 42.6513C62.0489 42.6513 57.7071 42.4669 57.7071 47.3544C57.7071 47.3544 57.6591 51.9082 61.9308 51.9082C61.9308 51.9082 63.672 51.9801 64.6255 50.7389V51.4563C64.6255 51.4563 64.8469 53.6954 62.6741 53.6954H61.9364V56.414H63.1371C63.1371 56.414 67.6227 56.4619 67.6227 51.6186V42.9501L64.6311 42.9612ZM62.7959 49.3611C62.4055 49.3611 62.024 49.2454 61.6994 49.0285C61.3749 48.8117 61.1219 48.5035 60.9725 48.1429C60.8232 47.7822 60.7841 47.3854 60.8602 47.0026C60.9364 46.6198 61.1243 46.2682 61.4003 45.9922C61.6764 45.7162 62.028 45.5282 62.4108 45.4521C62.7937 45.3759 63.1905 45.415 63.5511 45.5644C63.9117 45.7138 64.2199 45.9667 64.4368 46.2912C64.6537 46.6158 64.7694 46.9973 64.7694 47.3876C64.7694 47.911 64.5615 48.413 64.1914 48.7831C63.8213 49.1532 63.3193 49.3611 62.7959 49.3611Z" fill="#222222"/>
</g>
<defs>
<clipPath id="clip0_2952_120996">
<rect width="50.1429" height="42.1807" fill="white" transform="translate(22.9258 28.7969)"/>
</clipPath>
</defs>
</svg>
