<svg width="96" height="96" viewBox="0 0 96 96" fill="none" xmlns="http://www.w3.org/2000/svg">
<rect width="96" height="96" rx="48" fill="#EEEEEE"/>
<g clip-path="url(#clip0_2952_121000)">
<path d="M57.8108 24.7871H38.1848C34.631 24.7871 31.2227 26.1989 28.7098 28.7118C26.1969 31.2247 24.7852 34.6329 24.7852 38.1867V57.8128C24.7847 59.5727 25.131 61.3155 25.8042 62.9416C26.4774 64.5677 27.4643 66.0452 28.7087 67.2899C29.953 68.5345 31.4303 69.5218 33.0562 70.1954C34.6821 70.869 36.4248 71.2157 38.1848 71.2157H57.8108C59.5709 71.2157 61.3138 70.869 62.9399 70.1954C64.566 69.5219 66.0435 68.5346 67.2881 67.2901C68.5327 66.0455 69.5199 64.568 70.1935 62.9418C70.8671 61.3157 71.2137 59.5729 71.2137 57.8128V38.1867C71.2137 36.4268 70.867 34.6841 70.1934 33.0582C69.5198 31.4322 68.5325 29.9549 67.2879 28.7106C66.0433 27.4663 64.5657 26.4794 62.9396 25.8062C61.3135 25.133 59.5708 24.7867 57.8108 24.7871ZM66.9368 58.158C66.9372 59.3263 66.7074 60.4833 66.2605 61.5627C65.8136 62.6422 65.1583 63.6231 64.3322 64.4492C63.5061 65.2754 62.5252 65.9306 61.4457 66.3775C60.3663 66.8244 59.2093 67.0542 58.0409 67.0538H37.9547C36.7863 67.0542 35.6293 66.8244 34.5499 66.3775C33.4704 65.9306 32.4895 65.2754 31.6634 64.4492C30.8373 63.6231 30.182 62.6422 29.7351 61.5627C29.2882 60.4833 29.0584 59.3263 29.0588 58.158V38.075C29.0584 36.9066 29.2882 35.7496 29.7351 34.6702C30.182 33.5907 30.8373 32.6098 31.6634 31.7837C32.4895 30.9576 33.4704 30.3023 34.5499 29.8554C35.6293 29.4085 36.7863 29.1787 37.9547 29.1791H58.0409C59.2093 29.1787 60.3663 29.4085 61.4457 29.8554C62.5252 30.3023 63.5061 30.9576 64.3322 31.7837C65.1583 32.6098 65.8136 33.5907 66.2605 34.6702C66.7074 35.7496 66.9372 36.9066 66.9368 38.075V58.158Z" fill="#222222"/>
<path d="M48.0016 36.0684C45.6191 36.0684 43.29 36.7747 41.3089 38.0982C39.3277 39.4217 37.7834 41.3028 36.8712 43.5038C35.959 45.7048 35.7198 48.1269 36.1839 50.4638C36.648 52.8007 37.7945 54.9475 39.4786 56.6329C41.1626 58.3183 43.3085 59.4666 45.645 59.9326C47.9816 60.3986 50.4038 60.1614 52.6055 59.251C54.8073 58.3406 56.6897 56.7979 58.0148 54.8178C59.3399 52.8377 60.0481 50.5092 60.0501 48.1267C60.0514 46.5436 59.7407 44.9758 59.1358 43.5129C58.5309 42.05 57.6436 40.7206 56.5247 39.6008C55.4057 38.4809 54.0771 37.5925 52.6146 36.9864C51.1522 36.3803 49.5847 36.0684 48.0016 36.0684ZM48.0016 55.9245C46.4562 55.9245 44.9455 55.4661 43.6607 54.6072C42.3759 53.7484 41.3748 52.5277 40.784 51.0996C40.1932 49.6716 40.0392 48.1004 40.3417 46.5849C40.6442 45.0693 41.3894 43.6776 42.4831 42.5857C43.5768 41.4939 44.9698 40.751 46.4858 40.4511C48.0019 40.1512 49.5728 40.3077 50.9999 40.9009C52.4269 41.4942 53.6459 42.4974 54.5026 43.7836C55.3593 45.0698 55.8152 46.5813 55.8126 48.1267C55.8091 50.196 54.9846 52.1794 53.5202 53.6414C52.0557 55.1034 50.0709 55.9245 48.0016 55.9245Z" fill="#222222"/>
<path d="M60.4481 38.4196C61.9986 38.4196 63.2556 37.1627 63.2556 35.6122C63.2556 34.0616 61.9986 32.8047 60.4481 32.8047C58.8976 32.8047 57.6406 34.0616 57.6406 35.6122C57.6406 37.1627 58.8976 38.4196 60.4481 38.4196Z" fill="#222222"/>
</g>
<defs>
<clipPath id="clip0_2952_121000">
<rect width="46.4286" height="46.4286" fill="white" transform="translate(24.7852 24.7871)"/>
</clipPath>
</defs>
</svg>
