<svg width="96" height="96" viewBox="0 0 96 96" fill="none" xmlns="http://www.w3.org/2000/svg">
<rect width="96" height="96" rx="48" fill="#FAE300"/>
<path fill-rule="evenodd" clip-rule="evenodd" d="M47.9946 26.3223C34.1457 26.3223 22.9258 35.1963 22.9258 46.1433C22.9258 53.2691 27.6824 59.5128 34.8211 63.0068C34.6561 63.6291 34.4042 64.5721 34.1285 65.6044L34.1268 65.6108L34.1266 65.6116L34.1263 65.6126L34.1262 65.6128L34.1261 65.6133C33.5345 67.8283 32.834 70.4511 32.6455 71.199C32.3065 72.5628 33.1469 72.5446 33.6963 72.177C34.1275 71.89 40.5675 67.5127 43.3458 65.6228C44.8866 65.8512 46.4422 65.9658 47.9998 65.9657C61.8461 65.9657 73.0686 57.0891 73.0686 46.1433C73.0686 35.1976 61.8422 26.3223 47.9998 26.3223H47.9946ZM37.9035 40.3066H30.5712C30.2405 40.3066 29.9233 40.438 29.6894 40.6719C29.4556 40.9057 29.3242 41.2229 29.3242 41.5536C29.3242 41.8843 29.4556 42.2014 29.6894 42.4353C29.9233 42.6691 30.2405 42.8005 30.5712 42.8005H32.9547V51.5836C32.9553 51.906 33.0836 52.2149 33.3114 52.443C33.5392 52.671 33.8481 52.7996 34.1704 52.8007H34.438C34.7599 52.7986 35.068 52.6697 35.2954 52.4418C35.5228 52.2139 35.6511 51.9055 35.6525 51.5836V42.8005H37.9035C38.2342 42.8005 38.5514 42.6691 38.7852 42.4353C39.019 42.2014 39.1504 41.8843 39.1504 41.5536C39.1504 41.2229 39.019 40.9057 38.7852 40.6719C38.5514 40.438 38.2342 40.3066 37.9035 40.3066ZM52.1125 50.4554H55.5221C55.8157 50.4653 56.094 50.5889 56.2981 50.8001C56.5023 51.0113 56.6164 51.2936 56.6164 51.5873C56.6164 51.8811 56.5023 52.1634 56.2981 52.3746C56.094 52.5858 55.8157 52.7094 55.5221 52.7193H50.5382C50.3896 52.7193 50.2423 52.69 50.105 52.6331C49.9677 52.5761 49.8429 52.4927 49.7378 52.3875C49.6327 52.2823 49.5494 52.1574 49.4926 52.02C49.4359 51.8826 49.4067 51.7354 49.4069 51.5867C49.4072 51.5143 49.4141 51.4422 49.4277 51.3711C49.4148 51.2995 49.4078 51.2269 49.4069 51.1542V41.4852C49.4013 41.304 49.4321 41.1236 49.4976 40.9545C49.563 40.7855 49.6618 40.6313 49.788 40.5012C49.9141 40.3711 50.0652 40.2676 50.2321 40.1969C50.399 40.1263 50.5784 40.0898 50.7597 40.0898C50.941 40.0898 51.1204 40.1263 51.2873 40.1969C51.4542 40.2676 51.6053 40.3711 51.7315 40.5012C51.8576 40.6313 51.9564 40.7855 52.0218 40.9545C52.0873 41.1236 52.1181 41.304 52.1125 41.4852V50.4554ZM66.4226 50.8671L62.6233 45.8768L66.055 42.4425C66.1659 42.3316 66.2538 42.2 66.3138 42.0551C66.3738 41.9103 66.4047 41.755 66.4047 41.5982C66.4047 41.4414 66.3738 41.2862 66.3138 41.1413C66.2538 40.9964 66.1659 40.8648 66.055 40.7539C65.9441 40.6431 65.8125 40.5551 65.6676 40.4951C65.5228 40.4351 65.3675 40.4042 65.2107 40.4042C65.0539 40.4042 64.8987 40.4351 64.7538 40.4951C64.6089 40.5551 64.4773 40.6431 64.3664 40.7539L60.1164 45.0039V41.4852C60.122 41.304 60.0912 41.1236 60.0257 40.9545C59.9603 40.7855 59.8615 40.6313 59.7354 40.5012C59.6092 40.3711 59.4582 40.2676 59.2912 40.1969C59.1243 40.1263 58.9449 40.0898 58.7636 40.0898C58.5823 40.0898 58.4029 40.1263 58.236 40.1969C58.0691 40.2676 57.918 40.3711 57.7919 40.5012C57.6657 40.6313 57.5669 40.7855 57.5015 40.9545C57.436 41.1236 57.4052 41.304 57.4108 41.4852V51.4516C57.4217 51.8031 57.569 52.1366 57.8215 52.3814C58.074 52.6262 58.4119 52.7631 58.7636 52.7631C59.1153 52.7631 59.4532 52.6262 59.7057 52.3814C59.9582 52.1366 60.1055 51.8031 60.1164 51.4516V48.3758L60.8893 47.6043L64.482 52.3206C64.678 52.5681 64.9629 52.7294 65.2761 52.7699C65.5892 52.8103 65.9058 52.7269 66.1582 52.5373C66.4107 52.3477 66.5791 52.0669 66.6275 51.7549C66.676 51.4429 66.6005 51.1243 66.4174 50.8671H66.4226ZM44.7436 41.1829L48.3975 51.1844L48.3962 51.1896C48.4524 51.3405 48.478 51.5011 48.4715 51.662C48.4649 51.8229 48.4264 51.9809 48.3581 52.1267C48.2898 52.2725 48.1931 52.4033 48.0737 52.5113C47.9543 52.6194 47.8146 52.7026 47.6627 52.756C47.5107 52.8094 47.3497 52.832 47.1889 52.8225C47.0282 52.813 46.871 52.7715 46.7264 52.7006C46.5819 52.6296 46.4529 52.5305 46.3471 52.4091C46.2413 52.2877 46.1607 52.1465 46.1101 51.9936L45.4892 50.2128H40.4884L39.8663 51.9884C39.8157 52.1413 39.7351 52.2825 39.6293 52.4039C39.5235 52.5253 39.3945 52.6244 39.25 52.6954C39.1054 52.7663 38.9482 52.8078 38.7874 52.8173C38.6267 52.8268 38.4656 52.8042 38.3137 52.7508C38.1618 52.6974 38.022 52.6142 37.9026 52.5062C37.7832 52.3981 37.6866 52.2673 37.6183 52.1215C37.55 51.9757 37.5114 51.8177 37.5049 51.6568C37.4984 51.4959 37.524 51.3353 37.5802 51.1844L41.173 41.5427C41.1937 41.4843 41.2184 41.431 41.2431 41.3778C41.3899 40.6647 42.1277 40.1191 43.02 40.1191C43.8227 40.1191 44.4969 40.5634 44.732 41.1725L44.7436 41.1829ZM42.9629 43.1534L41.2821 47.9489L44.6956 47.9437L43.0161 43.1534H42.9629Z" fill="#391B1B"/>
</svg>
