<svg width="96" height="96" viewBox="0 0 96 96" fill="none" xmlns="http://www.w3.org/2000/svg">
<rect width="96" height="96" rx="48" fill="#FAE300"/>
<path fill-rule="evenodd" clip-rule="evenodd" d="M47.9994 66.7272C60.8203 66.7272 71.2137 57.1304 71.2137 45.2923C71.2137 33.4541 60.8203 23.8574 47.9994 23.8574C35.1785 23.8574 24.7852 33.4541 24.7852 45.2923C24.7852 52.0451 28.167 58.0686 33.4522 61.9975L33.5918 72.2577C33.5969 72.6335 34.0232 72.8478 34.3279 72.6277L43.1471 66.2582C44.712 66.5655 46.3353 66.7272 47.9994 66.7272ZM35.4615 34.6914V39.5665H32.6758V44.5189H35.4615V50.7095C35.4615 53.8667 38.3246 55.5846 40.3365 55.5846H45.3663V50.6321H40.9555V44.5189H45.3663V39.5665H40.9555V34.6914H35.4615ZM46.9922 39.5684H52.5636L55.5041 48.8542H56.0458L58.9089 39.5684H64.4029L59.2958 55.5865H52.1767L46.9922 39.5684Z" fill="#1E1E1E"/>
</svg>
