<svg width="96" height="96" viewBox="0 0 96 96" fill="none" xmlns="http://www.w3.org/2000/svg">
<rect width="96" height="96" rx="48" fill="#FF0000"/>
<path fill-rule="evenodd" clip-rule="evenodd" d="M69.5678 33.6839C70.3203 34.4329 70.8625 35.3667 71.1399 36.3916C72.1252 40.1541 72.1451 48.009 72.1451 48.009C72.1451 48.009 72.1451 55.8639 71.1399 59.6265C70.86 60.6484 70.3168 61.5789 69.5644 62.325C68.8121 63.0711 67.8771 63.6065 66.8528 63.8778C63.0903 64.8869 47.9923 64.8869 47.9923 64.8869C47.9923 64.8869 32.8983 64.8869 29.1357 63.8937C28.1129 63.6187 27.1803 63.0798 26.4314 62.3308C25.6824 61.5819 25.1435 60.6493 24.8686 59.6265C23.8594 55.8639 23.8594 48.009 23.8594 48.009C23.8594 48.009 23.8594 40.1541 24.8686 36.3916C25.1435 35.3687 25.6824 34.4361 26.4314 33.6872C27.1803 32.9383 28.1129 32.3994 29.1357 32.1244C32.8943 31.1152 47.9923 31.1152 47.9923 31.1152C47.9923 31.1152 63.0863 31.1152 66.8528 32.1244C67.879 32.3971 68.8153 32.9349 69.5678 33.6839ZM55.7112 48.0105L43.168 55.2496V40.7715L55.7112 48.0105Z" fill="white"/>
</svg>
