<svg width="96" height="96" viewBox="0 0 96 96" fill="none" xmlns="http://www.w3.org/2000/svg">
<rect width="96" height="96" rx="48" fill="#00C73C"/>
<path fill-rule="evenodd" clip-rule="evenodd" d="M25.582 53.0809C25.5815 57.3526 27.0845 61.4883 29.8277 64.7629C32.5709 68.0375 36.3792 70.2421 40.5849 70.9902C44.7907 71.7383 49.1256 70.9821 52.8297 68.8543C56.5338 66.7265 59.3708 63.3628 60.8433 59.3528H63.5852C64.7333 59.4192 65.8829 59.2503 66.9635 58.8566C68.0441 58.4629 69.0329 57.8527 69.8693 57.0632C70.7057 56.2738 71.372 55.3219 71.8274 54.2658C72.2828 53.2098 72.5177 52.0718 72.5177 50.9217C72.5177 49.7716 72.2828 48.6337 71.8274 47.5776C71.372 46.5215 70.7057 45.5696 69.8693 44.7802C69.0329 43.9908 68.0441 43.3805 66.9635 42.9868C65.8829 42.5931 64.7333 42.4243 63.5852 42.4906H25.582V53.0893V53.0809ZM61.7892 55.5215C61.8977 54.7125 61.9523 53.8971 61.9524 53.0809V46.305H63.5852C64.8073 46.305 65.9795 46.7905 66.8437 47.6548C67.7079 48.519 68.1934 49.6911 68.1934 50.9133C68.1934 52.1355 67.7079 53.3076 66.8437 54.1718C65.9795 55.036 64.8073 55.5215 63.5852 55.5215H61.7892Z" fill="white"/>
<path fill-rule="evenodd" clip-rule="evenodd" d="M33.1797 36.8529H46.858C50.0734 36.8522 53.1568 35.5746 55.4304 33.301C57.704 31.0273 58.9817 27.9439 58.9824 24.7285H45.2844C42.072 24.733 38.9927 26.0124 36.7231 28.2858C34.4534 30.5592 33.1789 33.6405 33.1797 36.8529Z" fill="white"/>
</svg>
