<svg width="96" height="96" viewBox="0 0 96 96" fill="none" xmlns="http://www.w3.org/2000/svg">
<rect width="96" height="96" rx="48" fill="#00C73C"/>
<g clip-path="url(#clip0_2952_121007)">
<path d="M54.1674 62.1803L49.0712 61.8612V61.7266L48.0107 61.8114L46.9317 61.7432V61.8778L41.8281 62.1803L46.6956 70.1111C46.7341 70.176 46.7779 70.2377 46.8265 70.2955C46.9442 70.5013 47.114 70.6724 47.3188 70.7918C47.5236 70.9111 47.7562 70.9745 47.9933 70.9754C48.2303 70.9763 48.4634 70.9148 48.6692 70.7971C48.8749 70.6794 49.046 70.5096 49.1653 70.3047C49.2184 70.2459 49.2642 70.1808 49.3018 70.1111L54.1674 62.1803Z" fill="white"/>
<path fill-rule="evenodd" clip-rule="evenodd" d="M72.4708 58.6369C72.8677 57.6735 73.0708 56.6413 73.0687 55.5994L73.0723 36.7462C73.0745 35.7043 72.8714 34.6721 72.4745 33.7087C72.0776 32.7453 71.4947 31.8695 70.7592 31.1315C70.0237 30.3934 69.1499 29.8075 68.1879 29.4073C67.2258 29.007 66.1943 28.8003 65.1523 28.7988H30.8458C29.8038 28.8003 28.7723 29.007 27.8103 29.4073C26.8482 29.8075 25.9745 30.3934 25.239 31.1315C24.5035 31.8695 23.9206 32.7453 23.5237 33.7087C23.1268 34.6721 22.9236 35.7043 22.9258 36.7462V55.5994C22.9236 56.641 23.1267 57.6729 23.5233 58.636C23.92 59.5992 24.5025 60.4748 25.2377 61.2128C25.9728 61.9508 26.8461 62.5368 27.8077 62.9372C28.7693 63.3377 29.8004 63.5448 30.8421 63.5467H65.1486C66.1906 63.5453 67.2221 63.3385 68.1842 62.9383C69.1462 62.538 70.02 61.9521 70.7555 61.2141C71.491 60.476 72.0739 59.6003 72.4708 58.6369ZM39.375 38.666V41.617C39.375 41.617 40.7768 41.5543 40.7768 44.1641V51.7352H43.7279V43.4706C43.7279 43.4706 43.8607 38.666 39.375 38.666ZM34.0637 42.6124C33.0759 42.6848 32.1482 43.1142 31.4538 43.8204V38.9531H28.3828V51.7438H31.4852V50.746C31.4852 50.746 32.2229 52.0684 34.0674 52.0684C34.0674 52.0684 38.3926 51.908 38.3926 47.2952L38.3918 47.2842C38.3774 47.0348 38.1205 42.6124 34.0637 42.6124ZM33.3868 49.3627C32.9964 49.3627 32.6149 49.247 32.2903 49.0302C31.9658 48.8133 31.7128 48.5051 31.5634 48.1445C31.4141 47.7839 31.375 47.3871 31.4511 47.0043C31.5273 46.6214 31.7153 46.2698 31.9913 45.9938C32.2673 45.7178 32.6189 45.5299 33.0017 45.4537C33.3846 45.3776 33.7814 45.4166 34.142 45.566C34.5026 45.7154 34.8109 45.9683 35.0277 46.2929C35.2446 46.6174 35.3603 46.999 35.3603 47.3893C35.3598 47.9125 35.1517 48.4142 34.7817 48.7842C34.4117 49.1542 33.91 49.3623 33.3868 49.3627ZM45.8912 47.3887C45.8912 42.6523 50.9634 42.6523 50.9634 42.6523C56.3288 42.6523 56.161 47.3887 56.1536 47.3887C56.1536 52.0623 50.9634 52.0623 50.9634 52.0623C45.7289 52.0623 45.8912 47.3887 45.8912 47.3887ZM49.8664 49.0305C50.1912 49.2471 50.573 49.3625 50.9634 49.3622H50.9726C51.4941 49.3592 51.9932 49.15 52.361 48.7802C52.7287 48.4105 52.9351 47.9102 52.9351 47.3887C52.9351 46.9983 52.8193 46.6167 52.6024 46.2921C52.3854 45.9675 52.0771 45.7146 51.7164 45.5653C51.3556 45.4159 50.9587 45.377 50.5758 45.4533C50.193 45.5296 49.8413 45.7177 49.5654 45.9939C49.2894 46.2701 49.1016 46.6219 49.0257 47.0048C48.9497 47.3877 48.9891 47.7846 49.1387 48.1452C49.2884 48.5058 49.5416 48.8138 49.8664 49.0305ZM64.6311 42.9612V43.8188C64.3119 43.4476 63.9154 43.1507 63.4693 42.949C63.0232 42.7473 62.5384 42.6457 62.0489 42.6513C62.0489 42.6513 57.7071 42.4669 57.7071 47.3544C57.7071 47.3544 57.6591 51.9082 61.9308 51.9082C61.9308 51.9082 63.672 51.9801 64.6255 50.7389V51.4563C64.6255 51.4563 64.8469 53.6954 62.6741 53.6954H61.9363V56.414H63.1371C63.1371 56.414 67.6227 56.4619 67.6227 51.6186V42.9501L64.6311 42.9612ZM62.7959 49.3611C62.4055 49.3611 62.024 49.2454 61.6994 49.0285C61.3749 48.8117 61.1219 48.5035 60.9725 48.1429C60.8232 47.7822 60.7841 47.3854 60.8602 47.0026C60.9364 46.6198 61.1243 46.2682 61.4003 45.9922C61.6764 45.7162 62.028 45.5282 62.4108 45.4521C62.7937 45.3759 63.1905 45.415 63.5511 45.5644C63.9117 45.7138 64.2199 45.9667 64.4368 46.2912C64.6537 46.6158 64.7694 46.9973 64.7694 47.3876C64.7694 47.911 64.5615 48.413 64.1914 48.7831C63.8213 49.1532 63.3193 49.3611 62.7959 49.3611Z" fill="white"/>
</g>
<defs>
<clipPath id="clip0_2952_121007">
<rect width="50.1429" height="42.1807" fill="white" transform="translate(22.9297 28.7949)"/>
</clipPath>
</defs>
</svg>
