<svg width="96" height="96" viewBox="0 0 96 96" fill="none" xmlns="http://www.w3.org/2000/svg">
<rect width="96" height="96" rx="48" fill="#00C73C"/>
<path d="M43.4595 30.8359H31.1758V64.8739H43.4595V30.8359Z" fill="url(#paint0_linear_2952_121008)"/>
<path fill-rule="evenodd" clip-rule="evenodd" d="M32.0463 27.6116C33.7771 24.7627 37.4897 23.8564 40.3386 25.5873L68.3796 42.624C71.2284 44.3548 72.1347 48.0674 70.4039 50.9163C68.673 53.7651 64.9604 54.6714 62.1116 52.9406L34.0706 35.9039C31.2217 34.173 30.3154 30.4604 32.0463 27.6116Z" fill="white"/>
<path fill-rule="evenodd" clip-rule="evenodd" d="M32.0666 68.0202C30.3286 65.1757 31.2255 61.4608 34.07 59.7228L61.9636 42.6796C64.8081 40.9416 68.5229 41.8386 70.2609 44.683C71.9989 47.5275 71.102 51.2424 68.2575 52.9804L40.3639 70.0236C37.5194 71.7616 33.8046 70.8646 32.0666 68.0202Z" fill="white"/>
<defs>
<linearGradient id="paint0_linear_2952_121008" x1="37.3177" y1="30.8359" x2="37.3177" y2="57.4495" gradientUnits="userSpaceOnUse">
<stop stop-color="white" stop-opacity="0.42"/>
<stop offset="0.562701" stop-color="white" stop-opacity="0.798345"/>
<stop offset="1" stop-color="white"/>
</linearGradient>
</defs>
</svg>
