<svg width="96" height="96" viewBox="0 0 96 96" fill="none" xmlns="http://www.w3.org/2000/svg">
<path fill-rule="evenodd" clip-rule="evenodd" d="M48 28C49.6569 28 51 29.3431 51 31V33.2604C54.1372 33.9788 56.852 36.1457 57.7256 39.2876C57.9089 39.9384 58 40.6096 58 41.287C58 42.9438 56.6569 44.287 55 44.287C53.3431 44.287 52 42.9438 52 41.287C52 41.1488 51.9816 41.0249 51.9499 40.9128L51.9454 40.8967C51.7288 40.1148 50.6172 39 48.701 39H48H47.301C44.9771 39 44 40.5067 44 41.287C44 41.7693 44.2694 42.4034 45.048 42.9239L53.9601 47.8836C54.0125 47.9128 54.0639 47.9435 54.1145 47.9757C56.319 49.3817 58 51.7841 58 54.713C58 58.9069 54.7472 61.8614 51 62.7334V65C51 66.6569 49.6569 68 48 68C46.3431 68 45 66.6569 45 65V62.7332C41.2524 61.8609 38 58.9068 38 54.713C38 53.0562 39.3431 51.713 41 51.713C42.6569 51.713 44 53.0562 44 54.713C44 55.4933 44.9771 57 47.301 57H48H48.701C51.0222 57 52 55.4939 52 54.713C52 54.2307 51.7306 53.5966 50.952 53.0761L42.0399 48.1164C41.9875 48.0872 41.9361 48.0565 41.8855 48.0243C39.681 46.6183 38 44.2159 38 41.287C38 37.0932 41.2524 34.1391 45 33.2668V31C45 29.3431 46.3431 28 48 28Z" fill="#222222"/>
<path d="M85 48C85 27.5655 68.4345 11 48 11C27.5655 11 11 27.5655 11 48" stroke="#222222" stroke-width="6" stroke-linecap="round" stroke-linejoin="round"/>
<path d="M85 47C85 67.4345 68.4345 84 48 84C27.5655 84 11 67.4345 11 47" stroke="#222222" stroke-width="6" stroke-linecap="round" stroke-linejoin="round"/>
</svg>
