<svg width="96" height="97" viewBox="0 0 96 97" fill="none" xmlns="http://www.w3.org/2000/svg">
<path fill-rule="evenodd" clip-rule="evenodd" d="M19 10.9263C14.0294 10.9263 10 14.9557 10 19.9263V77.8811C10 82.8492 14.0256 86.8776 18.9936 86.8811L76.9517 86.922C81.9224 86.9255 85.9547 82.8987 85.958 77.9279L85.9961 19.9322C85.9993 14.9593 81.9689 10.9263 76.9961 10.9263H19ZM16 19.9263C16 18.2694 17.3431 16.9263 19 16.9263H76.9961C78.6537 16.9263 79.9971 18.2706 79.9961 19.9282L79.958 77.924C79.9569 79.5809 78.6128 80.9232 76.9559 80.922L18.9979 80.8811C17.3419 80.88 16 79.5372 16 77.8811V19.9263ZM35 63.9263C35 62.2694 33.6569 60.9263 32 60.9263C30.3431 60.9263 29 62.2694 29 63.9263V71.9263C29 73.5831 30.3431 74.9263 32 74.9263C33.6569 74.9263 35 73.5831 35 71.9263V63.9263ZM48 56.9263C49.6569 56.9263 51 58.2694 51 59.9263V71.9263C51 73.5831 49.6569 74.9263 48 74.9263C46.3431 74.9263 45 73.5831 45 71.9263V59.9263C45 58.2694 46.3431 56.9263 48 56.9263ZM67 55.9263C67 54.2694 65.6569 52.9263 64 52.9263C62.3431 52.9263 61 54.2694 61 55.9263V71.9263C61 73.5831 62.3431 74.9263 64 74.9263C65.6569 74.9263 67 73.5831 67 71.9263V55.9263ZM66 36.1054V38.9263C66 40.5831 67.3431 41.9263 69 41.9263C70.6569 41.9263 72 40.5831 72 38.9263V28.9263C72 27.2694 70.6569 25.9263 69 25.9263H59C57.3431 25.9263 56 27.2694 56 28.9263C56 30.5831 57.3431 31.9263 59 31.9263H61.6921L50.2646 43.1206L40.9986 33.4764C40.4463 32.9015 39.6879 32.5701 38.8909 32.5554C38.0938 32.5406 37.3237 32.8437 36.7504 33.3977L22.9152 46.7691C21.7238 47.9205 21.6914 49.8197 22.8428 51.0111C23.9943 52.2025 25.8935 52.2349 27.0849 51.0834L38.7566 39.803L48.0367 49.4619C48.5914 50.0393 49.354 50.3709 50.1545 50.3831C50.9551 50.3952 51.7274 50.0868 52.2993 49.5265L66 36.1054Z" fill="#222222"/>
</svg>
