<svg width="96" height="97" viewBox="0 0 96 97" fill="none" xmlns="http://www.w3.org/2000/svg">
<path fill-rule="evenodd" clip-rule="evenodd" d="M18.0001 15.9263C18.0001 14.2694 16.657 12.9263 15.0001 12.9263C13.3433 12.9263 12.0001 14.2694 12.0001 15.9263V75.9263C12.0001 80.8968 16.0296 84.9263 21.0001 84.9263H26.0001H42.0001H57.0001H73.0001H81.0001C82.657 84.9263 84.0001 83.5831 84.0001 81.9263C84.0001 80.2694 82.657 78.9263 81.0001 78.9263H76.0001V43.9263C76.0001 40.0603 72.8661 36.9263 69.0001 36.9263H61.0001C60.6606 36.9263 60.3267 36.9504 60.0001 36.9972V28.9263C60.0001 25.0603 56.8661 21.9263 53.0001 21.9263H46.0001C42.1341 21.9263 39.0001 25.0603 39.0001 28.9263V50.9972C38.6735 50.9504 38.3396 50.9263 38.0001 50.9263H30.0001C26.1341 50.9263 23.0001 54.0603 23.0001 57.9263V78.9263H21.0001C19.3433 78.9263 18.0001 77.5831 18.0001 75.9263V15.9263ZM60.0001 43.9263V78.9263H70.0001V43.9263C70.0001 43.374 69.5524 42.9263 69.0001 42.9263H61.0001C60.4478 42.9263 60.0001 43.374 60.0001 43.9263ZM54.0001 43.9263V28.9263C54.0001 28.374 53.5524 27.9263 53.0001 27.9263H46.0001C45.4478 27.9263 45.0001 28.374 45.0001 28.9263V57.9263V78.9263H54.0001V43.9263ZM39.0001 57.9263V78.9263H29.0001V57.9263C29.0001 57.374 29.4478 56.9263 30.0001 56.9263H38.0001C38.5524 56.9263 39.0001 57.374 39.0001 57.9263Z" fill="#222222"/>
</svg>
