<svg width="96" height="96" viewBox="0 0 96 96" fill="none" xmlns="http://www.w3.org/2000/svg">
<path fill-rule="evenodd" clip-rule="evenodd" d="M31 11C31 9.34315 29.6569 8 28 8C26.3431 8 25 9.34315 25 11V16H17C12.0294 16 8 20.0294 8 25V37V75C8 79.9706 12.0294 84 17 84H79C83.9706 84 88 79.9706 88 75V37V25C88 20.0294 83.9706 16 79 16H71V11C71 9.34315 69.6569 8 68 8C66.3431 8 65 9.34315 65 11V16H31V11ZM82 34V25C82 23.3431 80.6569 22 79 22H71V27C71 28.6569 69.6569 30 68 30C66.3431 30 65 28.6569 65 27V22H31V27C31 28.6569 29.6569 30 28 30C26.3431 30 25 28.6569 25 27V22H17C15.3431 22 14 23.3431 14 25V34H82ZM14 40H82V75C82 76.6569 80.6569 78 79 78H17C15.3431 78 14 76.6569 14 75V40Z" fill="#222222"/>
<path d="M66.5 59C66.5 60.925 64.925 62.5 63 62.5C61.075 62.5 59.5 60.925 59.5 59C59.5 57.075 61.075 55.5 63 55.5C64.925 55.5 66.5 57.075 66.5 59Z" fill="#222222"/>
<path d="M51.5 59C51.5 60.925 49.925 62.5 48 62.5C46.075 62.5 44.5 60.925 44.5 59C44.5 57.075 46.075 55.5 48 55.5C49.925 55.5 51.5 57.075 51.5 59Z" fill="#222222"/>
<path d="M36.5 59C36.5 60.925 34.925 62.5 33 62.5C31.075 62.5 29.5 60.925 29.5 59C29.5 57.075 31.075 55.5 33 55.5C34.925 55.5 36.5 57.075 36.5 59Z" fill="#222222"/>
</svg>
