<svg width="96" height="96" viewBox="0 0 96 96" fill="none" xmlns="http://www.w3.org/2000/svg">
<circle cx="48" cy="51" r="34" stroke="#222222" stroke-width="6" stroke-linecap="round" stroke-linejoin="round"/>
<path d="M64.0547 20C66.252 17.545 69.4451 16 72.9991 16C79.6265 16 84.9991 21.3726 84.9991 28C84.9991 32.0151 83.0273 35.5695 79.9991 37.7479" stroke="#222222" stroke-width="6" stroke-linecap="round" stroke-linejoin="round"/>
<path d="M31.9453 20C29.748 17.545 26.5549 16 23.0009 16C16.3735 16 11.0009 21.3726 11.0009 28C11.0009 32.0151 12.9727 35.5695 16.0009 37.7479" stroke="#222222" stroke-width="6" stroke-linecap="round" stroke-linejoin="round"/>
<path d="M48 11V16.5" stroke="#222222" stroke-width="6" stroke-linecap="round"/>
<path d="M22.5 85L26 79" stroke="#222222" stroke-width="6" stroke-linecap="round"/>
<path d="M73.5 85L70 79" stroke="#222222" stroke-width="6" stroke-linecap="round"/>
<path d="M48 32V51.1716C48 51.702 48.2107 52.2107 48.5858 52.5858L57.5 61.5" stroke="#222222" stroke-width="6" stroke-linecap="round"/>
</svg>
