<svg width="96" height="96" viewBox="0 0 96 96" fill="none" xmlns="http://www.w3.org/2000/svg">
<path fill-rule="evenodd" clip-rule="evenodd" d="M47.9988 12.0015C33.2196 12.0015 21.2388 23.9822 21.2388 38.761C21.2388 45.4062 23.6571 51.4789 27.6655 56.1586L28.0082 56.5587L28.1941 57.0516L29.2 59.7185C29.3364 60.0802 29.4676 60.4437 29.5934 60.8088L66.3033 60.8088C66.4366 60.4294 66.5757 60.0518 66.7204 59.6762L67.682 57.1812L67.8711 56.6904L68.2159 56.2933C72.2937 51.5956 74.7587 45.4699 74.7587 38.761C74.7587 23.9822 62.7779 12.0015 47.9988 12.0015ZM64.7032 66.8103L31.1554 66.8103C31.3215 67.7372 31.4552 68.6704 31.556 69.6082C31.7913 71.7988 33.6402 73.4596 35.8434 73.4596H59.9921C62.1898 73.4596 64.037 71.8093 64.2838 69.6255C64.3904 68.6817 64.5303 67.7427 64.7032 66.8103ZM15.2373 38.761C15.2373 20.6676 29.9051 6 47.9988 6C66.0924 6 80.7602 20.6676 80.7602 38.761C80.7602 46.7762 77.8781 54.1254 73.0975 59.8181L72.3204 61.8345C71.2714 64.5562 70.5748 67.4009 70.2473 70.2993C69.7777 74.4559 66.8814 77.8037 63.0683 78.9939C60.9142 85.3509 55.0361 90.0001 48.0074 90.0001C41.0009 90.0001 35.1377 85.3801 32.967 79.0538C29.0403 77.9145 26.0454 74.4986 25.5888 70.2494C25.2796 67.3715 24.6062 64.5446 23.5847 61.8365L22.7602 59.6505C18.0632 53.9814 15.2373 46.6976 15.2373 38.761ZM48.0074 83.9986C44.6336 83.9986 41.5968 82.2236 39.7907 79.4611H56.2242C54.4181 82.2236 51.3813 83.9986 48.0074 83.9986Z" fill="#222222"/>
<path fill-rule="evenodd" clip-rule="evenodd" d="M37.0959 28.6876C38.6927 28.2456 40.3455 29.1816 40.7876 30.7784L42.7928 38.0212L45.1656 30.7394C45.5683 29.5035 46.7211 28.6675 48.021 28.6688C49.3209 28.6701 50.472 29.5084 50.8722 30.7451L53.2156 37.9862L55.2112 30.7784C55.6532 29.1816 57.3061 28.2456 58.9029 28.6876C60.4996 29.1297 61.4357 30.7826 60.9936 32.3793L60.5304 34.0525H61.4751C63.1319 34.0525 64.4751 35.3956 64.4751 37.0525C64.4751 38.7093 63.1319 40.0525 61.4751 40.0525H58.8693L56.3307 49.2216C55.9772 50.4983 54.8282 51.392 53.5038 51.4205C52.1794 51.4489 50.9931 50.6052 50.5852 49.3448L48.0082 41.382L45.4117 49.3506C45.0016 50.6091 43.8152 51.4501 42.4919 51.4204C41.1687 51.3907 40.0212 50.4972 39.6681 49.2216L37.1295 40.0526H34.5273C32.8705 40.0526 31.5273 38.7094 31.5273 37.0526C31.5273 35.3957 32.8705 34.0526 34.5273 34.0526H35.4684L35.0051 32.3793C34.563 30.7826 35.4991 29.1297 37.0959 28.6876Z" fill="#222222"/>
</svg>
