<svg width="96" height="96" viewBox="0 0 96 96" fill="none" xmlns="http://www.w3.org/2000/svg">
<path fill-rule="evenodd" clip-rule="evenodd" d="M17.0001 12C12.0296 12 8.00012 16.0294 8.00012 21V64C8.00012 68.9706 12.0296 73 17.0001 73H20.0001V75C20.0001 79.9706 24.0296 84 29.0001 84H79.0001C83.9707 84 88.0001 79.9706 88.0001 75V35C88.0001 30.0294 83.9707 26 79.0001 26H77.0001V21C77.0001 16.0294 72.9707 12 68.0001 12H17.0001ZM71.0001 28.9613L70.9999 29L71.0001 29.0387V64C71.0001 65.6569 69.657 67 68.0001 67H17.0001C15.3433 67 14.0001 65.6569 14.0001 64V21C14.0001 19.3431 15.3433 18 17.0001 18H68.0001C69.657 18 71.0001 19.3431 71.0001 21V28.9613ZM77.0001 32H79.0001C80.657 32 82.0001 33.3431 82.0001 35V75C82.0001 76.6569 80.657 78 79.0001 78H29.0001C27.3433 78 26.0001 76.6569 26.0001 75V73H68.0001C72.9707 73 77.0001 68.9706 77.0001 64V32ZM22.0001 31C22.0001 29.3431 23.3433 28 25.0001 28H55.0001C56.657 28 58.0001 29.3431 58.0001 31C58.0001 32.6569 56.657 34 55.0001 34H25.0001C23.3433 34 22.0001 32.6569 22.0001 31ZM25.0001 40C23.3433 40 22.0001 41.3431 22.0001 43C22.0001 44.6569 23.3433 46 25.0001 46H45.0001C46.657 46 48.0001 44.6569 48.0001 43C48.0001 41.3431 46.657 40 45.0001 40H25.0001Z" fill="#222222"/>
</svg>
