<svg width="96" height="96" viewBox="0 0 96 96" fill="none" xmlns="http://www.w3.org/2000/svg">
<path fill-rule="evenodd" clip-rule="evenodd" d="M68.0001 21.4483C68.0001 14.1892 59.8482 9.91683 53.8789 14.0474L27.4532 32.3332H15.0001C11.1341 32.3332 8.00012 35.4673 8.00012 39.3332V56.6666C8.00012 60.5326 11.1341 63.6666 15.0001 63.6666H27.4532L53.8789 81.9526C59.8481 86.0832 68.0001 81.8108 68.0001 74.5517V21.4483ZM57.293 18.9813C59.2828 17.6045 62.0001 19.0286 62.0001 21.4483V74.5517C62.0001 76.9714 59.2828 78.3955 57.293 77.0187L30.097 58.1996L29.3267 57.6666H28.39H15.0001C14.4478 57.6666 14.0001 57.2189 14.0001 56.6666V39.3332C14.0001 38.781 14.4478 38.3332 15.0001 38.3332H28.39H29.3267L30.097 37.8002L57.293 18.9813ZM76.9525 55.7223C75.6945 54.644 73.8006 54.7897 72.7224 56.0476C71.6441 57.3056 71.7898 59.1995 73.0477 60.2778L80.0477 66.2778C81.3057 67.3561 83.1996 67.2104 84.2779 65.9524C85.3562 64.6944 85.2105 62.8005 83.9525 61.7223L76.9525 55.7223ZM84.2779 29.0477C85.3562 30.3056 85.2105 32.1995 83.9525 33.2778L76.9525 39.2778C75.6945 40.3561 73.8006 40.2104 72.7224 38.9524C71.6441 37.6944 71.7898 35.8005 73.0477 34.7223L80.0477 28.7223C81.3057 27.644 83.1996 27.7897 84.2779 29.0477ZM75.0001 44.5C73.3433 44.5 72.0001 45.8432 72.0001 47.5C72.0001 49.1569 73.3433 50.5 75.0001 50.5H85.0001C86.657 50.5 88.0001 49.1569 88.0001 47.5C88.0001 45.8432 86.657 44.5 85.0001 44.5H75.0001Z" fill="#222222"/>
</svg>
