<svg width="96" height="96" viewBox="0 0 96 96" fill="none" xmlns="http://www.w3.org/2000/svg">
<path fill-rule="evenodd" clip-rule="evenodd" d="M86.0001 48.0002C86.0001 27.0134 68.9869 10.0002 48.0001 10.0002C27.0133 10.0002 10.0001 27.0134 10.0001 48.0002C10.0001 68.9871 27.0133 86.0002 48.0001 86.0002C68.3648 86.0002 86.0001 68.3594 86.0001 48.0002Z" stroke="#222222" stroke-width="6" stroke-linejoin="round"/>
<path fill-rule="evenodd" clip-rule="evenodd" d="M48.0001 61C49.6546 61 51.0001 62.3438 51.0001 63.9993C51.0001 65.6547 49.6546 67 48.0001 67C46.3396 67 45.0001 65.6562 45.0001 63.9993C45.0001 62.3438 46.3396 61 48.0001 61Z" fill="#222222"/>
<path d="M40.0001 38.3082C40.0001 33.8939 43.581 30.3145 48.001 30.3145C52.4192 30.3145 56.0001 33.8939 56.0001 38.3082C56.0001 40.3087 55.264 42.1362 54.0492 43.5385L51.3623 46.3019C51.3623 46.3019 48.1932 49.1236 48.1932 54.3145" stroke="#222222" stroke-width="6" stroke-linecap="round"/>
</svg>
