<svg width="96" height="96" viewBox="0 0 96 96" fill="none" xmlns="http://www.w3.org/2000/svg">
<path fill-rule="evenodd" clip-rule="evenodd" d="M48.0001 8C49.6569 8 51.0001 9.34315 51.0001 11V15.0679C66.0834 16.0953 78.0001 28.656 78.0001 44V64.7587L81.8834 72.137C83.2853 74.8006 81.3538 78 78.3437 78H62.1485C60.092 83.8294 54.5386 88 48.0001 88C41.4616 88 35.9082 83.8294 33.8517 78H17.6565C14.6464 78 12.7149 74.8007 14.1168 72.137L18.0001 64.7587V44C18.0001 28.656 29.9168 16.0953 45.0001 15.0679V11C45.0001 9.34315 46.3432 8 48.0001 8ZM40.5113 78C42.1238 80.4136 44.8732 82 48.0001 82C51.1269 82 53.8763 80.4136 55.4889 78H40.5113ZM24.0001 44C24.0001 31.2975 34.2975 21 47.0001 21H49.0001C61.7026 21 72.0001 31.2975 72.0001 44V65.5C72.0001 65.9869 72.1186 66.4664 72.3453 66.8972L75.031 72H20.9692L23.6548 66.8972C23.8816 66.4664 24.0001 65.9869 24.0001 65.5V44Z" fill="#222222"/>
</svg>
