<svg width="96" height="96" viewBox="0 0 96 96" fill="none" xmlns="http://www.w3.org/2000/svg">
<path d="M35.6759 73C35.6759 79.6353 41.0406 85 47.6759 85C54.3112 85 59.6759 79.6353 59.6759 73" stroke="#26282C" stroke-width="6" stroke-miterlimit="10" stroke-linejoin="bevel"/>
<path d="M47.6759 11V17" stroke="#26282C" stroke-width="6" stroke-miterlimit="10" stroke-linecap="round" stroke-linejoin="round"/>
<path d="M35.6759 73C35.6759 79.6353 41.0406 85 47.6759 85C54.3112 85 59.6759 79.6353 59.6759 73" stroke="#26282C" stroke-width="6" stroke-miterlimit="10" stroke-linejoin="bevel"/>
<path d="M47.6759 11V17" stroke="#26282C" stroke-width="6" stroke-miterlimit="10" stroke-linecap="round" stroke-linejoin="round"/>
<path d="M76.7407 9.61607L11.6164 74.7403" stroke="#222222" stroke-width="6" stroke-linecap="round"/>
<path fill-rule="evenodd" clip-rule="evenodd" d="M64.8967 21.2182C64.7366 20.6231 64.3923 20.0719 63.8742 19.6574C60.7741 17.1773 56.6641 16.0704 53.6391 15.5444C52.0758 15.2725 50.6876 15.1372 49.6874 15.0694C49.1857 15.0354 48.7773 15.018 48.4882 15.0092C48.3435 15.0048 48.2284 15.0025 48.146 15.0013C48.1049 15.0007 48.0719 15.0004 48.0474 15.0002L48.0172 15L48.007 15L48.0031 15H48.0015C48.0008 15 48.0001 15 48.0001 18V15C31.4316 15 18.0001 28.4315 18.0001 45V64C18.0001 65.1146 18.608 66.0873 19.5104 66.6045L24.0001 62.1148V45C24.0001 31.7463 34.7435 21.0018 47.9967 21L47.9979 21L47.9989 21H48.0001L48.0048 21L48.0588 21.0007C48.1107 21.0014 48.1938 21.003 48.305 21.0064C48.5277 21.0132 48.8614 21.0271 49.2816 21.0556C50.1252 21.1128 51.2994 21.2275 52.6111 21.4556C55.3362 21.9296 58.2262 22.8227 60.126 24.3426C60.4589 24.6089 60.831 24.7928 61.2179 24.897L64.8967 21.2182ZM73.4092 28.9414C72.4219 27.6108 70.5428 27.3327 69.2123 28.32C67.8818 29.3074 67.6036 31.1864 68.591 32.5169C71.1176 35.9215 71.5414 39.6103 71.6792 43.1177C71.7557 45.0661 71.8362 50.6389 71.8976 55.7858C71.9282 58.3458 71.9538 60.7813 71.9719 62.577C71.9809 63.4747 71.988 64.2124 71.9928 64.7256L71.9983 65.3188L71.9998 65.4741L72.0001 65.5137L72.0002 65.5236L72.0002 65.5261L72.0002 65.5267C72.0002 65.5269 72.0002 65.5269 75.0001 65.5L72.0002 65.5269C72.0045 66.0047 72.1229 66.4745 72.3454 66.8972L75.031 72H26.5001C24.8433 72 23.5001 73.3431 23.5001 75C23.5001 76.6569 24.8433 78 26.5001 78H79.1719C81.8057 78 83.4958 75.2006 82.2691 72.8699L77.9933 64.7457L77.9925 64.6689C77.9877 64.1548 77.9806 63.4159 77.9716 62.5168C77.9535 60.7187 77.9278 58.2792 77.8972 55.7142C77.8363 50.6111 77.7552 44.9339 77.6746 42.8823C77.5265 39.1115 77.0643 33.8667 73.4092 28.9414Z" fill="#222222"/>
</svg>
