<svg width="96" height="96" viewBox="0 0 96 96" fill="none" xmlns="http://www.w3.org/2000/svg">
<path fill-rule="evenodd" clip-rule="evenodd" d="M7.00012 48C7.00012 25.3563 25.3564 7 48.0001 7C70.6438 7 89.0001 25.3563 89.0001 48C89.0001 70.0158 70.022 89 48.0001 89C25.3564 89 7.00012 70.6437 7.00012 48ZM48.0001 13C28.6702 13 13.0001 28.67 13.0001 48C13.0001 67.33 28.6702 83 48.0001 83C66.7077 83 83.0001 66.7026 83.0001 48C83.0001 28.67 67.3301 13 48.0001 13ZM51.0001 66C51.0001 67.6569 49.657 69 48.0001 69C46.3433 69 45.0001 67.6569 45.0001 66C45.0001 64.3431 46.3433 63 48.0001 63C49.657 63 51.0001 64.3431 51.0001 66ZM51.0001 26.6484C51.0001 24.9916 49.657 23.6484 48.0001 23.6484C46.3433 23.6484 45.0001 24.9916 45.0001 26.6484V53.35C45.0001 55.0068 46.3433 56.35 48.0001 56.35C49.657 56.35 51.0001 55.0068 51.0001 53.35V26.6484Z" fill="#222222"/>
</svg>
