<svg width="96" height="96" viewBox="0 0 96 96" fill="none" xmlns="http://www.w3.org/2000/svg">
<path fill-rule="evenodd" clip-rule="evenodd" d="M48.5 13.7285L84.9901 81.9999H12.0104L48.5 13.7285ZM43.2084 10.9003C45.4687 6.67128 51.5312 6.67126 53.7916 10.9002L90.2817 79.1716C92.4179 83.1684 89.522 87.9999 84.9901 87.9999H12.0104C7.4785 87.9999 4.58257 83.1684 6.71878 79.1716L43.2084 10.9003ZM48.0003 28.9999C49.6571 28.9999 51.0003 30.343 51.0003 31.9999V58.7014C51.0003 60.3583 49.6571 61.7014 48.0003 61.7014C46.3434 61.7014 45.0003 60.3583 45.0003 58.7014V31.9999C45.0003 30.343 46.3434 28.9999 48.0003 28.9999ZM51.0003 71.3495C51.0003 73.0063 49.6571 74.3495 48.0003 74.3495C46.3434 74.3495 45.0003 73.0063 45.0003 71.3495C45.0003 69.6926 46.3434 68.3495 48.0003 68.3495C49.6571 68.3495 51.0003 69.6926 51.0003 71.3495Z" fill="#222222"/>
</svg>
