<svg width="96" height="96" viewBox="0 0 96 96" fill="none" xmlns="http://www.w3.org/2000/svg">
<path fill-rule="evenodd" clip-rule="evenodd" d="M45 65.0963L20.047 41.8068C18.8357 40.6763 16.9373 40.7418 15.8068 41.953C14.6763 43.1643 14.7418 45.0627 15.953 46.1932L45.9469 74.1874M45.9531 74.1932C46.1383 74.3662 46.3455 74.516 46.57 74.6379C46.9492 74.8439 47.3777 74.9705 47.8333 74.9955C47.8885 74.9985 47.9441 75 48 75C48.0518 75 48.1032 74.9987 48.1544 74.9961C48.5749 74.9748 48.9725 74.8669 49.3298 74.6899C49.5374 74.5871 49.7313 74.461 49.9083 74.3149C49.9579 74.274 50.0062 74.2314 50.0531 74.1874L80.047 46.1932C81.2582 45.0627 81.3237 43.1643 80.1932 41.953C79.0627 40.7418 77.1643 40.6763 75.953 41.8068L51 65.0963L51 8C51 6.34315 49.6569 5 48 5C46.3432 5 45 6.34315 45 8L45 65.0963M5 86C5 84.3431 6.34315 83 8 83H88C89.6569 83 91 84.3431 91 86C91 87.6569 89.6569 89 88 89H8C6.34315 89 5 87.6569 5 86Z" fill="#222222"/>
</svg>
