<svg width="96" height="96" viewBox="0 0 96 96" fill="none" xmlns="http://www.w3.org/2000/svg">
<path fill-rule="evenodd" clip-rule="evenodd" d="M49.768 9.57659L47.9996 8.28613L46.2312 9.57659L9.23119 36.5766C7.8928 37.5533 7.59956 39.43 8.57622 40.7684C9.55289 42.1068 11.4296 42.4 12.768 41.4233L15.9996 39.0651V75C15.9996 79.9705 20.029 84 24.9996 84H39.9996H55.9996H70.9996C75.9702 84 79.9996 79.9705 79.9996 75V39.0651L83.2312 41.4233C84.5696 42.4 86.4463 42.1068 87.423 40.7684C88.3996 39.43 88.1064 37.5533 86.768 36.5766L49.768 9.57659ZM73.9996 34.6868L47.9996 15.7138L21.9996 34.6868V75C21.9996 76.6568 23.3427 78 24.9996 78H36.9996V61C36.9996 57.134 40.1336 54 43.9996 54H51.9996C55.8656 54 58.9996 57.134 58.9996 61V78H70.9996C72.6565 78 73.9996 76.6568 73.9996 75V34.6868ZM52.9996 61V78H42.9996V61C42.9996 60.4477 43.4473 60 43.9996 60H51.9996C52.5519 60 52.9996 60.4477 52.9996 61Z" fill="#222222"/>
</svg>
