<svg width="96" height="96" viewBox="0 0 96 96" fill="none" xmlns="http://www.w3.org/2000/svg">
<path fill-rule="evenodd" clip-rule="evenodd" d="M53 10C51.3431 10 50 11.3431 50 13C50 14.6569 51.3431 16 53 16H75.7574L45.6912 46.0662C44.5196 47.2378 44.5196 49.1372 45.6912 50.3088C46.8628 51.4804 48.7622 51.4804 49.9338 50.3088L80 20.2426V43C80 44.6569 81.3431 46 83 46C84.6569 46 86 44.6569 86 43V13C86 11.3431 84.6569 10 83 10H53ZM19 20C17.3431 20 16 21.3431 16 23V77C16 78.6569 17.3431 80 19 80H73C74.6569 80 76 78.6569 76 77V66.5V62.375C76 60.7181 77.3431 59.375 79 59.375C80.6569 59.375 82 60.7181 82 62.375V66.5V77C82 81.9706 77.9706 86 73 86H19C14.0294 86 10 81.9706 10 77V23C10 18.0294 14.0294 14 19 14H29.5H33.625C35.2819 14 36.625 15.3431 36.625 17C36.625 18.6569 35.2819 20 33.625 20H29.5H19Z" fill="#222222"/>
</svg>
