<svg width="96" height="96" viewBox="0 0 96 96" fill="none" xmlns="http://www.w3.org/2000/svg">
<circle cx="48" cy="48" r="40" fill="#FFBC00"/>
<path d="M72.2206 48.6266L71.8016 48.3599C70.9884 47.6185 70.0217 47.0656 68.9703 46.7408C67.9189 46.4159 66.8087 46.3271 65.719 46.4805C63.8194 46.6302 61.9887 47.2593 60.3984 48.3091V48.2456C60.4126 47.5155 60.4634 46.7865 60.5508 46.0615C60.6427 45.3282 60.6978 44.5908 60.7159 43.852C60.7378 43.1628 60.6212 42.4762 60.373 41.8329C60.3419 41.7585 60.2886 41.6955 60.2205 41.6523C60.1524 41.6092 60.0726 41.588 59.9921 41.5917C59.1212 41.654 58.2752 41.91 57.5159 42.3409L57.3381 42.7472C57.3411 43.8694 57.2261 44.9887 56.9952 46.0869L56.9063 46.3536C56.6146 49.1269 56.6146 51.9231 56.9063 54.6964C56.9063 54.925 57.4016 55.2932 57.7571 55.4202C58.5465 55.4412 59.3309 55.2895 60.0556 54.9758H60.3222C60.5381 54.9758 60.6651 54.7726 60.6651 54.5186V53.8329C60.9787 52.6437 61.6081 51.5615 62.4867 50.7009C63.3652 49.8402 64.4602 49.2332 65.6556 48.944C66.2392 48.8032 66.8496 48.817 67.4263 48.984C68.0031 49.151 68.5263 49.4655 68.9444 49.8964C69.1997 51.0425 69.0042 52.2429 68.3984 53.2488C67.5273 54.668 66.1754 55.727 64.5889 56.2329C62.7313 56.902 60.7562 57.1829 58.7857 57.0583L56.6905 55.6107C54.8021 54.1777 52.7573 52.9636 50.5952 51.9917C50.0995 51.7124 49.6354 51.3803 49.2111 51.0012L49.0079 50.8361C47.827 49.8964 45.5921 48.398 43.8016 47.2044L42.8365 46.5567V46.3536L44.0175 45.6171C44.9003 45.1853 45.7275 44.648 46.481 44.0171L46.6841 43.8901L50.6079 41.6805C54.4175 39.6107 58.6079 37.2742 60.8429 34.9504L60.9571 34.6583V34.3536C61.086 33.9401 61.086 33.4972 60.9571 33.0837C60.9417 33.0121 60.9059 32.9465 60.8541 32.8947C60.8023 32.8429 60.7367 32.8071 60.6651 32.7917C58.9127 32.6139 56.6651 33.6552 54.6079 35.5853C54.232 35.9373 53.8036 36.2286 53.3381 36.4488L53.0333 36.6266C50.773 37.8964 45.681 41.071 43.0143 42.7726C43.27 39.3041 43.7237 35.8529 44.373 32.4361L44.3857 31.9155L44.119 31.4075L43.9032 31.0393C43.5057 30.8507 43.0505 30.8234 42.6333 30.9631L42.0238 31.1409L41.3127 31.3948C41.2463 31.4084 41.1845 31.439 41.1333 31.4834C41.0821 31.5279 41.0433 31.5849 41.0206 31.6488C39.5925 35.5647 38.7372 39.6663 38.481 43.8266C36.5218 42.5932 34.4907 41.4779 32.3984 40.4869H32.2714C31.7514 40.3363 31.2675 40.0814 30.8492 39.7377L29.8841 39.1155L28.373 38.2012L27.9921 38.125C27.1208 38.3899 26.3476 38.9068 25.7698 39.6107C25.7456 39.685 25.7456 39.765 25.7698 39.8393C25.7577 39.9575 25.7577 40.0766 25.7698 40.1948L25.8333 40.4869L25.9095 40.6774C27.2023 41.8016 28.6264 42.7652 30.1508 43.5472L32.1825 44.6266L35.2937 46.3282L35.827 46.7472L36.1952 46.9631L30.5317 50.7726L27.6238 52.7409C27.0691 53.0494 26.4966 53.325 25.9095 53.5663C25.373 53.7795 24.9251 54.1691 24.6397 54.671L24.5 54.8361L24.5762 54.9758L24.8048 55.1536L25.1095 55.3567L25.4397 55.5726H25.7444C26.7083 55.4439 27.639 55.1336 28.4873 54.6583C29.8206 54.0742 33.4397 51.8901 34.9762 50.9631L35.6365 50.5694C35.9533 50.5309 36.2482 50.388 36.4746 50.1631C36.9104 49.8369 37.3785 49.556 37.8714 49.325L38.3413 49.0583C38.3443 49.1175 38.3443 49.1769 38.3413 49.2361C38.3146 52.8602 38.5992 56.4798 39.1921 60.0552V60.1694C39.5516 60.9619 39.82 61.7926 39.9921 62.6456L40.5889 64.6139L40.754 64.8044C41.3715 65.1713 42.0803 65.3562 42.7984 65.3377H42.9635L43.0778 65.0964C43.1294 64.7987 43.1549 64.497 43.154 64.1948C43.154 63.8266 43.154 63.4329 43.0905 62.925V62.2139C42.8746 58.9123 42.6587 54.1504 42.6587 50.9885V50.7345L45.6683 52.6393C49.846 55.344 56.1444 59.4202 59.954 60.4996C60.0467 60.5328 60.1467 60.5397 60.2431 60.5195C60.3395 60.4994 60.4284 60.4529 60.5 60.3853L61.0841 60.0044H61.1984C61.327 59.9012 61.4296 59.7694 61.4979 59.6194C61.5663 59.4695 61.5985 59.3056 61.5921 59.1409C64.7921 58.9758 69.2111 57.744 71.6619 54.7345C72.5134 53.6451 72.986 52.3075 73.0079 50.925C73.0524 50.0859 72.7703 49.2622 72.2206 48.6266Z" fill="#222222"/>
</svg>
