<svg width="96" height="96" viewBox="0 0 96 96" fill="none" xmlns="http://www.w3.org/2000/svg">
<path fill-rule="evenodd" clip-rule="evenodd" d="M50.9992 81.8695C67.3836 80.4376 80.4371 67.3844 81.8695 51H70C68.3431 51 67 49.6569 67 48C67 46.3431 68.3431 45 70 45H81.8695C80.4371 28.616 67.3842 15.563 51.0001 14.1305L51.001 26.9998C51.0011 28.6567 49.658 29.9999 48.0012 30C46.3443 30.0001 45.0011 28.657 45.001 27.0002L45.0001 14.1305C28.616 15.5628 15.5629 28.6159 14.1305 45H26C27.6569 45 29 46.3431 29 48C29 49.6569 27.6569 51 26 51H14.1305C15.5629 67.3838 28.6155 80.4367 44.9992 81.8694L45 68.9998C45.0001 67.3429 46.3433 65.9999 48.0002 66C49.6571 66.0001 51.0001 67.3433 51 69.0002L50.9992 81.8695ZM48 88C70.0914 88 88 70.0914 88 48C88 25.9086 70.0914 8 48 8C25.9086 8 8 25.9086 8 48C8 70.0914 25.9086 88 48 88Z" fill="#222222"/>
<circle cx="48.5" cy="48.5" r="5.5" fill="#26282C"/>
</svg>
