<svg width="96" height="96" viewBox="0 0 96 96" fill="none" xmlns="http://www.w3.org/2000/svg">
<path fill-rule="evenodd" clip-rule="evenodd" d="M48.2001 4.00058C48.2677 4.00019 48.3353 4 48.4031 4C48.4604 4 48.5173 4.00161 48.5738 4.00477C60.0479 4.19585 68.3711 10.0754 71.3567 13.3309C80.5491 22.964 82.1114 33.3566 80.3792 42.499C78.6828 51.4526 73.8598 59.1158 70.4301 63.81L51.6357 90.7179C51.0343 91.5789 50.0626 92.0275 49.0858 91.999C48.1625 92.0246 47.2399 91.625 46.6302 90.8395L25.7234 63.9052L25.685 63.8558L25.6488 63.8049C22.3417 59.1568 17.4281 51.4849 15.6635 42.5199C13.8622 33.3684 15.3743 22.9558 24.723 13.3136C27.7556 10.0591 36.2009 4.19164 47.8328 4.00458C47.8881 4.00154 47.9439 4 48 4C48.0668 4 48.1335 4.00019 48.2001 4.00058ZM48.1998 10.0007C38.2827 10.0694 31.2019 15.1496 29.0989 17.4188L29.0751 17.4444L29.0508 17.4695C21.2166 25.5373 20.0801 33.8903 21.5505 41.3612C23.0536 48.9975 27.3127 55.7879 30.5017 60.276L48.9654 84.0628L65.5296 60.3478L65.5483 60.3212L65.5675 60.2949C68.817 55.8511 73.0329 49.0417 74.4841 41.3821C75.9013 33.9022 74.7153 25.5293 66.9961 17.4523L66.972 17.4271L66.9485 17.4013C64.8804 15.134 57.9276 10.0693 48.1998 10.0007Z" fill="#222222"/>
<circle cx="48" cy="37" r="9" stroke="#222222" stroke-width="6"/>
</svg>
