<svg width="96" height="96" viewBox="0 0 96 96" fill="none" xmlns="http://www.w3.org/2000/svg">
<path fill-rule="evenodd" clip-rule="evenodd" d="M48 8C49.6569 8 51 9.34315 51 11V13.6108C71.6902 15.1449 88 32.4178 88 53.5C88 54.5714 87.4286 55.5616 86.5009 56.0976L85 53.5C86.5009 56.0976 86.4988 56.0988 86.4967 56.1L86.4923 56.1025L86.483 56.1078L86.4623 56.1195C86.4476 56.1278 86.4309 56.137 86.4122 56.1472C86.3749 56.1675 86.3297 56.1916 86.2761 56.2191C86.1691 56.2741 86.0288 56.3429 85.8522 56.4235C85.499 56.5845 85 56.7927 84.3298 57.0313C82.9902 57.5082 80.9618 58.1084 78.0388 58.697C72.9503 59.7218 65.1191 60.7181 53.439 60.9578V74.439V78.0488C53.439 83.6693 48.8681 88.2683 43.2195 88.2683C37.571 88.2683 33 83.6693 33 78.0488C33 76.3919 34.3431 75.0488 36 75.0488C37.6569 75.0488 39 76.3919 39 78.0488C39 80.3654 40.8945 82.2683 43.2195 82.2683C45.5445 82.2683 47.439 80.3654 47.439 78.0488V74.439V61.0116C33.0172 60.9832 23.7279 59.8584 17.9612 58.697C15.0382 58.1084 13.0098 57.5082 11.6702 57.0313C11 56.7927 10.501 56.5845 10.1478 56.4235C9.97117 56.3429 9.83091 56.2741 9.72386 56.2191C9.67034 56.1916 9.62511 56.1675 9.58779 56.1472C9.56913 56.137 9.55244 56.1278 9.53769 56.1195L9.51699 56.1078L9.50771 56.1025L9.50334 56.1C9.50123 56.0988 9.49914 56.0976 11 53.5L9.49914 56.0976C8.57142 55.5616 8 54.5714 8 53.5C8 32.4178 24.3098 15.1449 45 13.6108V11C45 9.34315 46.3431 8 48 8ZM48 21.3868C44.9918 23.2441 42.0589 26.7921 39.6762 31.9819C36.897 38.0351 35.0757 45.9073 34.7956 54.6543C38.5899 54.8766 42.9671 55.0122 48 55.0122C53.0329 55.0122 57.4101 54.8766 61.2044 54.6543C60.9243 45.9073 59.103 38.0351 56.3238 31.9819C53.9411 26.7921 51.0082 23.2441 48 21.3868ZM67.1922 54.1933C71.2677 53.7969 74.4357 53.3022 76.8542 52.8151C79.2328 52.3361 80.878 51.8661 81.9426 51.5084C81.0693 36.3894 70.3172 23.9197 56.0441 20.4572C58.2837 22.9685 60.2057 26.057 61.7766 29.4785C64.9049 36.2922 66.8616 44.867 67.1922 54.1933ZM34.2234 29.4785C31.0951 36.2922 29.1384 44.867 28.8078 54.1933C24.7323 53.7969 21.5643 53.3022 19.1458 52.8151C16.7672 52.3361 15.122 51.8661 14.0574 51.5084C14.9307 36.3894 25.6828 23.9197 39.9559 20.4572C37.7163 22.9685 35.7943 26.057 34.2234 29.4785Z" fill="#222222"/>
</svg>
