<svg width="96" height="96" viewBox="0 0 96 96" fill="none" xmlns="http://www.w3.org/2000/svg">
<path fill-rule="evenodd" clip-rule="evenodd" d="M48 8.02344C49.6569 8.02344 51 9.36658 51 11.0234V13.6261C68.0245 14.8845 82.0826 26.7676 86.5304 42.7176C86.9754 44.3136 86.0424 45.9681 84.4465 46.4132C82.8505 46.8582 81.1959 45.9252 80.7509 44.3293C77.4608 32.5306 67.9794 23.3521 56.0338 20.4671C56.8104 21.336 57.5465 22.2713 58.2402 23.2612C61.25 27.5556 63.6101 33.0744 65.1558 39.3006C65.555 40.9087 64.575 42.5359 62.967 42.9351C61.3589 43.3343 59.7317 42.3543 59.3325 40.7463C57.9212 35.0612 55.8205 30.2629 53.3268 26.7047C51.6339 24.2892 49.8253 22.5332 48.0012 21.4083C44.9919 23.265 42.0578 26.8137 39.6742 32.0054C36.9088 38.0286 35.0918 45.853 34.7979 54.5482C39.4403 54.8394 44.9612 55.0234 51.5 55.0234C53.1569 55.0234 54.5 56.3666 54.5 58.0234C54.5 59.1339 53.8967 60.1034 53 60.6221V74.3092V77.8806C53 83.4015 48.5841 88.0234 43 88.0234C37.4159 88.0234 33 83.4015 33 77.8806C33 76.2237 34.3431 74.8806 36 74.8806C37.6569 74.8806 39 76.2237 39 77.8806C39 80.2126 40.853 82.0234 43 82.0234C45.147 82.0234 47 80.2126 47 77.8806V74.3092V60.9937C33.199 60.8077 24.2073 59.7773 18.5142 58.719C15.3665 58.1339 13.2125 57.5375 11.8023 57.0638C11.0966 56.8266 10.5749 56.6195 10.2065 56.4586C10.0222 56.3781 9.87604 56.3091 9.76416 56.2535C9.70821 56.2258 9.66081 56.2014 9.62149 56.1806C9.60183 56.1702 9.58419 56.1607 9.56851 56.1521L9.54645 56.14L9.5365 56.1344L9.5318 56.1318C9.52952 56.1305 9.52728 56.1293 11 53.5156L9.52728 56.1293C8.58373 55.5976 8 54.5986 8 53.5156C8 32.4334 24.3098 15.1605 45 13.6264V11.0234C45 9.36658 46.3431 8.02344 48 8.02344ZM14.0594 51.4894C14.9472 36.3838 25.6969 23.929 39.9623 20.4713C37.7191 22.9843 35.7943 26.0762 34.2215 29.5019C31.1091 36.2808 29.1565 44.8028 28.811 54.0737C24.9859 53.7008 21.9648 53.2576 19.6108 52.8201C16.9806 52.3311 15.1952 51.8513 14.0594 51.4894Z" fill="#222222"/>
<path fill-rule="evenodd" clip-rule="evenodd" d="M68 47.0703C56.4009 47.0703 47 56.4712 47 68.0703C47 79.6694 56.4009 89.0703 68 89.0703C79.5974 89.0703 89 79.6696 89 68.0703C89 56.471 79.5974 47.0703 68 47.0703ZM53 68.0703C53 59.7849 59.7146 53.0703 68 53.0703C76.284 53.0703 83 59.7851 83 68.0703C83 76.3555 76.284 83.0703 68 83.0703C59.7146 83.0703 53 76.3557 53 68.0703ZM62.0783 62.354C61.6829 61.2051 60.431 60.5943 59.2821 60.9897C58.1332 61.3851 57.5224 62.637 57.9178 63.7859L58.6351 65.8701H58.2598C57.0447 65.8701 56.0598 66.855 56.0598 68.0701C56.0598 69.2851 57.0447 70.2701 58.2598 70.2701H60.1495L62.048 75.786C62.3558 76.6805 63.2011 77.2781 64.147 77.27C65.093 77.2619 65.9278 76.65 66.2204 75.7504L68.0232 70.2062L69.8124 75.7462C70.1037 76.6483 70.9401 77.2623 71.888 77.27C72.836 77.2777 73.6822 76.6773 73.9882 75.7801L75.8782 70.2378C76.0009 70.259 76.1271 70.2701 76.2559 70.2701H78.2559C79.4709 70.2701 80.4559 69.2851 80.4559 68.0701C80.4559 66.855 79.4709 65.8701 78.2559 65.8701H77.3676L78.0803 63.78C78.4725 62.63 77.8581 61.3798 76.7081 60.9877C75.5581 60.5955 74.3079 61.2099 73.9158 62.3599L71.9627 68.0873L70.1239 62.3938C69.8308 61.4863 68.9863 60.8709 68.0326 60.8699C67.0789 60.869 66.2331 61.4826 65.9382 62.3896L64.069 68.1379L62.0783 62.354Z" fill="#222222"/>
</svg>
