<svg width="96" height="96" viewBox="0 0 96 96" fill="none" xmlns="http://www.w3.org/2000/svg">
<path fill-rule="evenodd" clip-rule="evenodd" d="M48 8C49.6569 8 51 9.34315 51 11V13.6026C68.785 14.9172 83.3334 27.8268 87.0687 44.8573C87.4237 46.4757 86.3995 48.0754 84.7811 48.4303C83.1627 48.7853 81.563 47.7611 81.2081 46.1427C78.4278 33.4665 68.5925 23.4764 56.0328 20.4435C57.6573 22.2617 59.111 24.3784 60.3805 26.6942C63.7069 32.762 65.9901 40.572 66.8561 49.2004C67.0216 50.849 65.8193 52.3195 64.1707 52.485C62.5221 52.6505 61.0515 51.4482 60.8861 49.7996C60.0839 41.8069 57.9856 34.8071 55.1192 29.5784C52.9702 25.6583 50.5066 22.9315 48.0003 21.3854C44.9913 23.2423 42.0576 26.7908 39.6742 31.9819C36.8959 38.0333 35.0749 45.9026 34.7939 54.6464C38.5886 54.8688 42.9663 55.0044 48 55.0044C50.4593 55.0044 52.7624 54.972 54.9178 54.9129C56.574 54.8675 57.9535 56.1734 57.9989 57.8296C58.0443 59.4858 56.7384 60.8653 55.0822 60.9107C53.4668 60.955 51.7738 60.9845 50 60.9973V74.2857V77.8571C50 83.378 45.5841 88 40 88C34.4159 88 30 83.378 30 77.8571C30 76.2003 31.3431 74.8571 33 74.8571C34.6569 74.8571 36 76.2003 36 77.8571C36 80.1891 37.853 82 40 82C42.147 82 44 80.1891 44 77.8571V74.2857V60.9754C31.5201 60.791 23.2559 59.7556 17.9612 58.6892C15.0382 58.1006 13.0098 57.5004 11.6702 57.0235C11 56.7849 10.501 56.5767 10.1478 56.4156C9.97117 56.3351 9.83091 56.2663 9.72386 56.2113C9.67034 56.1838 9.62511 56.1597 9.58779 56.1394C9.56913 56.1292 9.55244 56.12 9.53769 56.1117L9.51699 56.1L9.50771 56.0947L9.50334 56.0922C9.50123 56.091 9.49914 56.0898 11 53.4922L9.49914 56.0898C8.57142 55.5537 8 54.5636 8 53.4922C8 32.41 24.3098 15.1371 45 13.603V11C45 9.34315 46.3431 8 48 8ZM14.0574 51.5006C14.9308 36.3794 25.6861 23.9082 39.9623 20.4478C37.7191 22.9609 35.7943 26.0528 34.2215 29.4785C31.094 36.2902 29.1375 44.8621 28.8061 54.1853C24.7314 53.789 21.564 53.2943 19.1458 52.8073C16.7672 52.3283 15.122 51.8583 14.0574 51.5006Z" fill="#222222"/>
<path fill-rule="evenodd" clip-rule="evenodd" d="M76.9119 59.5072C78.7498 58.602 81.0337 58.9157 82.5609 60.4432C84.0891 61.9718 84.4011 64.2562 83.4967 66.0933L76.9119 59.5072ZM72.4578 63.5384L58.1076 77.6429L58.6211 83.6833L63.0029 83.8471L65.9497 83.9573L67.4109 82.5511L79.4389 70.5208L72.4578 63.5384ZM66.999 90.0013L67.1111 87.0031L66.9991 90.0013C67.8129 90.0317 68.6041 89.7299 69.1909 89.1651L71.5914 86.8551L71.6103 86.8368L71.6327 86.8146L86.8031 71.6413C91.0663 67.3774 91.0663 60.4641 86.8031 56.2002C82.5662 51.9625 75.7062 51.9326 71.4325 56.1331L52.8967 74.3516C52.2596 74.9778 51.9346 75.8555 52.0103 76.7457L52.868 86.8364C52.9964 88.3466 54.2306 89.5239 55.7449 89.5805L62.7788 89.8435L65.7682 89.9552L66.6694 89.9889L66.9139 89.9981L66.9774 90.0005L66.9936 90.0011L66.9977 90.0012L66.9987 90.0013L66.999 90.0013Z" fill="#222222"/>
</svg>
