<svg width="96" height="96" viewBox="0 0 96 96" fill="none" xmlns="http://www.w3.org/2000/svg">
<path fill-rule="evenodd" clip-rule="evenodd" d="M28.3033 12.2053L67.1886 12.2052C69.8963 12.2052 72.4601 13.4242 74.1692 15.5244L86.3503 30.4925C88.9693 33.7107 89.0487 38.3023 86.5426 41.6092L56.8673 80.7672L55.3694 82.7437C51.7807 87.4791 44.6692 87.499 41.054 82.7837L9.45242 41.5647C6.95023 38.301 6.97859 33.7563 9.52131 30.5241L21.2298 15.6407C22.9362 13.4716 25.5435 12.2054 28.3033 12.2053ZM67.1886 18.2052L28.3033 18.2053C27.3834 18.2053 26.5143 18.6274 25.9455 19.3505L14.237 34.2339C13.3894 35.3113 13.38 36.8261 14.214 37.914L45.8157 79.1331C47.0207 80.7048 49.3912 80.6982 50.5874 79.1197L52.0853 77.1432L81.7607 37.9853C82.5961 36.883 82.5696 35.3525 81.6966 34.2797L69.5155 19.3116C68.9458 18.6115 68.0912 18.2052 67.1886 18.2052Z" fill="#222222"/>
<path fill-rule="evenodd" clip-rule="evenodd" d="M35.1994 32.1095C36.7962 31.6674 38.4491 32.6034 38.8912 34.2002L41.7714 44.6019L45.1684 34.178C45.5711 32.9422 46.7239 32.1063 48.0237 32.1076C49.3236 32.1089 50.4747 32.9471 50.875 34.1838L54.2356 44.5669L57.106 34.2002C57.5482 32.6034 59.201 31.6674 60.7978 32.1095C62.3946 32.5517 63.3306 34.2045 62.8885 35.8013L62.141 38.5007H64C65.6569 38.5007 67 39.8439 67 41.5007C67 43.1576 65.6569 44.5007 64 44.5007H60.4797L57.3506 55.8013C56.9971 57.078 55.8482 57.9717 54.5238 58.0001C53.1994 58.0285 52.0131 57.1849 51.6052 55.9246L48.011 44.8197L44.3902 55.9303C43.9801 57.1887 42.7937 58.0297 41.4705 58C40.1472 57.9703 38.9998 57.0769 38.6466 55.8013L35.5176 44.5007H32C30.3431 44.5007 29 43.1576 29 41.5007C29 39.8439 30.3431 38.5007 32 38.5007H33.8562L33.1088 35.8013C32.6667 34.2045 33.6027 32.5517 35.1994 32.1095Z" fill="#222222"/>
</svg>
