<svg width="96" height="96" viewBox="0 0 96 96" fill="none" xmlns="http://www.w3.org/2000/svg">
<path d="M36 84.352C38.1575 81.4817 39.6986 77.9733 42.7808 77.9733C47.0959 77.9733 46.7877 85.3088 50.7945 84.9899C53.5773 84.7684 54.8014 82.1194 55.4178 77.9733C56.0342 73.8272 58.1918 70 60.9658 70C63.7397 70 66.2055 73.5083 67.7466 77.3355C69.2877 81.1627 71.137 83.0763 73.911 84.0331C76.6849 84.9899 79.4589 84.0331 81 81.8005" stroke="#222222" stroke-width="6" stroke-linecap="round" stroke-linejoin="round"/>
<path fill-rule="evenodd" clip-rule="evenodd" d="M64.4769 9.89195C60.4909 6.92237 54.8523 7.74631 51.8827 11.7323L16.6214 59.062C16.363 59.4089 16.1827 59.8075 16.0927 60.2306L11.88 80.0488C11.6376 81.1889 12.0776 82.3662 13.0082 83.0679C13.9388 83.7697 15.1917 83.8689 16.2211 83.3223L34.3565 73.6943C34.7492 73.4858 35.0905 73.1927 35.356 72.8362L65.6396 32.165L65.8438 32.3244C67.1293 33.3282 67.3774 35.1749 66.4025 36.4823L58.4977 47.0833C57.5073 48.4115 57.7811 50.2912 59.1094 51.2816C60.4376 52.272 62.3172 51.9982 63.3077 50.6699L71.2125 40.069C74.1372 36.1467 73.3928 30.6064 69.5364 27.5953L66.9262 25.5572C65.7071 24.6053 63.983 24.7442 62.9296 25.8294C62.8088 25.9448 62.696 26.0719 62.5928 26.2104L30.9468 68.7114L19.0854 75.0086L21.8251 62.1202L56.6942 15.3169C57.6841 13.9882 59.5636 13.7136 60.8922 14.7035L67.2067 19.4078C68.5354 20.3977 70.4149 20.123 71.4048 18.7944C72.3947 17.4657 72.12 15.5862 70.7913 14.5963L64.4769 9.89195Z" fill="#222222"/>
</svg>
