<svg width="96" height="96" viewBox="0 0 96 96" fill="none" xmlns="http://www.w3.org/2000/svg">
<path fill-rule="evenodd" clip-rule="evenodd" d="M31.9998 13.9796L71.9998 13.9774C73.6567 13.9773 75 15.3205 75 16.9774V66.9771C75 68.6339 73.6569 69.9771 72 69.9771L72 25.9771C72 21.0065 67.9706 16.9771 63 16.9771H29C29.0014 15.3215 30.3439 13.9797 31.9998 13.9796ZM23 16.9771C23.0014 12.0079 27.03 7.9799 31.9995 7.97962L71.9995 7.97742C76.9703 7.97714 81 12.0067 81 16.9774V66.9771C81 71.9476 76.9706 75.9771 72 75.9771L72 84.9771C72 86.0209 71.4575 86.9896 70.5675 87.535C69.6776 88.0804 68.5681 88.124 67.6381 87.6501L59.296 83.3999L53.1708 86.6463C52.3392 87.0871 51.349 87.112 50.4963 86.7138L43.3048 83.3548L36.7511 86.6722C35.9135 87.0962 34.9258 87.1037 34.082 86.6925L27.2318 83.3543L18.3078 87.677C17.3781 88.1274 16.2821 88.0677 15.4068 87.5191C14.5315 86.9705 14 86.0101 14 84.9771V25.9771C14 21.0065 18.0294 16.9771 23 16.9771ZM20 25.9771C20 24.3202 21.3431 22.9771 23 22.9771H63C64.6569 22.9771 66 24.3202 66 25.9771V80.0817L60.6306 77.346C59.7597 76.9023 58.7273 76.9106 57.8638 77.3683L51.6814 80.6451L44.5217 77.3009C43.6869 76.911 42.7192 76.9263 41.8972 77.3424L35.3708 80.646L28.5499 77.3222C27.7227 76.919 26.7562 76.9179 25.9279 77.3191L20 80.1905V25.9771Z" fill="#222222"/>
<path fill-rule="evenodd" clip-rule="evenodd" d="M32.096 39.6127C33.6928 39.1706 35.3456 40.1067 35.7877 41.7035L37.793 48.9463L40.1657 41.6644C40.5684 40.4285 41.7213 39.5926 43.0211 39.5939C44.321 39.5952 45.4721 40.4335 45.8724 41.6702L48.2158 48.9112L50.2113 41.7035C50.6534 40.1067 52.3062 39.1706 53.903 39.6127C55.4998 40.0548 56.4358 41.7076 55.9938 43.3044L55.5306 44.9774H56.4735C58.1304 44.9774 59.4735 46.3206 59.4735 47.9774C59.4735 49.6343 58.1304 50.9774 56.4735 50.9774H53.8694L51.3308 60.1467C50.9774 61.4234 49.8283 62.3171 48.5039 62.3455C47.1795 62.3739 45.9932 61.5303 45.5853 60.2699L43.0084 52.307L40.4118 60.2756C40.0017 61.5341 38.8153 62.3751 37.4921 62.3454C36.1688 62.3157 35.0213 61.4223 34.6682 60.1467L32.1296 50.9776H29.5273C27.8705 50.9776 26.5273 49.6344 26.5273 47.9776C26.5273 46.3207 27.8705 44.9776 29.5273 44.9776H30.4685L30.0052 43.3044C29.5632 41.7076 30.4992 40.0548 32.096 39.6127Z" fill="#222222"/>
</svg>
