<svg width="96" height="96" viewBox="0 0 96 96" fill="none" xmlns="http://www.w3.org/2000/svg">
<path fill-rule="evenodd" clip-rule="evenodd" d="M26 19C26 16.2386 28.2386 14 31 14H65C67.7614 14 70 16.2386 70 19V47.2873L48.0021 62.3618L26 47.2477V19ZM20 43.126V37.8162L16.2199 40.5294L20 43.126ZM20 30.4405V19C20 12.9249 24.9249 8 31 8H65C71.0751 8 76 12.9249 76 19V30.3911C76.0977 30.4467 76.1932 30.5084 76.2862 30.5762L86.7679 38.2213C87.5547 38.7952 88.014 39.7154 87.9997 40.6892C87.9985 40.772 87.9938 40.8543 87.9859 40.9359C87.9863 40.9572 87.9866 40.9786 87.9866 41V79C87.9866 83.9706 83.9571 88 78.9866 88H17C12.0294 88 8 83.9706 8 79V41C8 40.9297 8.00242 40.8599 8.00718 40.7908C8.00312 40.7322 8.00077 40.6733 8.00016 40.6142C7.99008 39.6369 8.45669 38.7159 9.2507 38.146L19.8159 30.5628C19.8763 30.5195 19.9377 30.4787 20 30.4405ZM76 37.7939V43.1757L79.8044 40.5687L76 37.7939ZM49.6958 68.4747L81.9866 46.3469V79C81.9866 80.6569 80.6434 82 78.9866 82H17C15.3431 82 14 80.6569 14 79V46.2837L46.3014 68.4728C47.3237 69.175 48.6727 69.1758 49.6958 68.4747Z" fill="#222222"/>
<path fill-rule="evenodd" clip-rule="evenodd" d="M50.0752 22.8733C49.5112 22.3121 48.7473 21.998 47.9517 22C47.156 22.002 46.3937 22.32 45.8326 22.8841L37.8733 30.8841C36.7047 32.0587 36.7095 33.9581 37.8841 35.1267C39.0587 36.2953 40.9581 36.2905 42.1267 35.1159L45 32.2279V48C45 49.6569 46.3431 51 48 51C49.6569 51 51 49.6569 51 48V32.2572L53.8841 35.1267C55.0586 36.2953 56.9581 36.2905 58.1267 35.1159C59.2953 33.9414 59.2905 32.0419 58.1159 30.8733L50.0752 22.8733Z" fill="#222222"/>
</svg>
