<svg width="96" height="96" viewBox="0 0 96 96" fill="none" xmlns="http://www.w3.org/2000/svg">
<path fill-rule="evenodd" clip-rule="evenodd" d="M26 19C26 16.2386 28.2386 14 31 14H65C67.7614 14 70 16.2386 70 19V47.2873L48.0021 62.3618L26 47.2477V19ZM20 43.126V37.8162L16.2199 40.5294L20 43.126ZM20 30.4405V19C20 12.9249 24.9249 8 31 8H65C71.0751 8 76 12.9249 76 19V30.3911C76.0977 30.4467 76.1932 30.5084 76.2862 30.5762L86.7679 38.2213C87.5547 38.7952 88.014 39.7154 87.9997 40.6892C87.9973 40.848 87.9825 41.005 87.9557 41.1589V79C87.9557 83.9706 83.9263 88 78.9557 88H17C12.0294 88 8 83.9706 8 79V41C8 40.9297 8.00242 40.8599 8.00718 40.7908C8.00312 40.7322 8.00077 40.6733 8.00016 40.6142C7.99008 39.6369 8.45669 38.7159 9.2507 38.146L19.8159 30.5628C19.8763 30.5195 19.9377 30.4787 20 30.4405ZM76 37.7939V43.1757L79.8044 40.5687L76 37.7939ZM49.6958 68.4747L81.9557 46.3681V79C81.9557 80.6569 80.6126 82 78.9557 82H17C15.3431 82 14 80.6569 14 79V46.2837L46.3014 68.4728C47.3237 69.175 48.6727 69.1758 49.6958 68.4747Z" fill="#222222"/>
<path fill-rule="evenodd" clip-rule="evenodd" d="M51 25C51 23.3431 49.6569 22 48 22C46.3431 22 45 23.3431 45 25V40.7721L42.1267 37.8841C40.9581 36.7095 39.0587 36.7047 37.8841 37.8733C36.7095 39.0419 36.7047 40.9413 37.8733 42.1159L45.8326 50.1159C46.3937 50.68 47.156 50.998 47.9517 51C48.7473 51.002 49.5112 50.6879 50.0752 50.1267L58.1159 42.1267C59.2905 40.9581 59.2953 39.0586 58.1267 37.8841C56.9581 36.7095 55.0586 36.7047 53.8841 37.8733L51 40.7428V25Z" fill="#222222"/>
</svg>
