<svg width="96" height="96" viewBox="0 0 96 96" fill="none" xmlns="http://www.w3.org/2000/svg">
<path d="M69.0112 63.4779C64.3087 63.9624 59.6632 63.9909 56.3002 63.9909C53.1937 63.9909 51.5122 62.3379 51.5122 59.3739V50.9379H68.3842V53.2179H54.6472V56.0964H67.9567V58.3764H54.6472V59.4879C54.6472 61.1124 55.4167 61.6539 56.8417 61.6539C59.5492 61.6539 64.4512 61.5969 69.0112 61.3404V63.4779ZM71.9182 70.5459H48.5767V68.2659H71.9182V70.5459Z" fill="#222222"/>
<path d="M45.7166 74.9919H42.6671V67.5249H28.9301V65.2734H44.7476C45.4316 65.2734 45.7166 65.5869 45.7166 66.2709V74.9919ZM24.8261 55.0419H30.9536V52.1064H24.9686V49.8834H33.0056C33.6896 49.8834 33.9746 50.1969 33.9746 50.8809V56.5809C33.9746 57.0369 33.7751 57.2364 33.2621 57.2364H27.8471V58.9749C27.8471 60.0294 28.2176 60.7989 29.6426 60.7989C31.1531 60.7989 33.9176 60.5994 35.9696 60.2004L36.2546 61.9959C33.9461 62.7369 31.1246 63.0789 29.3291 63.0789C26.2226 63.0789 24.8261 61.5684 24.8261 58.8894V55.0419ZM40.5296 63.5064H37.6511V57.0654H34.9436V54.7854H37.6511V49.2849H40.5296V63.5064ZM42.7811 48.9999H45.7166V63.5064H42.7811V48.9999Z" fill="#222222"/>
<path d="M63.504 30.3194C63.504 34.3094 60.312 37.3019 56.2365 37.3019C52.1325 37.3019 48.9405 34.3094 48.9405 30.3194C48.9405 26.3294 52.1325 23.3939 56.2365 23.3939C60.312 23.3939 63.504 26.3294 63.504 30.3194ZM60.5115 30.3194C60.5115 27.7259 58.7445 25.6454 56.2365 25.6454C53.7 25.6454 51.933 27.7259 51.933 30.3194C51.933 32.8844 53.7 35.0219 56.2365 35.0219C58.7445 35.0219 60.5115 32.8844 60.5115 30.3194ZM67.266 20.9999H70.287V45.3959H67.266V20.9999Z" fill="#222222"/>
<path d="M40.3368 20.9999H43.3578V29.8634H47.3763V32.1434H43.3578V45.3959H40.3368V37.5869C37.6293 38.4704 32.9838 39.5249 30.1908 39.5249C26.1723 39.5249 24.7188 38.0714 24.7188 35.1074V23.1089H36.6318V25.3889H27.7398V35.0219C27.7398 36.5039 28.2813 37.1879 30.2763 37.1879C32.7843 37.1879 37.1163 36.4184 40.3368 35.7629V20.9999Z" fill="#222222"/>
<rect x="11" y="11" width="74" height="74" rx="8" stroke="#222222" stroke-width="6" stroke-linecap="round" stroke-linejoin="round"/>
</svg>
