<svg width="96" height="96" viewBox="0 0 96 96" fill="none" xmlns="http://www.w3.org/2000/svg">
<path fill-rule="evenodd" clip-rule="evenodd" d="M28.7099 12C24.5452 12 20.9244 14.8574 19.9564 18.9081L15.6071 37.1072C11.2981 37.7768 8.00024 41.5033 8.00024 46V69C8.00024 73.9706 12.0297 78 17.0002 78H18.0002V82C18.0002 85.866 21.1343 89 25.0002 89H27.0002C30.8662 89 34.0002 85.866 34.0002 82V78H62.0002V82C62.0002 85.866 65.1343 89 69.0002 89H71.0002C74.8662 89 78.0002 85.866 78.0002 82V78H79.0002C83.9708 78 88.0002 73.9706 88.0002 69V46C88.0002 41.5033 84.7024 37.7768 80.3934 37.1072L76.0441 18.9081C75.0761 14.8574 71.4553 12 67.2906 12H28.7099ZM79.0002 43H78.0002H18.0002H17.0002C15.3434 43 14.0002 44.3431 14.0002 46V69C14.0002 70.6569 15.3434 72 17.0002 72H18.0002H21.0002H31.0002H34.0002H62.0002H65.0002H75.0002H78.0002H79.0002C80.6571 72 82.0002 70.6569 82.0002 69V46C82.0002 44.3431 80.6571 43 79.0002 43ZM74.1988 37L70.2084 20.3027C69.8858 18.9525 68.6789 18 67.2906 18H28.7099C27.3216 18 26.1147 18.9525 25.792 20.3027L21.8017 37H74.1988ZM68.0002 82V78H72.0002V82C72.0002 82.5523 71.5525 83 71.0002 83H69.0002C68.448 83 68.0002 82.5523 68.0002 82ZM28.0002 78V82C28.0002 82.5523 27.5525 83 27.0002 83H25.0002C24.448 83 24.0002 82.5523 24.0002 82V78H28.0002ZM28.5002 54C27.1195 54 26.0002 55.1193 26.0002 56.5C26.0002 57.8807 27.1195 59 28.5002 59C29.881 59 31.0002 57.8807 31.0002 56.5C31.0002 55.1193 29.881 54 28.5002 54ZM20.0002 56.5C20.0002 51.8056 23.8058 48 28.5002 48C33.1947 48 37.0002 51.8056 37.0002 56.5C37.0002 61.1944 33.1947 65 28.5002 65C23.8058 65 20.0002 61.1944 20.0002 56.5ZM65.0002 56.5C65.0002 55.1193 66.1195 54 67.5002 54C68.881 54 70.0002 55.1193 70.0002 56.5C70.0002 57.8807 68.881 59 67.5002 59C66.1195 59 65.0002 57.8807 65.0002 56.5ZM67.5002 48C62.8058 48 59.0002 51.8056 59.0002 56.5C59.0002 61.1944 62.8058 65 67.5002 65C72.1947 65 76.0002 61.1944 76.0002 56.5C76.0002 51.8056 72.1947 48 67.5002 48Z" fill="#222222"/>
</svg>
