<svg width="96" height="96" viewBox="0 0 96 96" fill="none" xmlns="http://www.w3.org/2000/svg">
<path fill-rule="evenodd" clip-rule="evenodd" d="M49.8299 8.66829C48.7279 7.77615 47.1517 7.77736 46.0511 8.67118L9.10891 38.6712C7.82274 39.7157 7.6268 41.605 8.67128 42.8912C9.71575 44.1774 11.6051 44.3733 12.8913 43.3288L15.0001 41.6163V77C15.0001 83.0751 19.925 88 26.0001 88H35.5001C37.157 88 38.5001 86.6569 38.5001 85C38.5001 83.3431 37.157 82 35.5001 82H26.0001C23.2387 82 21.0001 79.7614 21.0001 77V37C21.0001 36.9165 20.9967 36.8338 20.99 36.752L47.9452 14.8622L83.1125 43.3317C84.4002 44.3742 86.2893 44.1754 87.3318 42.8876C88.3743 41.5999 88.1755 39.7108 86.8877 38.6683L49.8299 8.66829Z" fill="#222222"/>
<g clip-path="url(#clip0_2952_121107)">
<path fill-rule="evenodd" clip-rule="evenodd" d="M52.9227 41.9985C50.0535 41.9985 47.559 43.9671 46.8921 46.7578L44.5452 56.5781C41.9256 57.3031 40.0024 59.7042 40.0024 62.5544V75.7605C40.0024 79.185 42.7785 81.961 46.2029 81.961H46.2957V83.2263C46.2957 85.7121 48.3109 87.7273 50.7967 87.7273H51.9451C54.431 87.7273 56.4461 85.7121 56.4461 83.2263V81.961H71.5535V83.2263C71.5535 85.7121 73.5687 87.7273 76.0546 87.7273H77.2029C79.6888 87.7273 81.7039 85.7121 81.7039 83.2263V81.961H81.802C85.2264 81.961 88.0024 79.185 88.0024 75.7605V62.5544C88.0024 59.7014 86.0754 57.2983 83.452 56.5759L81.1056 46.7578C80.4387 43.9671 77.9442 41.9985 75.0749 41.9985H52.9227ZM52.2519 48.0387C52.3261 47.7283 52.6036 47.5093 52.9227 47.5093H75.0749C75.3941 47.5093 75.6715 47.7283 75.7457 48.0387L77.7327 56.353H50.265L52.2519 48.0387ZM77.2953 81.961H75.9622V83.2263C75.9622 83.2773 76.0035 83.3187 76.0546 83.3187H77.2029C77.2539 83.3187 77.2953 83.2773 77.2953 83.2263V81.961ZM52.0375 81.961H50.7043V83.2263C50.7043 83.2773 50.7457 83.3187 50.7967 83.3187H51.9451C51.9961 83.3187 52.0375 83.2773 52.0375 83.2263V81.961ZM46.2029 61.8648C45.822 61.8648 45.5132 62.1735 45.5132 62.5544V75.7605C45.5132 76.1414 45.822 76.4502 46.2029 76.4502H81.802C82.1829 76.4502 82.4916 76.1414 82.4916 75.7605V62.5544C82.4916 62.1735 82.1829 61.8648 81.802 61.8648H46.2029ZM52.8064 67.6301C52.2798 67.6301 51.8528 68.0571 51.8528 68.5838C51.8528 69.1105 52.2798 69.5374 52.8064 69.5374C53.3331 69.5374 53.7601 69.1105 53.7601 68.5838C53.7601 68.0571 53.3331 67.6301 52.8064 67.6301ZM47.4441 68.5838C47.4441 65.6222 49.8449 63.2215 52.8064 63.2215C55.768 63.2215 58.1687 65.6222 58.1687 68.5838C58.1687 71.5453 55.768 73.9461 52.8064 73.9461C49.8449 73.9461 47.4441 71.5453 47.4441 68.5838ZM74.2434 68.5838C74.2434 68.0571 74.6704 67.6301 75.1971 67.6301C75.7238 67.6301 76.1507 68.0571 76.1507 68.5838C76.1507 69.1105 75.7238 69.5374 75.1971 69.5374C74.6704 69.5374 74.2434 69.1105 74.2434 68.5838ZM75.1971 63.2215C72.2356 63.2215 69.8348 65.6222 69.8348 68.5838C69.8348 71.5453 72.2356 73.9461 75.1971 73.9461C78.1586 73.9461 80.5594 71.5453 80.5594 68.5838C80.5594 65.6222 78.1586 63.2215 75.1971 63.2215Z" fill="#222222"/>
</g>
<defs>
<clipPath id="clip0_2952_121107">
<rect width="48" height="48" fill="white" transform="translate(40 41)"/>
</clipPath>
</defs>
</svg>
