<svg width="96" height="96" viewBox="0 0 96 96" fill="none" xmlns="http://www.w3.org/2000/svg">
<path fill-rule="evenodd" clip-rule="evenodd" d="M19.0837 16.9315C20.0517 12.8809 23.6725 10.0234 27.8372 10.0234H63.1712C67.336 10.0234 70.9567 12.8808 71.9248 16.9315L75.8928 33.5353C79.9545 34.4047 83 38.0147 83 42.3359V42.4947C83 44.1516 81.6569 45.4947 80 45.4947C78.3431 45.4947 77 44.1516 77 42.4947V42.3359C77 40.6791 75.6569 39.3359 74 39.3359H17C15.3431 39.3359 14 40.6791 14 42.3359V62.9711C14 64.6279 15.3431 65.9711 17 65.9711H17.3281V65.9609H20.3281H29.6525H32.6525V65.9711H38C39.6569 65.9711 41 67.3142 41 68.9711C41 70.6279 39.6569 71.9711 38 71.9711H32.6525V75.2177C32.6525 79.0837 29.5184 82.2177 25.6525 82.2177H24.3281C20.4621 82.2177 17.3281 79.0837 17.3281 75.2177V71.9711H17C12.0294 71.9711 8 67.9416 8 62.9711V42.3359C8 38.0115 11.05 34.3994 15.1161 33.5334L19.0837 16.9315ZM27.8372 16.0234C26.449 16.0234 25.242 16.9759 24.9194 18.3261L21.3327 33.3342H69.6758L66.0891 18.3261C65.7664 16.9759 64.5595 16.0234 63.1712 16.0234H27.8372ZM23.3281 71.9711H26.6525V75.2177C26.6525 75.77 26.2047 76.2177 25.6525 76.2177H24.3281C23.7758 76.2177 23.3281 75.77 23.3281 75.2177V71.9711ZM25.1875 51.7143C25.1875 50.5388 26.1404 49.5859 27.3159 49.5859C28.4913 49.5859 29.4443 50.5388 29.4443 51.7143C29.4443 52.8898 28.4913 53.8427 27.3159 53.8427C26.1404 53.8427 25.1875 52.8898 25.1875 51.7143ZM27.3159 43.5859C22.8267 43.5859 19.1875 47.2251 19.1875 51.7143C19.1875 56.2035 22.8267 59.8427 27.3159 59.8427C31.8051 59.8427 35.4443 56.2035 35.4443 51.7143C35.4443 47.2251 31.8051 43.5859 27.3159 43.5859Z" fill="#222222"/>
<path fill-rule="evenodd" clip-rule="evenodd" d="M68 47.0234C56.4009 47.0234 47 56.4243 47 68.0234C47 79.6226 56.4009 89.0234 68 89.0234C79.5974 89.0234 89 79.6227 89 68.0234C89 56.4242 79.5974 47.0234 68 47.0234ZM53 68.0234C53 59.738 59.7146 53.0234 68 53.0234C76.284 53.0234 83 59.7382 83 68.0234C83 76.3087 76.284 83.0234 68 83.0234C59.7146 83.0234 53 76.3088 53 68.0234ZM62.0802 62.3073C61.6848 61.1584 60.4329 60.5476 59.284 60.943C58.1351 61.3385 57.5243 62.5904 57.9198 63.7393L58.637 65.8233H58.2617C57.0467 65.8233 56.0617 66.8083 56.0617 68.0233C56.0617 69.2384 57.0467 70.2233 58.2617 70.2233H60.1514L62.0499 75.7394C62.3578 76.6339 63.203 77.2314 64.149 77.2233C65.0949 77.2152 65.9298 76.6033 66.2223 75.7037L68.0252 70.1596L69.8143 75.6995C70.1057 76.6016 70.9421 77.2156 71.89 77.2233C72.8379 77.231 73.6842 76.6307 73.9901 75.7335L75.8801 70.1911C76.0028 70.2123 76.129 70.2233 76.2578 70.2233H78.2578C79.4728 70.2233 80.4578 69.2384 80.4578 68.0233C80.4578 66.8083 79.4728 65.8233 78.2578 65.8233H77.3695L78.0822 63.7333C78.4744 62.5833 77.8601 61.3332 76.7101 60.941C75.5601 60.5489 74.3099 61.1632 73.9177 62.3132L71.9646 68.0407L70.1258 62.3472C69.8327 61.4396 68.9883 60.8242 68.0345 60.8233C67.0808 60.8223 66.2351 61.436 65.9402 62.343L64.0709 68.0913L62.0802 62.3073Z" fill="#222222"/>
</svg>
