<svg width="96" height="96" viewBox="0 0 96 96" fill="none" xmlns="http://www.w3.org/2000/svg">
<path fill-rule="evenodd" clip-rule="evenodd" d="M19.0837 16.9081C20.0517 12.8574 23.6725 10 27.8372 10H63.1713C67.336 10 70.9567 12.8574 71.9248 16.9081L75.8928 33.5119C79.9545 34.3813 83 37.9912 83 42.3125V42.4713C83 44.1281 81.6569 45.4713 80 45.4713C78.3431 45.4713 77 44.1281 77 42.4713V42.3125C77 40.6556 75.6569 39.3125 74 39.3125H17C15.3431 39.3125 14 40.6556 14 42.3125V62.9476C14 64.6045 15.3431 65.9476 17 65.9476H17.3281V65.9375H20.3281H29.6525H32.6525V65.9476H36.6419C38.2987 65.9476 39.6419 67.2908 39.6419 68.9476C39.6419 70.6045 38.2987 71.9476 36.6419 71.9476H32.6525V75.1943C32.6525 79.0602 29.5184 82.1943 25.6525 82.1943H24.3281C20.4621 82.1943 17.3281 79.0603 17.3281 75.1943V71.9476H17C12.0294 71.9476 8 67.9182 8 62.9476V42.3125C8 37.9881 11.05 34.376 15.1161 33.51L19.0837 16.9081ZM27.8372 16C26.449 16 25.242 16.9525 24.9194 18.3027L21.3327 33.3108H45.5042H69.6758L66.0891 18.3027C65.7664 16.9525 64.5595 16 63.1713 16H27.8372ZM23.3281 71.9476H26.6525V75.1943C26.6525 75.7465 26.2047 76.1943 25.6525 76.1943H24.3281C23.7758 76.1943 23.3281 75.7465 23.3281 75.1943V71.9476ZM25.1875 51.6909C25.1875 50.5154 26.1404 49.5625 27.3159 49.5625C28.4913 49.5625 29.4443 50.5154 29.4443 51.6909C29.4443 52.8663 28.4913 53.8193 27.3159 53.8193C26.1404 53.8193 25.1875 52.8663 25.1875 51.6909ZM27.3159 43.5625C22.8267 43.5625 19.1875 47.2017 19.1875 51.6909C19.1875 56.1801 22.8267 59.8193 27.3159 59.8193C31.8051 59.8193 35.4443 56.1801 35.4443 51.6909C35.4443 47.2017 31.8051 43.5625 27.3159 43.5625Z" fill="#222222"/>
<path fill-rule="evenodd" clip-rule="evenodd" d="M54.8861 57.9688C54.8854 57.9688 54.8894 57.9622 54.9 57.9492C54.892 57.9624 54.8867 57.9689 54.8861 57.9688ZM57.7818 56.4574C56.7138 56.8135 55.9528 57.1811 55.4581 57.5003C55.9527 57.8195 56.7136 58.1871 57.7816 58.5431C60.3868 59.4115 64.1766 60 68.5001 60C72.8237 60 76.6135 59.4115 79.2187 58.5431C80.2867 58.1871 81.0476 57.8195 81.5422 57.5003C81.0475 57.1811 80.2865 56.8135 79.2185 56.4574C76.6133 55.5889 72.8235 55 68.5001 55C64.1768 55 60.387 55.5889 57.7818 56.4574ZM82.1142 57.9688C82.1135 57.9689 82.1083 57.9624 82.1003 57.9492C82.1109 57.9622 82.1148 57.9688 82.1142 57.9688ZM82.1001 57.0516C82.108 57.0385 82.1133 57.0319 82.114 57.032C82.1146 57.032 82.1106 57.0386 82.1001 57.0516ZM54.9002 57.0516C54.8896 57.0386 54.8857 57.032 54.8863 57.032C54.887 57.032 54.8922 57.0385 54.9002 57.0516ZM68.5001 49C63.711 49 59.2508 49.643 55.8841 50.7654C54.2165 51.3214 52.6506 52.0494 51.44 53.0034C50.2635 53.9305 49.0001 55.4273 49.0001 57.5C49.0001 57.7929 49.0254 58.0744 49.072 58.3443C49.025 58.5554 49.0001 58.7748 49.0001 59V68.6377C49 68.6566 49 68.6756 49.0001 68.6946V80.8783C49.0001 81.9894 49.6143 83.0095 50.5962 83.5295C61.8526 89.4902 75.1477 89.4902 86.4041 83.5295C87.386 83.0095 88.0001 81.9894 88.0001 80.8783V59C88.0001 58.7748 87.9753 58.5554 87.9283 58.3443C87.9749 58.0744 88.0001 57.7929 88.0001 57.5C88.0001 55.4273 86.7368 53.9305 85.5602 53.0034C84.3497 52.0494 82.7838 51.3214 81.1161 50.7654C77.7495 49.643 73.2893 49 68.5001 49ZM82.0001 63.9199C81.7096 64.0308 81.4144 64.1358 81.116 64.2352C77.7493 65.3574 73.2891 66 68.5001 66C63.7112 66 59.251 65.3574 55.8843 64.2352C55.5858 64.1358 55.2906 64.0308 55.0001 63.9199V67.4631C55.8571 68.1865 57.2793 68.9783 59.3636 69.639C62.0083 70.4773 65.4048 71.0018 69.261 71.0018C72.2599 71.0018 75.091 70.5552 77.4313 69.8176C79.5408 69.1528 81.0723 68.3094 82.0001 67.501V63.9199ZM55.0001 79.0178V74.3984C55.8157 74.7606 56.6716 75.0799 57.5507 75.3585C60.874 76.4119 64.8945 77.0018 69.261 77.0018C72.8265 77.0018 76.2694 76.4747 79.2348 75.5401C80.1882 75.2396 81.1175 74.889 82.0001 74.4869V79.0178C73.3965 82.9941 63.6038 82.9941 55.0001 79.0178Z" fill="#222222"/>
</svg>
