<svg width="96" height="96" viewBox="0 0 96 96" fill="none" xmlns="http://www.w3.org/2000/svg">
<path fill-rule="evenodd" clip-rule="evenodd" d="M16 17C16 12.0294 20.0294 8 25 8H57.861C60.2105 8 62.4669 8.91881 64.1481 10.5601L77.2871 23.3876C79.0219 25.0812 80 27.4031 80 29.8275V79C80 83.9706 75.9706 88 71 88H25C20.0294 88 16 83.9706 16 79V17ZM25 14C23.3431 14 22 15.3431 22 17V79C22 80.6569 23.3431 82 25 82H71C72.6569 82 74 80.6569 74 79V31H67C62.0294 31 58 26.9706 58 22V14.0032C57.9538 14.0011 57.9074 14 57.861 14H25ZM64 18.8008L70.3497 25H67C65.3431 25 64 23.6569 64 22V18.8008ZM51 39C51 37.3431 49.6569 36 48 36C46.3431 36 45 37.3431 45 39V68C45 69.6569 46.3431 71 48 71C49.6569 71 51 69.6569 51 68V39ZM36 45C37.6569 45 39 46.3431 39 48V68C39 69.6569 37.6569 71 36 71C34.3431 71 33 69.6569 33 68V48C33 46.3431 34.3431 45 36 45ZM63 56C63 54.3431 61.6569 53 60 53C58.3431 53 57 54.3431 57 56V68C57 69.6569 58.3431 71 60 71C61.6569 71 63 69.6569 63 68V56Z" fill="#222222"/>
</svg>
