<svg width="96" height="96" viewBox="0 0 96 96" fill="none" xmlns="http://www.w3.org/2000/svg">
<path fill-rule="evenodd" clip-rule="evenodd" d="M48 14C29.2223 14 14 29.2223 14 48C14 66.0475 28.0615 80.8108 45.8263 81.9316C45.9486 81.8034 46.0841 81.6842 46.2323 81.5761C48.02 80.2724 49.648 78.6401 50.8038 76.967C51.9892 75.2512 52.502 73.7534 52.502 72.6667C52.502 70.8224 52.7425 69.0342 53.1939 67.3319C51.3464 67.7456 49.5105 68 47.9519 68C44.6202 68 41.0268 67.1792 37.9311 65.7843C34.8979 64.4175 31.9325 62.3101 30.3659 59.4357C29.5729 57.9809 30.1095 56.1588 31.5643 55.3659C33.0191 54.5729 34.8412 55.1095 35.6341 56.5643C36.3191 57.8209 37.954 59.2136 40.3961 60.314C42.7757 61.3863 45.5324 62 47.9519 62C50.2572 62 54.0548 61.0975 56.8198 59.9143C56.8493 59.9016 56.879 59.8895 56.9087 59.8779C60.7006 55.038 66.5959 51.9275 73.2189 51.9275C73.7351 51.9275 74.211 51.9451 74.6156 51.9605L74.6408 51.9614C75.0511 51.977 75.3708 51.9891 75.6767 51.9891C76.2653 51.9891 76.6655 51.9414 77.0571 51.8186C77.8569 51.5678 79.2055 50.8179 81.7789 47.9834C81.8493 47.9059 81.9229 47.8328 81.9992 47.7643C81.8725 29.0951 66.6991 14 48 14ZM79.4445 57.3362C79.2476 57.4125 79.0504 57.4816 78.8523 57.5437C77.6724 57.9137 76.6103 57.9891 75.6767 57.9891C75.2536 57.9891 74.83 57.973 74.4565 57.9588L74.3883 57.9562C73.9807 57.9407 73.6083 57.9275 73.2189 57.9275C65.0945 57.9275 58.502 64.5229 58.502 72.6667C58.502 75.4417 57.2919 78.1315 55.7404 80.3774C55.7301 80.3923 55.7198 80.4072 55.7094 80.422C60.6312 78.2884 64.685 74.1946 69.3515 69.4062L69.7371 69.0107C73.6063 65.0423 77.1681 61.3893 79.4445 57.3362ZM8 48C8 25.9086 25.9086 8 48 8C70.0914 8 88 25.9086 88 48C88 58.9345 80.6716 66.4193 74.5702 72.651L74.5697 72.6515C74.2591 72.9687 73.9516 73.2828 73.6485 73.5938L73.2776 73.9745C66.8042 80.6213 59.618 88 48 88C25.9086 88 8 70.0914 8 48ZM40 38.5C40 40.433 38.433 42 36.5 42C34.567 42 33 40.433 33 38.5C33 36.567 34.567 35 36.5 35C38.433 35 40 36.567 40 38.5ZM59.5 42C61.433 42 63 40.433 63 38.5C63 36.567 61.433 35 59.5 35C57.567 35 56 36.567 56 38.5C56 40.433 57.567 42 59.5 42Z" fill="#222222"/>
</svg>
