<svg width="96" height="96" viewBox="0 0 96 96" fill="none" xmlns="http://www.w3.org/2000/svg">
<path fill-rule="evenodd" clip-rule="evenodd" d="M28 8C29.6569 8 31 9.34315 31 11V16H65V11C65 9.34315 66.3431 8 68 8C69.6569 8 71 9.34315 71 11V16H79C83.9706 16 88 20.0294 88 25V37V75C88 79.9706 83.9706 84 79 84H17C12.0294 84 8 79.9706 8 75V37V25C8 20.0294 12.0294 16 17 16H25V11C25 9.34315 26.3431 8 28 8ZM82 25V34H14V25C14 23.3431 15.3431 22 17 22H25V27C25 28.6569 26.3431 30 28 30C29.6569 30 31 28.6569 31 27V22H65V27C65 28.6569 66.3431 30 68 30C69.6569 30 71 28.6569 71 27V22H79C80.6569 22 82 23.3431 82 25ZM82 40H14V75C14 76.6569 15.3431 78 17 78H79C80.6569 78 82 76.6569 82 75V40ZM60.0632 54.1779C61.266 53.0384 61.3174 51.1396 60.1779 49.9368C59.0384 48.734 57.1396 48.6826 55.9368 49.8221L45.2457 59.9505L40.9671 56.2349C39.7161 55.1485 37.8213 55.282 36.7349 56.5329C35.6485 57.7839 35.782 59.6787 37.0329 60.7651L43.3663 66.2651C44.532 67.2774 46.2757 67.2397 47.3966 66.1779L60.0632 54.1779Z" fill="#222222"/>
</svg>
