<svg width="96" height="96" viewBox="0 0 96 96" fill="none" xmlns="http://www.w3.org/2000/svg">
<path fill-rule="evenodd" clip-rule="evenodd" d="M59.9693 11C52.8756 11 46.3496 11.7511 41.5068 13.022C39.1077 13.6516 36.9508 14.4522 35.3224 15.4627C33.8555 16.373 31.9375 18.018 31.9375 20.5692V31.1718C18.4678 32.6925 8 44.1238 8 58C8 72.9117 20.0883 85 35 85C46.0306 85 55.5162 78.3853 59.7067 68.9062C59.7933 68.9137 59.8809 68.9175 59.9693 68.9175C67.0631 68.9175 73.589 68.1664 78.4317 66.8955C80.8308 66.2659 82.9876 65.4653 84.616 64.4548C86.0829 63.5444 88.0009 61.8994 88.0009 59.3483V20.5692C88.0009 18.0181 86.0829 16.3731 84.616 15.4627C82.9876 14.4522 80.8308 13.6516 78.4317 13.022C73.589 11.7511 67.0631 11 59.9693 11ZM48.1673 34.4228C45.0807 32.6953 41.6202 31.5564 37.9375 31.158V25.0926C39.1752 25.6126 40.6065 26.0487 42.1499 26.415C46.687 27.4917 52.8938 28.1251 59.9178 28.1251C66.9418 28.1251 73.1486 27.4917 77.6857 26.415C79.272 26.0385 80.7399 25.5883 82.0009 25.0491V31.8321C81.9039 31.894 81.7839 31.9642 81.6376 32.041C80.7107 32.5281 79.1722 33.0576 77.0185 33.5362C72.7597 34.4826 66.7304 35.0938 59.9684 35.0938C55.7412 35.0938 51.7848 34.8549 48.3609 34.44C48.2961 34.4322 48.2316 34.4265 48.1673 34.4228ZM60.1248 48.0937C59.1096 45.521 57.7106 43.1416 55.9985 41.0261C57.2943 41.0708 58.62 41.0938 59.9684 41.0938C67.0334 41.0938 73.5198 40.4601 78.3201 39.3934C79.6393 39.1002 80.8817 38.7635 82.0009 38.3775V44.8323C81.904 44.8942 81.7841 44.9643 81.638 45.041C80.711 45.5281 79.1726 46.0576 77.0188 46.5362C72.7928 47.4753 66.8235 48.0844 60.1248 48.0937ZM62 58C62 56.6689 61.9037 55.3603 61.7176 54.0808C68.1003 53.9855 73.9192 53.3714 78.3204 52.3934C79.6395 52.1002 80.8818 51.7636 82.0009 51.3777V58.961C81.901 59.0506 81.7306 59.1839 81.4522 59.3567C80.5476 59.9181 79.0391 60.5329 76.9087 61.092C73.0266 62.1108 67.6409 62.8011 61.5557 62.9041C61.8475 61.3138 62 59.6747 62 58ZM79.4409 19.6163C78.7255 19.348 77.882 19.0809 76.9087 18.8255C72.6925 17.719 66.7026 17 59.9693 17C53.2361 17 47.2462 17.719 43.0298 18.8255C42.0322 19.0873 41.1711 19.3613 40.4444 19.6363C41.2267 19.95 42.2527 20.2727 43.5353 20.5771C47.4812 21.5135 53.1942 22.1251 59.9178 22.1251C66.6413 22.1251 72.3544 21.5135 76.3003 20.5771C77.6102 20.2662 78.6525 19.9363 79.4409 19.6163ZM82.1263 58.8276C82.1272 58.8277 82.1221 58.8362 82.1084 58.8528C82.1185 58.8358 82.1254 58.8275 82.1263 58.8276ZM35 37C23.402 37 14 46.402 14 58C14 69.598 23.402 79 35 79C46.598 79 56 69.598 56 58C56 46.402 46.598 37 35 37ZM47.136 51.1924C47.5529 49.5889 46.591 47.951 44.9874 47.534C43.3839 47.1171 41.746 48.0791 41.3291 49.6826C41.0695 50.6808 40.8089 51.7284 40.5418 52.8021L40.5412 52.8043C40.4493 53.174 40.3565 53.5467 40.2628 53.9216C40.1488 54.3778 40.0304 54.8333 39.909 55.291C39.7208 55.585 39.5825 55.9139 39.506 56.266L37.8479 50.4143C37.4819 49.1224 36.302 48.2311 34.9592 48.2321C33.6165 48.2332 32.4379 49.1264 32.0739 50.4188L30.3928 56.3874C30.3214 55.9777 30.1668 55.5965 29.9472 55.262C29.4666 53.4297 29.0151 51.5942 28.5854 49.7549C28.2084 48.1415 26.5949 47.1392 24.9815 47.5162C23.3681 47.8931 22.3658 49.5066 22.7427 51.1201C22.9595 52.0479 23.1822 52.9766 23.4115 53.9062H21.875C20.2181 53.9062 18.875 55.2494 18.875 56.9062C18.875 58.5631 20.2181 59.9062 21.875 59.9062H24.9915C25.7853 62.7276 26.6502 65.5333 27.6881 68.2098C28.1547 69.4133 29.3388 70.1834 30.6281 70.1218C31.9174 70.0603 33.0229 69.181 33.3728 67.9386L34.9702 62.2672L36.5784 67.9431C36.9333 69.1954 38.0551 70.076 39.3558 70.1233C40.6566 70.1706 41.8394 69.3737 42.2842 68.1505C42.5192 67.5041 42.7735 66.7273 43.0219 65.9679L43.022 65.9679L43.0223 65.9669L43.0225 65.9662L43.0228 65.9652C43.203 65.4148 43.3801 64.8737 43.5446 64.3982C44.0588 62.9127 44.4792 61.3942 44.8778 59.9062H48C49.6569 59.9062 51 58.5631 51 56.9062C51 55.2494 49.6569 53.9062 48 53.9062H46.45C46.6856 52.9598 46.9103 52.0607 47.136 51.1924Z" fill="#222222"/>
</svg>
