<svg width="96" height="96" viewBox="0 0 96 96" fill="none" xmlns="http://www.w3.org/2000/svg">
<path fill-rule="evenodd" clip-rule="evenodd" d="M36.5961 19C37.3311 13.3575 42.1563 9 47.9992 9C53.8421 9 58.6672 13.3575 59.4022 19H36.5961ZM30.4992 25V31C30.4992 32.6569 31.8423 34 33.4992 34C35.156 34 36.4992 32.6569 36.4992 31V25H59.4992V31C59.4992 32.6569 60.8423 34 62.4992 34C64.156 34 65.4992 32.6569 65.4992 31V25H74.5C76.1569 25 77.5 26.3431 77.5 28V78C77.5 79.6569 76.1569 81 74.5 81H21.5C19.8431 81 18.5 79.6569 18.5 78V28C18.5 26.3431 19.8431 25 21.5 25H30.4992ZM30.5626 19C31.3234 10.0372 38.8395 3 47.9992 3C57.1589 3 64.6749 10.0372 65.4358 19H74.5C79.4706 19 83.5 23.0294 83.5 28V78C83.5 82.9706 79.4706 87 74.5 87H21.5C16.5294 87 12.5 82.9706 12.5 78V28C12.5 23.0294 16.5294 19 21.5 19H30.5626Z" fill="#222222"/>
<path d="M34.4977 44.5L40.7276 65.6765L48.0207 44.6131L55.2641 65.6765L61.4941 44.5" stroke="#222222" stroke-width="5.5" stroke-linecap="round" stroke-linejoin="round"/>
<path d="M34.4999 51.3823H30" stroke="#222222" stroke-width="5.5" stroke-linecap="round" stroke-linejoin="round"/>
<path d="M65.9999 51.3823H61.5" stroke="#222222" stroke-width="5.5" stroke-linecap="round" stroke-linejoin="round"/>
</svg>
