<svg width="96" height="96" viewBox="0 0 96 96" fill="none" xmlns="http://www.w3.org/2000/svg">
<path d="M71.7273 11H24.2727C21.3607 11 19 13.5485 19 16.6923V79.3077C19 82.4516 21.3607 85 24.2727 85H71.7273C74.6394 85 77 82.4516 77 79.3077V16.6923C77 13.5485 74.6394 11 71.7273 11Z" stroke="#222222" stroke-width="6" stroke-linecap="round" stroke-linejoin="round"/>
<path fill-rule="evenodd" clip-rule="evenodd" d="M48 44.793C50.2091 44.793 52 43.0021 52 40.793C52 38.5838 50.2091 36.793 48 36.793C45.7909 36.793 44 38.5838 44 40.793C44 43.0021 45.7909 44.793 48 44.793ZM52 55.0586C52 57.2677 50.2091 59.0586 48 59.0586C45.7909 59.0586 44 57.2677 44 55.0586C44 52.8495 45.7909 51.0586 48 51.0586C50.2091 51.0586 52 52.8495 52 55.0586ZM52 69.3223C52 71.5314 50.2091 73.3223 48 73.3223C45.7909 73.3223 44 71.5314 44 69.3223C44 67.1131 45.7909 65.3223 48 65.3223C50.2091 65.3223 52 67.1131 52 69.3223ZM67.6914 69.3223C67.6914 71.5314 65.9005 73.3223 63.6914 73.3223C61.4823 73.3223 59.6914 71.5314 59.6914 69.3223C59.6914 67.1131 61.4823 65.3223 63.6914 65.3223C65.9005 65.3223 67.6914 67.1131 67.6914 69.3223ZM63.6914 59.0586C65.9005 59.0586 67.6914 57.2677 67.6914 55.0586C67.6914 52.8495 65.9005 51.0586 63.6914 51.0586C61.4823 51.0586 59.6914 52.8495 59.6914 55.0586C59.6914 57.2677 61.4823 59.0586 63.6914 59.0586ZM67.6914 40.793C67.6914 43.0021 65.9005 44.793 63.6914 44.793C61.4823 44.793 59.6914 43.0021 59.6914 40.793C59.6914 38.5838 61.4823 36.793 63.6914 36.793C65.9005 36.793 67.6914 38.5838 67.6914 40.793ZM32.3105 73.3223C34.5197 73.3223 36.3105 71.5314 36.3105 69.3223C36.3105 67.1131 34.5197 65.3223 32.3105 65.3223C30.1014 65.3223 28.3105 67.1131 28.3105 69.3223C28.3105 71.5314 30.1014 73.3223 32.3105 73.3223ZM36.3105 55.0586C36.3105 57.2677 34.5197 59.0586 32.3105 59.0586C30.1014 59.0586 28.3105 57.2677 28.3105 55.0586C28.3105 52.8495 30.1014 51.0586 32.3105 51.0586C34.5197 51.0586 36.3105 52.8495 36.3105 55.0586ZM32.3105 44.793C34.5197 44.793 36.3105 43.0021 36.3105 40.793C36.3105 38.5838 34.5197 36.793 32.3105 36.793C30.1014 36.793 28.3105 38.5838 28.3105 40.793C28.3105 43.0021 30.1014 44.793 32.3105 44.793Z" fill="#222222"/>
<path d="M65.5 24.5664H30.5" stroke="#222222" stroke-width="6" stroke-linecap="round" stroke-linejoin="round"/>
</svg>
