<svg width="96" height="96" viewBox="0 0 96 96" fill="none" xmlns="http://www.w3.org/2000/svg">
<path fill-rule="evenodd" clip-rule="evenodd" d="M48 14C39.7157 14 33 20.7157 33 29C33 37.2843 39.7157 44 48 44C56.2843 44 63 37.2843 63 29C63 20.7157 56.2843 14 48 14ZM27 29C27 26.5456 27.4211 24.1895 28.1949 22H17C15.3431 22 14 23.3431 14 25V71C14 72.6569 15.3431 74 17 74H79C80.6574 74 82 72.6572 82 71.0009V70.9964V70.9919V70.9875V70.983V70.9785V70.9741V70.9696V70.9651V70.9607V70.9562V70.9517V70.9472V70.9427V70.9383V70.9338V70.9293V70.9248V70.9203V70.9158V70.9113V70.9068V70.9023V70.8978V70.8933V70.8888V70.8843V70.8798V70.8753V70.8708V70.8663V70.8618V70.8573V70.8528V70.8483V70.8437V70.8392V70.8347V70.8302V70.8256V70.8211V70.8166V70.8121V70.8075V70.803V70.7985V70.7939V70.7894V70.7849V70.7803V70.7758V70.7712V70.7667V70.7621V70.7576V70.753V70.7485V70.7439V70.7394V70.7348V70.7303V70.7257V70.7211V70.7166V70.712V70.7074V70.7029V70.6983V70.6937V70.6891V70.6846V70.68V70.6754V70.6708V70.6663V70.6617V70.6571V70.6525V70.6479V70.6433V70.6387V70.6341V70.6295V70.6249V70.6203V70.6157V70.6111V70.6065V70.6019V70.5973V70.5927V70.5881V70.5835V70.5789V70.5743V70.5696V70.565V70.5604V70.5558V70.5512V70.5465V70.5419V70.5373V70.5326V70.528V70.5234V70.5187V70.5141V70.5095V70.5048V70.5002V70.4955V70.4909V70.4863V70.4816V70.477V70.4723V70.4676V70.463V70.4583V70.4537V70.449V70.4444V70.4397V70.435V70.4304V70.4257V70.421V70.4163V70.4117V70.407V70.4023V70.3976V70.393V70.3883V70.3836V70.3789V70.3742V70.3695V70.3648V70.3602V70.3555V70.3508V70.3461V70.3414V70.3367V70.332V70.3273V70.3226V70.3179V70.3132V70.3084V70.3037V70.299V70.2943V70.2896V70.2849V70.2801V70.2754V70.2707V70.266V70.2612V70.2565V70.2518V70.2471V70.2423V70.2376V70.2329V70.2281V70.2234V70.2186V70.2139V70.2092V70.2044V70.1997V70.1949V70.1902V70.1854V70.1806V70.1759V70.1711V70.1664V70.1616V70.1569V70.1521V70.1473V70.1426V70.1378V70.133V70.1282V70.1235V70.1187V70.1139V70.1091V70.1044V70.0996V70.0948V70.09V70.0852V70.0804V70.0756V70.0708V70.066V70.0612V70.0564V70.0517V70.0468V70.042V70.0372V70.0324V70.0276V70.0228V70.018V70.0132V70.0084V70.0036V69.9987V69.9939V69.9891V69.9843V69.9795V69.9746V69.9698V69.965V69.9601V69.9553V69.9505V69.9456V69.9408V69.936V69.9311V69.9263V69.9214V69.9166V69.9118V69.9069V69.9021V69.8972V69.8923V69.8875V69.8826V69.8778V69.8729V69.868V69.8632V69.8583V69.8535V69.8486V69.8437V69.8388V69.834V69.8291V69.8242V69.8193V69.8145V69.8096V69.8047V69.7998V69.7949V69.79V69.7851V69.7802V69.7754V69.7705V69.7656V69.7607V69.7558V69.7509V69.746V69.7411V69.7361V69.7312V69.7263V69.7214V69.7165V69.7116V69.7067V69.7018V69.6968V69.6919V69.687V69.6821V69.6771V69.6722V69.6673V69.6623V69.6574V69.6525V69.6475V69.6426V69.6377V69.6327V69.6278V69.6228V69.6179V69.6129V69.608V69.603V69.5981V69.5931V69.5882V69.5832V69.5783V69.5733V69.5683V69.5634V69.5584V69.5534V69.5485V69.5435V69.5385V69.5335V69.5286V69.5236V69.5186V69.5136V69.5086V69.5037V69.4987V69.4937V69.4887V69.4837V69.4787V69.4737V69.4687V69.4637V69.4587V69.4537V69.4487V69.4437V69.4387V69.4337V69.4287V69.4237V69.4187V69.4136V69.4086V69.4036V69.3986V69.3936V69.3885V69.3835V69.3785V69.3735V69.3684V69.3634V69.3584V69.3533V69.3483V69.3433V69.3382V69.3332V69.3281V69.3231V69.3181V69.313V69.308V69.3029V69.2979V69.2928V69.2877V69.2827V69.2776V69.2726V69.2675V69.2624V69.2574V69.2523V69.2472V69.2422V69.2371V69.232V69.2269V69.2219V69.2168V69.2117V69.2066V69.2015V69.1965V69.1914V69.1863V69.1812V69.1761V69.171V69.1659V69.1608V69.1557V69.1506V69.1455V69.1404V69.1353V69.1302V69.1251V69.12V69.1149V69.1097V69.1046V69.0995V69.0944V69.0893V69.0842V69.079V69.0739V69.0688V69.0636V69.0585V69.0534V69.0483V69.0431V69.038V69.0328V69.0277V69.0226V69.0174V69.0123V69.0071V69.002V68.9968V68.9917V68.9865V68.9814V68.9762V68.971V68.9659V68.9607V68.9556V68.9504V68.9452V68.9401V68.9349V68.9297V68.9245V68.9194V68.9142V68.909V68.9038V68.8987V68.8935V68.8883V68.8831V68.8779V68.8727V68.8675V68.8623V68.8571V68.8519V68.8467V68.8415V68.8363V68.8311V68.8259V68.8207V68.8155V68.8103V68.8051V68.7999V68.7947V68.7895V68.7842V68.779V68.7738V68.7686V68.7633V68.7581V68.7529V68.7477V68.7424V68.7372V68.732V68.7267V68.7215V68.7163V68.711V68.7058V68.7005V68.6953V68.69V68.6848V68.6795V68.6743V68.669V68.6638V68.6585V68.6532V68.648V68.6427V68.6375V68.6322V68.6269V68.6217V68.6164V68.6111V68.6058V68.6006V68.5953V68.59V68.5847V68.5794V68.5742V68.5689V68.5636V68.5583V68.553V68.5477V68.5424V68.5371V68.5318V68.5265V68.5212V68.5159V68.5106V68.5053V68.5V25C82 23.3431 80.6569 22 79 22H67.8051C68.5789 24.1895 69 26.5456 69 29C69 40.598 59.598 50 48 50C36.402 50 27 40.598 27 29ZM17 16H31.5065C35.3522 11.1275 41.3109 8 48 8C54.6891 8 60.6478 11.1275 64.4935 16L64.5 16H79C83.9706 16 88 20.0294 88 25V68.5V68.5053V68.5106V68.5159V68.5212V68.5265V68.5318V68.5371V68.5424V68.5477V68.553V68.5583V68.5636V68.5689V68.5742V68.5794V68.5847V68.59V68.5953V68.6006V68.6058V68.6111V68.6164V68.6217V68.6269V68.6322V68.6375V68.6427V68.648V68.6532V68.6585V68.6638V68.669V68.6743V68.6795V68.6848V68.69V68.6953V68.7005V68.7058V68.711V68.7163V68.7215V68.7267V68.732V68.7372V68.7424V68.7477V68.7529V68.7581V68.7633V68.7686V68.7738V68.779V68.7842V68.7895V68.7947V68.7999V68.8051V68.8103V68.8155V68.8207V68.8259V68.8311V68.8363V68.8415V68.8467V68.8519V68.8571V68.8623V68.8675V68.8727V68.8779V68.8831V68.8883V68.8935V68.8987V68.9038V68.909V68.9142V68.9194V68.9245V68.9297V68.9349V68.9401V68.9452V68.9504V68.9556V68.9607V68.9659V68.971V68.9762V68.9814V68.9865V68.9917V68.9968V69.002V69.0071V69.0123V69.0174V69.0226V69.0277V69.0328V69.038V69.0431V69.0483V69.0534V69.0585V69.0636V69.0688V69.0739V69.079V69.0842V69.0893V69.0944V69.0995V69.1046V69.1097V69.1149V69.12V69.1251V69.1302V69.1353V69.1404V69.1455V69.1506V69.1557V69.1608V69.1659V69.171V69.1761V69.1812V69.1863V69.1914V69.1965V69.2015V69.2066V69.2117V69.2168V69.2219V69.2269V69.232V69.2371V69.2422V69.2472V69.2523V69.2574V69.2624V69.2675V69.2726V69.2776V69.2827V69.2877V69.2928V69.2979V69.3029V69.308V69.313V69.3181V69.3231V69.3281V69.3332V69.3382V69.3433V69.3483V69.3533V69.3584V69.3634V69.3684V69.3735V69.3785V69.3835V69.3885V69.3936V69.3986V69.4036V69.4086V69.4136V69.4187V69.4237V69.4287V69.4337V69.4387V69.4437V69.4487V69.4537V69.4587V69.4637V69.4687V69.4737V69.4787V69.4837V69.4887V69.4937V69.4987V69.5037V69.5086V69.5136V69.5186V69.5236V69.5286V69.5335V69.5385V69.5435V69.5485V69.5534V69.5584V69.5634V69.5683V69.5733V69.5783V69.5832V69.5882V69.5931V69.5981V69.603V69.608V69.6129V69.6179V69.6228V69.6278V69.6327V69.6377V69.6426V69.6475V69.6525V69.6574V69.6623V69.6673V69.6722V69.6771V69.6821V69.687V69.6919V69.6968V69.7018V69.7067V69.7116V69.7165V69.7214V69.7263V69.7312V69.7361V69.7411V69.746V69.7509V69.7558V69.7607V69.7656V69.7705V69.7754V69.7802V69.7851V69.79V69.7949V69.7998V69.8047V69.8096V69.8145V69.8193V69.8242V69.8291V69.834V69.8388V69.8437V69.8486V69.8535V69.8583V69.8632V69.868V69.8729V69.8778V69.8826V69.8875V69.8923V69.8972V69.9021V69.9069V69.9118V69.9166V69.9214V69.9263V69.9311V69.936V69.9408V69.9456V69.9505V69.9553V69.9601V69.965V69.9698V69.9746V69.9795V69.9843V69.9891V69.9939V69.9987V70.0036V70.0084V70.0132V70.018V70.0228V70.0276V70.0324V70.0372V70.042V70.0468V70.0517V70.0564V70.0612V70.066V70.0708V70.0756V70.0804V70.0852V70.09V70.0948V70.0996V70.1044V70.1091V70.1139V70.1187V70.1235V70.1282V70.133V70.1378V70.1426V70.1473V70.1521V70.1569V70.1616V70.1664V70.1711V70.1759V70.1806V70.1854V70.1902V70.1949V70.1997V70.2044V70.2092V70.2139V70.2186V70.2234V70.2281V70.2329V70.2376V70.2423V70.2471V70.2518V70.2565V70.2612V70.266V70.2707V70.2754V70.2801V70.2849V70.2896V70.2943V70.299V70.3037V70.3084V70.3132V70.3179V70.3226V70.3273V70.332V70.3367V70.3414V70.3461V70.3508V70.3555V70.3602V70.3648V70.3695V70.3742V70.3789V70.3836V70.3883V70.393V70.3976V70.4023V70.407V70.4117V70.4163V70.421V70.4257V70.4304V70.435V70.4397V70.4444V70.449V70.4537V70.4583V70.463V70.4676V70.4723V70.477V70.4816V70.4863V70.4909V70.4955V70.5002V70.5048V70.5095V70.5141V70.5187V70.5234V70.528V70.5326V70.5373V70.5419V70.5465V70.5512V70.5558V70.5604V70.565V70.5696V70.5743V70.5789V70.5835V70.5881V70.5927V70.5973V70.6019V70.6065V70.6111V70.6157V70.6203V70.6249V70.6295V70.6341V70.6387V70.6433V70.6479V70.6525V70.6571V70.6617V70.6663V70.6708V70.6754V70.68V70.6846V70.6891V70.6937V70.6983V70.7029V70.7074V70.712V70.7166V70.7211V70.7257V70.7303V70.7348V70.7394V70.7439V70.7485V70.753V70.7576V70.7621V70.7667V70.7712V70.7758V70.7803V70.7849V70.7894V70.7939V70.7985V70.803V70.8075V70.8121V70.8166V70.8211V70.8256V70.8302V70.8347V70.8392V70.8437V70.8483V70.8528V70.8573V70.8618V70.8663V70.8708V70.8753V70.8798V70.8843V70.8888V70.8933V70.8978V70.9023V70.9068V70.9113V70.9158V70.9203V70.9248V70.9293V70.9338V70.9383V70.9427V70.9472V70.9517V70.9562V70.9607V70.9651V70.9696V70.9741V70.9785V70.983V70.9875V70.9919V70.9964V71.0009C88 75.972 83.97 80 79 80H17C12.0294 80 8 75.9706 8 71V25C8 20.0294 12.0294 16 17 16ZM30 58C28.3431 58 27 59.3431 27 61C27 62.6569 28.3431 64 30 64H66C67.6569 64 69 62.6569 69 61C69 59.3431 67.6569 58 66 58H30ZM50.2038 17.841C49.7721 17.0158 48.9173 16.499 47.9859 16.5C47.0545 16.501 46.2009 17.0198 45.771 17.846L43.282 22.6293L37.6565 23.4095C36.6982 23.5425 35.9025 24.2165 35.6138 25.14C35.3252 26.0635 35.5953 27.0706 36.3074 27.7257L40.3032 31.4016L39.3808 36.56C39.2144 37.491 39.5876 38.4363 40.3451 39.0025C41.1027 39.5687 42.115 39.6589 42.9607 39.2356L48.0172 36.7048L53.094 39.2188C53.9418 39.6387 54.9541 39.5439 55.7094 38.974C56.4646 38.4041 56.8333 37.4566 56.6621 36.5261L55.7135 31.3708L59.6968 27.6896C60.4077 27.0326 60.6754 26.0242 60.3841 25.1011C60.0927 24.1779 59.2946 23.506 58.3353 23.3761L52.7008 22.6135L50.2038 17.841ZM47.1217 26.0823L47.9948 24.4044L48.8696 26.0765C49.2454 26.7947 49.9461 27.2862 50.7494 27.3949L52.4061 27.6192L51.3088 28.6332C50.6794 29.215 50.3918 30.0787 50.5469 30.9216L50.8418 32.5241L49.1207 31.6718C48.4183 31.3239 47.5933 31.3257 46.8923 31.6765L45.18 32.5335L45.4666 30.9308C45.6171 30.0894 45.3272 29.2295 44.6982 28.6509L43.5929 27.634L45.2474 27.4046C46.0494 27.2933 46.7479 26.8005 47.1217 26.0823Z" fill="#222222"/>
</svg>
